<svg width="33" height="38" viewBox="0 0 33 38" fill="none" xmlns="http://www.w3.org/2000/svg">
<path d="M19.6731 30.4H13.3269C13.1586 30.4 12.9972 30.3333 12.8782 30.2145C12.7592 30.0957 12.6923 29.9346 12.6923 29.7667V28.4854C12.695 28.1326 12.5976 27.7861 12.4114 27.4861C12.2253 27.1861 11.9579 26.9448 11.6401 26.79C9.93246 25.9881 8.45036 24.7766 7.32612 23.2638C6.20187 21.751 5.47047 19.9839 5.19721 18.1203C4.92395 16.2567 5.11734 14.3546 5.7601 12.5837C6.40286 10.8129 7.475 9.22839 8.88081 7.97177C10.0795 6.89348 11.495 6.08294 13.0328 5.59429C14.5705 5.10565 16.195 4.95017 17.7978 5.13823C20.3316 5.4349 22.6941 6.5662 24.5113 8.3532C26.3286 10.1402 27.497 12.4809 27.8317 15.0049C28.1378 17.3961 27.6786 19.8225 26.5198 21.9376C25.361 24.0526 23.5618 25.7479 21.3796 26.7811C21.0582 26.9355 20.7871 27.1773 20.5974 27.4787C20.4078 27.7801 20.3073 28.1289 20.3077 28.4848V29.7667C20.3077 29.9346 20.2408 30.0957 20.1218 30.2145C20.0028 30.3333 19.8414 30.4 19.6731 30.4ZM13.9615 29.1333H19.0385V28.4848C19.0386 27.889 19.2074 27.3053 19.5255 26.801C19.8436 26.2968 20.298 25.8925 20.8363 25.6348C22.833 24.6936 24.4681 23.1288 25.4939 21.1772C26.5196 19.2257 26.8802 16.9937 26.5211 14.8192C26.1619 12.6448 25.1026 10.6464 23.5035 9.12662C21.9044 7.60684 19.8526 6.64848 17.6588 6.39667C16.2367 6.23363 14.7961 6.37252 13.4316 6.80422C12.0671 7.23591 10.8094 7.95066 9.74118 8.90157C8.67293 9.85248 7.81821 11.0181 7.23311 12.3218C6.64801 13.6256 6.34575 15.0381 6.34615 16.4667C6.3517 18.39 6.90257 20.2725 7.93506 21.8966C8.96756 23.5207 10.4395 24.82 12.1808 25.6443C12.7161 25.9018 13.1675 26.3052 13.4826 26.808C13.7977 27.3108 13.9638 27.8924 13.9615 28.4854V29.1333Z" fill="#3E66F3"/>
<path d="M20.9423 34.8333H12.0577C11.8894 34.8333 11.728 34.7666 11.609 34.6478C11.4899 34.5291 11.4231 34.368 11.4231 34.2V29.7667C11.4231 29.5987 11.4899 29.4376 11.609 29.3188C11.728 29.2001 11.8894 29.1333 12.0577 29.1333H20.9423C21.1106 29.1333 21.272 29.2001 21.391 29.3188C21.5101 29.4376 21.5769 29.5987 21.5769 29.7667V34.2C21.5769 34.368 21.5101 34.5291 21.391 34.6478C21.272 34.7666 21.1106 34.8333 20.9423 34.8333ZM12.6923 33.5667H20.3077V30.4H12.6923V33.5667Z" fill="#3E66F3"/>
<path d="M16.5 38C15.4904 37.999 14.5225 37.5983 13.8087 36.8859C13.0948 36.1735 12.6933 35.2075 12.6923 34.2C12.6923 34.032 12.7592 33.8709 12.8782 33.7522C12.9972 33.6334 13.1586 33.5667 13.3269 33.5667C13.4952 33.5667 13.6567 33.6334 13.7757 33.7522C13.8947 33.8709 13.9615 34.032 13.9615 34.2C13.9615 34.8719 14.229 35.5162 14.705 35.9913C15.1811 36.4664 15.8268 36.7333 16.5 36.7333C17.1732 36.7333 17.8189 36.4664 18.295 35.9913C18.771 35.5162 19.0385 34.8719 19.0385 34.2C19.0385 34.032 19.1053 33.8709 19.2243 33.7522C19.3433 33.6334 19.5048 33.5667 19.6731 33.5667C19.8414 33.5667 20.0028 33.6334 20.1218 33.7522C20.2408 33.8709 20.3077 34.032 20.3077 34.2C20.3067 35.2075 19.9052 36.1735 19.1913 36.8859C18.4775 37.5983 17.5096 37.999 16.5 38Z" fill="#3E66F3"/>
<path d="M16.5 3.16667C16.3317 3.16667 16.1703 3.09994 16.0513 2.98117C15.9322 2.86239 15.8654 2.7013 15.8654 2.53333V0.633333C15.8654 0.465363 15.9322 0.304272 16.0513 0.185499C16.1703 0.066726 16.3317 0 16.5 0C16.6683 0 16.8297 0.066726 16.9487 0.185499C17.0678 0.304272 17.1346 0.465363 17.1346 0.633333V2.53333C17.1346 2.7013 17.0678 2.86239 16.9487 2.98117C16.8297 3.09994 16.6683 3.16667 16.5 3.16667Z" fill="#3E66F3"/>
<path d="M9.51923 5.0331C9.40773 5.03321 9.29816 5.004 9.20157 4.9484C9.10498 4.89281 9.02477 4.8128 8.96902 4.71643L8.0171 3.06977C7.97477 2.99771 7.94714 2.91801 7.9358 2.83526C7.92447 2.75251 7.92964 2.66833 7.95103 2.58758C7.97243 2.50683 8.00961 2.4311 8.06045 2.36475C8.11129 2.2984 8.17477 2.24275 8.24725 2.20098C8.31973 2.15922 8.39977 2.13218 8.48277 2.12141C8.56576 2.11065 8.65007 2.11637 8.73084 2.13825C8.81161 2.16014 8.88725 2.19775 8.95339 2.24892C9.01954 2.3001 9.07488 2.36382 9.11625 2.43643L10.0682 4.0831C10.1238 4.17933 10.1532 4.28849 10.1532 4.3996C10.1532 4.51072 10.124 4.61989 10.0683 4.71615C10.0127 4.81241 9.93269 4.89237 9.83631 4.94801C9.73993 5.00364 9.63057 5.03299 9.51923 5.0331Z" fill="#3E66F3"/>
<path d="M4.40804 10.1333C4.29664 10.1333 4.1872 10.1041 4.09073 10.0485L2.44073 9.09847C2.29616 9.01388 2.19098 8.87567 2.14815 8.71398C2.10531 8.55229 2.1283 8.38026 2.21209 8.23543C2.29589 8.09059 2.43368 7.98471 2.59541 7.94089C2.75714 7.89707 2.92966 7.91887 3.07535 8.00153L4.72535 8.95153C4.84632 9.02125 4.94087 9.12885 4.99433 9.25765C5.04778 9.38645 5.05716 9.52926 5.021 9.66392C4.98484 9.79858 4.90518 9.91758 4.79435 10.0024C4.68352 10.0873 4.54773 10.1333 4.40804 10.1333Z" fill="#3E66F3"/>
<path d="M2.53846 17.1H0.634615C0.466305 17.1 0.304888 17.0333 0.185875 16.9145C0.0668612 16.7957 0 16.6346 0 16.4667C0 16.2987 0.0668612 16.1376 0.185875 16.0188C0.304888 15.9001 0.466305 15.8333 0.634615 15.8333H2.53846C2.70677 15.8333 2.86819 15.9001 2.9872 16.0188C3.10622 16.1376 3.17308 16.2987 3.17308 16.4667C3.17308 16.6346 3.10622 16.7957 2.9872 16.9145C2.86819 17.0333 2.70677 17.1 2.53846 17.1Z" fill="#3E66F3"/>
<path d="M2.76058 25.0167C2.62088 25.0167 2.48509 24.9707 2.37426 24.8858C2.26344 24.8009 2.18377 24.6819 2.14761 24.5473C2.11146 24.4126 2.12083 24.2698 2.17429 24.141C2.22775 24.0122 2.32229 23.9046 2.44327 23.8349L4.09327 22.8849C4.16547 22.8426 4.24533 22.8151 4.32825 22.8037C4.41117 22.7924 4.49552 22.7976 4.57643 22.8189C4.65734 22.8403 4.73323 22.8774 4.79971 22.9281C4.86619 22.9789 4.92196 23.0422 4.96381 23.1146C5.00566 23.1869 5.03276 23.2668 5.04354 23.3496C5.05433 23.4324 5.0486 23.5166 5.02667 23.5972C5.00474 23.6778 4.96705 23.7533 4.91577 23.8193C4.86449 23.8853 4.80064 23.9405 4.72788 23.9818L3.07788 24.9318C2.98141 24.9874 2.87198 25.0167 2.76058 25.0167Z" fill="#3E66F3"/>
<path d="M30.2394 25.0167C30.128 25.0167 30.0186 24.9874 29.9221 24.9318L28.2721 23.9818C28.1994 23.9405 28.1355 23.8853 28.0842 23.8193C28.0329 23.7533 27.9953 23.6778 27.9733 23.5972C27.9514 23.5166 27.9457 23.4324 27.9565 23.3496C27.9672 23.2668 27.9943 23.1869 28.0362 23.1146C28.078 23.0422 28.1338 22.9789 28.2003 22.9281C28.2668 22.8774 28.3427 22.8403 28.4236 22.8189C28.5045 22.7976 28.5888 22.7924 28.6717 22.8037C28.7547 22.8151 28.8345 22.8426 28.9067 22.8849L30.5567 23.8349C30.6777 23.9046 30.7723 24.0122 30.8257 24.141C30.8792 24.2698 30.8885 24.4126 30.8524 24.5473C30.8162 24.6819 30.7366 24.8009 30.6257 24.8858C30.5149 24.9707 30.3791 25.0167 30.2394 25.0167Z" fill="#3E66F3"/>
<path d="M32.3654 17.1H30.4615C30.2932 17.1 30.1318 17.0333 30.0128 16.9145C29.8938 16.7957 29.8269 16.6346 29.8269 16.4667C29.8269 16.2987 29.8938 16.1376 30.0128 16.0188C30.1318 15.9001 30.2932 15.8333 30.4615 15.8333H32.3654C32.5337 15.8333 32.6951 15.9001 32.8141 16.0188C32.9331 16.1376 33 16.2987 33 16.4667C33 16.6346 32.9331 16.7957 32.8141 16.9145C32.6951 17.0333 32.5337 17.1 32.3654 17.1Z" fill="#3E66F3"/>
<path d="M28.592 10.1333C28.4523 10.1333 28.3165 10.0873 28.2056 10.0024C28.0948 9.91758 28.0152 9.79858 27.979 9.66392C27.9428 9.52926 27.9522 9.38645 28.0057 9.25765C28.0591 9.12885 28.1537 9.02125 28.2747 8.95153L29.9247 8.00153C30.0703 7.91887 30.2429 7.89707 30.4046 7.94089C30.5663 7.98471 30.7041 8.09059 30.7879 8.23543C30.8717 8.38026 30.8947 8.55229 30.8518 8.71398C30.809 8.87567 30.7038 9.01388 30.5593 9.09847L28.9093 10.0485C28.8128 10.1041 28.7034 10.1333 28.592 10.1333Z" fill="#3E66F3"/>
<path d="M23.4808 5.0331C23.3694 5.03299 23.2601 5.00364 23.1637 4.94801C23.0673 4.89237 22.9873 4.81241 22.9317 4.71615C22.876 4.61989 22.8468 4.51072 22.8468 4.3996C22.8468 4.28849 22.8762 4.17933 22.9318 4.0831L23.8837 2.43643C23.9251 2.36382 23.9805 2.3001 24.0466 2.24892C24.1128 2.19775 24.1884 2.16014 24.2692 2.13825C24.3499 2.11637 24.4342 2.11065 24.5172 2.12141C24.6002 2.13218 24.6803 2.15922 24.7527 2.20098C24.8252 2.24275 24.8887 2.2984 24.9396 2.36475C24.9904 2.4311 25.0276 2.50683 25.049 2.58758C25.0704 2.66833 25.0755 2.75251 25.0642 2.83526C25.0529 2.91801 25.0252 2.99771 24.9829 3.06977L24.031 4.71643C23.9752 4.8128 23.895 4.89281 23.7984 4.9484C23.7018 5.004 23.5923 5.03321 23.4808 5.0331Z" fill="#3E66F3"/>
<path d="M15.2308 23.4333C14.837 23.433 14.453 23.3111 14.1315 23.0843C13.8099 22.8575 13.5666 22.537 13.4348 22.1667C13.0929 22.1794 12.752 22.1234 12.4322 22.002C12.1125 21.8805 11.8205 21.6961 11.5736 21.4598C11.3267 21.2234 11.1299 20.94 10.9951 20.6262C10.8602 20.3124 10.7899 19.9748 10.7885 19.6333C10.7884 19.547 10.793 19.4607 10.8024 19.3749C10.233 19.1301 9.748 18.7242 9.4072 18.2074C9.0664 17.6905 8.88478 17.0854 8.88478 16.4667C8.88478 15.848 9.0664 15.2428 9.4072 14.7259C9.748 14.2091 10.233 13.8032 10.8024 13.5584C10.793 13.4726 10.7884 13.3863 10.7885 13.3C10.7897 12.9585 10.8597 12.6207 10.9945 12.3068C11.1293 11.9929 11.326 11.7093 11.573 11.4729C11.8199 11.2365 12.1121 11.0522 12.4319 10.9308C12.7518 10.8095 13.0929 10.7537 13.4348 10.7667C13.584 10.3434 13.8785 9.98647 14.2661 9.75912C14.6537 9.53177 15.1095 9.44866 15.5526 9.52452C15.9958 9.60037 16.3977 9.8303 16.6873 10.1736C16.9768 10.5168 17.1353 10.9513 17.1346 11.4V21.5333C17.1346 22.0372 16.934 22.5205 16.577 22.8768C16.2199 23.2332 15.7357 23.4333 15.2308 23.4333ZM13.9736 20.7803C14.0621 20.7799 14.1497 20.798 14.2307 20.8334C14.3118 20.8688 14.3845 20.9208 14.4443 20.9859C14.5041 21.051 14.5495 21.1279 14.5778 21.2116C14.606 21.2953 14.6164 21.384 14.6082 21.4719C14.6082 21.4808 14.6012 21.5321 14.6 21.5409C14.6133 21.6999 14.6862 21.848 14.8041 21.9556C14.9221 22.0633 15.0764 22.1225 15.2362 22.1216C15.396 22.1206 15.5496 22.0595 15.6663 21.9505C15.7829 21.8414 15.854 21.6924 15.8654 21.5333V11.4C15.8654 11.232 15.7985 11.0709 15.6795 10.9522C15.5605 10.8334 15.3991 10.7667 15.2308 10.7667C15.0625 10.7667 14.901 10.8334 14.782 10.9522C14.663 11.0709 14.5962 11.232 14.5962 11.4C14.6071 11.5104 14.5911 11.6217 14.5494 11.7245C14.5077 11.8274 14.4417 11.9185 14.3569 11.9903C14.276 12.0605 14.1784 12.109 14.0735 12.1312C13.9686 12.1534 13.8597 12.1484 13.7572 12.1169C13.6198 12.064 13.4742 12.0357 13.3269 12.0333C13.1204 12.0317 12.9166 12.0807 12.7336 12.1761C12.5505 12.2716 12.3938 12.4105 12.2773 12.5806C12.1607 12.7508 12.0879 12.9469 12.0652 13.1518C12.0425 13.3566 12.0707 13.5639 12.1472 13.7554C12.1805 13.8414 12.1946 13.9338 12.1885 14.0258C12.1823 14.1179 12.1561 14.2075 12.1116 14.2884C12.0671 14.3693 12.0054 14.4396 11.9309 14.4942C11.8563 14.5488 11.7708 14.5865 11.6801 14.6047C11.2497 14.6919 10.8628 14.9249 10.5849 15.2642C10.3069 15.6036 10.1551 16.0284 10.1551 16.4667C10.1551 16.9049 10.3069 17.3297 10.5849 17.6691C10.8628 18.0084 11.2497 18.2414 11.6801 18.3287C11.7708 18.3468 11.8563 18.3845 11.9309 18.4392C12.0054 18.4938 12.0671 18.564 12.1116 18.6449C12.1561 18.7258 12.1823 18.8154 12.1885 18.9075C12.1946 18.9996 12.1805 19.0919 12.1472 19.178C12.0557 19.4039 12.0322 19.6516 12.0796 19.8907C12.1271 20.1298 12.2434 20.3499 12.4142 20.524C12.5851 20.6981 12.8032 20.8187 13.0418 20.871C13.2803 20.9232 13.5289 20.9049 13.7572 20.8183C13.8265 20.7929 13.8998 20.7801 13.9736 20.7803Z" fill="#3E66F3"/>
<path d="M17.7692 23.4333C17.2643 23.4333 16.78 23.2332 16.423 22.8768C16.066 22.5205 15.8654 22.0372 15.8654 21.5333V11.4C15.8647 10.9513 16.0232 10.5168 16.3127 10.1736C16.6023 9.8303 17.0042 9.60037 17.4474 9.52452C17.8905 9.44866 18.3463 9.53177 18.7339 9.75912C19.1215 9.98647 19.416 10.3434 19.5652 10.7667C19.9071 10.7539 20.248 10.8099 20.5678 10.9314C20.8875 11.0528 21.1795 11.2372 21.4264 11.4735C21.6733 11.7099 21.8701 11.9934 22.0049 12.3072C22.1398 12.6209 22.2101 12.9586 22.2115 13.3C22.2116 13.3863 22.207 13.4726 22.1976 13.5584C22.767 13.8032 23.252 14.2091 23.5928 14.7259C23.9336 15.2428 24.1152 15.848 24.1152 16.4667C24.1152 17.0854 23.9336 17.6905 23.5928 18.2074C23.252 18.7242 22.767 19.1301 22.1976 19.3749C22.207 19.4607 22.2116 19.547 22.2115 19.6333C22.2099 19.9747 22.1395 20.3123 22.0046 20.626C21.8696 20.9397 21.6729 21.2231 21.426 21.4594C21.1792 21.6957 20.8872 21.8801 20.5676 22.0016C20.2479 22.1231 19.907 22.1792 19.5652 22.1667C19.4334 22.537 19.1901 22.8575 18.8685 23.0843C18.547 23.3111 18.163 23.433 17.7692 23.4333ZM17.7692 10.7667C17.6009 10.7667 17.4395 10.8334 17.3205 10.9522C17.2015 11.0709 17.1346 11.232 17.1346 11.4V21.5333C17.1346 21.7013 17.2015 21.8624 17.3205 21.9812C17.4395 22.0999 17.6009 22.1667 17.7692 22.1667C17.9375 22.1667 18.099 22.0999 18.218 21.9812C18.337 21.8624 18.4038 21.7013 18.4038 21.5333C18.3929 21.423 18.4089 21.3116 18.4506 21.2088C18.4923 21.106 18.5583 21.0148 18.6431 20.9431C18.7242 20.8731 18.8217 20.8248 18.9266 20.8027C19.0315 20.7805 19.1403 20.7852 19.2428 20.8164C19.3802 20.8692 19.5258 20.8975 19.6731 20.9C19.8796 20.9017 20.0834 20.8526 20.2664 20.7572C20.4494 20.6618 20.6062 20.5228 20.7227 20.3527C20.8393 20.1826 20.9121 19.9864 20.9348 19.7816C20.9575 19.5767 20.9293 19.3694 20.8528 19.178C20.8195 19.0919 20.8054 18.9997 20.8115 18.9076C20.8176 18.8156 20.8438 18.726 20.8882 18.6451C20.9326 18.5642 20.9942 18.494 21.0687 18.4393C21.1431 18.3847 21.2287 18.3469 21.3193 18.3287C21.7496 18.2414 22.1366 18.0084 22.4145 17.6691C22.6924 17.3297 22.8443 16.9049 22.8443 16.4667C22.8443 16.0284 22.6924 15.6036 22.4145 15.2642C22.1366 14.9249 21.7496 14.6919 21.3193 14.6047C21.2286 14.5865 21.143 14.5488 21.0685 14.4942C20.994 14.4396 20.9323 14.3693 20.8878 14.2884C20.8433 14.2075 20.8171 14.1179 20.8109 14.0258C20.8048 13.9338 20.8189 13.8414 20.8522 13.7554C20.9437 13.5294 20.9672 13.2817 20.9197 13.0426C20.8723 12.8035 20.756 12.5834 20.5851 12.4093C20.4142 12.2352 20.1961 12.1146 19.9576 12.0624C19.7191 12.0101 19.4704 12.0284 19.2422 12.115C19.1418 12.152 19.0335 12.1627 18.9278 12.1462C18.8221 12.1296 18.7223 12.0864 18.638 12.0207C18.5534 11.9555 18.4866 11.8701 18.4439 11.7723C18.4012 11.6746 18.3839 11.5676 18.3937 11.4614C18.3937 11.4526 18.4007 11.3981 18.4019 11.3924C18.3999 11.2261 18.3325 11.0672 18.2141 10.9501C18.0957 10.8331 17.9359 10.7672 17.7692 10.7667Z" fill="#3E66F3"/>
</svg>
