<svg width="34" height="30" viewBox="0 0 34 30" fill="none" xmlns="http://www.w3.org/2000/svg">
<path d="M14.7414 10.8621H0.517241C0.206897 10.8621 0 10.6034 0 10.3448V7.03448C0 5.58621 1.18965 4.34483 2.68966 4.34483H16.5C16.8103 4.34483 17.0172 4.60345 17.0172 4.86207C17.0172 5.12069 16.7586 5.37931 16.5 5.37931H2.63793C1.75862 5.37931 1.03448 6.10345 1.03448 6.98276V9.77586H14.7414C15.0517 9.77586 15.2586 10.0345 15.2586 10.2931C15.2586 10.5517 15.0517 10.8621 14.7414 10.8621Z" fill="#3E66F3"/>
<path d="M2.63793 30C1.91379 30 1.24138 29.7414 0.775862 29.2241C0.258621 28.7069 0 28.0345 0 27.3103V10.2931C0 9.98276 0.258621 9.77586 0.517241 9.77586H14.7414C15.0517 9.77586 15.2586 10.0345 15.2586 10.2931C15.2586 10.5517 15 10.8103 14.7414 10.8103H1.03448V27.2586C1.03448 27.6724 1.18966 28.0862 1.5 28.3966C1.81034 28.7069 2.22414 28.8621 2.63793 28.8621H26.8966C27.7759 28.8621 28.5 28.1379 28.5 27.2586V16.9138C28.5 16.6034 28.7586 16.3966 29.0172 16.3966C29.2759 16.3966 29.5345 16.6552 29.5345 16.9138V27.2586C29.5345 28.7069 28.3448 29.9483 26.8448 29.9483H2.63793V30Z" fill="#3E66F3"/>
<path d="M4.65517 8.12069H3.51724C3.2069 8.12069 3 7.86207 3 7.60345C3 7.34483 3.25862 7.08621 3.51724 7.08621H4.65517C4.96552 7.08621 5.17241 7.34483 5.17241 7.60345C5.17241 7.86207 4.96552 8.12069 4.65517 8.12069Z" fill="#3E66F3"/>
<path d="M7.18965 8.12069H6.05172C5.74138 8.12069 5.53448 7.86207 5.53448 7.60345C5.53448 7.34483 5.7931 7.08621 6.05172 7.08621H7.18965C7.5 7.08621 7.7069 7.34483 7.7069 7.60345C7.7069 7.86207 7.5 8.12069 7.18965 8.12069Z" fill="#3E66F3"/>
<path d="M9.72414 8.12069H8.58621C8.27586 8.12069 8.06896 7.86207 8.06896 7.60345C8.06896 7.34483 8.32759 7.08621 8.58621 7.08621H9.72414C10.0345 7.08621 10.2414 7.34483 10.2414 7.60345C10.2414 7.86207 10.0345 8.12069 9.72414 8.12069Z" fill="#3E66F3"/>
<path d="M12.7241 20.2241H5.17241C4.2931 20.2241 3.56897 19.5 3.56897 18.6207V14.1207C3.56897 13.2414 4.2931 12.5172 5.17241 12.5172H12.7241C13.6034 12.5172 14.3276 13.2414 14.3276 14.1207V18.6207C14.3276 19.5 13.6034 20.2241 12.7241 20.2241ZM12.7241 13.5517H5.17241C4.86207 13.5517 4.65517 13.8103 4.65517 14.069V18.6207C4.65517 18.931 4.91379 19.1379 5.17241 19.1379H12.7241C13.0345 19.1379 13.2414 18.8793 13.2414 18.6207V14.1207C13.2414 13.8103 12.9828 13.5517 12.7241 13.5517Z" fill="#3E66F3"/>
<path d="M18.1552 17.0172H17.5862C17.2759 17.0172 17.069 16.7586 17.069 16.5C17.069 16.2414 17.3276 15.9828 17.5862 15.9828H18.1552C18.4655 15.9828 18.6724 16.2414 18.6724 16.5C18.6724 16.7586 18.4138 17.0172 18.1552 17.0172Z" fill="#3E66F3"/>
<path d="M25.7586 20.431H17.5862C17.2759 20.431 17.069 20.1724 17.069 19.9138C17.069 19.6552 17.3276 19.3966 17.5862 19.3966H25.7586C26.069 19.3966 26.2759 19.6552 26.2759 19.9138C26.2759 20.1724 26.0172 20.431 25.7586 20.431Z" fill="#3E66F3"/>
<path d="M25.7586 23.8448H3.82759C3.51724 23.8448 3.31034 23.5862 3.31034 23.3276C3.31034 23.069 3.56897 22.8103 3.82759 22.8103H25.7586C26.069 22.8103 26.2759 23.069 26.2759 23.3276C26.2759 23.5862 26.0172 23.8448 25.7586 23.8448Z" fill="#3E66F3"/>
<path d="M25.7586 27.2586H3.82759C3.51724 27.2586 3.31034 27 3.31034 26.7414C3.31034 26.4828 3.56897 26.2241 3.82759 26.2241H25.7586C26.069 26.2241 26.2759 26.4828 26.2759 26.7414C26.2759 27 26.0172 27.2586 25.7586 27.2586Z" fill="#3E66F3"/>
<path d="M25.0345 17.2241H24.2069C23.5345 17.2241 22.9655 16.7069 22.8621 16.0862L22.6552 14.7931C22.6552 14.6897 22.5517 14.6379 22.5 14.5862C22.2931 14.5345 22.1379 14.431 21.931 14.3793C21.8276 14.3276 21.7759 14.3276 21.6724 14.3793L20.6379 15.1552C20.1207 15.5172 19.3448 15.4655 18.8793 15L18.2586 14.3793C17.7931 13.9138 17.7414 13.1897 18.1034 12.6207L18.8793 11.5862C18.931 11.4828 18.931 11.3793 18.8793 11.3276C18.7759 11.1724 18.7241 10.9655 18.6207 10.7586C18.569 10.6552 18.5172 10.6034 18.4138 10.6034L17.1724 10.3966C16.5 10.2931 16.0345 9.72414 16.0345 9.05172V8.17241C16.0345 7.5 16.5 6.93103 17.1724 6.82759L18.4138 6.62069C18.5172 6.62069 18.569 6.51724 18.6207 6.46552C18.6724 6.25862 18.7759 6.10345 18.8793 5.89655C18.931 5.7931 18.931 5.68965 18.8793 5.63793L18.1034 4.60345C17.6897 4.08621 17.7931 3.36207 18.2069 2.84483L18.8276 2.22414C19.2931 1.75862 20.069 1.7069 20.5862 2.12069L21.569 2.89655C21.6724 3 21.7759 2.94828 21.8276 2.89655C22.0345 2.7931 22.1897 2.74138 22.3966 2.63793C22.5 2.58621 22.5517 2.53448 22.6034 2.43103L22.8103 1.13793C22.9655 0.517241 23.5345 0 24.2069 0H25.0345C25.7069 0 26.2759 0.517241 26.3793 1.13793L26.5862 2.43103C26.5862 2.53448 26.6897 2.58621 26.7414 2.63793C26.9483 2.68966 27.1034 2.7931 27.3103 2.84483C27.4138 2.89655 27.4655 2.89655 27.569 2.84483L28.6034 2.06897C29.1207 1.65517 29.8966 1.75862 30.3621 2.22414L30.9828 2.84483C31.4483 3.31034 31.5 4.03448 31.1379 4.60345L30.3621 5.63793C30.3103 5.74138 30.3103 5.84483 30.3621 5.89655C30.4655 6.05172 30.5172 6.25862 30.6207 6.46552C30.6724 6.56897 30.7241 6.62069 30.8276 6.62069L32.069 6.82759C32.7414 6.93103 33.2069 7.5 33.2069 8.17241V9.05172C33.2069 9.72414 32.7414 10.2931 32.069 10.3966L30.8276 10.6034C30.7241 10.6034 30.6724 10.7069 30.6207 10.7586C30.569 10.9655 30.4655 11.1207 30.4138 11.3276C30.3621 11.431 30.3621 11.5345 30.4138 11.6379L31.1897 12.6724C31.5517 13.1897 31.5 13.9138 31.0862 14.431L30.3103 15C29.8448 15.4655 29.069 15.5172 28.5517 15.1034L27.569 14.3276C27.4655 14.2241 27.3621 14.2759 27.3103 14.3276C27.1034 14.431 26.9483 14.4828 26.7414 14.5862C26.6379 14.6379 26.5862 14.6897 26.5862 14.7931L26.3793 16.0862C26.2759 16.7069 25.7069 17.2241 25.0345 17.2241ZM21.7759 13.2414C21.9828 13.2414 22.1897 13.2931 22.3448 13.3966C22.5 13.4483 22.6552 13.5517 22.8103 13.6034C23.2759 13.7586 23.5862 14.1724 23.6897 14.6379L23.8966 15.931C23.8966 16.0862 24.0517 16.1897 24.1552 16.1897H24.9828C25.1379 16.1897 25.2414 16.0862 25.2414 15.9828L25.4483 14.6897C25.5 14.2241 25.8621 13.8103 26.3276 13.6552C26.4828 13.6034 26.6379 13.5517 26.7931 13.4483C27.2069 13.2414 27.7759 13.2931 28.1897 13.6034L29.2241 14.3793C29.3793 14.4828 29.4828 14.431 29.5862 14.3276L30.2069 13.7069C30.3103 13.6034 30.3103 13.4483 30.2069 13.3448L29.431 12.3103C29.1207 11.8966 29.069 11.3793 29.2759 10.9655C29.3276 10.8103 29.431 10.6552 29.4828 10.5C29.6379 10.0345 30.0517 9.67241 30.5172 9.62069L31.7586 9.41379C31.9138 9.41379 31.9655 9.25862 31.9655 9.15517V8.27586C31.9655 8.12069 31.8621 8.01724 31.7586 8.01724L30.5172 7.81034C30.0517 7.75862 29.6379 7.39655 29.4828 6.93103C29.431 6.77586 29.3793 6.62069 29.2759 6.46552C29.069 6 29.1207 5.48276 29.3793 5.06897L30.1552 4.03448C30.2586 3.93103 30.2069 3.77586 30.1552 3.67241L29.5345 3.05172C29.4828 3 29.3793 2.94828 29.3276 2.94828C29.2759 2.94828 29.2241 2.94828 29.1724 3L28.1897 3.77586C27.8276 4.08621 27.2586 4.13793 26.7931 3.93103C26.6379 3.87931 26.4828 3.77586 26.3276 3.72414C25.8621 3.56897 25.5517 3.15517 25.4483 2.68966L25.2414 1.39655C25.2414 1.24138 25.0862 1.13793 24.9828 1.13793H24.1552C24 1.13793 23.8966 1.24138 23.8966 1.34483L23.7414 2.58621C23.6897 3.05172 23.3276 3.46552 22.8621 3.62069C22.7069 3.67241 22.5517 3.72414 22.3966 3.82759C21.9828 4.03448 21.4138 3.98276 21 3.67241L19.9655 2.89655C19.8103 2.74138 19.7069 2.84483 19.6034 2.94828L18.9828 3.56897C18.8793 3.67241 18.8793 3.82759 18.9828 3.93103L19.7586 4.96552C20.0172 5.37931 20.069 5.89655 19.8621 6.31034C19.8103 6.46552 19.7069 6.62069 19.6552 6.77586C19.5 7.24138 19.0862 7.60345 18.6207 7.65517L17.3793 7.86207C17.2241 7.86207 17.1724 8.01724 17.1724 8.12069V9C17.1724 9.15517 17.2759 9.25862 17.3793 9.25862L18.6207 9.46552C19.0862 9.51724 19.5 9.87931 19.6552 10.3448C19.7069 10.5 19.7586 10.6552 19.8621 10.8103C20.069 11.2759 20.0172 11.7931 19.7069 12.2069L18.931 13.2414C18.8276 13.3448 18.8793 13.5 18.931 13.6034L19.5517 14.2241C19.6552 14.3276 19.7586 14.3793 19.9138 14.2759L20.9483 13.5C21.2069 13.3448 21.5172 13.2414 21.7759 13.2414Z" fill="#3E66F3"/>
<path d="M24.6207 12.0517C22.7069 12.0517 21.1552 10.5 21.1552 8.58621C21.1552 6.67241 22.7069 5.12069 24.6207 5.12069C26.5345 5.12069 28.0862 6.67241 28.0862 8.58621C28.0862 10.5 26.5345 12.0517 24.6207 12.0517ZM24.6207 6.2069C23.2759 6.2069 22.2414 7.2931 22.2414 8.58621C22.2414 9.93103 23.3276 10.9655 24.6207 10.9655C25.9138 10.9655 27 9.87931 27 8.58621C27 7.2931 25.9138 6.2069 24.6207 6.2069Z" fill="#3E66F3"/>
</svg>
