<svg width="30" height="30" viewBox="0 0 30 30" fill="none" xmlns="http://www.w3.org/2000/svg">
<path d="M29.5605 14.5605H22.4849V13.5607H24.3939C24.6366 13.5607 24.8334 13.3639 24.8334 13.1212C24.8334 12.8786 24.6366 12.6818 24.3939 12.6818H22.4849V11.6819H23.8103C24.304 11.6819 24.7683 11.4896 25.1174 11.1405L28.0076 8.25029C28.1959 8.3441 28.4047 8.39402 28.6212 8.39402C28.9895 8.39402 29.3358 8.25059 29.5962 7.9902C29.8567 7.72975 30.0001 7.38352 30.0001 7.0152C30.0001 6.64687 29.8567 6.30064 29.5962 6.0402C29.3358 5.77975 28.9895 5.63631 28.6212 5.63631C28.2529 5.63631 27.9067 5.77975 27.6462 6.04014C27.3858 6.30059 27.2423 6.64682 27.2423 7.01514C27.2423 7.2317 27.2923 7.44047 27.3861 7.62879L24.4959 10.519C24.3128 10.7021 24.0693 10.803 23.8102 10.803H22.4848V9.83338C22.4848 8.5551 21.4448 7.51517 20.1666 7.51517H19.197V3.62484C19.7424 3.44092 20.1364 2.92488 20.1364 2.3182C20.1364 1.55789 19.5178 0.939375 18.7576 0.939375C17.9973 0.939375 17.3787 1.55795 17.3787 2.3182C17.3787 2.92488 17.7727 3.44086 18.3181 3.62484V7.51512H17.3183V5.60607C17.3183 5.36338 17.1215 5.16662 16.8788 5.16662C16.6361 5.16662 16.4394 5.36338 16.4394 5.60607V7.51512H15.4395V0.439453C15.4395 0.196758 15.2427 0 15 0C14.7573 0 14.5605 0.196758 14.5605 0.439453V7.51512H13.5607V5.60607C13.5607 5.36338 13.3639 5.16662 13.1213 5.16662C12.8786 5.16662 12.6818 5.36338 12.6818 5.60607V7.51512H11.682V6.18979C11.682 5.69602 11.4896 5.23178 11.1405 4.88268L8.2493 1.99148C8.50471 1.4758 8.4191 0.832793 7.99025 0.403887C7.4526 -0.133711 6.57785 -0.133652 6.04025 0.403887C5.50266 0.941484 5.50266 1.81623 6.04025 2.35389C6.30908 2.62266 6.66217 2.75707 7.01525 2.75707C7.22549 2.75707 7.43537 2.70826 7.62785 2.61293L10.519 5.50418C10.7022 5.68729 10.803 5.9308 10.803 6.18979V7.51512H9.83344C9.63744 7.51512 9.4425 7.53973 9.25406 7.58818C9.01904 7.64865 8.87754 7.88824 8.93801 8.12332C8.99848 8.3584 9.23812 8.4999 9.47314 8.43937C9.59004 8.40932 9.71121 8.39402 9.83338 8.39402H20.1666C20.9603 8.39402 21.6059 9.03973 21.6059 9.83332V20.1666C21.6059 20.2887 21.5907 20.4098 21.5607 20.5266C21.5003 20.7616 21.6418 21.0012 21.8769 21.0616C21.9135 21.071 21.9503 21.0755 21.9866 21.0755C22.1824 21.0755 22.3609 20.9437 22.4119 20.7453C22.4603 20.5571 22.4848 20.3624 22.4848 20.1666V19.197H26.3751C26.559 19.7423 27.0751 20.1363 27.6817 20.1363C28.4421 20.1363 29.0606 19.5178 29.0606 18.7575C29.0606 17.9972 28.442 17.3787 27.6817 17.3787C27.0751 17.3787 26.5591 17.7727 26.3751 18.318H22.4848V17.3181H24.3939C24.6366 17.3181 24.8333 17.1214 24.8333 16.8787C24.8333 16.636 24.6366 16.4392 24.3939 16.4392H22.4848V15.4395H29.5605C29.8032 15.4395 30 15.2427 30 15C30 14.7573 29.8032 14.5605 29.5605 14.5605ZM28.2677 6.6617C28.3621 6.56725 28.4876 6.51527 28.6212 6.51527C28.7547 6.51527 28.8802 6.56725 28.9747 6.6617C29.0691 6.75615 29.1211 6.88166 29.1211 7.0152C29.1211 7.14873 29.0691 7.27424 28.9747 7.36869C28.8802 7.46314 28.7547 7.51512 28.6212 7.51512C28.4876 7.51512 28.3621 7.46314 28.2677 7.36869C28.1732 7.27424 28.1213 7.14873 28.1213 7.0152C28.1213 6.88166 28.1732 6.75609 28.2677 6.6617ZM7.36869 1.73244C7.17381 1.92727 6.85664 1.92732 6.66164 1.73238C6.4667 1.53744 6.4667 1.22027 6.66164 1.02539C6.75914 0.927891 6.88711 0.879199 7.0152 0.879199C7.14322 0.879199 7.27125 0.927949 7.36869 1.02539C7.56363 1.22033 7.56363 1.5375 7.36869 1.73244ZM18.7576 2.81813C18.4819 2.81813 18.2576 2.59383 18.2576 2.3182C18.2576 2.04258 18.4819 1.81828 18.7576 1.81828C19.0332 1.81828 19.2575 2.04258 19.2575 2.3182C19.2575 2.59383 19.0332 2.81813 18.7576 2.81813ZM27.6818 18.2576C27.9575 18.2576 28.1817 18.4819 28.1817 18.7576C28.1817 19.0332 27.9574 19.2575 27.6818 19.2575C27.4062 19.2575 27.1819 19.0332 27.1819 18.7576C27.1818 18.4819 27.4061 18.2576 27.6818 18.2576Z" fill="#3E66F3"/>
<path d="M23.9598 27.6462C23.531 27.2173 22.8879 27.1317 22.3722 27.3871L19.481 24.4958C19.2979 24.3127 19.197 24.0692 19.197 23.8102V22.4849H20.1666C20.3626 22.4849 20.5575 22.4603 20.7459 22.4118C20.9809 22.3513 21.1224 22.1118 21.0619 21.8767C21.0015 21.6417 20.762 21.5002 20.5268 21.5606C20.41 21.5907 20.2888 21.6059 20.1666 21.6059H9.83338C9.03973 21.6059 8.39408 20.9602 8.39408 20.1666V9.83338C8.39408 9.71121 8.40932 9.59004 8.43937 9.47326C8.4999 9.23824 8.3584 8.99865 8.12338 8.93813C7.8883 8.8776 7.64871 9.0191 7.58824 9.25412C7.53973 9.44244 7.51518 9.63733 7.51518 9.83338V10.803H3.62484C3.44092 10.2576 2.92488 9.86361 2.3182 9.86361C1.55789 9.86361 0.939375 10.4821 0.939375 11.2424C0.939375 12.0028 1.55795 12.6213 2.3182 12.6213C2.92488 12.6213 3.44086 12.2273 3.62484 11.6819H7.51512V12.6818H5.60607C5.36338 12.6818 5.16662 12.8786 5.16662 13.1213C5.16662 13.3639 5.36338 13.5607 5.60607 13.5607H7.51512V14.5605H0.439453C0.196758 14.5605 0 14.7573 0 15C0 15.2427 0.196758 15.4395 0.439453 15.4395H7.51512V16.4393H5.60607C5.36338 16.4393 5.16662 16.6361 5.16662 16.8787C5.16662 17.1214 5.36338 17.3182 5.60607 17.3182H7.51512V18.3181H6.18973C5.69596 18.3181 5.23172 18.5104 4.88262 18.8595L1.99242 21.7497C1.8041 21.6559 1.59533 21.606 1.37877 21.606C1.01045 21.606 0.664219 21.7494 0.40377 22.0098C0.143438 22.2703 0 22.6165 0 22.9848C0 23.3531 0.143438 23.6994 0.403887 23.9598C0.664277 24.2203 1.01057 24.3636 1.37889 24.3636C1.74721 24.3636 2.09344 24.2202 2.35389 23.9598C2.61434 23.6994 2.75777 23.3531 2.75777 22.9848C2.75777 22.7682 2.70785 22.5595 2.61404 22.3712L5.50424 19.481C5.68734 19.2979 5.93086 19.197 6.1899 19.197H7.51529V20.1666C7.51529 21.4448 8.55527 22.4848 9.8335 22.4848H10.8031V26.375C10.2577 26.559 9.86373 27.075 9.86373 27.6817C9.86373 28.442 10.4823 29.0605 11.2426 29.0605C12.0028 29.0605 12.6214 28.4419 12.6214 27.6817C12.6214 27.075 12.2274 26.559 11.682 26.375V22.4848H12.6819V24.3938C12.6819 24.6365 12.8786 24.8333 13.1213 24.8333C13.364 24.8333 13.5608 24.6365 13.5608 24.3938V22.4848H14.5605V29.5605C14.5605 29.8032 14.7573 30 15 30C15.2427 30 15.4395 29.8032 15.4395 29.5605V22.4849H16.4393V24.3939C16.4393 24.6366 16.6361 24.8334 16.8787 24.8334C17.1214 24.8334 17.3182 24.6366 17.3182 24.3939V22.4849H18.318V23.8102C18.318 24.304 18.5104 24.7682 18.8595 25.1173L21.7507 28.0085C21.4953 28.5242 21.5809 29.1672 22.0098 29.5961C22.2786 29.8649 22.6317 29.9993 22.9848 29.9993C23.3379 29.9993 23.691 29.8649 23.9598 29.5961C24.4974 29.0585 24.4974 28.1838 23.9598 27.6462ZM2.3182 11.7424C2.04252 11.7424 1.81828 11.5181 1.81828 11.2424C1.81828 10.9668 2.04258 10.7425 2.3182 10.7425C2.59383 10.7425 2.81813 10.9668 2.81813 11.2424C2.81818 11.5181 2.59389 11.7424 2.3182 11.7424ZM1.73232 23.3383C1.63787 23.4328 1.51236 23.4847 1.37883 23.4847C1.24529 23.4847 1.11979 23.4328 1.02533 23.3383C0.930879 23.2438 0.878906 23.1183 0.878906 22.9848C0.878906 22.8513 0.930879 22.7258 1.02533 22.6313C1.11979 22.5369 1.24529 22.4849 1.37883 22.4849C1.51236 22.4849 1.63787 22.5369 1.73232 22.6313C1.82678 22.7258 1.87875 22.8513 1.87875 22.9848C1.87875 23.1183 1.82678 23.2439 1.73232 23.3383ZM11.7424 27.6818C11.7424 27.9574 11.5181 28.1817 11.2424 28.1817C10.9668 28.1817 10.7425 27.9574 10.7425 27.6818C10.7425 27.4062 10.9668 27.1819 11.2424 27.1819C11.5181 27.1819 11.7424 27.4062 11.7424 27.6818ZM23.3384 28.9747C23.1434 29.1696 22.8263 29.1696 22.6313 28.9747C22.4364 28.7797 22.4364 28.4626 22.6313 28.2677C22.7288 28.1702 22.8568 28.1215 22.9849 28.1215C23.1129 28.1215 23.2409 28.1702 23.3384 28.2677C23.5332 28.4626 23.5332 28.7797 23.3384 28.9747Z" fill="#3E66F3"/>
<path d="M19.6667 13.8258C19.6667 12.886 18.9793 12.0899 18.0382 11.8312C18.066 11.7163 18.0815 11.5981 18.0815 11.4773C18.0815 10.5875 17.2917 9.86361 16.3211 9.86361C15.7952 9.86361 15.3229 10.0763 15.0001 10.4123C14.6772 10.0763 14.2048 9.86361 13.6791 9.86361C12.7083 9.86361 11.9186 10.5875 11.9186 11.4773C11.9186 11.5981 11.9341 11.7163 11.9619 11.8312C11.0208 12.0898 10.3334 12.8859 10.3334 13.8258C10.3334 14.2852 10.496 14.7185 10.7962 15.0764C10.5026 15.4565 10.3334 15.9179 10.3334 16.4092C10.3333 17.1564 10.7326 17.854 11.3902 18.2868C11.3902 18.2872 11.3902 18.2875 11.3902 18.2879C11.3902 19.3072 12.2984 20.1364 13.4149 20.1364C14.0565 20.1364 14.6289 19.8623 15.0001 19.4358C15.3713 19.8623 15.9437 20.1364 16.5853 20.1364C17.6597 20.1364 18.5409 19.3683 18.6057 18.402C19.2582 18.0233 19.6667 17.3601 19.6667 16.644C19.6667 16.1172 19.4421 15.6147 19.0556 15.2349C19.4421 14.8551 19.6667 14.3525 19.6667 13.8258ZM18.1114 15.6235C18.5348 15.847 18.7876 16.2285 18.7876 16.644C18.7876 16.9538 18.6437 17.2492 18.4005 17.4702C18.1695 17.0424 17.7611 16.7019 17.2452 16.5398C17.0138 16.4671 16.767 16.5958 16.6942 16.8273C16.6215 17.0589 16.7503 17.3055 16.9818 17.3783C17.4298 17.5191 17.7308 17.8846 17.7308 18.2879C17.7308 18.8226 17.2168 19.2576 16.585 19.2576C15.9533 19.2576 15.4393 18.8226 15.4393 18.2879V15.4697C15.4393 14.9351 15.9533 14.5001 16.585 14.5001C16.8277 14.5001 17.0245 14.3034 17.0245 14.0607C17.0245 13.818 16.8277 13.6212 16.585 13.6212C16.16 13.6212 15.7653 13.7417 15.4393 13.9468V13.3855C15.4393 13.1428 15.2425 12.9461 14.9998 12.9461C14.7571 12.9461 14.5604 13.1428 14.5604 13.3855V15.8252C14.4125 15.7324 14.2503 15.6555 14.0749 15.6004C13.8432 15.5276 13.5966 15.6564 13.5239 15.8879C13.4511 16.1194 13.5799 16.3661 13.8114 16.4389C14.2594 16.5797 14.5604 16.9453 14.5604 17.3485V18.2879C14.5604 18.8225 14.0464 19.2575 13.4146 19.2575C12.7828 19.2575 12.2688 18.8225 12.2688 18.2879C12.2688 18.0587 12.366 17.8359 12.5423 17.6606C12.7145 17.4895 12.7153 17.2113 12.5442 17.0391C12.3731 16.867 12.0949 16.8662 11.9228 17.0372C11.8175 17.142 11.7268 17.2563 11.6515 17.3779C11.374 17.1154 11.212 16.7701 11.212 16.4091C11.212 15.758 11.723 15.186 12.4546 15.0181C12.6912 14.9638 12.8389 14.7281 12.7847 14.4915C12.7304 14.2549 12.4946 14.1072 12.2581 14.1615C11.9636 14.229 11.6924 14.3418 11.4519 14.4899C11.296 14.2941 11.212 14.0647 11.212 13.8257C11.2122 13.1647 11.8388 12.6266 12.6112 12.6215C12.6152 12.6216 12.6191 12.6221 12.623 12.6221C12.7233 12.6221 12.8241 12.588 12.9067 12.5181C13.0751 12.3755 13.1089 12.1335 12.9959 11.9514C12.9925 11.946 12.9895 11.9405 12.986 11.9353C12.9841 11.9327 12.982 11.9302 12.9801 11.9275C12.9733 11.918 12.9663 11.9086 12.9588 11.8996C12.9585 11.8993 12.9584 11.899 12.9581 11.8987C12.8848 11.8121 12.7973 11.6687 12.7973 11.4773C12.7973 11.0721 13.1929 10.7425 13.6789 10.7425C14.1649 10.7425 14.5604 11.0721 14.5604 11.4773C14.5604 11.72 14.7572 11.9167 14.9999 11.9167C15.2426 11.9167 15.4393 11.72 15.4393 11.4773C15.4393 11.0721 15.8348 10.7425 16.3209 10.7425C16.8069 10.7425 17.2024 11.0721 17.2024 11.4773C17.2024 11.5856 17.1741 11.6779 17.1365 11.7538C16.8865 11.7775 16.6448 11.8379 16.4153 11.9347C16.1916 12.0289 16.0868 12.2867 16.1811 12.5104C16.2754 12.7339 16.5331 12.8389 16.7568 12.7445C16.9467 12.6645 17.1511 12.6233 17.3643 12.6216C17.3685 12.6217 17.3726 12.6221 17.3769 12.6221C17.3808 12.6221 17.3846 12.6216 17.3886 12.6215C18.161 12.6265 18.7876 13.1647 18.7876 13.8257C18.7876 14.2412 18.5348 14.6227 18.1114 14.8462C17.9672 14.9222 17.877 15.0718 17.877 15.2348C17.877 15.3979 17.9672 15.5474 18.1114 15.6235Z" fill="#3E66F3"/>
</svg>
