<svg width="38" height="30" viewBox="0 0 38 30" fill="none" xmlns="http://www.w3.org/2000/svg">
<path d="M8.96153 18.7921L17.4001 23.4802C17.7469 23.6729 18.1274 23.7692 18.5078 23.7692C18.8882 23.7692 19.2687 23.6729 19.6154 23.4802L28.054 18.7921C28.7777 18.3901 29.2272 17.6261 29.2272 16.7982V6.97089C29.2272 6.14303 28.7777 5.37908 28.054 4.97711L19.6154 0.289003C18.9218 -0.0963345 18.0937 -0.0963345 17.4001 0.289003L8.96153 4.97711C8.23785 5.37908 7.78831 6.14303 7.78831 6.97089V16.7982C7.78838 17.626 8.23792 18.3901 8.96153 18.7921ZM28.1428 16.7982C28.1428 17.2324 27.9069 17.6332 27.5274 17.8441L19.0888 22.5322C18.725 22.7343 18.2905 22.7343 17.9267 22.5322L9.4882 17.8441C9.10865 17.6332 8.87282 17.2324 8.87282 16.7982V6.97089C8.87282 6.93764 8.87463 6.90467 8.87738 6.87192L17.9656 11.9209V20.5414C17.9656 20.8408 18.2083 21.0836 18.5078 21.0836C18.8072 21.0836 19.05 20.8408 19.05 20.5414V11.9209L28.1382 6.87192C28.1409 6.90467 28.1428 6.93764 28.1428 6.97089V16.7982ZM17.9268 1.23695C18.1087 1.13588 18.3083 1.08534 18.5078 1.08534C18.7073 1.08534 18.9069 1.13588 19.0888 1.23695L27.5274 5.92506C27.5409 5.93258 27.5538 5.94082 27.5668 5.94877L18.5078 10.9817L9.44866 5.94884C9.46182 5.94089 9.47469 5.93258 9.48813 5.92513L17.9268 1.23695Z" fill="#3E66F3"/>
<path d="M31.4475 12.7836C31.1779 12.653 30.8536 12.7659 30.7232 13.0354C30.5928 13.305 30.7056 13.6292 30.9751 13.7597C34.1711 15.3061 35.9311 17.3158 35.9311 19.4185C35.9311 21.4623 34.2789 23.0249 32.8927 23.9759C32.6458 24.1453 32.583 24.4828 32.7524 24.7298C32.8575 24.883 33.0273 24.9652 33.2 24.9652C33.3057 24.9652 33.4125 24.9344 33.5063 24.8701C35.8021 23.295 37.0156 21.4099 37.0156 19.4185C37.0156 16.8773 35.0381 14.521 31.4475 12.7836Z" fill="#3E66F3"/>
<path d="M30.697 25.4088L25.0974 24.8877C24.7991 24.8599 24.535 25.0791 24.5072 25.3772C24.4794 25.6754 24.6986 25.9396 24.9968 25.9674L27.9643 26.2436C25.148 27.1124 21.9145 27.5693 18.5078 27.5693C13.7892 27.5693 9.36147 26.6844 6.04041 25.0774C2.84449 23.5309 1.08444 21.5213 1.08444 19.4185C1.08444 17.3272 2.82837 15.3253 5.99486 13.7818C6.26409 13.6506 6.37593 13.326 6.24472 13.0568C6.1135 12.7876 5.78874 12.6758 5.51973 12.807C1.96023 14.5421 0 16.8901 0 19.4185C0 21.9597 1.97744 24.3162 5.56802 26.0535C9.03346 27.7303 13.6289 28.6538 18.5078 28.6538C21.9079 28.6538 25.1494 28.2114 28.0017 27.3667L25.9135 29.034C25.6795 29.2208 25.6412 29.562 25.8281 29.7961C25.9352 29.9302 26.0929 30 26.2522 30C26.3708 30 26.4903 29.9612 26.5902 29.8814L30.9851 26.3725C31.158 26.2345 31.2297 26.0054 31.1663 25.7935C31.1029 25.5816 30.9172 25.4294 30.697 25.4088Z" fill="#3E66F3"/>
</svg>
