<svg width="30" height="30" viewBox="0 0 30 30" fill="none" xmlns="http://www.w3.org/2000/svg">
<path d="M17.0165 14.7849C17.1977 14.5627 17.3193 14.298 17.37 14.0159C17.4208 13.7337 17.3988 13.4433 17.3064 13.1719C17.2139 12.9005 17.054 12.6571 16.8415 12.4646C16.6291 12.2721 16.3712 12.1368 16.0921 12.0714V10.8997C16.0921 10.7909 16.0488 10.6866 15.9719 10.6097C15.895 10.5328 15.7907 10.4896 15.6819 10.4896C15.5732 10.4896 15.4689 10.5328 15.392 10.6097C15.315 10.6866 15.2718 10.7909 15.2718 10.8997V12.0245H14.4549V10.8997C14.4549 10.7909 14.4117 10.6866 14.3348 10.6097C14.2579 10.5328 14.1536 10.4896 14.0448 10.4896C13.936 10.4896 13.8317 10.5328 13.7548 10.6097C13.6779 10.6866 13.6347 10.7909 13.6347 10.8997V12.0245H12.4845C12.3758 12.0245 12.2715 12.0677 12.1946 12.1446C12.1176 12.2215 12.0744 12.3259 12.0744 12.4346C12.0744 12.5434 12.1176 12.6477 12.1946 12.7246C12.2715 12.8015 12.3758 12.8447 12.4845 12.8447H12.7566V17.1567H12.4845C12.3758 17.1567 12.2715 17.1999 12.1946 17.2768C12.1176 17.3537 12.0744 17.458 12.0744 17.5668C12.0744 17.6755 12.1176 17.7799 12.1946 17.8568C12.2715 17.9337 12.3758 17.9769 12.4845 17.9769H13.6347V19.1017C13.6347 19.2105 13.6779 19.3148 13.7548 19.3917C13.8317 19.4686 13.936 19.5119 14.0448 19.5119C14.1536 19.5119 14.2579 19.4686 14.3348 19.3917C14.4117 19.3148 14.4549 19.2105 14.4549 19.1017V17.9769H15.2718V19.1017C15.2718 19.2105 15.315 19.3148 15.392 19.3917C15.4689 19.4686 15.5732 19.5119 15.6819 19.5119C15.7907 19.5119 15.895 19.4686 15.9719 19.3917C16.0488 19.3148 16.0921 19.2105 16.0921 19.1017V17.9769H16.2327C16.6114 17.9771 16.9792 17.8502 17.2773 17.6166C17.5755 17.383 17.7866 17.0561 17.8769 16.6883C17.9673 16.3205 17.9316 15.9331 17.7757 15.5879C17.6197 15.2428 17.3525 14.9599 17.0168 14.7846L17.0165 14.7849ZM16.5767 13.7174C16.5764 13.949 16.4843 14.171 16.3205 14.3347C16.1567 14.4983 15.9346 14.5903 15.703 14.5904H13.5768V12.8447H15.703C15.9346 12.8448 16.1566 12.9367 16.3204 13.1003C16.4842 13.264 16.5764 13.4859 16.5767 13.7174ZM16.2324 17.1567H13.5768V15.4108H16.2324C16.4639 15.4108 16.686 15.5028 16.8497 15.6665C17.0134 15.8302 17.1054 16.0522 17.1054 16.2837C17.1054 16.5153 17.0134 16.7373 16.8497 16.901C16.686 17.0647 16.4639 17.1567 16.2324 17.1567Z" fill="#3E66F3"/>
<path d="M28.2953 13.2972C27.9155 13.298 27.5468 13.4255 27.2477 13.6597C26.9486 13.8939 26.7364 14.2213 26.6446 14.5899H22.3139C22.282 14.015 22.182 13.446 22.0161 12.8946H23.2309C23.2848 12.8947 23.3381 12.8841 23.3879 12.8635C23.4377 12.8429 23.4829 12.8127 23.521 12.7746C23.5591 12.7365 23.5893 12.6913 23.6099 12.6415C23.6305 12.5917 23.641 12.5384 23.641 12.4845V9.02794H24.6082C24.7083 9.43153 24.9527 9.78451 25.2952 10.0203C25.6377 10.2561 26.0546 10.3585 26.4674 10.308C26.8801 10.2576 27.2601 10.0578 27.5358 9.74647C27.8114 9.43511 27.9635 9.03366 27.9635 8.61784C27.9635 8.20202 27.8114 7.80057 27.5358 7.48921C27.2601 7.17785 26.8801 6.97811 26.4674 6.92766C26.0546 6.87722 25.6377 6.97955 25.2952 7.21536C24.9527 7.45117 24.7083 7.80415 24.6082 8.20774H23.2309C23.1221 8.20774 23.0178 8.25094 22.9409 8.32785C22.864 8.40476 22.8208 8.50907 22.8208 8.61784V12.0744H21.7145C20.9716 10.381 19.6191 9.02869 17.9256 8.28601V7.17919H21.3822C21.4909 7.17919 21.5952 7.13599 21.6721 7.05908C21.7491 6.98217 21.7923 6.87786 21.7923 6.76909V5.39255C22.1958 5.2924 22.5488 5.04803 22.7846 4.70553C23.0205 4.36304 23.1228 3.94609 23.0723 3.53334C23.0219 3.12059 22.8221 2.74056 22.5108 2.46494C22.1994 2.18932 21.798 2.03716 21.3822 2.03716C20.9663 2.03716 20.5649 2.18932 20.2535 2.46494C19.9422 2.74056 19.7424 3.12059 19.692 3.53334C19.6415 3.94609 19.7439 4.36304 19.9797 4.70553C20.2155 5.04803 20.5685 5.2924 20.9721 5.39255V6.35992H17.5155C17.4067 6.35999 17.3024 6.40321 17.2255 6.48011C17.1486 6.557 17.1054 6.66128 17.1054 6.77003V7.9844C16.554 7.81855 15.985 7.71865 15.4101 7.68679V3.35538C15.8137 3.25523 16.1667 3.01086 16.4025 2.66837C16.6383 2.32587 16.7406 1.90893 16.6902 1.49617C16.6397 1.08342 16.44 0.703398 16.1286 0.427779C15.8173 0.15216 15.4158 0 15 0C14.5842 0 14.1827 0.15216 13.8714 0.427779C13.56 0.703398 13.3603 1.08342 13.3098 1.49617C13.2594 1.90893 13.3617 2.32587 13.5975 2.66837C13.8333 3.01086 14.1863 3.25523 14.5899 3.35538V7.68679C14.015 7.71865 13.446 7.81855 12.8946 7.9844V6.76909C12.8946 6.66034 12.8514 6.55607 12.7745 6.47917C12.6976 6.40228 12.5933 6.35905 12.4845 6.35899H9.02794V5.39255C9.43153 5.2924 9.78451 5.04803 10.0203 4.70553C10.2561 4.36304 10.3585 3.94609 10.308 3.53334C10.2576 3.12059 10.0578 2.74056 9.74647 2.46494C9.43511 2.18932 9.03366 2.03716 8.61784 2.03716C8.20202 2.03716 7.80057 2.18932 7.48921 2.46494C7.17785 2.74056 6.97811 3.12059 6.92766 3.53334C6.87722 3.94609 6.97955 4.36304 7.21536 4.70553C7.45117 5.04803 7.80415 5.2924 8.20774 5.39255V6.77003C8.20774 6.87879 8.25094 6.98311 8.32785 7.06001C8.40476 7.13692 8.50907 7.18013 8.61784 7.18013H12.0744V8.28694C10.381 9.0294 9.02862 10.3813 8.28554 12.0744H7.17919V8.61784C7.17919 8.50907 7.13599 8.40476 7.05908 8.32785C6.98217 8.25094 6.87786 8.20774 6.76909 8.20774H5.39184C5.29169 7.80415 5.04732 7.45117 4.70483 7.21536C4.36233 6.97955 3.94539 6.87722 3.53264 6.92766C3.11988 6.97811 2.73986 7.17785 2.46424 7.48921C2.18862 7.80057 2.03646 8.20202 2.03646 8.61784C2.03646 9.03366 2.18862 9.43511 2.46424 9.74647C2.73986 10.0578 3.11988 10.2576 3.53264 10.308C3.94539 10.3585 4.36233 10.2561 4.70483 10.0203C5.04732 9.78451 5.29169 9.43153 5.39184 9.02794H6.35922V12.4845C6.35919 12.5384 6.36978 12.5917 6.39037 12.6415C6.41097 12.6913 6.44118 12.7365 6.47927 12.7746C6.51736 12.8127 6.56258 12.8429 6.61235 12.8635C6.66212 12.8841 6.71546 12.8947 6.76932 12.8946H7.98417C7.81826 13.446 7.71828 14.015 7.68632 14.5899H3.35538C3.25523 14.1863 3.01086 13.8333 2.66837 13.5975C2.32587 13.3617 1.90893 13.2594 1.49617 13.3098C1.08342 13.3603 0.703398 13.56 0.427779 13.8714C0.15216 14.1827 0 14.5842 0 15C0 15.4158 0.15216 15.8173 0.427779 16.1286C0.703398 16.44 1.08342 16.6397 1.49617 16.6902C1.90893 16.7406 2.32587 16.6383 2.66837 16.4025C3.01086 16.1667 3.25523 15.8137 3.35538 15.4101H7.68608C7.71789 15.985 7.81771 16.554 7.98347 17.1054H6.76909C6.66032 17.1054 6.55601 17.1486 6.4791 17.2255C6.40219 17.3024 6.35899 17.4067 6.35899 17.5155V20.9721H5.39184C5.29169 20.5685 5.04732 20.2155 4.70483 19.9797C4.36233 19.7439 3.94539 19.6415 3.53264 19.692C3.11988 19.7424 2.73986 19.9422 2.46424 20.2535C2.18862 20.5649 2.03646 20.9663 2.03646 21.3822C2.03646 21.798 2.18862 22.1994 2.46424 22.5108C2.73986 22.8221 3.11988 23.0219 3.53264 23.0723C3.94539 23.1228 4.36233 23.0205 4.70483 22.7846C5.04732 22.5488 5.29169 22.1958 5.39184 21.7923H6.76932C6.87809 21.7923 6.9824 21.7491 7.05931 21.6721C7.13622 21.5952 7.17943 21.4909 7.17943 21.3822V17.9256H8.2853C9.02796 19.6197 10.3806 20.9725 12.0747 21.7154V22.8208H8.61784C8.50907 22.8208 8.40476 22.864 8.32785 22.9409C8.25094 23.0178 8.20774 23.1221 8.20774 23.2309V24.6089C7.80415 24.709 7.45117 24.9534 7.21536 25.2959C6.97955 25.6384 6.87722 26.0553 6.92766 26.4681C6.97811 26.8808 7.17785 27.2608 7.48921 27.5365C7.80057 27.8121 8.20202 27.9642 8.61784 27.9642C9.03366 27.9642 9.43511 27.8121 9.74647 27.5365C10.0578 27.2608 10.2576 26.8808 10.308 26.4681C10.3585 26.0553 10.2561 25.6384 10.0203 25.2959C9.78451 24.9534 9.43153 24.709 9.02794 24.6089V23.641H12.4845C12.5933 23.641 12.6976 23.5977 12.7745 23.5208C12.8514 23.4439 12.8946 23.3397 12.8946 23.2309V22.017C13.446 22.1829 14.015 22.2828 14.5899 22.3146V26.6446C14.1863 26.7448 13.8333 26.9891 13.5975 27.3316C13.3617 27.6741 13.2594 28.0911 13.3098 28.5038C13.3603 28.9166 13.56 29.2966 13.8714 29.5722C14.1827 29.8478 14.5842 30 15 30C15.4158 30 15.8173 29.8478 16.1286 29.5722C16.44 29.2966 16.6397 28.9166 16.6902 28.5038C16.7406 28.0911 16.6383 27.6741 16.4025 27.3316C16.1667 26.9891 15.8137 26.7448 15.4101 26.6446V22.3146C15.985 22.2828 16.554 22.1829 17.1054 22.017V23.2309C17.1054 23.3397 17.1486 23.4439 17.2255 23.5208C17.3024 23.5977 17.4067 23.641 17.5155 23.641H20.9721V24.6089C20.5685 24.709 20.2155 24.9534 19.9797 25.2959C19.7439 25.6384 19.6415 26.0553 19.692 26.4681C19.7424 26.8808 19.9422 27.2608 20.2535 27.5365C20.5649 27.8121 20.9663 27.9642 21.3822 27.9642C21.798 27.9642 22.1994 27.8121 22.5108 27.5365C22.8221 27.2608 23.0219 26.8808 23.0723 26.4681C23.1228 26.0553 23.0205 25.6384 22.7846 25.2959C22.5488 24.9534 22.1958 24.709 21.7923 24.6089V23.2309C21.7923 23.1221 21.7491 23.0178 21.6721 22.9409C21.5952 22.864 21.4909 22.8208 21.3822 22.8208H17.9256V21.7154C19.6196 20.9725 20.9723 19.6197 21.7149 17.9256H22.8208V21.3822C22.8208 21.4909 22.864 21.5952 22.9409 21.6721C23.0178 21.7491 23.1221 21.7923 23.2309 21.7923H24.6082C24.7083 22.1958 24.9527 22.5488 25.2952 22.7846C25.6377 23.0205 26.0546 23.1228 26.4674 23.0723C26.8801 23.0219 27.2601 22.8221 27.5358 22.5108C27.8114 22.1994 27.9635 21.798 27.9635 21.3822C27.9635 20.9663 27.8114 20.5649 27.5358 20.2535C27.2601 19.9422 26.8801 19.7424 26.4674 19.692C26.0546 19.6415 25.6377 19.7439 25.2952 19.9797C24.9527 20.2155 24.7083 20.5685 24.6082 20.9721H23.6408V17.5155C23.6408 17.4067 23.5976 17.3024 23.5207 17.2255C23.4438 17.1486 23.3394 17.1054 23.2307 17.1054H22.0165C22.1823 16.554 22.2821 15.985 22.3139 15.4101H26.6446C26.7217 15.7196 26.8841 16.0013 27.1135 16.2229C27.3429 16.4445 27.6299 16.5972 27.9419 16.6636C28.2539 16.73 28.5782 16.7074 28.8779 16.5983C29.1777 16.4892 29.4407 16.2981 29.6371 16.0468C29.8335 15.7955 29.9553 15.494 29.9886 15.1768C30.0219 14.8596 29.9654 14.5394 29.8255 14.2527C29.6856 13.9661 29.468 13.7245 29.1974 13.5556C28.9269 13.3866 28.6143 13.2971 28.2953 13.2972ZM26.2591 7.736C26.4337 7.736 26.6043 7.78776 26.7494 7.88473C26.8946 7.98171 27.0077 8.11954 27.0745 8.28081C27.1413 8.44207 27.1588 8.61952 27.1247 8.79072C27.0907 8.96192 27.0066 9.11917 26.8832 9.2426C26.7597 9.36602 26.6025 9.45008 26.4313 9.48413C26.2601 9.51818 26.0826 9.5007 25.9214 9.43391C25.7601 9.36711 25.6223 9.25399 25.5253 9.10886C25.4283 8.96372 25.3766 8.79309 25.3766 8.61854C25.3768 8.38455 25.4699 8.16022 25.6353 7.99476C25.8008 7.82931 26.0251 7.73625 26.2591 7.736ZM20.4996 3.74088C20.4996 3.56633 20.5514 3.3957 20.6483 3.25056C20.7453 3.10543 20.8832 2.99231 21.0444 2.92552C21.2057 2.85872 21.3831 2.84124 21.5543 2.87529C21.7255 2.90935 21.8828 2.9934 22.0062 3.11683C22.1296 3.24025 22.2137 3.39751 22.2477 3.5687C22.2818 3.7399 22.2643 3.91735 22.1975 4.07862C22.1307 4.23988 22.0176 4.37771 21.8725 4.47469C21.7273 4.57166 21.5567 4.62342 21.3822 4.62342C21.1482 4.62318 20.9238 4.53011 20.7584 4.36466C20.5929 4.1992 20.4999 3.97487 20.4996 3.74088ZM7.7353 3.74088C7.7353 3.56633 7.78706 3.3957 7.88403 3.25056C7.98101 3.10543 8.11884 2.99231 8.2801 2.92552C8.44137 2.85872 8.61882 2.84124 8.79002 2.87529C8.96121 2.90935 9.11847 2.9934 9.24189 3.11683C9.36532 3.24025 9.44937 3.39751 9.48343 3.5687C9.51748 3.7399 9.5 3.91735 9.4332 4.07862C9.36641 4.23988 9.25329 4.37771 9.10816 4.47469C8.96302 4.57166 8.79239 4.62342 8.61784 4.62342C8.38385 4.62318 8.15952 4.53011 7.99406 4.36466C7.82861 4.1992 7.73554 3.97487 7.7353 3.74088ZM3.74088 9.50038C3.56633 9.50038 3.3957 9.44862 3.25056 9.35165C3.10543 9.25467 2.99231 9.11684 2.92552 8.95557C2.85872 8.79431 2.84124 8.61686 2.87529 8.44566C2.90935 8.27447 2.9934 8.11721 3.11683 7.99379C3.24025 7.87036 3.39751 7.78631 3.5687 7.75225C3.7399 7.7182 3.91735 7.73568 4.07861 7.80247C4.23988 7.86927 4.37771 7.98239 4.47469 8.12752C4.57166 8.27266 4.62342 8.44329 4.62342 8.61784C4.62311 8.85181 4.53003 9.07611 4.36459 9.24155C4.19915 9.40699 3.97485 9.50007 3.74088 9.50038ZM3.74088 22.2647C3.56633 22.2647 3.3957 22.2129 3.25056 22.116C3.10543 22.019 2.99231 21.8812 2.92552 21.7199C2.85872 21.5586 2.84124 21.3812 2.87529 21.21C2.90935 21.0388 2.9934 20.8815 3.11683 20.7581C3.24025 20.6347 3.39751 20.5506 3.5687 20.5166C3.7399 20.4825 3.91735 20.5 4.07861 20.5668C4.23988 20.6336 4.37771 20.7467 4.47469 20.8918C4.57166 21.037 4.62342 21.2076 4.62342 21.3822C4.6233 21.6163 4.5303 21.8407 4.36484 22.0063C4.19938 22.1719 3.97497 22.2651 3.74088 22.2654V22.2647ZM9.50038 26.2591C9.50038 26.4337 9.44862 26.6043 9.35165 26.7494C9.25467 26.8946 9.11684 27.0077 8.95558 27.0745C8.79431 27.1413 8.61686 27.1588 8.44566 27.1247C8.27447 27.0907 8.11721 27.0066 7.99379 26.8832C7.87036 26.7597 7.78631 26.6025 7.75225 26.4313C7.7182 26.2601 7.73568 26.0826 7.80248 25.9214C7.86927 25.7601 7.98239 25.6223 8.12752 25.5253C8.27266 25.4283 8.44329 25.3766 8.61784 25.3766C8.85183 25.3768 9.07616 25.4699 9.24162 25.6353C9.40707 25.8008 9.50014 26.0251 9.50038 26.2591ZM22.2647 26.2591C22.2647 26.4337 22.2129 26.6043 22.116 26.7494C22.019 26.8946 21.8812 27.0077 21.7199 27.0745C21.5586 27.1413 21.3812 27.1588 21.21 27.1247C21.0388 27.0907 20.8815 27.0066 20.7581 26.8832C20.6347 26.7597 20.5506 26.6025 20.5166 26.4313C20.4825 26.2601 20.5 26.0826 20.5668 25.9214C20.6336 25.7601 20.7467 25.6223 20.8918 25.5253C21.037 25.4283 21.2076 25.3766 21.3822 25.3766C21.6161 25.3768 21.8405 25.4699 22.0059 25.6353C22.1714 25.8008 22.2645 26.0251 22.2647 26.2591ZM26.2591 20.4996C26.4337 20.4996 26.6043 20.5514 26.7494 20.6483C26.8946 20.7453 27.0077 20.8832 27.0745 21.0444C27.1413 21.2057 27.1588 21.3831 27.1247 21.5543C27.0907 21.7255 27.0066 21.8828 26.8832 22.0062C26.7597 22.1296 26.6025 22.2137 26.4313 22.2477C26.2601 22.2818 26.0826 22.2643 25.9214 22.1975C25.7601 22.1307 25.6223 22.0176 25.5253 21.8725C25.4283 21.7273 25.3766 21.5567 25.3766 21.3822C25.3768 21.1482 25.4699 20.9238 25.6353 20.7584C25.8008 20.5929 26.0251 20.4999 26.2591 20.4996ZM14.1175 1.70465C14.1175 1.5301 14.1692 1.35947 14.2662 1.21434C14.3632 1.0692 14.501 0.956087 14.6623 0.889289C14.8235 0.822491 15.001 0.805014 15.1722 0.839067C15.3434 0.87312 15.5006 0.957174 15.6241 1.0806C15.7475 1.20403 15.8315 1.36128 15.8656 1.53248C15.8996 1.70367 15.8822 1.88112 15.8154 2.04239C15.7486 2.20365 15.6354 2.34149 15.4903 2.43846C15.3452 2.53544 15.1746 2.5872 15 2.5872C14.766 2.58689 14.5417 2.49381 14.3763 2.32836C14.2108 2.16292 14.1178 1.93862 14.1175 1.70465ZM1.70465 15.8825C1.53007 15.8825 1.35941 15.8308 1.21427 15.7338C1.06912 15.6368 0.955999 15.4989 0.889222 15.3376C0.822445 15.1763 0.805009 14.9988 0.839119 14.8276C0.873229 14.6563 0.957353 14.4991 1.08085 14.3757C1.20435 14.2523 1.36167 14.1683 1.53291 14.1343C1.70415 14.1004 1.88162 14.1179 2.04288 14.1848C2.20413 14.2517 2.34191 14.365 2.4388 14.5102C2.53569 14.6554 2.58734 14.8261 2.5872 15.0007C2.58676 15.2346 2.49362 15.4587 2.32818 15.624C2.16275 15.7893 1.93852 15.8823 1.70465 15.8825ZM15.8825 28.2953C15.8825 28.4699 15.8308 28.6405 15.7338 28.7857C15.6368 28.9308 15.499 29.0439 15.3377 29.1107C15.1765 29.1775 14.999 29.195 14.8278 29.1609C14.6566 29.1269 14.4994 29.0428 14.3759 28.9194C14.2525 28.796 14.1685 28.6387 14.1344 28.4675C14.1004 28.2963 14.1178 28.1189 14.1846 27.9576C14.2514 27.7963 14.3646 27.6585 14.5097 27.5615C14.6548 27.4646 14.8254 27.4128 15 27.4128C15.234 27.413 15.4583 27.5061 15.6238 27.6716C15.7892 27.837 15.8823 28.0614 15.8825 28.2953ZM15.0108 21.5064C15.0073 21.5064 15.0037 21.5064 15 21.5064C14.9963 21.5064 14.9927 21.5064 14.9892 21.5064C13.2671 21.5015 11.6171 20.8149 10.3999 19.5967C9.18276 18.3784 8.49762 16.7277 8.49434 15.0056V14.9946C8.49434 13.2692 9.17976 11.6145 10.3998 10.3944C11.6199 9.17437 13.2746 8.48895 15 8.48895C16.7254 8.48895 18.3801 9.17437 19.6002 10.3944C20.8202 11.6145 21.5057 13.2692 21.5057 14.9946V15.0056C21.5024 16.7277 20.8172 18.3784 19.6001 19.5967C18.3829 20.8149 16.7329 21.5015 15.0108 21.5064ZM28.2953 15.8821C28.1207 15.8821 27.9501 15.8303 27.8049 15.7333C27.6597 15.6362 27.5466 15.4983 27.4799 15.337C27.4131 15.1757 27.3957 14.9982 27.4298 14.8269C27.464 14.6557 27.5482 14.4984 27.6717 14.3751C27.7953 14.2517 27.9526 14.1677 28.1239 14.1338C28.2952 14.0999 28.4727 14.1175 28.6339 14.1845C28.7951 14.2515 28.9329 14.3648 29.0297 14.5101C29.1266 14.6554 29.1781 14.8261 29.1779 15.0007C29.1775 15.2346 29.0843 15.4587 28.9189 15.624C28.7534 15.7893 28.5292 15.8823 28.2953 15.8825V15.8821Z" fill="#3E66F3"/>
</svg>
