<svg width="30" height="30" viewBox="0 0 30 30" fill="none" xmlns="http://www.w3.org/2000/svg">
<path d="M0.452894 16.4639C0.387013 16.4685 0.322761 16.4865 0.264028 16.5167C0.205294 16.5469 0.153301 16.5887 0.111196 16.6396C0.0690024 16.6909 0.0377155 16.7502 0.0192502 16.814C0.000784905 16.8778 -0.00447051 16.9447 0.00380561 17.0106C0.351566 19.6209 1.37645 22.0948 2.97658 24.1863C3.01588 24.2411 3.06612 24.2872 3.12414 24.3217C3.18216 24.3561 3.24669 24.3782 3.31366 24.3864C3.38063 24.3947 3.44858 24.389 3.51323 24.3696C3.57788 24.3503 3.63782 24.3178 3.68926 24.2741C3.97127 24.0626 4.3201 23.9599 4.67172 23.9849C5.02335 24.0099 5.35415 24.1609 5.60341 24.4102C5.85267 24.6594 6.00366 24.9902 6.02865 25.3418C6.05364 25.6935 5.95095 26.0423 5.73945 26.3243C5.69501 26.3748 5.66149 26.434 5.641 26.498C5.6205 26.5621 5.61347 26.6297 5.62034 26.6966C5.62722 26.7636 5.64785 26.8283 5.68095 26.8869C5.71405 26.9455 5.75889 26.9966 5.81267 27.037C7.90847 28.6334 10.3858 29.6533 12.9981 29.9951C13.064 30.0034 13.1309 29.9981 13.1947 29.9797C13.2584 29.9612 13.3178 29.9299 13.3691 29.8877C13.4209 29.8461 13.4636 29.7943 13.4946 29.7355C13.5257 29.6768 13.5444 29.6123 13.5497 29.546C13.5994 29.197 13.7734 28.8776 14.0398 28.6465C14.3061 28.4154 14.6469 28.2882 14.9995 28.2882C15.3521 28.2882 15.6928 28.4154 15.9592 28.6465C16.2255 28.8776 16.3995 29.197 16.4492 29.546C16.4545 29.6123 16.4732 29.6768 16.5043 29.7355C16.5353 29.7943 16.5781 29.8461 16.6298 29.8877C16.7164 29.9594 16.825 29.9991 16.9374 30H17.0008C19.6146 29.6539 22.092 28.6289 24.1863 27.0272C24.2419 26.9879 24.2886 26.9375 24.3236 26.879C24.3585 26.8206 24.3808 26.7555 24.3891 26.6879C24.3974 26.6203 24.3914 26.5518 24.3716 26.4866C24.3518 26.4215 24.3186 26.3612 24.2741 26.3097C24.0626 26.0277 23.9599 25.6788 23.9849 25.3272C24.0099 24.9756 24.1609 24.6448 24.4102 24.3955C24.6594 24.1462 24.9902 23.9953 25.3418 23.9703C25.6935 23.9453 26.0423 24.048 26.3243 24.2595C26.3748 24.3039 26.434 24.3374 26.498 24.3579C26.5621 24.3784 26.6297 24.3855 26.6966 24.3786C26.7636 24.3717 26.8283 24.3511 26.8869 24.318C26.9455 24.2849 26.9966 24.24 27.037 24.1863C28.6334 22.0905 29.6533 19.6132 29.9951 17.0008C30.0018 16.9359 29.9955 16.8703 29.9764 16.8079C29.9573 16.7455 29.9259 16.6875 29.884 16.6375C29.8421 16.5874 29.7907 16.5463 29.7326 16.5165C29.6746 16.4866 29.6111 16.4688 29.546 16.4639C29.1576 16.4639 28.7852 16.3096 28.5105 16.035C28.2359 15.7603 28.0816 15.3879 28.0816 14.9995C28.0816 14.6111 28.2359 14.2386 28.5105 13.964C28.7852 13.6893 29.1576 13.535 29.546 13.535C29.612 13.5302 29.6764 13.5121 29.7351 13.4817C29.7939 13.4512 29.8459 13.4092 29.8879 13.358C29.9299 13.3069 29.961 13.2478 29.9795 13.1842C29.9979 13.1206 30.0032 13.054 29.9951 12.9883C29.649 10.3746 28.624 7.89718 27.0223 5.80291C26.9823 5.74877 26.9315 5.70351 26.8731 5.66996C26.8147 5.63641 26.75 5.61531 26.6831 5.60797C26.6162 5.60064 26.5484 5.60723 26.4842 5.62734C26.4199 5.64744 26.3605 5.68063 26.3097 5.7248C26.0278 5.9177 25.6873 6.00598 25.3472 5.97437C25.0071 5.94277 24.6887 5.79327 24.4472 5.55174C24.2057 5.31021 24.0562 4.99184 24.0245 4.65173C23.9929 4.31162 24.0812 3.97116 24.2741 3.68926C24.3186 3.63876 24.3521 3.57961 24.3726 3.51554C24.3931 3.45146 24.4001 3.38384 24.3932 3.31692C24.3863 3.25 24.3657 3.18522 24.3326 3.12666C24.2995 3.06809 24.2547 3.01699 24.2009 2.97658C22.1024 1.37253 19.6197 0.347445 17.0008 0.00380561C16.9349 -0.00447051 16.8681 0.000784905 16.8043 0.0192502C16.7405 0.0377155 16.6811 0.0690024 16.6298 0.111196C16.5781 0.152857 16.5353 0.204653 16.5043 0.263409C16.4732 0.322165 16.4545 0.386644 16.4492 0.452894C16.413 0.814146 16.2438 1.14905 15.9746 1.39262C15.7053 1.63619 15.3552 1.77106 14.9921 1.77106C14.6291 1.77106 14.279 1.63619 14.0097 1.39262C13.7405 1.14905 13.5713 0.814146 13.535 0.452894C13.5298 0.386644 13.5111 0.322165 13.48 0.263409C13.4489 0.204653 13.4062 0.152857 13.3544 0.111196C13.3032 0.0690024 13.2438 0.0377155 13.18 0.0192502C13.1162 0.000784905 13.0493 -0.00447051 12.9834 0.00380561C10.3748 0.352388 7.90276 1.37723 5.81267 2.97658C5.75782 3.01588 5.71171 3.06612 5.67726 3.12414C5.6428 3.18216 5.62075 3.24669 5.61249 3.31366C5.60424 3.38063 5.60995 3.44858 5.62929 3.51323C5.64862 3.57788 5.68114 3.63782 5.7248 3.68926C5.9177 3.97116 6.00598 4.31162 5.97437 4.65173C5.94277 4.99184 5.79327 5.31021 5.55174 5.55174C5.31021 5.79327 4.99184 5.94277 4.65173 5.97437C4.31162 6.00598 3.97116 5.9177 3.68926 5.7248C3.63876 5.68037 3.57961 5.64685 3.51554 5.62635C3.45146 5.60585 3.38384 5.59882 3.31692 5.6057C3.25 5.61257 3.18522 5.63321 3.12666 5.6663C3.06809 5.6994 3.01699 5.74425 2.97658 5.79803C1.37253 7.89648 0.347445 10.3792 0.00380561 12.9981C-0.00447051 13.064 0.000784905 13.1309 0.0192502 13.1947C0.0377155 13.2584 0.0690024 13.3178 0.111196 13.3691C0.153301 13.42 0.205294 13.4618 0.264028 13.492C0.322761 13.5222 0.387013 13.5402 0.452894 13.5448C0.841283 13.5448 1.21376 13.6991 1.4884 13.9737C1.76303 14.2484 1.91731 14.6208 1.91731 15.0092C1.91731 15.3976 1.76303 15.7701 1.4884 16.0447C1.21376 16.3194 0.841283 16.4736 0.452894 16.4736V16.4639ZM1.03866 12.6759C1.39271 10.5532 2.22756 8.5395 3.47936 6.78895C3.94172 7.0362 4.4714 7.12798 4.98999 7.05072C5.50858 6.97345 5.9885 6.73124 6.3587 6.35995C6.72889 5.98866 6.96968 5.50802 7.04542 4.98921C7.12115 4.4704 7.0278 3.94098 6.77919 3.47936C8.52974 2.22756 10.5434 1.39271 12.6662 1.03866C12.8194 1.53795 13.1287 1.97493 13.5487 2.28537C13.9687 2.59581 14.4772 2.76334 14.9995 2.76334C15.5217 2.76334 16.0302 2.59581 16.4502 2.28537C16.8702 1.97493 17.1796 1.53795 17.3328 1.03866C19.4555 1.39271 21.4692 2.22756 23.2197 3.47936C22.975 3.94076 22.8847 4.46849 22.9622 4.985C23.0397 5.50151 23.2808 5.97954 23.6501 6.34885C24.0194 6.71816 24.4974 6.95927 25.0139 7.03673C25.5304 7.11419 26.0582 7.02392 26.5196 6.77919C27.7714 8.52974 28.6062 10.5434 28.9603 12.6662C28.461 12.8194 28.024 13.1287 27.7136 13.5487C27.4031 13.9687 27.2356 14.4772 27.2356 14.9995C27.2356 15.5217 27.4031 16.0302 27.7136 16.4502C28.024 16.8702 28.461 17.1796 28.9603 17.3328C28.6062 19.4555 27.7714 21.4692 26.5196 23.2197C26.0582 22.975 25.5304 22.8847 25.0139 22.9622C24.4974 23.0397 24.0194 23.2808 23.6501 23.6501C23.2808 24.0194 23.0397 24.4974 22.9622 25.0139C22.8847 25.5304 22.975 26.0582 23.2197 26.5196C21.4692 27.7714 19.4555 28.6062 17.3328 28.9603C17.1796 28.461 16.8702 28.024 16.4502 27.7136C16.0302 27.4031 15.5217 27.2356 14.9995 27.2356C14.4772 27.2356 13.9687 27.4031 13.5487 27.7136C13.1287 28.024 12.8194 28.461 12.6662 28.9603C10.5434 28.6062 8.52974 27.7714 6.77919 26.5196C7.02392 26.0582 7.11419 25.5304 7.03673 25.0139C6.95927 24.4974 6.71816 24.0194 6.34885 23.6501C5.97954 23.2808 5.50151 23.0397 4.985 22.9622C4.46849 22.8847 3.94076 22.975 3.47936 23.2197C2.22756 21.4692 1.39271 19.4555 1.03866 17.3328C1.53795 17.1796 1.97493 16.8702 2.28537 16.4502C2.59581 16.0302 2.76334 15.5217 2.76334 14.9995C2.76334 14.4772 2.59581 13.9687 2.28537 13.5487C1.97493 13.1287 1.53795 12.8194 1.03866 12.6662V12.6759Z" fill="#3E66F3"/>
<path d="M8.52185 26.4805C9.4169 26.993 10.3687 27.3993 11.3579 27.6911L11.6362 26.7148C10.7178 26.4525 9.83314 26.0839 9.00022 25.6165L8.52185 26.4805Z" fill="#3E66F3"/>
<path d="M21.4576 3.50865C20.5703 3.01113 19.6284 2.618 18.6507 2.33711H18.5971L18.3627 3.31339C19.2738 3.57449 20.1518 3.93975 20.9792 4.40195L21.4576 3.50865Z" fill="#3E66F3"/>
<path d="M4.3629 9.00999L3.51353 8.52185C3.01368 9.40796 2.62043 10.3501 2.342 11.3287V11.3823L3.28899 11.6264C3.54501 10.7158 3.90536 9.83786 4.3629 9.00999Z" fill="#3E66F3"/>
<path d="M18.27 26.7588L18.5287 27.6911C19.5267 27.4127 20.4884 27.0178 21.3941 26.5147L20.906 25.6604C20.0721 26.1259 19.1877 26.4944 18.27 26.7588Z" fill="#3E66F3"/>
<path d="M11.7094 3.24505L11.4458 2.30783C10.45 2.59008 9.49011 2.98647 8.58531 3.48912L9.07345 4.34337C9.90642 3.87605 10.791 3.50746 11.7094 3.24505Z" fill="#3E66F3"/>
<path d="M4.33361 20.9304C3.86846 20.0924 3.50311 19.2028 3.24505 18.2798L2.30783 18.5385C2.58468 19.5362 2.97789 20.4979 3.47936 21.4039L4.33361 20.9304Z" fill="#3E66F3"/>
<path d="M25.6263 21.0085L26.4756 21.4966C26.9909 20.592 27.3988 19.6304 27.6911 18.6312V18.5873L26.7148 18.3627C26.4577 19.2845 26.0923 20.1726 25.6263 21.0085Z" fill="#3E66F3"/>
<path d="M27.6911 11.436C27.4095 10.4392 27.0113 9.47912 26.5049 8.57554L25.6556 9.06368C26.1222 9.90151 26.4892 10.7911 26.749 11.7143L27.6911 11.436Z" fill="#3E66F3"/>
<path d="M14.9995 25.7385C21.1891 25.7385 26.2267 20.9206 26.2267 14.9995C26.2267 9.71291 22.2142 5.31477 16.952 4.42635V4.26039H15.9757V4.30432C15.6536 4.26039 15.3265 4.26039 14.9995 4.26039C8.80985 4.26039 3.77225 9.07833 3.77225 14.9995C3.77225 20.9206 8.80985 25.7385 14.9995 25.7385ZM9.79589 6.60346L10.1181 8.26313C10.1366 8.35352 10.1804 8.4368 10.2443 8.50332C10.3082 8.56985 10.3897 8.61689 10.4793 8.639L11.6167 8.92212C11.6751 9.12662 11.7988 9.30643 11.9689 9.43419C12.1389 9.56195 12.3461 9.63068 12.5588 9.62992C12.7202 9.63057 12.8792 9.59118 13.0217 9.51529C13.1642 9.43939 13.2856 9.32936 13.3751 9.19504C13.4646 9.06071 13.5194 8.90629 13.5346 8.74559C13.5498 8.58489 13.5249 8.42293 13.4622 8.27421C13.3995 8.12548 13.3008 7.99463 13.1751 7.89337C13.0494 7.79211 12.9006 7.7236 12.7419 7.69396C12.5832 7.66433 12.4197 7.6745 12.2659 7.72357C12.1121 7.77264 11.9729 7.85907 11.8607 7.97513L11.026 7.76523L10.699 6.14949C12.0527 5.54725 13.5178 5.23626 14.9995 5.23667C15.3314 5.23667 15.6536 5.23667 15.9757 5.28548V8.80009L14.897 9.62992C14.776 9.57251 14.645 9.53935 14.5113 9.5323C14.3182 9.5323 14.1295 9.58955 13.9689 9.69683C13.8084 9.8041 13.6833 9.95658 13.6094 10.135C13.5355 10.3134 13.5161 10.5097 13.5538 10.699C13.5915 10.8884 13.6845 11.0624 13.821 11.1989C13.9575 11.3354 14.1315 11.4284 14.3209 11.4661C14.5102 11.5038 14.7065 11.4844 14.8849 11.4105C15.0633 11.3366 15.2158 11.2115 15.3231 11.051C15.4303 10.8904 15.4876 10.7017 15.4876 10.5086C15.4902 10.4712 15.4902 10.4337 15.4876 10.3963L16.7665 9.42002C16.8272 9.37455 16.8764 9.3156 16.9102 9.24781C16.9441 9.18003 16.9618 9.10529 16.9618 9.02951V5.41728C17.6293 5.54045 18.2833 5.72846 18.9143 5.97864V10.1181C18.9143 10.2475 18.9658 10.3717 19.0573 10.4632C19.1489 10.5548 19.273 10.6062 19.4025 10.6062H21.0036C21.111 10.7923 21.2769 10.9378 21.4755 11.02C21.674 11.1023 21.8942 11.1167 22.1017 11.0611C22.3093 11.0055 22.4928 10.8829 22.6236 10.7124C22.7544 10.5419 22.8253 10.333 22.8253 10.1181C22.8253 9.90315 22.7544 9.69424 22.6236 9.52374C22.4928 9.35324 22.3093 9.23067 22.1017 9.17505C21.8942 9.11943 21.674 9.13386 21.4755 9.2161C21.2769 9.29834 21.111 9.4438 21.0036 9.62992H19.8809V6.41796C21.4786 7.21612 22.8252 8.43951 23.7725 9.95354C24.7199 11.4676 25.2312 13.2136 25.2504 14.9995C25.2349 16.666 24.7879 18.3001 23.953 19.7424C23.118 21.1848 21.9236 22.3862 20.4862 23.2295L20.3641 22.2532C20.3523 22.1551 20.3109 22.063 20.2455 21.9889C20.1802 21.9148 20.0939 21.8623 19.998 21.8383L18.8606 21.5552C18.8009 21.3541 18.6779 21.1776 18.51 21.0519C18.342 20.9262 18.1381 20.8579 17.9283 20.8571C17.7669 20.8565 17.6078 20.8959 17.4654 20.9718C17.3229 21.0477 17.2015 21.1577 17.112 21.292C17.0225 21.4264 16.9677 21.5808 16.9525 21.7415C16.9373 21.9022 16.9621 22.0641 17.0249 22.2129C17.0876 22.3616 17.1862 22.4924 17.3119 22.5937C17.4376 22.695 17.5865 22.7635 17.7452 22.7931C17.9038 22.8227 18.0674 22.8126 18.2212 22.7635C18.3749 22.7144 18.5142 22.628 18.6263 22.5119L19.4367 22.7121L19.5685 23.7274C18.1411 24.4072 16.5804 24.7607 14.9995 24.7623C14.6675 24.7623 14.3454 24.7623 14.0232 24.7134V21.1012L15.102 20.2909C15.2243 20.3416 15.3552 20.3681 15.4876 20.369C15.6807 20.369 15.8694 20.3117 16.03 20.2045C16.1905 20.0972 16.3157 19.9447 16.3896 19.7663C16.4635 19.5879 16.4828 19.3916 16.4451 19.2023C16.4075 19.0129 16.3145 18.8389 16.1779 18.7024C16.0414 18.5659 15.8674 18.4729 15.6781 18.4352C15.4887 18.3975 15.2924 18.4169 15.114 18.4908C14.9356 18.5646 14.7831 18.6898 14.6759 18.8503C14.5686 19.0109 14.5113 19.1996 14.5113 19.3927C14.5087 19.4301 14.5087 19.4676 14.5113 19.505L13.2324 20.4813C13.1718 20.5267 13.1226 20.5857 13.0887 20.6535C13.0548 20.7213 13.0371 20.796 13.0371 20.8718V24.5963C12.3696 24.4731 11.7156 24.2851 11.0846 24.0349V20.369C11.0846 20.2395 11.0332 20.1154 10.9416 20.0238C10.8501 19.9323 10.7259 19.8809 10.5964 19.8809H9.49324C9.38579 19.6947 9.21992 19.5493 9.02137 19.467C8.82281 19.3848 8.60267 19.3704 8.39508 19.426C8.18749 19.4816 8.00406 19.6042 7.87323 19.7747C7.7424 19.9452 7.67148 20.1541 7.67148 20.369C7.67148 20.5839 7.7424 20.7928 7.87323 20.9633C8.00406 21.1338 8.18749 21.2564 8.39508 21.312C8.60267 21.3676 8.82281 21.3532 9.02137 21.271C9.21992 21.1887 9.38579 21.0433 9.49324 20.8571H10.1181V23.581C8.52035 22.7828 7.17374 21.5594 6.2264 20.0454C5.27905 18.5313 4.76768 16.7853 4.74853 14.9995C4.76697 13.2775 5.24443 11.5917 6.13167 10.1158C7.01891 8.63994 8.28381 7.42747 9.79589 6.60346Z" fill="#3E66F3"/>
<path d="M9.14178 14.5113L11.192 17.2449C11.2374 17.3055 11.2964 17.3547 11.3642 17.3886C11.432 17.4225 11.5067 17.4402 11.5825 17.4402C11.6343 17.4472 11.6869 17.4472 11.7387 17.4402C11.8397 17.4062 11.9269 17.3401 11.9868 17.252C12.0467 17.1638 12.0762 17.0585 12.0706 16.952V12.5588H11.0943V15.4876L9.04416 12.754C8.98268 12.6721 8.89698 12.6115 8.79919 12.581C8.7014 12.5504 8.59648 12.5514 8.49928 12.5838C8.40209 12.6162 8.31755 12.6784 8.25764 12.7615C8.19774 12.8446 8.1655 12.9445 8.1655 13.0469V17.4402H9.14178V14.5113Z" fill="#3E66F3"/>
<path d="M14.0232 15.4876H16.4639V14.5113H14.0232V13.535H16.4639V12.5588H13.535C13.4056 12.5588 13.2814 12.6102 13.1899 12.7017C13.0983 12.7933 13.0469 12.9174 13.0469 13.0469V17.4402H14.0232V15.4876Z" fill="#3E66F3"/>
<path d="M18.9046 17.4402H19.8809V13.535H21.3453V12.5588H17.4402V13.535H18.9046V17.4402Z" fill="#3E66F3"/>
</svg>
