<svg width="30" height="30" viewBox="0 0 30 30" fill="none" xmlns="http://www.w3.org/2000/svg">
<path d="M14.375 15C14.03 15 13.75 14.72 13.75 14.375V8.125C13.75 7.78 14.03 7.5 14.375 7.5H16.25C17.6287 7.5 18.75 8.62125 18.75 10C18.75 11.3787 17.6287 12.5 16.25 12.5H15V14.375C15 14.72 14.72 15 14.375 15ZM15 11.25H16.25C16.94 11.25 17.5 10.6887 17.5 10C17.5 9.31125 16.94 8.75 16.25 8.75H15V11.25Z" fill="#3E66F3"/>
<path d="M18.125 15C17.965 15 17.805 14.9387 17.6825 14.8175L15.1825 12.3175C14.9387 12.0737 14.9387 11.6775 15.1825 11.4337C15.4262 11.19 15.8225 11.19 16.0662 11.4337L18.5662 13.9337C18.81 14.1775 18.81 14.5737 18.5662 14.8175C18.445 14.9387 18.285 15 18.125 15Z" fill="#3E66F3"/>
<path d="M8.75 15C8.47375 15 8.23125 14.8187 8.15125 14.555L6.27625 8.305C6.17625 7.975 6.36375 7.62625 6.695 7.52625C7.025 7.42875 7.37375 7.615 7.47375 7.945L8.75 12.2L10.0262 7.94625C10.125 7.615 10.4762 7.43 10.8037 7.5275C11.135 7.6275 11.3225 7.975 11.2225 8.30625L9.3475 14.5562C9.26875 14.8187 9.02625 15 8.75 15Z" fill="#3E66F3"/>
<path d="M23.125 11.25C22.0912 11.25 21.25 10.4087 21.25 9.375C21.25 8.34125 22.0912 7.5 23.125 7.5C24.1587 7.5 25 8.34125 25 9.375C25 10.4087 24.1587 11.25 23.125 11.25ZM23.125 8.75C22.7812 8.75 22.5 9.03 22.5 9.375C22.5 9.72 22.7812 10 23.125 10C23.4687 10 23.75 9.72 23.75 9.375C23.75 9.03 23.4687 8.75 23.125 8.75Z" fill="#3E66F3"/>
<path d="M26.875 21.25H18.9625C18.6937 21.25 18.455 21.0775 18.3687 20.8225L17.82 19.1725C17.7337 18.9237 17.4925 18.75 17.225 18.75H12.775C12.5075 18.75 12.2675 18.9237 12.1762 19.1825L11.63 20.8237C11.545 21.0775 11.3062 21.25 11.0375 21.25H3.125C1.40125 21.25 0 19.8475 0 18.125V6.875C0 5.1525 1.40125 3.75 3.125 3.75H26.875C28.5987 3.75 30 5.1525 30 6.875V18.125C30 19.8475 28.5987 21.25 26.875 21.25ZM19.4125 20H26.875C27.9087 20 28.75 19.1587 28.75 18.125V6.875C28.75 5.84125 27.9087 5 26.875 5H3.125C2.09125 5 1.25 5.84125 1.25 6.875V18.125C1.25 19.1587 2.09125 20 3.125 20H10.5875L10.9937 18.7775C11.2637 18.01 11.9775 17.5 12.775 17.5H17.2262C18.0237 17.5 18.7375 18.01 19.0037 18.7687L19.4125 20Z" fill="#3E66F3"/>
<path d="M25.625 5C25.28 5 25 4.72 25 4.375V3.125C25 2.09125 24.1587 1.25 23.125 1.25H6.875C5.84125 1.25 5 2.09125 5 3.125V4.375C5 4.72 4.72 5 4.375 5C4.03 5 3.75 4.72 3.75 4.375V3.125C3.75 1.4025 5.15125 0 6.875 0H23.125C24.8487 0 26.25 1.4025 26.25 3.125V4.375C26.25 4.72 25.97 5 25.625 5Z" fill="#3E66F3"/>
<path d="M13.75 30C13.5612 30 13.3725 29.9137 13.25 29.75C13.0437 29.4737 13.1 29.0825 13.3762 28.875L15.21 27.5L13.375 26.125C13.0987 25.9175 13.0425 25.5262 13.2487 25.25C13.4575 24.9725 13.8487 24.92 14.1237 25.125L16.6237 27C16.7812 27.1175 16.8737 27.3037 16.8737 27.5C16.8737 27.6962 16.7812 27.8825 16.6237 28L14.1237 29.875C14.0125 29.9587 13.88 30 13.75 30Z" fill="#3E66F3"/>
<path d="M15 28.125C13.7187 28.125 12.4125 28.0775 11.1187 27.9862C5.74375 27.5987 0 26.2825 0 23.75C0 23.4862 0.06875 23.215 0.20375 22.945C0.35875 22.635 0.73625 22.5112 1.04375 22.6662C1.35125 22.8212 1.47625 23.1962 1.3225 23.505C1.275 23.6 1.25 23.6825 1.25 23.75C1.25 24.6662 4.41375 26.25 11.2075 26.74C12.4812 26.83 13.7462 26.9187 15.0262 26.875C15.3212 26.875 15.605 26.875 15.8875 26.8637C16.2487 26.8487 16.5237 27.1175 16.5387 27.4625C16.5525 27.8075 16.2837 28.0987 15.94 28.1125C15.63 28.125 15.3212 28.125 15 28.125Z" fill="#3E66F3"/>
<path d="M19.3612 27.9375C19.04 27.9375 18.7662 27.69 18.74 27.3637C18.7125 27.02 18.9675 26.7175 19.3113 26.6887C25.7512 26.1625 28.75 24.6237 28.75 23.75C28.75 23.6825 28.725 23.6 28.6775 23.505C28.5237 23.1962 28.6487 22.8212 28.9562 22.6662C29.2625 22.51 29.64 22.635 29.7962 22.945C29.9312 23.215 30 23.4862 30 23.75C30 26.8287 21.8975 27.7325 19.4137 27.9362C19.3975 27.9375 19.3787 27.9375 19.3612 27.9375Z" fill="#3E66F3"/>
</svg>
