<svg width="38" height="45" viewBox="0 0 38 45" fill="none" xmlns="http://www.w3.org/2000/svg">
<path d="M37.1609 28.1936C36.7538 27.5902 36.1336 27.1814 35.4145 27.0427C34.8618 26.9361 34.3038 26.9998 33.8008 27.22C33.7475 27.1095 33.6874 27.0024 33.6193 26.9005C33.2287 26.3139 32.6339 25.9174 31.9442 25.784C31.2665 25.6529 30.5825 25.7939 30.0178 26.1813L29.8914 26.2682C29.8704 26.2334 29.8487 26.199 29.826 26.1651C29.4478 25.5969 28.8719 25.213 28.2046 25.084C27.5496 24.9576 26.8883 25.0942 26.3428 25.4689L24.8736 26.4782C24.856 26.4498 24.8384 26.4214 24.8194 26.3937C24.4739 25.8805 23.9478 25.5338 23.3378 25.4172C22.7317 25.3013 22.1196 25.4282 21.614 25.7745L16.1408 29.5241L15.3418 29.167C13.3541 28.2808 11.3675 28.1235 9.26901 28.6861C7.61645 29.1283 6.15005 29.951 4.85631 30.6768C3.8801 31.2245 2.95797 31.7418 2.19161 31.9471L0.471095 32.4074C0.132235 32.498 -0.0689031 32.8462 0.0217316 33.1851C0.112457 33.524 0.460843 33.7252 0.799339 33.6345L2.51995 33.1741C3.44045 32.9277 4.42999 32.3725 5.47778 31.7847C6.70638 31.0954 8.09883 30.3142 9.59762 29.9131C11.4038 29.429 13.1136 29.5643 14.824 30.327L17.4426 31.4973C19.2889 32.3203 21.1334 32.4657 23.0809 31.9423L25.7914 31.2171C26.6769 30.9802 27.5915 31.5083 27.8299 32.3932C27.9439 32.8187 27.8838 33.266 27.6604 33.6525C27.4371 34.0391 27.0796 34.3148 26.6538 34.4289L17.2412 36.9491C16.9025 37.0398 16.7013 37.388 16.7921 37.7268C16.868 38.0106 17.1247 38.1978 17.4051 38.1978C17.4594 38.1978 17.5147 38.1907 17.5698 38.176L26.9824 35.6556C27.7358 35.4538 28.3672 34.968 28.7602 34.2879C29.1533 33.6074 29.2587 32.8178 29.0566 32.0636C29.0443 32.0178 29.0307 31.9728 29.0164 31.9282L34.0758 28.5118C34.3983 28.2942 34.7884 28.2154 35.1739 28.2897C35.5592 28.3641 35.8909 28.5821 36.108 28.9039C36.5594 29.573 36.3824 30.4846 35.713 30.9362L22.7488 39.6956C21.5695 40.4928 16.4146 41.7825 13.6452 42.4754C12.9775 42.6425 12.4009 42.7868 12.0153 42.8898C11.3915 43.0571 10.8305 43.0905 10.195 42.9981L9.28534 42.867C8.57179 42.7633 4.73528 42.6097 3.8704 42.8385L0.47055 43.7514C0.131781 43.8424 -0.0690846 44.1907 0.021913 44.5295C0.0980316 44.8131 0.354603 45 0.634854 45C0.68938 45 0.744813 44.9929 0.799974 44.9781L4.19755 44.0658C4.73882 43.9226 8.32166 44.0105 9.10353 44.1241L10.0131 44.2552C10.8269 44.3735 11.5459 44.3308 12.3438 44.1168C12.719 44.0164 13.2911 43.8734 13.9535 43.7076C18.0732 42.6769 22.2006 41.5993 23.46 40.748L36.4238 31.9889C37.6735 31.1459 38.0041 29.4432 37.1609 28.1936ZM17.501 30.1321L22.3319 26.8224C22.5559 26.6691 22.8286 26.613 23.0995 26.6648C23.3744 26.7174 23.6111 26.8731 23.7682 27.1064C23.7887 27.1364 23.8069 27.1676 23.8239 27.1995L18.7952 30.6542C18.5167 30.5664 18.2386 30.4614 17.9605 30.3375L17.501 30.1321ZM22.752 30.7155C22.0127 30.9142 21.2909 30.9987 20.5788 30.9699L27.0621 26.5159C27.325 26.3352 27.6455 26.2696 27.9637 26.3312C28.2945 26.395 28.5803 26.586 28.7698 26.8707C28.7957 26.9093 28.819 26.9493 28.8403 26.9903L23.8436 30.4233L22.752 30.7155ZM26.7822 29.9455L30.7366 27.2284C31.0184 27.0351 31.3617 26.965 31.703 27.031C32.0562 27.0993 32.3613 27.303 32.563 27.6058C32.6243 27.6974 32.674 27.7966 32.7118 27.9003L28.3726 30.8304C27.9499 30.3768 27.3917 30.0653 26.7822 29.9455ZM4.59602 22.4846V16.1453C4.59602 15.7946 4.88035 15.5102 5.2311 15.5102H10.8837C11.2345 15.5102 11.5188 15.7946 11.5188 16.1453V22.4846C11.5188 22.8353 11.2345 23.1197 10.8837 23.1197C10.533 23.1197 10.2487 22.8353 10.2487 22.4846V16.7804H5.86617V22.4846C5.86617 22.8353 5.58184 23.1197 5.2311 23.1197C4.88035 23.1197 4.59602 22.8353 4.59602 22.4846ZM19.5378 22.4846V11.6292H15.1526V22.4846C15.1526 22.8353 14.8683 23.1197 14.5176 23.1197C14.1668 23.1197 13.8825 22.8353 13.8825 22.4846V10.9941C13.8825 10.6434 14.1668 10.359 14.5176 10.359H20.1728C20.5236 10.359 20.8079 10.6434 20.8079 10.9941V22.4846C20.8079 22.8353 20.5236 23.1197 20.1728 23.1197C19.8221 23.1197 19.5378 22.8353 19.5378 22.4846ZM21.603 6.62813C21.4964 6.41002 21.5237 6.15019 21.673 5.95885L26.1323 0.244414C26.2526 0.0901812 26.4374 9.07938e-05 26.633 6.83894e-08C26.8286 -9.0657e-05 27.0132 0.0900904 27.1336 0.244233L31.5955 5.95867C31.745 6.15001 31.7722 6.40984 31.6658 6.62804C31.5593 6.84623 31.3378 6.98459 31.095 6.98459H30.0945V22.4845C30.0945 22.8352 29.8102 23.1196 29.4594 23.1196C29.1087 23.1196 28.8243 22.8352 28.8243 22.4845V6.3496C28.8243 5.99886 29.1087 5.71452 29.4594 5.71452H29.7934L26.6331 1.66726L23.4748 5.71452H23.8067C24.1574 5.71452 24.4418 5.99886 24.4418 6.3496V22.4846C24.4418 22.8353 24.1574 23.1197 23.8067 23.1197C23.4559 23.1197 23.1716 22.8353 23.1716 22.4846V6.98468H22.1736C21.9309 6.98468 21.7094 6.84632 21.603 6.62813ZM14.9402 5.08144L14.6451 7.13356C14.6116 7.36681 14.7099 7.59934 14.9005 7.73779C15.0912 7.87633 15.3429 7.89774 15.5542 7.79368L17.4158 6.87735L19.2749 7.7935C19.3638 7.83732 19.4599 7.85891 19.5556 7.85891C19.6873 7.85891 19.8182 7.81799 19.9287 7.73779C20.1194 7.59934 20.2178 7.36672 20.1843 7.13347L19.8892 5.08162L21.3356 3.59273C21.4998 3.42371 21.5569 3.17757 21.4839 2.95348C21.4109 2.72938 21.2197 2.56408 20.9875 2.52425L18.9431 2.17351L17.9779 0.339495C17.8682 0.130917 17.6519 0.000272232 17.4162 0.000181506H17.416C17.1804 0.000181506 16.9642 0.130645 16.8542 0.339041L15.8866 2.17369L13.8444 2.52453C13.6122 2.56445 13.4212 2.72957 13.3481 2.95357C13.2751 3.17757 13.332 3.42352 13.496 3.59264L14.9402 5.08144ZM16.4099 3.37245C16.6043 3.33906 16.7722 3.21721 16.8642 3.04275L17.4153 1.99768L17.965 3.04221C18.0569 3.21694 18.225 3.33897 18.4196 3.37245L19.5847 3.5724L18.7607 4.4206C18.6235 4.56177 18.5596 4.75864 18.5876 4.95352L18.7556 6.1217L17.6968 5.59994C17.5199 5.51275 17.3126 5.51275 17.1355 5.59985L16.0738 6.12242L16.2419 4.95361C16.2699 4.75891 16.2061 4.56222 16.0692 4.42105L15.2461 3.5725L16.4099 3.37245ZM6.22164 5.08144L5.92442 7.13292C5.89058 7.36618 5.98883 7.59898 6.17954 7.7377C6.29013 7.81808 6.42114 7.85909 6.55306 7.85909C6.64859 7.85909 6.74458 7.8375 6.8334 7.79386L8.69499 6.87753L10.5541 7.79368C10.7657 7.89792 11.0173 7.87642 11.2079 7.73797C11.3986 7.59953 11.497 7.36691 11.4635 7.13365L11.1684 5.0818L12.6149 3.59291C12.7791 3.4238 12.8362 3.17775 12.7632 2.95366C12.6902 2.72957 12.499 2.56426 12.2668 2.52444L10.2224 2.17369L9.25722 0.339495C9.14744 0.130917 8.93124 0.000272232 8.69554 0.000181506H8.69526C8.45965 0.000181506 8.24345 0.130645 8.13358 0.339041L7.16591 2.17369L5.12368 2.52453C4.89142 2.56445 4.70026 2.72966 4.62732 2.95375C4.55428 3.17784 4.61144 3.42389 4.77565 3.59291L6.22164 5.08144ZM7.68921 3.37245C7.88364 3.33906 8.05148 3.21731 8.14338 3.04284L8.69454 1.99777L9.24415 3.0423C9.33615 3.21703 9.50417 3.33906 9.69878 3.37254L10.8639 3.5725L10.0398 4.42069C9.90264 4.56186 9.83868 4.75873 9.86671 4.95361L10.0347 6.1217L8.97588 5.59994C8.88733 5.5563 8.79125 5.53452 8.69517 5.53452C8.59919 5.53452 8.50311 5.5563 8.41474 5.59976L7.35434 6.1217L7.52345 4.95424C7.55176 4.75918 7.4878 4.56204 7.35044 4.42069L6.52629 3.57231L7.68921 3.37245Z" fill="white"/>
</svg>
