<svg width="45" height="48" viewBox="0 0 45 48" fill="none" xmlns="http://www.w3.org/2000/svg">
<path d="M24.5426 28.0688C24.9265 28.0061 25.1868 27.6446 25.1239 27.2614C24.795 25.2545 23.758 23.4165 22.2043 22.086C20.633 20.7404 18.6261 19.9994 16.5532 19.9994C11.7634 19.9994 7.86656 23.8896 7.86656 28.6713C7.86656 33.453 11.7634 37.3432 16.5532 37.3432C20.523 37.3432 23.9834 34.6652 24.968 30.8308C25.0647 30.4546 24.8375 30.0715 24.4607 29.9751C24.0839 29.8786 23.7001 30.1054 23.6035 30.4815C22.7786 33.6936 19.8794 35.9368 16.5532 35.9368C12.5401 35.9368 9.27521 32.6774 9.27521 28.6712C9.27521 24.665 12.5401 21.4056 16.5532 21.4056C18.2898 21.4056 19.9711 22.0263 21.2871 23.1532C22.5894 24.2684 23.4582 25.808 23.7338 27.4884C23.7965 27.8718 24.1584 28.1317 24.5426 28.0688Z" fill="white"/>
<path d="M16.5532 23.1303C13.4927 23.1303 11.0028 25.616 11.0028 28.6714C11.0028 31.7267 13.4927 34.2124 16.5532 34.2124C19.6138 34.2124 22.1038 31.7267 22.1038 28.6714C22.1038 25.616 19.6138 23.1303 16.5532 23.1303ZM16.5532 32.8061C14.2694 32.8061 12.4114 30.9513 12.4114 28.6714C12.4114 26.3914 14.2694 24.5365 16.5532 24.5365C18.8371 24.5365 20.6951 26.3914 20.6951 28.6714C20.6951 30.9513 18.8371 32.8061 16.5532 32.8061Z" fill="white"/>
<path d="M16.5532 25.9334C15.0409 25.9334 13.8106 27.1617 13.8106 28.6714C13.8106 30.181 15.0409 31.4093 16.5532 31.4093C18.0656 31.4093 19.2959 30.181 19.2959 28.6714C19.2959 27.1617 18.0656 25.9334 16.5532 25.9334ZM16.5532 30.0031C15.8176 30.0031 15.2192 29.4056 15.2192 28.6714C15.2192 27.9371 15.8176 27.3397 16.5532 27.3397C17.2888 27.3397 17.8872 27.9371 17.8872 28.6714C17.8872 29.4056 17.2888 30.0031 16.5532 30.0031Z" fill="white"/>
<path d="M40.0167 29.6683V25.2188C40.0167 24.8304 39.7014 24.5156 39.3124 24.5156C38.9234 24.5156 38.6081 24.8304 38.6081 25.2188V28.7884C37.6936 28.3158 36.6987 27.9779 35.6497 27.8003V17.0719C35.6497 16.5291 35.2074 16.0875 34.6637 16.0875H33.0461L37.1239 10.5543L41.1321 16.0875H39.5941C39.0504 16.0875 38.6081 16.5291 38.6081 17.0719V21.9375C38.6081 22.3258 38.9234 22.6406 39.3124 22.6406C39.7014 22.6406 40.0167 22.3258 40.0167 21.9375V17.4938H41.9593C42.3314 17.4938 42.6679 17.2882 42.8373 16.9573C43.0067 16.6264 42.9764 16.2337 42.7583 15.9324L37.9259 9.26166C37.742 9.00769 37.4448 8.85534 37.1309 8.85403C37.1296 8.85403 37.1283 8.85403 37.1269 8.85403C36.8145 8.85403 36.5178 9.00375 36.3326 9.255L31.4162 15.9261C31.1945 16.2268 31.1618 16.6206 31.3304 16.9537C31.4992 17.2868 31.8364 17.4938 32.2104 17.4938H34.241V27.661C34.1409 27.6581 34.0406 27.6562 33.9397 27.6562C33.6482 27.6562 33.3597 27.6692 33.0743 27.6933C33.0516 27.2977 33.0168 26.9027 32.9655 26.5119C32.872 25.7984 32.2557 25.2603 31.5322 25.2603H28.0506C28.0349 25.2603 28.0215 25.2489 28.0163 25.2315C27.7855 24.4635 27.4759 23.7167 27.0958 23.0119C27.0869 22.9956 27.0884 22.9778 27.0995 22.9668L29.5603 20.5102C30.0719 19.9995 30.1263 19.184 29.6871 18.6131C29.446 18.2999 29.193 17.9964 28.9306 17.7015V8.63981H30.873C31.2453 8.63981 31.5817 8.43422 31.7512 8.10328C31.9205 7.77234 31.8902 7.37972 31.6721 7.07859L26.84 0.407625C26.6562 0.15375 26.3589 0.0013125 26.0451 0C26.0437 0 26.0424 0 26.041 0C25.7286 0 25.432 0.149719 25.2467 0.400969L20.3302 7.07203C20.1086 7.37278 20.0758 7.76653 20.2445 8.09963C20.4132 8.43281 20.7504 8.63972 21.1244 8.63972H23.155V17.2568L22.2675 18.1428C22.2564 18.1537 22.2386 18.1553 22.2223 18.1465C21.5165 17.7671 20.7684 17.4579 19.9988 17.2276C19.9813 17.2223 19.9701 17.2089 19.9701 17.1933V13.7176C19.9701 12.9953 19.431 12.3803 18.7163 12.2868C17.288 12.1001 15.8182 12.1001 14.39 12.2868C13.6753 12.3802 13.1362 12.9952 13.1362 13.7176V17.1933C13.1362 17.2089 13.125 17.2223 13.1074 17.2276C12.3381 17.4579 11.59 17.767 10.884 18.1465C10.8676 18.1553 10.8498 18.1538 10.8389 18.1428L8.37809 15.6862C7.86656 15.1754 7.04954 15.121 6.47782 15.5596C5.33014 16.4398 4.30098 17.4671 3.41917 18.613C2.97995 19.1839 3.03442 19.9994 3.54595 20.5101L6.00676 22.9667C6.01785 22.9777 6.01935 22.9955 6.01052 23.0118C5.63047 23.7166 5.32075 24.4633 5.09011 25.2314C5.08485 25.2488 5.07142 25.2602 5.05574 25.2602H1.57412C0.850636 25.2602 0.234399 25.7983 0.140865 26.5118C0.0473306 27.2247 0 27.9513 0 28.6713C0 29.3913 0.0474245 30.1178 0.140865 30.8307C0.234399 31.5442 0.850636 32.0824 1.57412 32.0824H5.05574C5.07142 32.0824 5.08485 32.0937 5.09011 32.1112C5.32085 32.8792 5.63047 33.626 6.01061 34.3308C6.01944 34.3471 6.01794 34.3647 6.00686 34.3758L3.54595 36.8325C3.03442 37.3432 2.97995 38.1587 3.41926 38.7295C4.30108 39.8754 5.33024 40.9027 6.47791 41.783C7.04963 42.2215 7.86665 42.1671 8.37818 41.6564L10.839 39.1998C10.8502 39.1887 10.8678 39.1872 10.8842 39.196C11.5904 39.5755 12.3384 39.8847 13.1076 40.1149C13.1251 40.1201 13.1364 40.1335 13.1364 40.1492V43.6249C13.1364 44.3471 13.6754 44.9622 14.3902 45.0557C15.1044 45.1491 15.8322 45.1963 16.5532 45.1963C17.2743 45.1963 18.0021 45.1491 18.7164 45.0557C19.4311 44.9621 19.9701 44.347 19.9701 43.6249V40.1492C19.9701 40.1335 19.9815 40.1201 19.9989 40.1149C20.7682 39.8846 21.5163 39.5755 22.2223 39.196C22.2387 39.1872 22.2564 39.1886 22.2676 39.1998L24.3571 41.2858C25.7778 45.1976 29.5369 48 33.9398 48C39.5582 48 44.1291 43.4369 44.1291 37.8281C44.1291 34.491 42.5108 31.5242 40.0167 29.6683ZM21.9601 7.23356L26.038 1.70034L30.0462 7.23356H28.5083C27.9645 7.23356 27.5222 7.67512 27.5222 8.21794V16.2971C27.233 16.0415 26.9354 15.7949 26.6287 15.5597C26.057 15.1211 25.24 15.1755 24.7285 15.6863L24.5638 15.8506V8.21794C24.5638 7.67512 24.1215 7.23356 23.5778 7.23356H21.9601ZM23.7913 38.7323L23.2636 38.2055C22.8095 37.7522 22.1228 37.6526 21.5546 37.9579C20.9322 38.2924 20.2726 38.5649 19.5943 38.768C18.9765 38.9529 18.5615 39.508 18.5615 40.1493V43.625C18.5615 43.6431 18.5489 43.6595 18.5336 43.6614C17.2258 43.8322 15.8806 43.8322 14.5731 43.6614C14.5576 43.6595 14.5452 43.6431 14.5452 43.625V40.1493C14.5452 39.508 14.1301 38.9529 13.5122 38.768C12.834 38.565 12.1745 38.2925 11.552 37.9579C11.3324 37.8398 11.0952 37.7824 10.8604 37.7824C10.4878 37.7824 10.1215 37.9273 9.84299 38.2055L7.38217 40.6621C7.3693 40.6749 7.34855 40.6775 7.33597 40.6679C6.2854 39.8622 5.34348 38.9219 4.53623 37.8729C4.52656 37.8604 4.52918 37.8397 4.54196 37.8269L7.00277 35.3703C7.45692 34.9169 7.55656 34.2312 7.25079 33.6642C6.91572 33.0429 6.64272 32.3845 6.43931 31.7073C6.25403 31.0905 5.69799 30.6761 5.05564 30.6761H1.57412C1.55599 30.6761 1.53965 30.6637 1.53759 30.6482C1.45194 29.9956 1.40856 29.3305 1.40856 28.6714C1.40856 28.0122 1.45194 27.3472 1.53759 26.6946C1.53956 26.6791 1.55599 26.6666 1.57412 26.6666H5.05574C5.69808 26.6666 6.25412 26.2523 6.43941 25.6356C6.64282 24.9583 6.91581 24.2999 7.25088 23.6786C7.55665 23.1115 7.45702 22.4259 7.00287 21.9726L4.54205 19.5159C4.52918 19.5031 4.52665 19.4825 4.53632 19.47C5.34357 18.421 6.28549 17.4806 7.33606 16.675C7.34864 16.6654 7.3693 16.668 7.38217 16.6807L9.84299 19.1374C10.2971 19.5907 10.984 19.6901 11.552 19.385C12.1743 19.0505 12.8338 18.7779 13.5121 18.5749C14.13 18.39 14.5452 17.8349 14.5452 17.1936V13.7179C14.5452 13.6998 14.5576 13.6835 14.5731 13.6814C15.8806 13.5105 17.2261 13.5105 18.5336 13.6814C18.549 13.6834 18.5616 13.6998 18.5616 13.7179V17.1936C18.5616 17.8349 18.9767 18.39 19.5944 18.5749C20.2729 18.778 20.9324 19.0506 21.5547 19.385C22.1226 19.6903 22.8095 19.5908 23.2637 19.1375L25.7246 16.6807C25.7374 16.668 25.7579 16.6655 25.7706 16.675C26.8213 17.4807 27.7632 18.4211 28.5703 19.47C28.58 19.4826 28.5775 19.5032 28.5646 19.516L26.1038 21.9727C25.6496 22.426 25.55 23.1116 25.8558 23.6787C26.1908 24.3 26.4638 24.9584 26.6672 25.6357C26.8525 26.2523 27.4086 26.6667 28.0509 26.6667H31.5325C31.5507 26.6667 31.567 26.6793 31.5691 26.6947C31.6217 27.0964 31.6563 27.5029 31.6765 27.9098C27.1439 28.9401 23.7508 32.9959 23.7508 37.8283C23.7506 38.1328 23.7649 38.4343 23.7913 38.7323ZM33.9398 46.5938C29.0982 46.5938 25.1592 42.6615 25.1592 37.8281C25.1592 32.9948 29.0982 29.0625 33.9398 29.0625C38.7814 29.0625 42.7204 32.9948 42.7204 37.8281C42.7204 42.6615 38.7814 46.5938 33.9398 46.5938Z" fill="white"/>
<path d="M40.284 36.7716C40.3478 37.1546 40.7103 37.4137 41.0943 37.3498C41.478 37.2862 41.7374 36.924 41.6735 36.5409C41.3727 34.7347 40.4348 33.0797 39.0326 31.8808C37.6141 30.668 35.8054 30 33.9398 30C29.616 30 26.0983 33.5117 26.0983 37.8281C26.0983 42.1446 29.616 45.6562 33.9398 45.6562C35.6452 45.6562 37.2679 45.1168 38.6325 44.0963C39.9509 43.1104 40.9445 41.7075 41.4303 40.1461C41.5457 39.7752 41.338 39.3812 40.9665 39.2661C40.5951 39.1509 40.2003 39.3582 40.085 39.729C39.6865 41.0098 38.8708 42.1611 37.788 42.971C36.669 43.8077 35.3383 44.25 33.9398 44.25C30.3927 44.25 27.507 41.3692 27.507 37.8281C27.507 34.2871 30.3927 31.4062 33.9398 31.4062C35.4696 31.4062 36.9528 31.9541 38.1164 32.9489C39.2676 33.9332 40.0374 35.2908 40.284 36.7716Z" fill="white"/>
<path d="M33.9398 32.1095C33.5508 32.1095 33.2355 32.4243 33.2355 32.8126V37.8281C33.2355 38.0859 33.3767 38.323 33.6036 38.446C33.7087 38.5029 33.8244 38.5312 33.9397 38.5312C34.0735 38.5312 34.207 38.4933 34.3233 38.4179L37.5248 36.3432C37.8512 36.1318 37.9439 35.6963 37.7322 35.3706C37.5203 35.0449 37.084 34.9523 36.7579 35.1636L34.6441 36.5333V32.8126C34.6441 32.4243 34.3288 32.1095 33.9398 32.1095Z" fill="white"/>
</svg>
