<svg width="42" height="40" viewBox="0 0 42 40" fill="none" xmlns="http://www.w3.org/2000/svg">
<path d="M40.7136 38.7113H39.632V36.4674C39.632 36.1432 39.3866 35.8694 39.0591 35.8282L34.9322 35.3096C34.7415 34.7502 34.5109 34.2038 34.2435 33.6771L36.7882 30.4453C36.9902 30.1887 36.9665 29.8248 36.7331 29.5955L32.5731 25.5107C32.3395 25.2814 31.9689 25.2583 31.7076 25.4566L28.4161 27.9552C27.8797 27.6926 27.3232 27.4663 26.7536 27.279L26.2255 23.2268C26.1835 22.9052 25.9047 22.6643 25.5745 22.6643H19.6916C19.3614 22.6643 19.0826 22.9052 19.0406 23.2268L18.5125 27.279C17.943 27.4662 17.3864 27.6926 16.8499 27.9552L13.5584 25.4566C13.297 25.2583 12.9265 25.2814 12.6929 25.5107L8.53288 29.5955C8.29942 29.8248 8.2758 30.1887 8.47776 30.4453L11.0224 33.6771C10.7552 34.2036 10.5247 34.75 10.3337 35.3096L6.20689 35.8282C5.87934 35.8694 5.63398 36.1431 5.63398 36.4674V38.7113H4.55265C4.19024 38.7113 3.8964 38.9998 3.8964 39.3556C3.8964 39.7115 4.19024 40 4.55265 40H40.7136C41.076 40 41.3698 39.7115 41.3698 39.3556C41.3698 38.9998 41.076 38.7113 40.7136 38.7113ZM6.94673 37.0345L10.9164 36.5357C11.1739 36.5033 11.3877 36.325 11.4619 36.0808C11.69 35.3298 11.9974 34.6013 12.3755 33.9156C12.4992 33.6914 12.4764 33.4166 12.3176 33.2147L9.86958 30.1058L13.2128 26.8231L16.3791 29.2267C16.5846 29.3828 16.8645 29.405 17.0928 29.2836C17.7917 28.9122 18.5336 28.6105 19.2978 28.3868C19.5466 28.314 19.7283 28.1039 19.7613 27.8511L20.2693 23.9532H24.9971L25.5051 27.8511C25.538 28.104 25.7197 28.314 25.9685 28.3868C26.7326 28.6104 27.4745 28.9121 28.1735 29.2836C28.402 29.405 28.6816 29.3827 28.8873 29.2267L32.0535 26.8231L35.3966 30.1058L32.9487 33.2148C32.7898 33.4166 32.7671 33.6914 32.8908 33.9156C33.2691 34.6017 33.5764 35.3301 33.8042 36.0806C33.8784 36.3249 34.0923 36.5033 34.3498 36.5357L38.3196 37.0345V38.7112H31.7225C31.3851 34.0767 27.4375 30.4073 22.6331 30.4073C17.8289 30.4073 13.8813 34.0767 13.5438 38.7112H6.94673V37.0345ZM30.4059 38.7113H14.8603C15.1946 34.7882 18.5528 31.6961 22.6331 31.6961C26.7134 31.6961 30.0716 34.7882 30.4059 38.7113ZM41.9777 0.8112L37.4828 17.2828C37.4221 17.5052 37.2452 17.6788 37.0187 17.7384C36.7926 17.798 36.5506 17.7344 36.3848 17.5717L32.6569 13.9112L25.0829 21.3482C24.8267 21.5997 24.4113 21.5997 24.1548 21.3482C23.8986 21.0965 23.8986 20.6886 24.1548 20.4369L32.1928 12.5443C32.3159 12.4235 32.4828 12.3556 32.6569 12.3556C32.8309 12.3556 32.9978 12.4235 33.1209 12.5443L36.5091 15.8713L40.4157 1.55585L25.8363 5.39161L29.2246 8.71857C29.4809 8.97027 29.4809 9.37816 29.2246 9.62987L20.1556 18.5345C19.9008 18.7846 19.4879 18.7863 19.2311 18.5379L13.0668 12.5774L1.58427 23.8521L4.55265 26.7668L12.629 18.8365C12.8839 18.5864 13.2968 18.5847 13.5536 18.8331L17.6752 22.8184C17.9334 23.0682 17.9366 23.4761 17.6823 23.7296C17.4279 23.9832 17.0125 23.9862 16.7543 23.7366L13.0967 20.1999L5.01678 28.1336C4.88857 28.2594 4.72073 28.3224 4.55273 28.3224C4.38473 28.3224 4.21681 28.2594 4.08868 28.1336L0.192199 24.3078C-0.0640664 24.0561 -0.0640664 23.6482 0.192199 23.3965L12.5993 11.214C12.8542 10.9639 13.2671 10.9621 13.5239 11.2105L19.6881 17.171L27.8324 9.17406L24.1045 5.51364C23.9387 5.35086 23.8739 5.11357 23.9347 4.89118C23.9954 4.66879 24.1722 4.49513 24.3987 4.43553L41.1739 0.0220095C41.4002 -0.0376752 41.6419 0.0260368 41.8079 0.18874C41.9736 0.351604 42.0383 0.588812 41.9777 0.8112Z" fill="white"/>
</svg>
