<svg width="40" height="38" viewBox="0 0 40 38" fill="none" xmlns="http://www.w3.org/2000/svg">
<path d="M13.5325 6.08056L16.4436 8.47329L15.4638 12.1587C15.3606 12.5468 15.4995 12.9503 15.8177 13.1867C15.9833 13.3098 16.1759 13.3716 16.3689 13.3716C16.547 13.3716 16.7254 13.3189 16.8832 13.2133L20.008 11.1215L23.1329 13.2133C23.4619 13.4335 23.8801 13.4229 24.1983 13.1867C24.5164 12.9503 24.6554 12.5469 24.5522 12.1587L23.5725 8.47329L26.4836 6.08065C26.7902 5.82872 26.9098 5.4187 26.7881 5.03614C26.6665 4.65359 26.3342 4.39382 25.9415 4.37436L22.2111 4.1884L20.8854 0.617828C20.746 0.24253 20.4016 0 20.0081 0C19.6146 0 19.2701 0.24253 19.1309 0.617746L17.8052 4.18832L14.0749 4.37428C13.6821 4.39374 13.3496 4.65351 13.2281 5.03606C13.1066 5.41862 13.2259 5.82855 13.5325 6.08056ZM18.0982 5.49473C18.471 5.4761 18.7973 5.23356 18.9297 4.8769L20.0081 1.97232L21.0865 4.87682C21.2189 5.23356 21.5452 5.4761 21.9181 5.49473L24.9528 5.64597L22.5846 7.59248C22.2938 7.83163 22.1692 8.22408 22.2671 8.59204L23.0641 11.5901L20.5219 9.88839C20.3658 9.78391 20.187 9.73171 20.0081 9.73171C19.8291 9.73171 19.6502 9.78399 19.4941 9.88839L16.9521 11.5901L17.7492 8.59196C17.8471 8.22367 17.7223 7.83122 17.4315 7.59231L15.0634 5.64589L18.0982 5.49473ZM6.60975 19.7354C6.77975 20.0392 7.08748 20.2185 7.42053 20.2185C7.47021 20.2185 7.52037 20.2146 7.57077 20.2064C7.95923 20.1435 8.26221 19.8485 8.34261 19.4548L9.10573 15.7161L12.7618 14.9357C13.1468 14.8534 13.4354 14.5436 13.4968 14.1463C13.5583 13.7491 13.3775 13.3633 13.0362 13.1636L9.79498 11.2661L10.1989 7.46928C10.2414 7.0694 10.0426 6.69312 9.692 6.51054C9.34161 6.32796 8.92686 6.38453 8.63566 6.65477L5.86929 9.22067L2.46301 7.65449C2.10504 7.48981 1.69384 7.56725 1.41554 7.85191C1.13716 8.1365 1.06135 8.55699 1.22232 8.92314L2.75389 12.4065L0.244684 15.2353C-0.0195025 15.5332 -0.0749043 15.9572 0.103639 16.3156C0.282183 16.674 0.650237 16.8776 1.04119 16.834L4.75416 16.4209L6.60975 19.7354ZM3.8645 13.1185C4.11522 12.8359 4.17837 12.4283 4.02531 12.0804L2.77937 9.24673L5.55051 10.5208C5.8909 10.6773 6.28944 10.6128 6.56572 10.3564L8.81614 8.26902L8.48752 11.3578C8.4472 11.7373 8.63042 12.1049 8.9542 12.2942L11.591 13.8378L8.61687 14.4727C8.25148 14.5506 7.96616 14.8424 7.89004 15.2159L7.26925 18.2573L5.75969 15.5609C5.59131 15.2602 5.27938 15.0781 4.94576 15.0781C4.91197 15.0781 4.87794 15.08 4.84383 15.0838L1.82335 15.4198L3.8645 13.1185ZM39.7554 15.2752L37.2461 12.4462L38.7777 8.96297C38.9387 8.5969 38.863 8.17633 38.5846 7.89174C38.3063 7.60708 37.8952 7.52964 37.537 7.69424L34.1308 9.26042L31.3643 6.69452C31.073 6.42428 30.6584 6.36779 30.3079 6.55029C29.9574 6.73286 29.7585 7.10923 29.801 7.50902L30.2049 11.3059L26.9638 13.2034C26.6225 13.4031 26.4416 13.7889 26.5032 14.1861C26.5646 14.5834 26.8531 14.8933 27.2382 14.9755L30.8942 15.7559L31.6574 19.4946C31.7378 19.8883 32.0407 20.1833 32.4292 20.2462C32.4796 20.2543 32.5298 20.2583 32.5794 20.2583C32.9125 20.2583 33.2202 20.0788 33.3902 19.7751L35.2458 16.4606L38.9589 16.8738C39.3498 16.9175 39.7178 16.7138 39.8963 16.3554C40.0749 15.997 40.0196 15.573 39.7554 15.2752ZM35.1563 15.1234C34.7851 15.0823 34.4258 15.2694 34.2406 15.6006L32.7311 18.2969L32.1103 15.2555C32.034 14.8819 31.7487 14.5902 31.3834 14.5124L28.4093 13.8775L31.046 12.3338C31.37 12.1441 31.5531 11.7765 31.5127 11.3973L31.1841 8.30861L33.4343 10.3959C33.7107 10.6523 34.1092 10.717 34.4497 10.5605L37.2208 9.2864L35.9748 12.1201C35.8218 12.4682 35.885 12.8757 36.1357 13.1582L38.1769 15.4596L35.1563 15.1234ZM28.1284 29.4131C26.7104 28.1017 25.027 27.1659 23.2156 26.658C25.147 25.5191 26.4508 23.3869 26.4508 20.9479C26.4508 17.3152 23.5607 14.3597 20.0081 14.3597C16.4555 14.3597 13.5654 17.3152 13.5654 20.9479C13.5654 23.3869 14.8692 25.5191 16.8006 26.658C14.989 27.1658 13.3056 28.1017 11.8875 29.4132C9.67483 31.4593 8.2822 34.2496 7.96616 37.2701C7.94673 37.4562 8.00544 37.642 8.12777 37.7813C8.25011 37.9205 8.42454 38 8.6076 38L31.4083 37.9999C31.5913 37.9999 31.7658 37.9204 31.8881 37.7811C32.0104 37.6419 32.0692 37.4561 32.0497 37.27C31.7337 34.2495 30.3411 31.4592 28.1284 29.4131ZM20.006 27.5361C20.0067 27.5361 20.0074 27.5362 20.0082 27.5362C20.0089 27.5362 20.0096 27.5361 20.0103 27.5361C20.126 27.5361 20.2412 27.5386 20.3561 27.5424L22.084 33.0981L20.008 35.4951L17.9319 33.0981L19.6599 27.5424C19.7749 27.5386 19.8902 27.5361 20.006 27.5361ZM14.8557 20.9479C14.8557 18.0428 17.1671 15.6792 20.0081 15.6792C22.8491 15.6792 25.1605 18.0428 25.1605 20.9479C25.1605 23.8525 22.8503 26.2155 20.0103 26.2166C20.0095 26.2166 20.0088 26.2166 20.0081 26.2166C20.0074 26.2166 20.0067 26.2166 20.006 26.2166C17.166 26.2154 14.8557 23.8524 14.8557 20.9479ZM18.2635 27.6788L16.5913 33.0551C16.5225 33.2765 16.5725 33.5185 16.7232 33.6924L19.3111 36.6804H9.34927C10.1441 32.007 13.7521 28.4225 18.2635 27.6788ZM20.7049 36.6805L23.2928 33.6925C23.4434 33.5186 23.4935 33.2766 23.4246 33.0551L21.7525 27.6788C26.2639 28.4225 29.8719 32.0069 30.6667 36.6804L20.7049 36.6805ZM11.9202 27.5361C12.2765 27.5361 12.5654 27.2407 12.5654 26.8764C12.5654 26.512 12.2765 26.2166 11.9202 26.2166H6.97192C6.68773 25.1488 5.73171 24.3612 4.59876 24.3612C3.2425 24.3612 2.13915 25.4895 2.13915 26.8764C2.13915 28.2632 3.24258 29.3916 4.59876 29.3916C5.73179 29.3916 6.68773 28.6038 6.97192 27.5361H11.9202ZM4.59876 28.0721C3.95394 28.0721 3.42943 27.5357 3.42943 26.8764C3.42943 26.217 3.95402 25.6806 4.59876 25.6806C5.2435 25.6806 5.76808 26.2171 5.76808 26.8764C5.76808 27.5357 5.2435 28.0721 4.59876 28.0721ZM35.4176 24.3611C34.2846 24.3611 33.3286 25.1488 33.0443 26.2166H28.096C27.7397 26.2166 27.4509 26.5119 27.4509 26.8763C27.4509 27.2406 27.7397 27.536 28.096 27.536H33.0443C33.3285 28.6038 34.2846 29.3915 35.4176 29.3915C36.7738 29.3915 37.8772 28.2632 37.8772 26.8763C37.8772 25.4894 36.7738 24.3611 35.4176 24.3611ZM35.4176 28.0721C34.7728 28.0721 34.2483 27.5357 34.2483 26.8764C34.2483 26.217 34.7728 25.6806 35.4176 25.6806C36.0623 25.6806 36.5869 26.2171 36.5869 26.8764C36.5869 27.5357 36.0623 28.0721 35.4176 28.0721Z" fill="white"/>
</svg>
