<svg width="55" height="55" viewBox="0 0 55 55" fill="none" xmlns="http://www.w3.org/2000/svg">
<path d="M10.0833 55C9.57733 55 9.16667 54.5893 9.16667 54.0833V52.6735C9.16667 49.4487 11.6453 45.9562 14.6905 44.8873L22.2273 42.251L22.7242 38.2727C22.7865 37.7667 23.276 37.4018 23.7472 37.4752C24.2495 37.5375 24.607 37.9958 24.5447 38.4982L23.9763 43.0412C23.9342 43.3858 23.6995 43.6792 23.3695 43.7928L15.2955 46.618C12.9672 47.4338 11 50.2095 11 52.6735V54.0833C11 54.5893 10.5893 55 10.0833 55Z" fill="white"/>
<path d="M44.9167 55C44.4107 55 44 54.5893 44 54.0833V52.6735C44 50.2077 42.0328 47.4338 39.7045 46.6162L31.6305 43.791C31.3005 43.6755 31.0658 43.384 31.0237 43.0412L30.4535 38.4945C30.3912 37.9922 30.7468 37.5338 31.2492 37.4697C31.746 37.4018 32.2098 37.7593 32.274 38.2653L32.7727 42.251L40.3095 44.8873C43.3547 45.9562 45.8333 49.4505 45.8333 52.6735V54.0833C45.8333 54.5893 45.4227 55 44.9167 55Z" fill="white"/>
<path d="M27.5 40.4048C26.994 40.4048 26.5833 39.9942 26.5833 39.4882C26.5833 38.9822 26.994 38.5715 27.5 38.5715C29.5442 38.5715 33.3502 38.5715 33.3685 28.5413C33.3722 26.7813 33.2438 25.0708 31.6562 23.4813C30.7193 22.5445 29.3223 22.0697 27.4982 22.0697C25.674 22.0697 24.277 22.5445 23.3402 23.4813C21.7543 25.0708 21.6242 26.7813 21.6278 28.5413C21.637 33.2787 22.5005 36.3458 24.1945 37.6603C24.5942 37.972 24.6675 38.5458 24.3577 38.9473C24.0442 39.347 23.4722 39.4167 23.0707 39.1105C20.8762 37.4073 19.8055 33.9533 19.7945 28.545C19.7908 26.5613 19.9613 24.2715 22.044 22.1852C23.3365 20.8927 25.1717 20.2363 27.4982 20.2363C29.8247 20.2363 31.6598 20.8908 32.9523 22.1852C35.035 24.2715 35.2055 26.5613 35.2018 28.545C35.1853 36.7473 32.8112 40.4048 27.5 40.4048Z" fill="white"/>
<path d="M27.4945 47.9453C27.2708 47.9453 27.0472 47.8647 26.8712 47.7015L22.4437 43.6003C22.0733 43.2557 22.0495 42.6745 22.3942 42.3042C22.7407 41.9302 23.32 41.9137 23.6903 42.2547L27.4945 45.7802L31.3097 42.2547C31.6855 41.91 32.2648 41.9338 32.6058 42.3042C32.9505 42.6763 32.9267 43.2575 32.5545 43.6003L28.1178 47.7015C27.94 47.8647 27.7182 47.9453 27.4945 47.9453Z" fill="white"/>
<path d="M30.8238 29.1775C28.2168 29.1775 25.5035 28.259 24.0075 26.9152C23.6298 26.5742 23.5987 25.9967 23.9378 25.6208C24.277 25.245 24.8618 25.2138 25.2322 25.5512C27.0398 27.1773 31.3702 28.028 33.8507 26.6933C34.2943 26.4513 34.8535 26.6218 35.0918 27.0673C35.332 27.5128 35.1633 28.0702 34.7178 28.3085C33.5885 28.9135 32.2227 29.1775 30.8238 29.1775Z" fill="white"/>
<path d="M13.75 41.8C13.244 41.8 12.8333 41.3893 12.8333 40.8833V37.5632C12.8333 37.2772 12.9672 37.0058 13.1963 36.8335C14.1313 36.1258 14.6667 35.0625 14.6667 33.9167V31.1667C14.6667 29.1445 13.0222 27.5 11 27.5C8.97783 27.5 7.33333 29.1445 7.33333 31.1667V33.9167C7.33333 35.0625 7.86867 36.1258 8.80367 36.8335C9.03283 37.0077 9.16667 37.2772 9.16667 37.5632V40.8833C9.16667 41.3893 8.756 41.8 8.25 41.8C7.744 41.8 7.33333 41.3893 7.33333 40.8833V37.9958C6.16183 36.949 5.5 35.486 5.5 33.9167V31.1667C5.5 28.1343 7.96767 25.6667 11 25.6667C14.0323 25.6667 16.5 28.1343 16.5 31.1667V33.9167C16.5 35.4842 15.8382 36.9472 14.6667 37.9958V40.8833C14.6667 41.3893 14.256 41.8 13.75 41.8Z" fill="white"/>
<path d="M11.9222 39.3232C11.4968 39.3232 11.1155 39.0243 11.0257 38.5917C10.9248 38.0948 11.2438 37.6108 11.7407 37.5082C13.4347 37.1617 14.6667 35.6492 14.6667 33.9167C14.6667 33.4107 15.0773 33 15.5833 33C16.0893 33 16.5 33.4107 16.5 33.9167C16.5 36.5182 14.652 38.7823 12.1073 39.3048C12.045 39.3177 11.9845 39.3232 11.9222 39.3232Z" fill="white"/>
<path d="M0.916667 53.1667C0.410667 53.1667 0 52.756 0 52.25V47.6117C0 45.0432 1.52167 42.7313 3.87567 41.7267L7.88517 39.9868C8.20233 39.8548 8.5635 39.9025 8.833 40.1188L11.0037 41.9008L13.1743 40.1353C13.4402 39.9208 13.8013 39.8695 14.1148 40.0052L18.1262 41.7267C18.5918 41.9247 18.8063 42.4637 18.6065 42.9293C18.4067 43.395 17.864 43.6095 17.4038 43.4097L13.904 41.9082L11.583 43.7947C11.2457 44.0697 10.7635 44.0678 10.4225 43.7928L8.1015 41.8917L4.60167 43.4115C2.91867 44.1283 1.83333 45.7765 1.83333 47.6117V52.25C1.83333 52.756 1.42267 53.1667 0.916667 53.1667Z" fill="white"/>
<path d="M14.5548 32.835C12.7288 32.835 10.9835 32.2062 9.50767 31.0182C9.1135 30.6992 9.05117 30.1235 9.36833 29.7293C9.68917 29.3315 10.2667 29.2747 10.6572 29.59C11.8323 30.5378 13.2202 31.0768 14.663 31.0017C14.575 29.0565 12.9653 27.5 11 27.5C8.97783 27.5 7.33333 29.1445 7.33333 31.1667V31.845C7.33333 32.351 6.92267 32.7617 6.41667 32.7617C5.91067 32.7617 5.5 32.351 5.5 31.845V31.1667C5.5 28.1343 7.96767 25.6667 11 25.6667C14.0323 25.6667 16.5 28.1343 16.5 31.1667V31.8083C16.5 32.2593 16.1718 32.6425 15.7282 32.714C15.3047 32.78 14.938 32.835 14.5548 32.835Z" fill="white"/>
<path d="M46.75 41.8C46.244 41.8 45.8333 41.3893 45.8333 40.8833V37.5632C45.8333 37.2772 45.9672 37.0058 46.1963 36.8335C47.1313 36.1258 47.6667 35.0625 47.6667 33.9167V31.1667C47.6667 29.1445 46.0222 27.5 44 27.5C41.9778 27.5 40.3333 29.1445 40.3333 31.1667V33.9167C40.3333 35.0625 40.8687 36.1258 41.8037 36.8335C42.0328 37.0077 42.1667 37.2772 42.1667 37.5632V40.8833C42.1667 41.3893 41.756 41.8 41.25 41.8C40.744 41.8 40.3333 41.3893 40.3333 40.8833V37.9958C39.1618 36.949 38.5 35.486 38.5 33.9167V31.1667C38.5 28.1343 40.9677 25.6667 44 25.6667C47.0323 25.6667 49.5 28.1343 49.5 31.1667V33.9167C49.5 35.4842 48.8382 36.9472 47.6667 37.9958V40.8833C47.6667 41.3893 47.256 41.8 46.75 41.8Z" fill="white"/>
<path d="M44.9222 39.3232C44.4968 39.3232 44.1155 39.0243 44.0257 38.5917C43.9248 38.0948 44.2438 37.6108 44.7407 37.5082C46.4347 37.1617 47.6667 35.6492 47.6667 33.9167C47.6667 33.4107 48.0773 33 48.5833 33C49.0893 33 49.5 33.4107 49.5 33.9167C49.5 36.5182 47.652 38.7823 45.1073 39.3048C45.045 39.3177 44.9845 39.3232 44.9222 39.3232Z" fill="white"/>
<path d="M54.0833 53.1667C53.5773 53.1667 53.1667 52.756 53.1667 52.25V47.6117C53.1667 45.7765 52.0813 44.1302 50.4038 43.4133L46.8985 41.8917L44.5812 43.7928C44.2402 44.0678 43.758 44.0697 43.4207 43.7947L41.0997 41.9082L37.5998 43.4097C37.136 43.6113 36.5952 43.395 36.3972 42.9293C36.1973 42.4637 36.4118 41.9247 36.8775 41.7267L40.8888 40.0052C41.2042 39.8713 41.5653 39.9208 41.8293 40.1353L44 41.9008L46.1707 40.1188C46.4383 39.9025 46.8013 39.853 47.1185 39.9868L51.1317 41.7285C53.4783 42.7313 55 45.0413 55 47.6117V52.25C55 52.756 54.5893 53.1667 54.0833 53.1667Z" fill="white"/>
<path d="M42.3995 21.9908C41.9778 21.9908 41.5965 21.6975 41.5048 21.2667C39.7173 13.0093 34.4355 5.918 27.0105 1.81317C26.5687 1.5675 26.4073 1.01017 26.653 0.5665C26.8987 0.122833 27.4542 -0.033 27.8997 0.209C35.7867 4.5705 41.3985 12.1037 43.296 20.8798C43.4042 21.3748 43.0907 21.8625 42.5938 21.9688C42.5278 21.9835 42.4618 21.9908 42.3995 21.9908Z" fill="white"/>
<path d="M27.5 12.8333C20.867 12.8333 14.3037 11.902 7.98967 10.065C7.50383 9.92383 7.22333 9.41417 7.36633 8.92833C7.50933 8.4425 8.01167 8.15833 8.503 8.30317C20.7112 11.8562 34.0267 11.88 46.244 8.3765C46.7335 8.23167 47.2395 8.51767 47.377 9.00533C47.5163 9.493 47.2358 9.999 46.7482 10.1383C40.5185 11.9277 34.0413 12.8333 27.5 12.8333Z" fill="white"/>
<path d="M27.5 18.3333C26.994 18.3333 26.5833 17.9227 26.5833 17.4167V0.916667C26.5833 0.410667 26.994 0 27.5 0C28.006 0 28.4167 0.410667 28.4167 0.916667V17.4167C28.4167 17.9227 28.006 18.3333 27.5 18.3333Z" fill="white"/>
<path d="M1.34017 33.187C0.905667 33.187 0.520667 32.8772 0.44 32.4335C0.1485 30.8128 0 29.1518 0 27.5C0 12.3365 12.3365 0 27.5 0C42.6635 0 55 12.3365 55 27.5C55 29.1188 54.857 30.7468 54.5765 32.3363C54.4867 32.835 54.0008 33.176 53.515 33.0788C53.0163 32.9908 52.6845 32.5142 52.7725 32.0173C53.0347 30.5305 53.1667 29.0107 53.1667 27.5C53.1667 13.3467 41.6533 1.83333 27.5 1.83333C13.3467 1.83333 1.83333 13.3467 1.83333 27.5C1.83333 29.0455 1.97083 30.5947 2.24583 32.1072C2.33567 32.604 2.00383 33.0825 1.507 33.1723C1.45017 33.1815 1.397 33.187 1.34017 33.187Z" fill="white"/>
<path d="M12.2632 23.8333C12.2173 23.8333 12.1697 23.8297 12.1238 23.8223C11.6233 23.7472 11.2787 23.2797 11.3557 22.7792C12.7948 13.3008 18.6835 4.86383 27.1058 0.207167C27.5495 -0.0366666 28.1087 0.121 28.3525 0.564667C28.5982 1.00833 28.4368 1.56567 27.995 1.81133C20.0658 6.19483 14.5237 14.135 13.1688 23.0542C13.101 23.507 12.7087 23.8333 12.2632 23.8333Z" fill="white"/>
<path d="M42.7368 23.8333C42.2932 23.8333 41.9008 23.507 41.833 23.0542C40.48 14.1368 34.9378 6.19667 27.0105 1.81317C26.5687 1.5675 26.4073 1.01017 26.653 0.5665C26.8987 0.122833 27.4542 -0.033 27.8997 0.209C36.322 4.86567 42.2088 13.3045 43.6462 22.7792C43.7232 23.2797 43.3785 23.7472 42.878 23.8223C42.8285 23.8297 42.7827 23.8333 42.7368 23.8333Z" fill="white"/>
</svg>
