<svg width="43" height="55" viewBox="0 0 43 55" fill="none" xmlns="http://www.w3.org/2000/svg">
<path d="M42.55 49.5555L36.4126 33.2226C37.019 32.8556 37.546 32.3687 37.9623 31.7908C38.4094 31.1688 38.7155 30.4546 38.8587 29.6991C39.0019 28.9436 38.9786 28.1654 38.7906 27.42C38.6317 26.7683 38.6584 26.0843 38.8677 25.4473C39.0769 24.8102 39.4602 24.2463 39.973 23.8206C40.5666 23.3281 41.0447 22.7082 41.3727 22.0057C41.7006 21.3033 41.8703 20.5359 41.8693 19.759C41.8683 18.982 41.6968 18.2151 41.3671 17.5135C41.0374 16.8119 40.5578 16.1932 39.963 15.7022C39.452 15.2748 39.071 14.7098 38.864 14.0724C38.657 13.4351 38.6326 12.7514 38.7934 12.1006C38.9799 11.3565 39.0021 10.58 38.8586 9.82619C38.715 9.07243 38.4091 8.35994 37.9626 7.73938C37.5048 7.10195 36.9138 6.57453 36.2316 6.1947C35.5494 5.81486 34.7929 5.59196 34.0158 5.54186C33.3474 5.49632 32.7046 5.26345 32.1594 4.86929C31.6143 4.47512 31.1882 3.93522 30.9288 3.30995C30.6385 2.59417 30.1974 1.95113 29.6362 1.42568C29.0751 0.900229 28.4074 0.50503 27.6798 0.267654C26.9418 0.0234125 26.1601 -0.054984 25.3891 0.0379289C24.6181 0.130842 23.8764 0.392828 23.2157 0.805627C22.6395 1.16188 21.9775 1.35038 21.3024 1.35038C20.6273 1.35038 19.9652 1.16188 19.3891 0.805627C18.7284 0.392812 17.9867 0.130816 17.2157 0.0379027C16.4447 -0.0550105 15.6629 0.0233951 14.925 0.267654C14.1976 0.505224 13.5302 0.900497 12.9693 1.42592C12.4084 1.95134 11.9674 2.59426 11.6771 3.30987C11.417 3.9363 10.9897 4.477 10.4429 4.87136C9.89624 5.26572 9.2518 5.49813 8.58189 5.54254C7.80621 5.59343 7.05114 5.81673 6.37041 6.19655C5.68967 6.57637 5.10001 7.10338 4.64337 7.74007C4.19621 8.36212 3.89013 9.07635 3.74695 9.83185C3.60377 10.5874 3.62702 11.3655 3.81503 12.1109C3.97394 12.7627 3.94722 13.4466 3.73796 14.0837C3.52871 14.7207 3.14547 15.2847 2.63263 15.7104C2.039 16.2029 1.56092 16.8228 1.23296 17.5252C0.905005 18.2277 0.735374 18.9951 0.736333 19.772C0.737292 20.5489 0.908817 21.3159 1.2385 22.0175C1.56819 22.7191 2.0478 23.3377 2.64265 23.8287C3.15358 24.2561 3.53457 24.8211 3.74154 25.4584C3.94851 26.0957 3.97302 26.7793 3.81223 27.4301C3.62573 28.1741 3.60349 28.9507 3.74708 29.7044C3.89067 30.4582 4.19657 31.1707 4.64303 31.7913C5.05939 32.3688 5.58652 32.8554 6.1929 33.222L0.0556578 49.5555C-0.00217805 49.709 -0.0152711 49.8762 0.0179319 50.037C0.0511349 50.1979 0.12924 50.3458 0.242978 50.463C0.356716 50.5803 0.50131 50.6621 0.659601 50.6987C0.817892 50.7353 0.983232 50.7252 1.136 50.6695L7.82071 48.2374L11.2178 54.5514C11.2907 54.6871 11.3984 54.8004 11.5296 54.8794C11.6608 54.9583 11.8106 55 11.9632 55C11.9823 55 12.0013 54.9991 12.0204 54.9979C12.1824 54.9869 12.3379 54.929 12.4684 54.8312C12.5989 54.7334 12.699 54.5997 12.7567 54.4461L18.5027 39.1629C18.8112 39.0448 19.1082 38.8981 19.39 38.7246C19.966 38.3685 20.6279 38.1801 21.3028 38.1801C21.9778 38.1801 22.6396 38.3685 23.2157 38.7246L23.2165 38.725C23.4975 38.8962 23.7936 39.0408 24.1008 39.1569L29.8489 54.4454C29.9067 54.599 30.0067 54.7326 30.1372 54.8304C30.2677 54.9282 30.4232 54.9861 30.5852 54.9972C30.6043 54.9984 30.6233 54.9992 30.6425 54.9992C30.7951 54.9992 30.9449 54.9575 31.076 54.8786C31.2072 54.7996 31.3149 54.6863 31.3878 54.5506L34.7849 48.2367L41.4696 50.6687C41.6224 50.7244 41.7877 50.7345 41.946 50.6979C42.1043 50.6613 42.2489 50.5795 42.3627 50.4623C42.4764 50.345 42.5545 50.1971 42.5877 50.0363C42.6209 49.8754 42.6078 49.709 42.55 49.5555ZM11.8264 52.0887L8.96414 46.7691C8.86718 46.5891 8.70988 46.4501 8.5206 46.3772C8.33132 46.3042 8.12253 46.3022 7.93186 46.3713L2.29853 48.4204L7.76994 33.8606C8.0397 33.9245 8.3139 33.9673 8.59013 33.9888C9.2586 34.0343 9.90136 34.2672 10.4465 34.6614C10.9917 35.0555 11.4178 35.5954 11.6771 36.2207C11.9674 36.9364 12.4085 37.5794 12.9696 38.1049C13.5307 38.6303 14.1983 39.0255 14.9258 39.2629C15.4505 39.4344 15.9982 39.523 16.5495 39.5257L11.8264 52.0887ZM18.4969 37.2623C18.0462 37.5441 17.5402 37.7228 17.0142 37.7861C16.4882 37.8493 15.9548 37.7956 15.4515 37.6286C14.9585 37.4682 14.5061 37.2009 14.1258 36.8454C13.7454 36.4898 13.4463 36.0546 13.2492 35.57C12.8678 34.6468 12.2398 33.8494 11.4358 33.2672C10.6318 32.6849 9.68348 32.3408 8.69711 32.2735C8.16972 32.2392 7.65625 32.0878 7.19322 31.83C6.73019 31.5721 6.32897 31.2142 6.01808 30.7817C5.71736 30.3634 5.51157 29.8831 5.41541 29.375C5.31925 28.867 5.33508 28.3437 5.46178 27.8426C5.69849 26.8752 5.65998 25.8597 5.3507 24.9135C5.04141 23.9673 4.47396 23.129 3.71391 22.4954C3.31321 22.1641 2.99048 21.7466 2.76916 21.2733C2.54784 20.8 2.4335 20.2826 2.43446 19.759C2.43541 19.2353 2.55162 18.7184 2.77466 18.2459C2.9977 17.7734 3.32195 17.3571 3.72384 17.0273C4.48205 16.3922 5.04734 15.5529 5.35443 14.6065C5.66153 13.6601 5.69792 12.645 5.4594 11.6785C5.33417 11.1786 5.31932 10.6569 5.41591 10.1506C5.5125 9.6442 5.71816 9.1656 6.01825 8.74881C6.33034 8.3153 6.73307 7.95681 7.19773 7.69887C7.66238 7.44094 8.17753 7.28992 8.70645 7.25658C9.69127 7.18793 10.6378 6.84326 11.4401 6.26115C12.2424 5.67904 12.8688 4.88245 13.2493 3.96051C13.4463 3.47586 13.7454 3.04058 14.1258 2.68507C14.5062 2.32957 14.9586 2.06242 15.4516 1.90228C15.9552 1.73546 16.4886 1.68181 17.0147 1.74507C17.5409 1.80833 18.047 1.98697 18.498 2.26855C19.3428 2.79073 20.3135 3.067 21.3034 3.067C22.2933 3.067 23.264 2.79073 24.1089 2.26855C24.5597 1.98705 25.0657 1.80844 25.5917 1.74518C26.1177 1.68192 26.6509 1.73553 27.1544 1.90228C27.6473 2.0627 28.0997 2.33 28.48 2.68555C28.8604 3.0411 29.1595 3.47634 29.3566 3.96094C29.7381 4.8841 30.366 5.68149 31.17 6.26374C31.974 6.84599 32.9223 7.19008 33.9087 7.25744C34.4361 7.2917 34.9495 7.44312 35.4126 7.70096C35.8756 7.95879 36.2768 8.3167 36.5877 8.74924C36.8885 9.1675 37.0943 9.6478 37.1904 10.1559C37.2866 10.6639 37.2707 11.1872 37.144 11.6883C36.9073 12.6557 36.9458 13.6712 37.2551 14.6174C37.5644 15.5636 38.1318 16.4019 38.8919 17.0355C39.2926 17.3668 39.6153 17.7843 39.8366 18.2576C40.058 18.7309 40.1723 19.2483 40.1713 19.7719C40.1704 20.2956 40.0542 20.8125 39.8311 21.285C39.6081 21.7575 39.2839 22.1738 38.882 22.5036C38.1238 23.1387 37.5585 23.9779 37.2514 24.9243C36.9442 25.8706 36.9078 26.8857 37.1462 27.8521C37.2715 28.352 37.2863 28.8737 37.1898 29.3801C37.0932 29.8865 36.8875 30.3651 36.5874 30.7818C36.2753 31.2154 35.8726 31.5739 35.4079 31.8318C34.9433 32.0897 34.4281 32.2407 33.8992 32.2741C32.9144 32.3427 31.9679 32.6874 31.1656 33.2695C30.3632 33.8516 29.7368 34.6482 29.3563 35.5701C29.1594 36.0548 28.8603 36.4901 28.4799 36.8456C28.0995 37.2011 27.647 37.4682 27.154 37.6284C26.6505 37.7957 26.117 37.8496 25.5908 37.7863C25.0646 37.7231 24.5584 37.5441 24.1077 37.2621C23.2628 36.74 22.2921 36.4638 21.3023 36.4638C20.3124 36.4639 19.3417 36.7402 18.4969 37.2623ZM34.6738 46.3709C34.4831 46.3017 34.2743 46.3038 34.085 46.3767C33.8957 46.4497 33.7384 46.5887 33.6415 46.7688L30.7792 52.0883L26.0568 39.5277C26.608 39.5244 27.1554 39.4353 27.6798 39.2634C28.4075 39.0259 29.0752 38.6306 29.6364 38.1051C30.1976 37.5796 30.6388 36.9365 30.9293 36.2207C31.1891 35.5942 31.6163 35.0534 32.1629 34.659C32.7095 34.2647 33.3539 34.0323 34.0237 33.9881C34.2973 33.9668 34.5689 33.9244 34.836 33.8611L40.3071 48.4201L34.6738 46.3709Z" fill="white"/>
<path d="M34.0387 19.7653C34.0387 17.2158 33.2917 14.7235 31.8923 12.6036C30.4929 10.4837 28.5038 8.8315 26.1766 7.85583C23.8494 6.88016 21.2887 6.62489 18.8182 7.12228C16.3477 7.61967 14.0783 8.84739 12.2972 10.6502C10.5161 12.453 9.30308 14.7499 8.81167 17.2505C8.32025 19.751 8.57246 22.3429 9.53641 24.6984C10.5004 27.0539 12.1327 29.0671 14.2271 30.4836C16.3216 31.9 18.7839 32.6561 21.3028 32.6561C24.6794 32.6523 27.9167 31.2929 30.3043 28.8763C32.6919 26.4596 34.0349 23.183 34.0387 19.7653ZM21.3028 30.9373C19.1198 30.9373 16.9857 30.2821 15.1706 29.0545C13.3554 27.8269 11.9407 26.0821 11.1053 24.0406C10.2698 21.9992 10.0513 19.7529 10.4772 17.5858C10.903 15.4186 11.9543 13.428 13.4979 11.8655C15.0416 10.3031 17.0083 9.23909 19.1495 8.80802C21.2906 8.37694 23.5099 8.59819 25.5268 9.44377C27.5437 10.2893 29.2675 11.7213 30.4804 13.5585C31.6932 15.3957 32.3406 17.5557 32.3406 19.7653C32.3373 22.7273 31.1733 25.567 29.104 27.6614C27.0348 29.7558 24.2292 30.934 21.3028 30.9373Z" fill="white"/>
<path d="M28.0555 16.9157L23.9155 16.3068L22.064 12.5101C21.9859 12.3761 21.8746 12.265 21.7411 12.1878C21.6076 12.1107 21.4565 12.0701 21.3028 12.0701C21.1491 12.0701 20.998 12.1107 20.8645 12.1878C20.731 12.265 20.6198 12.3761 20.5416 12.5101L18.6902 16.3068L14.5502 16.9157C14.3933 16.9387 14.2459 17.0056 14.1247 17.1089C14.0035 17.2123 13.9132 17.3479 13.8642 17.5005C13.8152 17.6531 13.8094 17.8165 13.8474 17.9722C13.8854 18.128 13.9657 18.2699 14.0792 18.3818L17.0758 21.3372L16.3685 25.5104C16.3418 25.6683 16.3593 25.8307 16.419 25.9791C16.4786 26.1275 16.5781 26.2561 16.7061 26.3503C16.8342 26.4445 16.9857 26.5006 17.1436 26.5123C17.3015 26.524 17.4594 26.4907 17.5997 26.4163L21.3028 24.4462L25.0058 26.4163C25.146 26.4907 25.304 26.524 25.4619 26.5123C25.6198 26.5006 25.7713 26.4445 25.8993 26.3503C26.0274 26.2561 26.1268 26.1275 26.1865 25.9791C26.2461 25.8307 26.2636 25.6683 26.2369 25.5104L25.5297 21.3372L28.5263 18.3818C28.6398 18.2699 28.7201 18.128 28.7581 17.9722C28.7961 17.8165 28.7902 17.6531 28.7412 17.5005C28.6922 17.3479 28.602 17.2123 28.4808 17.1089C28.3595 17.0056 28.2123 16.9387 28.0555 16.9157ZM24.025 20.422C23.9265 20.5193 23.8529 20.6394 23.8104 20.7719C23.7679 20.9044 23.7579 21.0454 23.7811 21.1827L24.2728 24.0848L21.6975 22.7147C21.5757 22.6499 21.4402 22.6161 21.3026 22.6161C21.1651 22.6161 21.0296 22.6499 20.9078 22.7147L18.3328 24.0845L18.8245 21.1824C18.8477 21.045 18.8377 20.9041 18.7952 20.7716C18.7527 20.6391 18.6791 20.519 18.5807 20.4216L16.4972 18.3663L19.376 17.9429C19.5123 17.9229 19.6417 17.8696 19.7531 17.7877C19.8645 17.7057 19.9545 17.5975 20.0153 17.4725L21.3028 14.8325L22.5905 17.4727C22.6513 17.5977 22.7413 17.7059 22.8527 17.7878C22.9641 17.8698 23.0935 17.9231 23.2298 17.9431L26.1087 18.3665L24.025 20.422Z" fill="white"/>
</svg>
