<svg width="47" height="55" viewBox="0 0 47 55" fill="none" xmlns="http://www.w3.org/2000/svg">
<path d="M31.1998 13.6715C30.6987 13.1709 30.0328 12.8948 29.3245 12.8948C28.6162 12.8948 27.9502 13.1709 27.4496 13.6715C26.9486 14.1726 26.6725 14.8385 26.6725 15.5468C26.6725 16.2551 26.9486 16.921 27.4492 17.4216L31.9668 21.9392C32.4674 22.4398 33.1338 22.716 33.8421 22.716C34.5504 22.716 35.2159 22.4398 35.7169 21.9392L45.369 12.2872C45.87 11.7862 46.1457 11.1203 46.1457 10.4124C46.1457 9.70406 45.87 9.03813 45.369 8.5371C44.8684 8.03608 44.202 7.76039 43.4937 7.76039C42.7854 7.76039 42.1194 8.03608 41.6188 8.5371L40.5547 9.60125C39.7662 8.99952 38.901 8.51696 37.9841 8.16784V6.96144C37.9841 5.49908 36.7945 4.30946 35.3326 4.30946H27.0174V3.38882C27.0174 1.52027 25.4972 0 23.6286 0H14.3555C12.487 0 10.9667 1.52027 10.9667 3.38882V7.21783C10.9667 8.25596 11.8114 9.10065 12.8495 9.10065H25.1346C26.1728 9.10065 27.0174 8.25596 27.0174 7.21783V5.92331H35.3321C35.9045 5.92331 36.3703 6.38908 36.3703 6.96144V7.70458C35.706 7.5703 35.0262 7.49897 34.3385 7.49897C28.6867 7.49897 24.0885 12.0971 24.0885 17.7489C24.0885 23.4008 28.6867 27.9989 34.3385 27.9989C35.0279 27.9989 35.7077 27.9297 36.3703 27.7967V52.3484C36.3703 52.9208 35.9045 53.3862 35.3321 53.3862H2.65156C2.0792 53.3862 1.61385 52.9208 1.61385 52.3484V6.96144C1.61385 6.38908 2.0792 5.92331 2.65156 5.92331H8.01552C8.46115 5.92331 8.82244 5.56202 8.82244 5.11639C8.82244 4.67075 8.46115 4.30946 8.01552 4.30946H2.65156C1.18961 4.30946 0 5.49908 0 6.96144V52.3484C0 53.8104 1.18961 55 2.65156 55H35.3326C36.7945 55 37.9841 53.8104 37.9841 52.3484V27.3301C39.269 26.8412 40.454 26.0951 41.4678 25.1136C43.3846 23.2577 44.4911 20.7693 44.5826 18.1069C44.5977 17.6617 44.2494 17.2882 43.8038 17.2727C43.3615 17.258 42.9851 17.6059 42.9696 18.0515C42.8408 21.7991 40.3764 24.8933 36.9921 25.973C36.9456 25.9839 36.9003 25.9982 36.8575 26.0171C36.061 26.2567 35.2155 26.3851 34.3385 26.3851C29.5767 26.3851 25.7024 22.5108 25.7024 17.7489C25.7024 12.9871 29.5767 9.11282 34.3385 9.11282C36.1676 9.11282 37.9354 9.69105 39.402 10.7539L33.8421 16.3143L31.1998 13.6715ZM25.4036 7.21783C25.4036 7.36637 25.2832 7.4868 25.1346 7.4868H12.8495C12.701 7.4868 12.5805 7.36637 12.5805 7.21783V3.38882C12.5805 2.40986 13.3765 1.61385 14.3555 1.61385H23.6286C24.6072 1.61385 25.4036 2.40986 25.4036 3.38882V7.21783ZM42.7602 9.67846C42.9562 9.48208 43.2167 9.37424 43.4937 9.37424C43.7711 9.37424 44.0316 9.4825 44.228 9.67846C44.6325 10.083 44.6325 10.7418 44.228 11.1463L34.5756 20.7983C34.3796 20.9943 34.119 21.1025 33.8417 21.1025C33.5643 21.1025 33.3037 20.9943 33.1078 20.7983L28.5902 16.2807C28.3942 16.0847 28.2864 15.8242 28.2864 15.5468C28.2864 15.2694 28.3942 15.0089 28.5906 14.8129C28.7865 14.6169 29.0471 14.5087 29.3245 14.5087C29.6014 14.5087 29.8624 14.6169 30.0584 14.8129L33.2714 18.0259C33.5865 18.341 34.0972 18.341 34.4123 18.0259L42.7602 9.67846Z" fill="white"/>
<path d="M21.9611 20.2541H12.129C11.6834 20.2541 11.3225 20.6153 11.3225 21.061C11.3225 21.5062 11.6834 21.8675 12.129 21.8675H21.9611C22.4067 21.8675 22.768 21.5062 22.768 21.061C22.768 20.6153 22.4067 20.2541 21.9611 20.2541Z" fill="white"/>
<path d="M10.589 11.9251H5.15961C4.71397 11.9251 4.35268 12.2864 4.35268 12.732C4.35268 13.1776 4.71397 13.5389 5.15961 13.5389H10.589C11.0347 13.5389 11.396 13.1776 11.396 12.732C11.396 12.2864 11.0347 11.9251 10.589 11.9251Z" fill="white"/>
<path d="M12.129 25.6109H21.9611C22.4067 25.6109 22.768 25.2496 22.768 24.804C22.768 24.3588 22.4067 23.9975 21.9611 23.9975H12.129C11.6834 23.9975 11.3225 24.3588 11.3225 24.804C11.3225 25.2496 11.6834 25.6109 12.129 25.6109Z" fill="white"/>
<path d="M25.3574 30.0404H12.129C11.6834 30.0404 11.3225 30.4016 11.3225 30.8473C11.3225 31.2929 11.6834 31.6542 12.129 31.6542H25.3574C25.8031 31.6542 26.1644 31.2929 26.1644 30.8473C26.1644 30.4016 25.8031 30.0404 25.3574 30.0404Z" fill="white"/>
<path d="M12.129 35.3976H18.7434C19.1891 35.3976 19.5499 35.0363 19.5499 34.5907C19.5499 34.1451 19.1891 33.7838 18.7434 33.7838H12.129C11.6834 33.7838 11.3225 34.1451 11.3225 34.5907C11.3225 35.0363 11.6834 35.3976 12.129 35.3976Z" fill="white"/>
<path d="M12.129 41.451H21.9611C22.4067 41.451 22.768 41.0897 22.768 40.6441C22.768 40.1984 22.4067 39.8372 21.9611 39.8372H12.129C11.6834 39.8372 11.3225 40.1984 11.3225 40.6441C11.3225 41.0897 11.6834 41.451 12.129 41.451Z" fill="white"/>
<path d="M12.129 45.194H25.3574C25.8031 45.194 26.1644 44.8327 26.1644 44.3871C26.1644 43.9418 25.8031 43.5806 25.3574 43.5806H12.129C11.6834 43.5806 11.3225 43.9418 11.3225 44.3871C11.3225 44.8327 11.6834 45.194 12.129 45.194Z" fill="white"/>
<path d="M6.87206 19.5546C5.07484 19.5546 3.6129 21.0165 3.6129 22.8137C3.6129 24.6109 5.07484 26.0729 6.87206 26.0729C8.66928 26.0729 10.1312 24.6109 10.1312 22.8137C10.1312 21.0165 8.66928 19.5546 6.87206 19.5546ZM6.87206 24.459C5.96485 24.459 5.22675 23.7209 5.22675 22.8137C5.22675 21.9065 5.96485 21.1684 6.87206 21.1684C7.77927 21.1684 8.51738 21.9065 8.51738 22.8137C8.51738 23.7209 7.77927 24.459 6.87206 24.459Z" fill="white"/>
<path d="M6.87206 29.4596C5.07484 29.4596 3.6129 30.922 3.6129 32.7188C3.6129 34.516 5.07484 35.9779 6.87206 35.9779C8.66928 35.9779 10.1312 34.516 10.1312 32.7188C10.1312 30.922 8.66928 29.4596 6.87206 29.4596ZM6.87206 34.3645C5.96485 34.3645 5.22675 33.6264 5.22675 32.7192C5.22675 31.8116 5.96485 31.0735 6.87206 31.0735C7.77927 31.0735 8.51738 31.8116 8.51738 32.7192C8.51738 33.6264 7.77927 34.3645 6.87206 34.3645Z" fill="white"/>
<path d="M6.87206 39.2564C5.07484 39.2564 3.6129 40.7183 3.6129 42.5156C3.6129 44.3128 5.07484 45.7747 6.87206 45.7747C8.66928 45.7747 10.1312 44.3128 10.1312 42.5156C10.1312 40.7183 8.66928 39.2564 6.87206 39.2564ZM6.87206 44.1609C5.96485 44.1609 5.22675 43.4228 5.22675 42.5156C5.22675 41.6084 5.96485 40.8702 6.87206 40.8702C7.77927 40.8702 8.51738 41.6084 8.51738 42.5156C8.51738 43.4228 7.77927 44.1609 6.87206 44.1609Z" fill="white"/>
</svg>
