<svg width="55" height="55" viewBox="0 0 55 55" fill="none" xmlns="http://www.w3.org/2000/svg">
<path d="M39.6035 36.1164L31.0281 41.111C30.7001 41.3021 30.3677 41.4491 30.025 41.5532C30.1305 41.3419 30.2169 41.1131 30.2826 40.8681C30.7382 39.1671 29.7294 37.3918 27.9857 36.8266C27.9476 36.8143 27.9089 36.8046 27.8696 36.7975C25.4157 36.3549 22.989 35.4776 21.039 34.7727C20.3587 34.5268 19.7161 34.2945 19.1687 34.1169C16.926 33.3894 14.9106 34.2833 13.2344 35.2535L6.9648 38.8833L6.42611 37.9315C5.84218 36.9 4.52782 36.5358 3.49646 37.1195L1.09053 38.4812C0.0589387 39.0649 -0.305438 40.3791 0.278496 41.4108L7.35213 53.9093C7.63434 54.4078 8.09486 54.7669 8.64919 54.9206C8.84091 54.9737 9.03541 55 9.22891 55C9.59473 55 9.95578 54.9059 10.2818 54.7213L12.6878 53.3596C13.7194 52.7756 14.0837 51.4614 13.4998 50.4301L12.8321 49.2504L14.1328 48.4994L25.0656 51.4287C25.6827 51.5942 26.2966 51.6762 26.9005 51.6762C28.1222 51.6762 29.3025 51.3398 30.3815 50.6756L45.9437 41.0932C47.418 40.1855 47.888 37.9022 46.9301 36.3027C46.4661 35.5282 44.5665 33.2261 39.6035 36.1164ZM11.8139 51.8156L9.40788 53.1774C9.23102 53.2775 8.99649 53.2127 8.89614 53.0355L1.82261 40.5371C1.72237 40.3599 1.78723 40.1256 1.96432 40.0254L4.37036 38.6637C4.42703 38.6316 4.48946 38.6164 4.55155 38.6164C4.68362 38.6164 4.81391 38.6851 4.88211 38.8056L11.9557 51.3041C12.056 51.4809 11.9911 51.7153 11.8139 51.8156ZM45.0135 39.5825L29.4514 49.1649C28.2478 49.9057 26.9266 50.0908 25.5249 49.715L14.2372 46.6905C14.0099 46.6296 13.7678 46.6614 13.5641 46.7791L11.9583 47.7061L7.83893 40.4274L14.1237 36.7888C15.5287 35.9754 17.0463 35.2934 18.6215 35.8044C19.1412 35.9728 19.7412 36.1898 20.436 36.441C22.4319 37.1625 24.9118 38.059 27.4897 38.5315C28.317 38.8252 28.7795 39.6233 28.5689 40.4088C28.2916 41.4436 27.4215 41.572 26.7274 41.4933C25.4719 41.2347 24.2763 40.8935 23.0113 40.5323C22.4084 40.3601 21.7851 40.1821 21.1439 40.0103C20.6707 39.8836 20.1843 40.1644 20.0574 40.6376C19.9306 41.1107 20.2116 41.5972 20.6847 41.724C21.3118 41.892 21.9281 42.068 22.524 42.2382C23.8353 42.6126 25.0738 42.9664 26.4097 43.2395C26.4155 43.2407 26.4212 43.241 26.4269 43.2421C26.433 43.2433 26.4389 43.245 26.445 43.246L27.5116 43.4193C29.137 43.6793 30.579 43.4257 31.9211 42.644L40.4965 37.6494C42.8975 36.2511 44.7336 36.0883 45.4079 37.2142C45.8685 37.9835 45.6695 39.1786 45.0135 39.5825ZM5.00631 40.9677C5.07494 41.4371 4.75004 41.8733 4.28055 41.9419C3.81116 42.0105 3.37493 41.6856 3.30629 41.2162C3.23765 40.7468 3.56255 40.3106 4.03205 40.2419C4.50154 40.1733 4.93767 40.4983 5.00631 40.9677ZM24.5472 11.9604C23.6896 11.9604 22.9357 12.508 22.6707 13.3238C22.4051 14.1409 22.6945 15.0283 23.3905 15.5321L26.7679 17.976C26.8448 18.0317 26.8699 18.1088 26.8403 18.1991L25.5443 22.1616C25.2774 22.9783 25.5651 23.8662 26.26 24.371C26.6071 24.6231 27.0135 24.7491 27.4198 24.7491C27.8274 24.7491 28.2351 24.6222 28.5826 24.3688L31.9507 21.9119C32.0274 21.8559 32.1086 21.8561 32.1851 21.9119L35.5531 24.3688C36.2474 24.8752 37.1808 24.8759 37.8759 24.3709C38.5708 23.8659 38.8582 22.9779 38.5913 22.1614L37.2954 18.1991C37.2659 18.1088 37.2909 18.0318 37.3678 17.9761L40.7452 15.5322C41.4413 15.0285 41.7307 14.141 41.4651 13.3239C41.1998 12.508 40.4462 11.9606 39.5886 11.9606C39.5873 11.9606 39.5861 11.9606 39.5848 11.9606L35.4157 11.9685C35.4157 11.9685 35.4154 11.9685 35.4152 11.9685C35.3205 11.9685 35.2553 11.921 35.2261 11.8307L33.9453 7.86345C33.6814 7.04578 32.9268 6.49645 32.0675 6.49645C31.2084 6.49656 30.4538 7.04589 30.1898 7.86345L28.9093 11.8307C28.88 11.9209 28.8146 11.9685 28.72 11.9685C28.7198 11.9685 28.7194 11.9685 28.7194 11.9685L24.5505 11.9606C24.5498 11.9604 24.5485 11.9604 24.5472 11.9604ZM28.7204 13.7427C29.5797 13.7427 30.3339 13.1938 30.5982 12.3758L31.8788 8.40856C31.908 8.31841 31.9735 8.27062 32.0681 8.27062C32.1628 8.27062 32.2282 8.31819 32.2574 8.40834L33.5382 12.3756C33.8021 13.1938 34.5563 13.7428 35.4158 13.7428H35.4197L39.5887 13.7348H39.5893C39.6838 13.7348 39.749 13.7824 39.7783 13.8723C39.8075 13.9624 39.7825 14.0393 39.7057 14.0949L36.3284 16.5388C35.6307 17.0434 35.342 17.9323 35.6097 18.7507L36.9055 22.7128C36.9351 22.8029 36.91 22.88 36.8335 22.9357C36.757 22.9914 36.6758 22.9911 36.5993 22.9355L33.2313 20.4787C32.536 19.9714 31.6013 19.9714 30.9056 20.4787L27.5375 22.9356C27.4611 22.9914 27.3799 22.9913 27.3033 22.9357C27.2268 22.88 27.2017 22.8029 27.2312 22.713L28.5271 18.7507C28.7947 17.9326 28.5061 17.0438 27.8086 16.5389L24.4312 14.0949C24.3544 14.0394 24.3293 13.9624 24.3587 13.8721C24.3879 13.7822 24.4532 13.7347 24.5476 13.7347H24.5482L28.7171 13.7427H28.7204ZM31.1809 4.13514V0.887084C31.1809 0.397192 31.5781 0 32.068 0C32.5579 0 32.9551 0.397192 32.9551 0.887084V4.13514C32.9551 4.62504 32.5579 5.02223 32.068 5.02223C31.5781 5.02223 31.1809 4.62515 31.1809 4.13514ZM39.5647 8.12735C39.2183 7.78095 39.2183 7.21931 39.5647 6.87291L41.8615 4.57614C42.2082 4.22973 42.7698 4.22984 43.1161 4.57614C43.4625 4.92254 43.4625 5.48418 43.1161 5.83058L40.8193 8.12735C40.6461 8.30056 40.419 8.38716 40.192 8.38716C39.9649 8.38727 39.7379 8.30056 39.5647 8.12735ZM21.0202 5.83069C20.6737 5.48429 20.6737 4.92265 21.0202 4.57625C21.3666 4.22995 21.9281 4.22973 22.2747 4.57625L24.5716 6.87302C24.918 7.21942 24.918 7.78106 24.5716 8.12747C24.3983 8.30067 24.1714 8.38727 23.9443 8.38727C23.7173 8.38727 23.4902 8.30067 23.317 8.12747L21.0202 5.83069ZM54.9146 21.417C54.6827 20.7026 54.0228 20.2232 53.2721 20.2232C53.2709 20.2232 53.2696 20.2232 53.2684 20.2232L50.0761 20.2293L49.0955 17.1914C48.8644 16.4755 48.2037 15.9946 47.4514 15.9946C46.6991 15.9947 46.0385 16.4756 45.8074 17.1914L44.8268 20.2293L41.6345 20.2232C41.6332 20.2232 41.6322 20.2232 41.631 20.2232C40.8803 20.2232 40.2204 20.7024 39.9882 21.417C39.7557 22.1323 40.009 22.9093 40.6185 23.3503L43.2047 25.2217L42.2125 28.2557C41.9786 28.9707 42.2303 29.7483 42.8389 30.1904C43.1427 30.4111 43.4985 30.5215 43.8544 30.5215C44.2113 30.5215 44.5683 30.4105 44.8725 30.1885L47.4516 28.3072L50.0307 30.1885C50.6385 30.6319 51.4558 30.6325 52.0643 30.1904C52.6726 29.7483 52.9244 28.9708 52.6907 28.2559L51.6985 25.2218L54.2846 23.3504C54.8939 22.9093 55.1472 22.1322 54.9146 21.417ZM50.6307 23.8042C50.0197 24.2461 49.7669 25.0244 50.0013 25.7409L50.9593 28.67L48.4695 26.8538C47.8605 26.4095 47.0423 26.4096 46.4333 26.8538L43.9435 28.67L44.9015 25.7407C45.1357 25.0244 44.8829 24.2461 44.2722 23.8044L41.7753 21.9977L44.8572 22.0036H44.8606C45.6128 22.0036 46.2733 21.523 46.5046 20.8068L47.4514 17.874L48.398 20.8069C48.6293 21.5231 49.2896 22.0037 50.042 22.0037H50.0453L53.1273 21.9978L50.6307 23.8042ZM9.79688 23.3503L12.3831 25.2217L11.3909 28.2557C11.157 28.9707 11.4087 29.7483 12.0173 30.1904C12.3212 30.4112 12.6771 30.5216 13.0328 30.5216C13.3897 30.5216 13.7466 30.4106 14.0509 30.1885L16.63 28.3072L19.2091 30.1885C19.8168 30.6319 20.6342 30.6325 21.2427 30.1904C21.851 29.7483 22.1029 28.9708 21.8691 28.2559L20.8769 25.2218L23.463 23.3504C24.0725 22.9094 24.3257 22.1325 24.0934 21.4169C23.8611 20.7026 23.2012 20.2233 22.4507 20.2233C22.4495 20.2233 22.4483 20.2233 22.4471 20.2233L19.2547 20.2294L18.2741 17.1915C18.043 16.4756 17.3824 15.9947 16.63 15.9947C15.8777 15.9948 15.2172 16.4757 14.9861 17.1915L14.0054 20.2294L10.8133 20.2233C10.8119 20.2233 10.8109 20.2233 10.8097 20.2233C10.059 20.2233 9.39901 20.7026 9.16681 21.4171C8.93417 22.1323 9.18755 22.9093 9.79688 23.3503ZM14.0358 22.0036H14.0391C14.7917 22.0036 15.4521 21.5229 15.6831 20.8068L16.6299 17.874L17.5765 20.8069C17.8078 21.5231 18.4682 22.0037 19.2206 22.0037H19.2239L22.3058 21.9978L19.8089 23.8045C19.1982 24.2463 18.9453 25.0246 19.1798 25.741L20.1377 28.6701L17.6479 26.8539C17.3435 26.6318 16.9866 26.5207 16.6298 26.5207C16.2729 26.5207 15.9161 26.6318 15.6116 26.8539L13.1218 28.6701L14.0798 25.741C14.314 25.0246 14.0612 24.2463 13.4505 23.8046L10.9537 21.9979L14.0358 22.0036Z" fill="white"/>
</svg>
