<svg width="55" height="51" viewBox="0 0 55 51" fill="none" xmlns="http://www.w3.org/2000/svg">
<path d="M27.0322 14.7709C28.7887 14.7709 30.4721 13.8857 31.7721 12.279C32.9593 10.8117 33.6401 8.96111 33.6401 7.19993C33.6401 3.65202 30.7997 0.976562 27.0322 0.976562C23.2647 0.976562 20.4243 3.64853 20.4243 7.19993C20.4243 8.96111 21.1051 10.8117 22.2924 12.279C23.5923 13.8868 25.2757 14.7709 27.0322 14.7709ZM27.0322 2.89341C29.7507 2.89341 31.7233 4.70454 31.7233 7.19993C31.7233 10.3366 29.157 12.8541 27.0322 12.8541C24.4334 12.8541 22.3412 9.76038 22.3412 7.19993C22.3412 4.70919 24.3138 2.89341 27.0322 2.89341Z" fill="#3E66F3"/>
<path d="M19.2126 23.9695L18.54 33.5642C18.5311 33.6897 18.5471 33.8158 18.587 33.9352C18.6268 34.0546 18.6898 34.1649 18.7724 34.26C18.8549 34.355 18.9553 34.4329 19.0679 34.4891C19.1806 34.5453 19.3032 34.5788 19.4287 34.5876H19.4961C19.7385 34.5874 19.9719 34.4953 20.1493 34.3301C20.3267 34.1647 20.4349 33.9384 20.4522 33.6966L21.1248 24.11C21.1337 23.9845 21.1177 23.8584 21.0778 23.739C21.038 23.6196 20.975 23.5093 20.8924 23.4142C20.8099 23.3192 20.7095 23.2413 20.5969 23.1851C20.4843 23.1289 20.3617 23.0954 20.2361 23.0865C20.1106 23.0777 19.9845 23.0937 19.8651 23.1335C19.7457 23.1734 19.6353 23.2364 19.5403 23.3189C19.4453 23.4015 19.3674 23.5019 19.3112 23.6145C19.255 23.7271 19.2215 23.8497 19.2126 23.9753V23.9695Z" fill="#3E66F3"/>
<path d="M40.0308 34.5865C40.2908 34.5634 40.5311 34.4383 40.699 34.2383C40.8669 34.0384 40.9487 33.7801 40.9265 33.52C40.9265 33.52 39.9134 26.2557 39.7647 23.8184C39.4894 19.4422 36.8163 15.9315 32.6399 15.2925C31.1714 15.0671 28.5041 14.8975 27.1101 14.8964C25.207 14.9293 23.307 15.0608 21.4176 15.2902C19.4588 15.5584 17.6647 16.531 16.371 18.0261C15.0118 19.5956 14.4042 21.6019 14.2799 23.8231C14.1405 26.2627 13.217 33.5305 13.217 33.5305C13.2014 33.6565 13.211 33.7843 13.2453 33.9066C13.2795 34.0288 13.3377 34.143 13.4165 34.2426C13.4953 34.3421 13.593 34.4251 13.7041 34.4865C13.8152 34.548 13.9374 34.5868 14.0636 34.6006C14.1898 34.6145 14.3175 34.6031 14.4393 34.5672C14.561 34.5313 14.6744 34.4716 14.7729 34.3915C14.8714 34.3114 14.953 34.2125 15.013 34.1006C15.0729 33.9887 15.1101 33.866 15.1222 33.7396C15.1222 33.7396 16.0597 26.3928 16.1933 23.9288C16.3838 20.4366 18.4505 17.6299 21.679 17.1908C23.4809 16.9719 25.2929 16.8463 27.1077 16.8144C28.4065 16.8144 30.9844 16.9794 32.3483 17.1885C33.8478 17.4154 35.2189 18.1652 36.2192 19.3051C37.2833 20.5273 37.7445 22.1688 37.8456 23.9346C37.9931 26.4021 39.0224 33.75 39.0224 33.75C39.0597 33.9884 39.1827 34.2049 39.3684 34.359C39.5541 34.513 39.7896 34.5939 40.0308 34.5865Z" fill="#3E66F3"/>
<path d="M33.8004 23.0807C33.6743 23.0894 33.551 23.123 33.4379 23.1795C33.3247 23.236 33.2239 23.3144 33.1412 23.4101C33.0584 23.5058 32.9955 23.6169 32.9559 23.737C32.9163 23.8571 32.9009 23.9839 32.9106 24.11L33.5844 33.7036C33.6011 33.9455 33.709 34.1721 33.8862 34.3377C34.0634 34.5032 34.2968 34.5955 34.5393 34.5958H34.6078C34.8613 34.5776 35.0972 34.4597 35.2638 34.2678C35.4304 34.0759 35.5141 33.8258 35.4966 33.5723L34.8228 23.9776C34.8146 23.8515 34.7817 23.7283 34.7259 23.615C34.6701 23.5017 34.5925 23.4005 34.4976 23.3172C34.4026 23.2339 34.2922 23.1701 34.1726 23.1295C34.0529 23.089 33.9265 23.0724 33.8004 23.0807Z" fill="#3E66F3"/>
<path d="M33.1475 43.2646L37.7573 38.771C37.8853 38.6462 37.9758 38.4881 38.0186 38.3145C38.0615 38.1409 38.0549 37.9588 37.9997 37.7888C37.9444 37.6188 37.8428 37.4676 37.7061 37.3523C37.5694 37.237 37.4033 37.1623 37.2264 37.1365L30.8566 36.2071L28.0081 30.4391C27.929 30.2786 27.8065 30.1435 27.6546 30.049C27.5027 29.9545 27.3273 29.9044 27.1484 29.9044C26.9695 29.9044 26.7941 29.9545 26.6422 30.049C26.4903 30.1435 26.3678 30.2786 26.2887 30.4391L23.4402 36.2106L17.0704 37.14C16.8935 37.1657 16.7273 37.2405 16.5907 37.3558C16.454 37.4711 16.3523 37.6222 16.2971 37.7923C16.2419 37.9623 16.2353 38.1444 16.2782 38.318C16.321 38.4916 16.4115 38.6497 16.5395 38.7745L21.1492 43.2681L20.0619 49.6076C20.0311 49.7844 20.0505 49.9662 20.118 50.1325C20.1855 50.2987 20.2983 50.4427 20.4435 50.548C20.5888 50.6533 20.7607 50.7157 20.9396 50.7281C21.1186 50.7406 21.2975 50.7025 21.4559 50.6183L27.1484 47.6234L32.8409 50.6183C32.9785 50.6904 33.1315 50.7282 33.287 50.7287C33.4265 50.7285 33.5644 50.6978 33.6909 50.6389C33.8174 50.5799 33.9295 50.4941 34.0194 50.3874C34.1093 50.2806 34.1749 50.1556 34.2115 50.0209C34.2481 49.8862 34.2549 49.7452 34.2314 49.6076L33.1475 43.2646ZM26.7023 45.6926C25.5894 46.2595 22.2784 48.016 22.2784 48.016L23.123 43.0892C23.1493 42.9361 23.1379 42.7789 23.09 42.6312C23.042 42.4834 22.9589 42.3496 22.8477 42.2411L19.2684 38.7559L24.215 38.0368C24.3687 38.0144 24.5146 37.955 24.6403 37.8637C24.766 37.7725 24.8676 37.6521 24.9365 37.5129L27.1437 33.0298L29.351 37.5129C29.4199 37.6521 29.5215 37.7725 29.6472 37.8637C29.7728 37.955 29.9188 38.0144 30.0725 38.0368L35.0191 38.7559L31.4398 42.2411C31.3286 42.3496 31.2455 42.4834 31.1975 42.6312C31.1496 42.7789 31.1382 42.9361 31.1645 43.0892L32.0091 48.016C32.0091 48.016 28.6981 46.2572 27.5852 45.6926C27.4496 45.6194 27.2979 45.5811 27.1437 45.5811C26.9896 45.5811 26.8379 45.6194 26.7023 45.6926Z" fill="#3E66F3"/>
<path d="M53.4766 40.0501L48.8192 39.3728L46.7363 35.1534C46.6574 34.9929 46.535 34.8577 46.3832 34.7631C46.2314 34.6685 46.056 34.6184 45.8772 34.6184C45.6983 34.6184 45.523 34.6685 45.3711 34.7631C45.2193 34.8577 45.097 34.9929 45.0181 35.1534L42.9351 39.3728L38.2777 40.0501C38.1008 40.0759 37.9347 40.1506 37.798 40.2659C37.6614 40.3812 37.5597 40.5324 37.5044 40.7024C37.4492 40.8724 37.4426 41.0545 37.4855 41.2281C37.5283 41.4017 37.6188 41.5598 37.7468 41.6846L41.1158 44.97L40.32 49.6076C40.2893 49.7844 40.3087 49.9662 40.3762 50.1325C40.4437 50.2987 40.5564 50.4427 40.7017 50.548C40.847 50.6533 41.0189 50.7157 41.1978 50.7281C41.3768 50.7406 41.5557 50.7025 41.7141 50.6183L45.8789 48.4285L50.0449 50.6183C50.1825 50.6904 50.3356 50.7282 50.491 50.7287C50.6305 50.7285 50.7684 50.6978 50.8949 50.6389C51.0214 50.5799 51.1335 50.4941 51.2234 50.3874C51.3133 50.2806 51.3789 50.1556 51.4155 50.0209C51.4521 49.8862 51.4589 49.7452 51.4355 49.6076L50.6397 44.97L54.0087 41.6846C54.1367 41.5598 54.2272 41.4017 54.27 41.2281C54.3129 41.0545 54.3063 40.8724 54.2511 40.7024C54.1958 40.5324 54.0941 40.3812 53.9575 40.2659C53.8208 40.1506 53.6547 40.0759 53.4778 40.0501H53.4766ZM45.4316 46.4977C44.7009 46.8648 42.5378 48.0184 42.5378 48.0184L43.0908 44.7969C43.117 44.6438 43.1057 44.4866 43.0577 44.3389C43.0098 44.1912 42.9266 44.0573 42.8154 43.9488L40.4746 41.6672L43.7088 41.2025C43.8627 41.1803 44.0088 41.1208 44.1345 41.0293C44.2602 40.9378 44.3617 40.817 44.4302 40.6774L45.8766 37.7475L47.3229 40.6774C47.3919 40.8169 47.4936 40.9376 47.6195 41.029C47.7454 41.1205 47.8916 41.18 48.0455 41.2025L51.2786 41.6672L48.9389 43.9488C48.8276 44.0572 48.7443 44.191 48.6963 44.3388C48.6483 44.4866 48.6371 44.6438 48.6636 44.7969L49.2212 48.0184C49.2212 48.0184 47.0592 46.8648 46.3285 46.4977C46.1907 46.4234 46.0366 46.3846 45.8801 46.3846C45.7235 46.3846 45.5695 46.4234 45.4316 46.4977Z" fill="#3E66F3"/>
<path d="M16.019 40.0501L11.3617 39.3728L9.27871 35.1534C9.1998 34.9929 9.07749 34.8577 8.92564 34.7631C8.7738 34.6685 8.59849 34.6184 8.41961 34.6184C8.24073 34.6184 8.06542 34.6685 7.91358 34.7631C7.76173 34.8577 7.63942 34.9929 7.56051 35.1534L5.47753 39.3728L0.820172 40.0501C0.643263 40.0759 0.477094 40.1506 0.340442 40.2659C0.203791 40.3812 0.102106 40.5324 0.0468778 40.7024C-0.00835012 40.8724 -0.0149189 41.0545 0.0279137 41.2281C0.0707464 41.4017 0.161273 41.5598 0.289263 41.6846L3.65827 44.97L2.8683 49.6076C2.83752 49.7844 2.85697 49.9662 2.92444 50.1325C2.99192 50.2987 3.10469 50.4427 3.24995 50.548C3.39521 50.6533 3.5671 50.7157 3.74609 50.7281C3.92507 50.7406 4.10395 50.7025 4.26237 50.6183L8.42832 48.4285L12.5931 50.6183C12.7308 50.6904 12.8838 50.7282 13.0392 50.7287C13.1788 50.7285 13.3166 50.6978 13.4431 50.6389C13.5696 50.5799 13.6817 50.4941 13.7717 50.3874C13.8616 50.2806 13.9271 50.1556 13.9638 50.0209C14.0004 49.8862 14.0072 49.7452 13.9837 49.6076L13.1879 44.97L16.5569 41.6846C16.6849 41.5598 16.7754 41.4017 16.8183 41.2281C16.8611 41.0545 16.8545 40.8724 16.7993 40.7024C16.7441 40.5324 16.6424 40.3812 16.5057 40.2659C16.3691 40.1506 16.2029 40.0759 16.026 40.0501H16.019ZM7.9799 46.4977L5.08139 48.0184L5.63321 44.7969C5.65967 44.6438 5.64843 44.4866 5.60045 44.3388C5.55248 44.191 5.46922 44.0572 5.35788 43.9488L3.01816 41.6672L6.25125 41.2025C6.40521 41.18 6.55141 41.1205 6.67728 41.029C6.80315 40.9376 6.90492 40.8169 6.97384 40.6774L8.42019 37.7475L9.86654 40.6774C9.93503 40.817 10.0365 40.9378 10.1622 41.0293C10.288 41.1208 10.4341 41.1803 10.588 41.2025L13.8222 41.6672L11.4813 43.9488C11.3702 44.0573 11.287 44.1912 11.2391 44.3389C11.1911 44.4866 11.1797 44.6438 11.206 44.7969L11.759 48.0184L8.86513 46.4977C8.73189 46.4161 8.57872 46.373 8.42251 46.373C8.26631 46.373 8.11314 46.4161 7.9799 46.4977Z" fill="#3E66F3"/>
</svg>
