<svg width="45" height="48" viewBox="0 0 45 48" fill="none" xmlns="http://www.w3.org/2000/svg">
<path d="M43.7514 0.782488C43.5462 0.663162 43.2929 0.662019 43.0865 0.779631L34.4496 5.70096C34.2414 5.81953 34.1129 6.04066 34.1129 6.28017V25.1382C32.6489 23.306 30.7208 21.8603 28.5078 20.9818V9.15276C28.5078 8.91525 28.3814 8.69574 28.1761 8.57642C27.9708 8.45709 27.7175 8.45595 27.5112 8.57356L18.8742 13.495C18.6661 13.6136 18.5376 13.8347 18.5376 14.0742V20.9818C16.3246 21.8603 14.3964 23.3061 12.9324 25.1383V16.947C12.9324 16.7095 12.8061 16.49 12.6007 16.3706C12.3955 16.2513 12.1422 16.2503 11.9358 16.3678L3.29889 21.2891C3.09072 21.4077 2.96225 21.6288 2.96225 21.8683V43.6112C2.96225 43.9794 3.26071 44.2779 3.62887 44.2779H12.2658C12.634 44.2779 12.9324 43.9794 12.9324 43.6112V42.0284C15.4177 45.1386 19.2412 47.1349 23.5228 47.1349C27.8043 47.1349 31.6277 45.1386 34.113 42.0284V43.6112C34.113 43.9794 34.4115 44.2779 34.7796 44.2779H43.4166C43.7847 44.2779 44.0832 43.9794 44.0832 43.6112V1.35884C44.0831 1.12133 43.9568 0.901814 43.7514 0.782488ZM19.8708 14.4616L27.1745 10.2998V20.532C26.0121 20.2064 24.7875 20.0317 23.5226 20.0317C22.2578 20.0317 21.033 20.2064 19.8707 20.532V14.4616H19.8708ZM11.5991 42.9446H4.29541V22.2556L11.5991 18.094V27.1478C10.561 29.0634 9.97098 31.2557 9.97098 33.5832C9.97098 35.9108 10.561 38.1031 11.5991 40.0187V42.9446ZM23.5227 45.8017C16.7854 45.8017 11.3042 40.3205 11.3042 33.5832C11.3042 26.846 16.7854 21.3649 23.5227 21.3649C30.2599 21.3649 35.741 26.846 35.741 33.5832C35.741 40.3205 30.2599 45.8017 23.5227 45.8017ZM42.7498 42.9446H35.4462V40.0188C36.4842 38.1032 37.0743 35.9109 37.0743 33.5832C37.0743 31.2556 36.4842 29.0634 35.4462 27.1478V6.66757L42.7498 2.50591V42.9446ZM23.5227 23.2043C17.7997 23.2043 13.1437 27.8603 13.1437 33.5832C13.1437 39.3063 17.7997 43.9623 23.5227 43.9623C29.2457 43.9623 33.9017 39.3063 33.9017 33.5832C33.9017 27.8602 29.2457 23.2043 23.5227 23.2043ZM23.5227 42.629C18.5349 42.629 14.4769 38.5711 14.4769 33.5832C14.4769 28.5954 18.5349 24.5376 23.5227 24.5376C28.5105 24.5376 32.5684 28.5954 32.5684 33.5832C32.5684 38.5711 28.5105 42.629 23.5227 42.629ZM26.8004 35.9579C26.8004 37.3981 25.6846 38.6043 24.2023 38.8914L24.2201 39.6252C24.2289 39.9933 23.9378 40.2988 23.5697 40.3077C23.5642 40.3078 23.5588 40.3079 23.5533 40.3079C23.1926 40.3079 22.8959 40.02 22.8872 39.6574L22.869 38.9021C21.9845 38.7471 21.4196 38.281 20.8805 37.7723C20.6127 37.5197 20.6005 37.0978 20.8531 36.8299C21.1057 36.5621 21.5276 36.5499 21.7955 36.8025C22.4088 37.381 22.7843 37.6229 23.5228 37.6229C24.595 37.6229 25.4672 36.8759 25.4672 35.9579C25.4672 35.0396 24.5949 34.2927 23.5228 34.2927C21.7153 34.2927 20.245 32.9477 20.245 31.2944C20.245 29.8536 21.3617 28.647 22.8449 28.3605L22.8253 27.5411C22.8165 27.1731 23.1077 26.8676 23.4758 26.8588C23.8429 26.8502 24.1494 27.1412 24.1583 27.5093L24.179 28.3775C24.9832 28.5555 25.9648 29.0173 26.3964 29.674C26.5986 29.9816 26.5131 30.395 26.2054 30.5971C25.8977 30.7992 25.4843 30.7138 25.2822 30.4061C25.058 30.0649 24.0714 29.6293 23.5228 29.6293C22.4505 29.6293 21.5782 30.3763 21.5782 31.2943C21.5782 32.2124 22.4505 32.9594 23.5228 32.9594C25.33 32.9595 26.8004 34.3045 26.8004 35.9579ZM31.2355 3.07264L0.9836 19.4139C0.882844 19.4683 0.774374 19.4941 0.667333 19.4941C0.430299 19.4941 0.200789 19.3674 0.0802241 19.1442C-0.094718 18.8203 0.0259417 18.4158 0.349923 18.2408L30.3443 2.0388L27.5952 1.40636C27.2364 1.32379 27.0125 0.966001 27.095 0.607165C27.1776 0.248329 27.5353 0.0245322 27.8941 0.106908L32.3652 1.13552C32.5375 1.17523 32.687 1.2816 32.7808 1.4315C32.8746 1.5813 32.9051 1.76234 32.8654 1.93461L31.8367 6.40578C31.7541 6.76462 31.3963 6.98813 31.0376 6.90604C30.6787 6.82347 30.4548 6.46568 30.5374 6.10684L31.2355 3.07264Z" fill="#3E66F3"/>
</svg>
