<svg width="48" height="55" viewBox="0 0 48 55" fill="none" xmlns="http://www.w3.org/2000/svg">
<path d="M34.6678 20.6381L24.0401 14.4981C23.8932 14.4133 23.7266 14.3687 23.557 14.3687C23.3874 14.3687 23.2208 14.4133 23.0739 14.4981L12.4462 20.6429C12.2994 20.7276 12.1776 20.8494 12.0928 20.9961C12.008 21.1428 11.9633 21.3092 11.9631 21.4786V33.744C11.9633 33.9134 12.008 34.0798 12.0928 34.2265C12.1776 34.3732 12.2994 34.495 12.4462 34.5797L23.0739 40.7197C23.2217 40.8017 23.3879 40.8449 23.557 40.8453C23.7267 40.845 23.8933 40.8 24.0401 40.7148L34.6678 34.5749C34.8145 34.4902 34.9364 34.3684 35.0212 34.2217C35.106 34.075 35.1507 33.9086 35.1509 33.7392V21.4738C35.1507 21.3044 35.106 21.138 35.0212 20.9913C34.9364 20.8446 34.8145 20.7228 34.6678 20.6381ZM23.557 16.4546L32.291 21.4931L23.557 26.493L14.8616 21.4786L23.557 16.4546ZM13.8954 23.1501L22.5908 28.1693V38.2076L13.8954 33.1885V23.1501ZM24.5231 38.2076V28.1693L33.2186 23.1887V33.1836L24.5231 38.2076Z" fill="#3E66F3"/>
<path d="M21.1416 5.30998L22.5908 3.86074V11.1842C22.5908 11.4405 22.6926 11.6862 22.8738 11.8674C23.055 12.0486 23.3007 12.1504 23.557 12.1504C23.8132 12.1504 24.059 12.0486 24.2402 11.8674C24.4214 11.6862 24.5231 11.4405 24.5231 11.1842V3.85591L25.9724 5.30515C26.0623 5.39556 26.1691 5.4673 26.2869 5.51622C26.4046 5.56513 26.5309 5.59026 26.6584 5.59016C26.8503 5.59128 27.0381 5.53522 27.1981 5.42914C27.358 5.32305 27.4827 5.17174 27.5563 4.99451C27.6299 4.81727 27.649 4.62214 27.6113 4.43398C27.5735 4.24582 27.4806 4.07317 27.3443 3.93803L24.2381 0.841499C24.0571 0.661551 23.8122 0.560547 23.557 0.560547C23.3017 0.560547 23.0569 0.661551 22.8758 0.841499L19.7696 3.93803C19.5877 4.11996 19.4855 4.36672 19.4855 4.62401C19.4855 4.7514 19.5106 4.87755 19.5594 4.99525C19.6081 5.11295 19.6796 5.21989 19.7696 5.30998C19.8597 5.40006 19.9667 5.47152 20.0844 5.52027C20.2021 5.56902 20.3282 5.59412 20.4556 5.59412C20.7129 5.59412 20.9597 5.49191 21.1416 5.30998Z" fill="#3E66F3"/>
<path d="M25.9724 49.9078L24.5231 51.357V44.0336C24.5231 43.7773 24.4214 43.5316 24.2402 43.3504C24.059 43.1692 23.8132 43.0674 23.557 43.0674C23.3007 43.0674 23.055 43.1692 22.8738 43.3504C22.6926 43.5316 22.5908 43.7773 22.5908 44.0336V51.3619L21.1416 49.9126C21.0518 49.8226 20.9452 49.751 20.8278 49.7022C20.7104 49.6533 20.5845 49.628 20.4573 49.6278C20.3302 49.6276 20.2042 49.6524 20.0866 49.7009C19.969 49.7493 19.8622 49.8205 19.7721 49.9102C19.682 50 19.6105 50.1066 19.5616 50.224C19.5127 50.3414 19.4874 50.4673 19.4872 50.5945C19.487 50.7217 19.5118 50.8476 19.5603 50.9652C19.6087 51.0828 19.6799 51.1897 19.7696 51.2798L22.8758 54.3811C23.0569 54.5611 23.3017 54.6621 23.557 54.6621C23.8122 54.6621 24.0571 54.5611 24.2381 54.3811L27.3443 51.2798C27.4344 51.1897 27.5059 51.0827 27.5546 50.965C27.6034 50.8473 27.6285 50.7212 27.6285 50.5938C27.6285 50.4664 27.6034 50.3402 27.5546 50.2225C27.5059 50.1048 27.4344 49.9979 27.3443 49.9078C27.2542 49.8177 27.1473 49.7463 27.0296 49.6975C26.9119 49.6488 26.7857 49.6237 26.6584 49.6237C26.531 49.6237 26.4048 49.6488 26.2871 49.6975C26.1694 49.7463 26.0625 49.8177 25.9724 49.9078Z" fill="#3E66F3"/>
<path d="M9.81823 18.5608L3.47057 14.8943L5.45603 14.3629C5.58734 14.3398 5.71244 14.2897 5.82347 14.2159C5.9345 14.1421 6.02905 14.0461 6.10117 13.934C6.17329 13.8218 6.22143 13.696 6.24254 13.5643C6.26365 13.4327 6.25729 13.2981 6.22386 13.169C6.19042 13.04 6.13063 12.9192 6.04825 12.8144C5.96588 12.7096 5.86269 12.6229 5.74519 12.5599C5.6277 12.4969 5.49843 12.4589 5.36553 12.4482C5.23262 12.4376 5.09896 12.4546 4.97295 12.4982L0.731515 13.6334C0.605925 13.6641 0.487769 13.7197 0.384045 13.7968C0.280322 13.874 0.193141 13.9712 0.127667 14.0827C0.00219084 14.3059 -0.0324132 14.5689 0.0310512 14.817L1.17112 19.0584C1.22634 19.2635 1.34759 19.4446 1.51612 19.5739C1.68466 19.7031 1.89108 19.7732 2.10346 19.7734C2.18835 19.7737 2.27288 19.7623 2.35466 19.7395C2.60185 19.6728 2.81243 19.5106 2.94015 19.2887C3.06786 19.0668 3.10227 18.8033 3.0358 18.556L2.50441 16.5705L8.85207 20.2323C8.99885 20.3174 9.16546 20.3624 9.33515 20.3627C9.54752 20.3623 9.75385 20.292 9.92222 20.1626C10.0906 20.0332 10.2116 19.8519 10.2666 19.6467C10.3216 19.4416 10.3075 19.2241 10.2265 19.0278C10.1454 18.8315 10.0019 18.6674 9.81823 18.5608Z" fill="#3E66F3"/>
<path d="M45.9429 36.1594C45.8635 35.9297 45.7005 35.7384 45.4863 35.6236C45.2722 35.5087 45.0226 35.4788 44.7874 35.5397C44.5522 35.6007 44.3486 35.748 44.2171 35.9524C44.0857 36.1568 44.0361 36.4031 44.0782 36.6425L44.6096 38.6279L38.2619 34.9855C38.0411 34.87 37.7842 34.8443 37.5449 34.9137C37.3055 34.9831 37.1023 35.1424 36.9776 35.3581C36.8529 35.5738 36.8164 35.8294 36.8756 36.0715C36.9349 36.3135 37.0854 36.5233 37.2957 36.657L43.6434 40.3235L41.6579 40.8549C41.4326 40.9161 41.237 41.0569 41.1075 41.2512C40.9779 41.4454 40.9231 41.68 40.9531 41.9116C40.9832 42.1432 41.0961 42.356 41.2709 42.5108C41.4458 42.6656 41.6708 42.7517 41.9043 42.7534C41.9892 42.7541 42.0738 42.7427 42.1555 42.7196L46.3969 41.5844C46.5199 41.5519 46.6353 41.4956 46.7364 41.4185C46.8376 41.3414 46.9225 41.2451 46.9863 41.1351C47.1118 40.9119 47.1464 40.6489 47.0829 40.4008L45.9429 36.1594Z" fill="#3E66F3"/>
<path d="M8.85207 34.9855L2.50441 38.6472L3.0358 36.6618C3.07936 36.5358 3.09636 36.4021 3.08574 36.2692C3.07512 36.1363 3.03711 36.007 2.9741 35.8895C2.91109 35.772 2.82444 35.6689 2.7196 35.5865C2.61477 35.5041 2.49402 35.4443 2.36495 35.4109C2.23589 35.3774 2.1013 35.3711 1.96965 35.3922C1.83801 35.4133 1.71216 35.4614 1.60002 35.5336C1.48788 35.6057 1.39189 35.7002 1.31807 35.8113C1.24426 35.9223 1.19422 36.0474 1.17112 36.1787L0.0310512 40.4008C-0.0324132 40.6489 0.00219084 40.9119 0.127667 41.1351C0.191502 41.2451 0.276422 41.3414 0.377558 41.4185C0.478693 41.4956 0.594054 41.5519 0.717023 41.5844L4.95845 42.7196C5.04017 42.7427 5.12474 42.7541 5.20966 42.7534C5.44316 42.7517 5.66817 42.6656 5.84304 42.5108C6.01791 42.356 6.13081 42.1432 6.16087 41.9116C6.19092 41.68 6.13608 41.4454 6.0065 41.2512C5.87693 41.0569 5.68137 40.9161 5.45603 40.8549L3.47057 40.3235L9.81823 36.657C10.0285 36.5233 10.179 36.3135 10.2383 36.0715C10.2976 35.8294 10.2611 35.5738 10.1364 35.3581C10.0117 35.1424 9.80842 34.9831 9.5691 34.9137C9.32977 34.8443 9.07288 34.87 8.85207 34.9855Z" fill="#3E66F3"/>
<path d="M37.7837 20.3627C37.9533 20.3624 38.12 20.3174 38.2667 20.2323L44.6144 16.5705L44.083 18.556C44.0165 18.8033 44.0509 19.0668 44.1787 19.2887C44.3064 19.5106 44.517 19.6728 44.7641 19.7395C44.8459 19.7623 44.9305 19.7737 45.0153 19.7734C45.2277 19.7732 45.4341 19.7031 45.6027 19.5739C45.7712 19.4446 45.8925 19.2635 45.9477 19.0584L47.0878 14.817C47.1512 14.5689 47.1166 14.3059 46.9911 14.0827C46.9273 13.9727 46.8424 13.8764 46.7412 13.7993C46.6401 13.7222 46.5247 13.6658 46.4018 13.6334L42.1604 12.4982C42.0343 12.4546 41.9007 12.4376 41.7678 12.4482C41.6349 12.4589 41.5056 12.4969 41.3881 12.5599C41.2706 12.6229 41.1674 12.7096 41.085 12.8144C41.0027 12.9192 40.9429 13.04 40.9094 13.169C40.876 13.2981 40.8696 13.4327 40.8908 13.5643C40.9119 13.696 40.96 13.8218 41.0321 13.934C41.1042 14.0461 41.1988 14.1421 41.3098 14.2159C41.4209 14.2897 41.546 14.3398 41.6773 14.3629L43.6627 14.8943L37.2957 18.5608C37.112 18.6674 36.9686 18.8315 36.8875 19.0278C36.8065 19.2241 36.7923 19.4416 36.8473 19.6467C36.9023 19.8519 37.0234 20.0332 37.1917 20.1626C37.3601 20.292 37.5665 20.3623 37.7788 20.3627H37.7837Z" fill="#3E66F3"/>
</svg>
