<svg width="53" height="54" viewBox="0 0 53 54" fill="none" xmlns="http://www.w3.org/2000/svg">
<path d="M31.3142 48.2716L29.6568 52.5771C29.5508 52.8527 29.2857 53.0345 28.9906 53.0345H23.8524C23.5572 53.0345 23.2922 52.8527 23.1862 52.5771L21.6683 48.6347C19.0099 48.0642 16.506 47.026 14.2135 45.544L10.3506 47.2604C10.0799 47.3794 9.76432 47.3213 9.55553 47.1126L5.92225 43.4794C5.71346 43.2706 5.65443 42.9544 5.77446 42.6849L7.49 38.8219C6.00885 36.5318 4.97025 34.0269 4.39888 31.3658L0.457424 29.8483C0.181752 29.7423 0 29.4773 0 29.1821V24.0439C0 23.7487 0.181752 23.4837 0.457424 23.3777L4.3994 21.8602C4.96984 19.2005 6.00843 16.696 7.49052 14.405L5.77456 10.5411C5.65463 10.2714 5.71367 9.95532 5.92236 9.74663L9.55512 6.11335C9.76391 5.90415 10.0795 5.84552 10.3501 5.96556L14.2135 7.68203C16.5054 6.19994 19.0094 5.16176 21.6683 4.59132L23.1862 0.648933C23.2923 0.373158 23.5573 0.191406 23.8525 0.191406H28.9907C29.2859 0.191406 29.5509 0.373158 29.6569 0.64883L31.3147 4.95575C31.4566 5.32401 31.2734 5.73684 30.9052 5.87855C30.5384 6.01943 30.1241 5.83716 29.9824 5.46901L28.5003 1.61962H24.343L22.8609 5.46901C22.773 5.69824 22.5731 5.86555 22.3322 5.91302C19.5864 6.45229 17.0114 7.51978 14.6784 9.08557C14.4748 9.22274 14.2145 9.24462 13.9908 9.14554L10.2182 7.47004L7.27904 10.4096L8.95413 14.1824C9.05363 14.4064 9.03082 14.6663 8.89417 14.8699C7.32786 17.2019 6.26047 19.777 5.7211 22.5241C5.67373 22.7649 5.50632 22.9649 5.27709 23.0528L1.42821 24.5344V28.6915L5.27627 30.1732C5.5055 30.261 5.6728 30.4609 5.72027 30.7018C6.26099 33.4504 7.32838 36.026 8.89375 38.357C9.0304 38.5606 9.05321 38.8205 8.95372 39.0446L7.27915 42.8163L10.2188 45.7559L13.9911 44.0805C14.2147 43.9815 14.475 44.0033 14.6786 44.1404C17.012 45.7067 19.5872 46.7741 22.3324 47.313C22.5732 47.3603 22.7731 47.5277 22.8611 47.757L24.3432 51.6064H28.5003L29.982 47.7583C30.1238 47.3901 30.5389 47.207 30.9048 47.3488C31.2729 47.4906 31.456 47.9038 31.3142 48.2716ZM20.8767 35.7986C20.9925 35.8688 21.1198 35.9018 21.2458 35.9018C21.4872 35.9018 21.7233 35.7791 21.8572 35.5573C22.0612 35.2198 21.9533 34.7809 21.6159 34.5768C18.8023 32.8753 17.1225 29.8985 17.1225 26.613C17.1225 23.3275 18.8023 20.3507 21.6159 18.6492C21.9533 18.4451 22.0612 18.0062 21.8572 17.6687C21.6535 17.3312 21.2137 17.2228 20.8767 17.4274C17.6317 19.3893 15.6943 22.8236 15.6943 26.613C15.6943 30.4024 17.6316 33.8367 20.8767 35.7986ZM52.8432 26.613C52.8432 28.4448 51.3527 29.9352 49.521 29.9352C47.9345 29.9352 46.606 28.8164 46.278 27.3271H27.1357V30.5717H34.3771C34.5662 30.5717 34.7481 30.647 34.882 30.7809L37.5129 33.4123H39.2863C39.6142 31.9229 40.9428 30.8042 42.5293 30.8042C44.361 30.8042 45.8515 32.2947 45.8515 34.1264C45.8515 35.9582 44.361 37.4486 42.5293 37.4486C40.9429 37.4486 39.6143 36.3298 39.2863 34.8405H37.2172C37.028 34.8405 36.8461 34.7652 36.7123 34.6313L34.0814 32H27.1357V35.245H33.0084C33.1976 35.245 33.3794 35.3204 33.5133 35.4542L38.6021 40.5431C38.736 40.6769 38.8114 40.8588 38.8114 41.048V43.597C39.6907 43.7914 40.4896 44.3358 40.9741 45.1749C41.4181 45.9434 41.5362 46.8388 41.3065 47.6956C41.0769 48.5528 40.5269 49.2693 39.7584 49.7128C39.2466 50.0085 38.6784 50.1596 38.1028 50.1596C37.8141 50.1596 37.5235 50.1215 37.2376 50.0447C36.3804 49.8151 35.6639 49.2655 35.2204 48.4971C34.3045 46.9109 34.8499 44.875 36.4361 43.9587C36.739 43.7838 37.0583 43.6631 37.3831 43.5919V41.3435L32.7127 36.6731H27.1357V41.8015C27.1357 42.1957 26.8158 42.5156 26.4216 42.5156C17.653 42.5156 10.519 35.3816 10.519 26.613C10.519 17.8444 17.653 10.7104 26.4216 10.7104C26.8158 10.7104 27.1357 11.0302 27.1357 11.4245V16.5529H32.7127L37.3831 11.8824V9.6299C37.0551 9.55724 36.7355 9.4402 36.4361 9.26722C34.8499 8.35093 34.3045 6.31502 35.2204 4.7288C35.6639 3.9603 36.3804 3.41081 37.2376 3.18117C38.0945 2.95153 38.9898 3.06909 39.7583 3.51309C40.5268 3.95659 41.0763 4.67306 41.3059 5.53032C41.5361 6.38758 41.418 7.28251 40.974 8.051C40.5305 8.8195 39.814 9.36899 38.9568 9.59914C38.9086 9.61204 38.8598 9.61741 38.8112 9.62804V12.1779C38.8112 12.3671 38.7359 12.549 38.602 12.6828L33.5132 17.7717C33.3793 17.9055 33.1975 17.9809 33.0083 17.9809H27.1356V21.2259H33.9028L37.0112 18.117C37.145 17.9831 37.3269 17.9078 37.5161 17.9078H39.2862C39.6141 16.4184 40.9427 15.2997 42.5292 15.2997C44.3609 15.2997 45.8514 16.7901 45.8514 18.6219C45.8514 20.4537 44.3609 21.9441 42.5292 21.9441C40.9428 21.9441 39.6142 20.8253 39.2862 19.336H37.8118L34.7034 22.4449C34.5696 22.5787 34.3877 22.6541 34.1985 22.6541H27.1357V25.8987H46.278C46.6059 24.4093 47.9345 23.2906 49.521 23.2906C51.3527 23.2908 52.8432 24.7812 52.8432 26.613ZM40.6352 18.6222C40.6352 19.6664 41.485 20.5162 42.5292 20.5162C43.5733 20.5162 44.4231 19.6664 44.4231 18.6222C44.4231 17.578 43.5733 16.7282 42.5292 16.7282C41.485 16.7282 40.6352 17.5779 40.6352 18.6222ZM37.1502 8.03067C37.589 8.28353 38.1 8.35144 38.5872 8.21944C39.0758 8.08878 39.4845 7.77502 39.7373 7.337C39.9902 6.89908 40.0577 6.38861 39.9265 5.90002C39.7959 5.41142 39.4821 5.00272 39.0441 4.74985C38.7521 4.58111 38.4281 4.49513 38.0998 4.49513C37.9357 4.49513 37.7702 4.51701 37.607 4.56067C37.1184 4.69133 36.7097 5.00509 36.4568 5.44311C35.935 6.34722 36.246 7.50812 37.1502 8.03067ZM25.7075 12.1557C18.0565 12.5292 11.9472 18.8708 11.9472 26.613C11.9472 34.3551 18.0566 40.6968 25.7075 41.0702V12.1557ZM38.0935 44.9425C37.7728 44.9425 37.4478 45.0238 37.1502 45.1953C36.246 45.7179 35.9349 46.8788 36.457 47.783C36.7099 48.2209 37.1186 48.5348 37.6072 48.6654C38.0958 48.7961 38.6059 48.7296 39.0442 48.4762C39.4826 48.2234 39.796 47.8147 39.927 47.3261C40.0577 46.8375 39.9903 46.3274 39.7373 45.8891C39.3869 45.2818 38.749 44.9425 38.0935 44.9425ZM40.6352 34.1263C40.6352 35.1705 41.485 36.0203 42.5292 36.0203C43.5733 36.0203 44.4231 35.1705 44.4231 34.1263C44.4231 33.0822 43.5733 32.2323 42.5292 32.2323C41.485 32.2323 40.6352 33.0822 40.6352 34.1263ZM51.415 26.613C51.415 25.5688 50.5651 24.719 49.521 24.719C48.4768 24.719 47.627 25.5688 47.627 26.613C47.627 27.6572 48.4768 28.507 49.521 28.507C50.5651 28.507 51.415 27.6572 51.415 26.613Z" fill="#3E66F3"/>
</svg>
