<svg width="30" height="27" viewBox="0 0 30 27" fill="none" xmlns="http://www.w3.org/2000/svg">
<path d="M13.4062 5.9375C13.4062 5.27734 13.9141 4.71875 14.625 4.71875C15.2852 4.71875 15.8438 5.27734 15.8438 5.9375C15.8438 6.64844 15.2852 7.15625 14.625 7.15625C13.9141 7.15625 13.4062 6.64844 13.4062 5.9375ZM13.8633 16.0938C12.2383 14.0625 8.53125 9.13672 8.53125 6.34375C8.53125 2.99219 11.2227 0.25 14.625 0.25C17.9766 0.25 20.7188 2.99219 20.7188 6.34375C20.7188 9.13672 16.9609 14.0625 15.3359 16.0938C14.9805 16.6016 14.2188 16.6016 13.8633 16.0938ZM18.5859 8.12109C18.9414 7.30859 19.0938 6.75 19.0938 6.34375C19.0938 3.90625 17.0625 1.875 14.625 1.875C12.1367 1.875 10.1562 3.90625 10.1562 6.34375C10.1562 6.75 10.2578 7.30859 10.6133 8.12109C10.918 8.93359 11.4258 9.79688 11.9336 10.6602C12.7969 12.082 13.8125 13.4531 14.625 14.4688C15.3867 13.4531 16.4023 12.082 17.2656 10.6602C17.7734 9.79688 18.2812 8.93359 18.5859 8.12109ZM20.5664 11.5742C20.5664 11.625 20.5156 11.625 20.4648 11.625C20.8711 10.9141 21.2773 10.1523 21.582 9.44141L27.5742 7.05469C28.3359 6.75 29.25 7.30859 29.25 8.17188V21.9336C29.25 22.4414 28.9453 22.8984 28.4375 23.0508L20.5664 26.1992C20.4141 26.3008 20.2617 26.3008 20.0586 26.25L8.9375 23.0508L1.625 25.9961C0.863281 26.3008 0 25.7422 0 24.8789V11.1172C0 10.6094 0.253906 10.1523 0.761719 10L7.00781 7.46094C7.10938 8.01953 7.26172 8.52734 7.46484 9.03516L1.625 11.3711V24.2695L8.125 21.6797V15.6875C8.125 15.2812 8.48047 14.875 8.9375 14.875C9.34375 14.875 9.75 15.2812 9.75 15.6875V21.5781L19.5 24.3711V15.6875C19.5 15.2812 19.8555 14.875 20.3125 14.875C20.7188 14.875 21.125 15.2812 21.125 15.6875V24.2695L27.625 21.6797V8.78125L20.5664 11.5742Z" fill="#3E66F3"/>
</svg>
