<svg width="26" height="27" viewBox="0 0 26 27" fill="none" xmlns="http://www.w3.org/2000/svg">
<path d="M25.1875 10C25.5938 10 26 10.4062 26 10.8125V23.8633C26 25.1836 24.8828 26.25 23.5625 26.25H2.4375C1.06641 26.25 0 25.1836 0 23.8125V10.8125C0 10.4062 0.355469 10 0.8125 10C1.21875 10 1.625 10.4062 1.625 10.8125V23.8125C1.625 24.2695 1.98047 24.625 2.4375 24.625H23.5625C23.9688 24.625 24.375 24.2695 24.375 23.8125V10.8125C24.375 10.4062 24.7305 10 25.1875 10ZM3.25 14.3164C3.25 14.2656 3.25 14.2148 3.25 14.1641C3.25 14.1133 3.25 14.1133 3.25 14.0625V2.6875C3.25 1.36719 4.31641 0.25 5.6875 0.25H20.3125C21.6328 0.25 22.75 1.36719 22.75 2.6875V14.0625C22.75 14.1133 22.6992 14.1133 22.6992 14.1133C22.6992 14.1641 22.6992 14.2148 22.6992 14.2656C22.6484 14.3164 22.6484 14.3672 22.6484 14.418C22.5977 14.4688 22.5977 14.4688 22.5469 14.5195C22.4961 14.5703 22.4961 14.6211 22.4453 14.6719C22.3945 14.6719 22.3945 14.6719 22.3945 14.6719L15.6406 19.6484C14.8789 20.2578 13.9648 20.5625 13 20.5625C11.9844 20.5625 11.0703 20.2578 10.3086 19.6992L3.55469 14.7227C3.55469 14.7227 3.55469 14.7227 3.50391 14.7227C3.45312 14.6719 3.45312 14.6211 3.40234 14.5703C3.35156 14.5195 3.35156 14.5195 3.30078 14.4688C3.30078 14.418 3.30078 14.3672 3.25 14.3164ZM4.875 2.6875V13.6562L11.2734 18.3789C12.2891 19.1406 13.6602 19.1406 14.6758 18.3789L21.125 13.6562V2.6875C21.125 2.28125 20.7188 1.875 20.3125 1.875H5.6875C5.23047 1.875 4.875 2.28125 4.875 2.6875ZM17.875 12.4375C17.875 12.8945 17.4688 13.25 17.0625 13.1992H8.9375C8.48047 13.1992 8.125 12.8438 8.125 12.4375C8.125 11.9805 8.48047 11.625 8.9375 11.625H17.0625C17.4688 11.625 17.875 11.9805 17.875 12.4375ZM8.9375 8.375C8.48047 8.375 8.125 8.01953 8.125 7.5625C8.125 7.20703 8.48047 6.80078 8.9375 6.80078H17.0625C17.4688 6.80078 17.875 7.15625 17.875 7.5625C17.875 7.96875 17.4688 8.375 17.0625 8.375H8.9375Z" fill="#3E66F3"/>
</svg>
