<svg width="27" height="28" viewBox="0 0 27 28" fill="none" xmlns="http://www.w3.org/2000/svg">
<path d="M10.6992 12.625V19.125C10.6992 20.0391 9.98828 20.75 9.07422 20.75H7.44922C5.67188 20.75 4.19922 19.2773 4.19922 17.5V14.25C4.19922 12.4727 5.62109 11 7.44922 11H9.07422C9.9375 11 10.6992 11.7617 10.6992 12.625ZM9.07422 19.125V12.625H7.44922C6.53516 12.625 5.82422 13.3867 5.82422 14.25V17.5C5.82422 18.4141 6.53516 19.125 7.44922 19.125H9.07422ZM20.4492 20.75V20.8008H18.875C17.9609 20.8008 17.25 20.0898 17.25 19.1758V12.6758C17.25 11.8125 17.9609 11.0508 18.875 11.0508H20.4492C22.2266 11.0508 23.6992 12.4727 23.6992 14.25V17.5C23.6992 19.2773 22.2266 20.75 20.4492 20.75ZM18.8242 12.625L18.7734 19.125H20.3984C21.2617 19.125 22.0234 18.4141 22.0234 17.5V14.25C22.0234 13.3867 21.2617 12.625 20.3984 12.625H18.8242ZM15.2188 1.35156C21.9219 1.96094 27 7.85156 26.8984 14.6055V23.2383C26.8984 25.4727 25.0703 27.25 22.8359 27.25H13.1367C11.6641 27.25 10.4961 25.9297 10.75 24.3555C11.0039 23.1875 12.0703 22.375 13.2383 22.375H16.1836C17.1484 22.375 18.1133 22.8828 18.5703 23.7461C18.9258 24.4062 18.9258 25.0664 18.6719 25.625H22.9375C24.2578 25.625 25.375 24.5078 25.375 23.1875V14.6055C25.375 8.66406 20.957 3.48438 15.0156 2.92578C8.21094 2.31641 2.77734 7.80078 2.625 14.25V15.1133C2.57422 15.5195 2.21875 15.875 1.8125 15.875C1.35547 15.875 0.949219 15.5195 0.949219 15.0625L1 14.3008C1.20312 6.83594 7.39844 0.589844 15.2188 1.35156ZM16.3867 25.625C16.8438 25.625 17.1992 25.2695 17.1992 24.8125C17.1992 24.4062 16.793 24 16.3867 24H13.1367C12.6797 24 12.3242 24.4062 12.3242 24.8125C12.3242 25.2695 12.6797 25.625 13.1367 25.625H16.3867Z" fill="#3E66F3"/>
</svg>
