<svg width="53" height="55" viewBox="0 0 53 55" fill="none" xmlns="http://www.w3.org/2000/svg">
<path fill-rule="evenodd" clip-rule="evenodd" d="M31.1541 39.3886C31.964 38.5575 33.037 38.033 34.1904 37.9044C35.3437 37.7759 36.5059 38.0513 37.4789 38.6836C38.452 39.316 39.1756 40.2662 39.5265 41.3724C39.8774 42.4785 39.8339 43.6721 39.4034 44.7498C38.9728 45.8274 38.1819 46.7224 37.1654 47.2822C36.1489 47.842 34.9697 48.032 33.8288 47.8198C32.6879 47.6076 31.6559 47.0064 30.9086 46.1185C30.1614 45.2307 29.7452 44.1111 29.7309 42.9508C29.722 42.2926 29.8431 41.6391 30.0873 41.0278C30.3315 40.4165 30.6941 39.8594 31.1541 39.3886ZM34.7022 39.5358C33.9256 39.5448 33.1761 39.8228 32.5815 40.3224C31.9869 40.8221 31.584 41.5124 31.4414 42.2759C31.2988 43.0393 31.4253 43.8286 31.7995 44.5092C32.1736 45.1898 32.7722 45.7196 33.4932 46.0083C34.2142 46.297 35.013 46.3268 35.7534 46.0925C36.4939 45.8582 37.1302 45.3744 37.554 44.7236C37.9777 44.0727 38.1626 43.295 38.0772 42.5231C37.9918 41.7511 37.6414 41.0327 37.0856 40.4902C36.7709 40.1818 36.3983 39.9386 35.9892 39.7748C35.5802 39.611 35.1428 39.5298 34.7022 39.5358ZM36.6474 30.7813C37.1355 29.9421 37.526 29.0499 37.8113 28.122C38.1751 26.9326 38.3592 25.6955 38.3575 24.4518C38.3575 24.0879 38.3455 23.7454 38.3232 23.4218C38.317 23.3331 38.3101 23.2452 38.3026 23.1583H28.0947C27.8736 23.1583 27.6616 23.0705 27.5054 22.9142C27.3491 22.7579 27.2613 22.5459 27.2613 22.3249V11.6031C26.2365 11.4154 25.1969 11.3214 24.1551 11.3222V11.319C21.0737 11.319 18.0006 12.1441 15.514 13.7961C13.0598 15.427 11.1782 17.8742 10.4383 21.1399C10.2043 22.1971 10.089 23.2771 10.0946 24.3599C10.0925 25.8479 10.3564 27.3244 10.8738 28.7196C11.4032 30.1351 12.1752 31.4476 13.1552 32.5981C15.5938 35.4742 15.559 37.9764 15.5157 41.1196C15.5116 41.4163 15.5074 41.7224 15.5074 42.3834C15.5096 42.6582 15.5682 42.9296 15.6797 43.1807C15.7911 43.4319 15.9529 43.6575 16.1551 43.8435C16.5955 44.253 17.1756 44.4788 17.7769 44.4748H22.6803L22.6344 40.8339C22.6322 40.6419 22.6965 40.4551 22.8164 40.3052C22.9363 40.1554 23.1045 40.0517 23.2923 40.0118V40.0103L25.2612 39.5856C25.3211 39.4145 25.386 39.244 25.456 39.0742C25.5248 38.9069 25.5974 38.7429 25.6738 38.5823L24.5737 36.9666C24.4624 36.8034 24.4128 36.606 24.4338 36.4096C24.4548 36.2132 24.545 36.0306 24.6883 35.8946L27.6348 32.874C27.7684 32.7366 27.9454 32.6497 28.1358 32.6278C28.3261 32.6059 28.5182 32.6504 28.6795 32.7539L30.3761 33.8484C30.5433 33.7671 30.7104 33.6915 30.8774 33.6218C31.0426 33.553 31.2093 33.4885 31.3775 33.4283L31.7415 31.5104C31.7783 31.3141 31.8845 31.1375 32.0407 31.0131C32.197 30.8887 32.3928 30.8246 32.5924 30.8327L36.6488 30.7823L36.6474 30.7813ZM24.8334 44.4799C24.873 44.4845 24.9123 44.4919 24.9509 44.5022L26.0338 44.7077C26.1921 44.7296 26.3409 44.7965 26.4622 44.9006C26.5835 45.0047 26.6723 45.1415 26.718 45.2947C26.8016 45.5747 26.8999 45.8501 27.0125 46.1197C27.1217 46.381 27.2401 46.6299 27.3677 46.8666C27.4509 47.0002 27.4945 47.1546 27.4934 47.312C27.4923 47.4694 27.4466 47.6232 27.3616 47.7557L26.3748 49.2851L28.4456 51.3049L29.8929 50.3195C30.0193 50.2299 30.1682 50.1773 30.3228 50.1678C30.4774 50.1582 30.6317 50.192 30.7681 50.2654C31.0254 50.4047 31.2899 50.5305 31.5604 50.6422C31.8165 50.7474 32.0755 50.8391 32.3372 50.9172C32.4921 50.9525 32.6337 51.0314 32.7452 51.1446C32.8567 51.2578 32.9334 51.4006 32.9664 51.556L33.349 53.3303L36.2414 53.2942L36.5631 51.5995C36.5849 51.4412 36.6518 51.2924 36.7559 51.1711C36.86 51.0498 36.9968 50.961 37.15 50.9154C37.43 50.8317 37.7054 50.7333 37.975 50.6207C38.2361 50.5116 38.485 50.3932 38.7217 50.2655C38.8553 50.1823 39.0097 50.1387 39.1671 50.1398C39.3245 50.1409 39.4783 50.1866 39.6108 50.2716L41.1402 51.2583L43.1601 49.1876L42.1747 47.7402C42.085 47.6139 42.0325 47.465 42.0229 47.3104C42.0133 47.1557 42.0472 47.0015 42.1206 46.8651C42.2599 46.6077 42.3857 46.3433 42.4973 46.0727C42.6027 45.8166 42.6946 45.5577 42.773 45.296C42.8082 45.1411 42.8872 44.9995 43.0004 44.888C43.1136 44.7765 43.2563 44.6998 43.4118 44.6668L45.186 44.2842L45.15 41.3919L43.4552 41.0701C43.2969 41.0484 43.1481 40.9814 43.0268 40.8773C42.9055 40.7733 42.8167 40.6364 42.7711 40.4832C42.6875 40.2032 42.5891 39.9278 42.4765 39.6582C42.3673 39.3971 42.2489 39.1482 42.1213 38.9114C42.0381 38.7778 41.9945 38.6234 41.9955 38.466C41.9966 38.3086 42.0423 38.1548 42.1274 38.0223L43.1141 36.4929L41.043 34.4736L39.5958 35.4591C39.4694 35.5488 39.3205 35.6013 39.1659 35.6109C39.0112 35.6204 38.857 35.5866 38.7205 35.5132C38.4633 35.3738 38.1988 35.2481 37.9284 35.1364C37.6722 35.0311 37.4133 34.9392 37.1516 34.8608C36.9967 34.8255 36.8551 34.7466 36.7436 34.6334C36.6321 34.5202 36.5553 34.3774 36.5224 34.222L36.1398 32.4478L33.2474 32.4837L32.9257 34.1782C32.9039 34.3366 32.8369 34.4853 32.7329 34.6066C32.6288 34.7279 32.492 34.8167 32.3388 34.8623C32.0588 34.9461 31.7834 35.0445 31.5137 35.157C31.2525 35.2662 31.0035 35.3846 30.7667 35.5123C30.6332 35.5955 30.4787 35.6391 30.3213 35.638C30.1639 35.6369 30.0101 35.5912 29.8777 35.5062L28.3486 34.5197L26.3286 36.5905L27.3141 38.0379C27.4037 38.1643 27.4563 38.3132 27.4659 38.4678C27.4754 38.6225 27.4416 38.7767 27.3682 38.9131C27.0946 39.4168 26.8747 39.9479 26.712 40.4975C26.6745 40.6491 26.595 40.7871 26.4827 40.8956C26.3703 41.0041 26.2298 41.0788 26.077 41.1112L24.3026 41.4939L24.3386 44.3862L24.8329 44.4801L24.8334 44.4799ZM17.8893 46.1415H24.6686L25.2822 46.2579C25.3422 46.426 25.4066 46.5926 25.4756 46.7577C25.5455 46.9246 25.621 47.0917 25.7023 47.2589L24.82 48.6256H17.8897C17.862 48.62 17.8357 48.6087 17.8125 48.5926C17.7892 48.5765 17.7695 48.5558 17.7546 48.5318C17.6581 48.3996 17.6088 48.239 17.6144 48.0755V46.6913C17.6088 46.5278 17.6581 46.3671 17.7544 46.2349C17.7694 46.2109 17.7892 46.1902 17.8124 46.174C17.8357 46.1579 17.8619 46.1467 17.8897 46.141L17.8893 46.1415ZM19.9863 50.2924H25.0264L27.0729 52.2886C26.7885 52.498 26.4803 52.6731 26.1548 52.8102C25.5438 53.0645 24.8879 53.1938 24.226 53.1903C23.0912 53.2046 21.9891 52.8096 21.1219 52.0775C20.5712 51.6111 20.1756 50.9882 19.9874 50.2915L19.9863 50.2924ZM28.603 53.1673C28.6803 53.1427 28.7537 53.1069 28.8207 53.0611L30.4364 51.9611C30.5968 52.0371 30.7608 52.1096 30.9284 52.1788C31.096 52.2479 31.2665 52.3125 31.4397 52.3727L31.8645 54.3421H31.8661C31.906 54.5299 32.0097 54.698 32.1595 54.818C32.3094 54.9379 32.4962 55.0022 32.6882 54.9999L36.8974 54.9476C37.097 54.9556 37.2928 54.8916 37.449 54.7672C37.6052 54.6427 37.7114 54.4662 37.7481 54.2699L38.1122 52.3518C38.2803 52.2918 38.4469 52.2273 38.6123 52.1583C38.7792 52.0885 38.9462 52.013 39.1132 51.9317L40.8102 53.0265C40.9715 53.1299 41.1635 53.1744 41.3539 53.1525C41.5442 53.1307 41.7211 53.0437 41.8548 52.9064L44.8014 49.8856C44.9446 49.7497 45.0348 49.5672 45.0558 49.3708C45.0768 49.1744 45.0272 48.977 44.916 48.8138L43.8159 47.1981C43.8923 47.0377 43.9649 46.8734 44.0337 46.7054C44.1024 46.5373 44.1671 46.3669 44.2276 46.1941L46.197 45.7694V45.7678C46.3847 45.7279 46.5529 45.6242 46.6729 45.4744C46.7928 45.3245 46.8572 45.1377 46.8549 44.9457L46.8026 40.7365C46.8106 40.5369 46.7466 40.3411 46.6221 40.1849C46.4977 40.0287 46.3212 39.9225 46.1249 39.8858L44.2067 39.5217C44.1468 39.3536 44.0823 39.187 44.0133 39.0218C43.9435 38.8548 43.868 38.6878 43.7866 38.5207L44.8814 36.8237C44.9848 36.6624 45.0294 36.4703 45.0075 36.28C44.9856 36.0896 44.8986 35.9126 44.7613 35.779L41.7397 32.8312C41.6037 32.688 41.4212 32.5979 41.2249 32.5769C41.0285 32.5559 40.831 32.6054 40.6679 32.7167L39.0522 33.8167C38.8917 33.7407 38.7278 33.6681 38.5602 33.599C38.3927 33.5299 38.2222 33.4652 38.0488 33.405L37.773 32.1261C38.4713 31.0323 39.0186 29.8493 39.4002 28.609C39.8142 27.2617 40.0247 25.86 40.0247 24.4505C40.0247 24.0751 40.011 23.6949 39.9836 23.3099C39.9599 22.9674 39.9245 22.6224 39.8794 22.2769C39.8673 22.0644 39.7744 21.8645 39.6197 21.7184C39.465 21.5722 39.2602 21.4907 39.0473 21.4907H28.9279V10.9256H28.9255C28.9255 10.737 28.8612 10.5539 28.7434 10.4066C28.6255 10.2593 28.461 10.1565 28.277 10.115C26.9243 9.80933 25.5419 9.65507 24.1551 9.65509V9.6583C20.7561 9.6583 17.3571 10.574 14.5961 12.4084C11.8025 14.2647 9.66051 17.052 8.81714 20.7739C8.55424 21.9505 8.42356 23.1528 8.42754 24.3584C8.42758 26.0445 8.72891 27.717 9.31732 29.2971C9.91265 30.893 10.7816 32.3729 11.8852 33.6704C13.9249 36.0757 13.8935 38.3017 13.8547 41.0982C13.8473 41.6253 13.8399 42.1671 13.8399 42.3816C13.8423 42.8836 13.9478 43.3797 14.15 43.8392C14.3521 44.2987 14.6466 44.7117 15.015 45.0527C15.3389 45.3577 15.7117 45.6062 16.1178 45.7879C16.0055 46.0758 15.948 46.3821 15.9483 46.6912V48.075C15.9449 48.6177 16.125 49.1456 16.4595 49.573C16.6277 49.7936 16.844 49.973 17.0919 50.0976C17.3398 50.2222 17.6128 50.2886 17.8902 50.292H18.2922C18.4963 51.4784 19.111 52.5554 20.0287 53.3345C21.1991 54.3305 22.6893 54.8712 24.226 54.8575C25.1101 54.8589 25.9854 54.6828 26.8002 54.3397C27.4665 54.0602 28.0772 53.6631 28.603 53.1673ZM49.923 18.2419C50.1404 18.8347 50.3134 19.4429 50.4407 20.0613H46.8577V16.1768H48.9283C49.3263 16.8312 49.6594 17.5229 49.923 18.2421V18.2419ZM50.1088 14.9322C50.6709 15.7888 51.1329 16.707 51.4856 17.6689C51.8529 18.6763 52.1088 19.7209 52.2487 20.784C52.2644 20.9014 52.2549 21.0209 52.2207 21.1343C52.1865 21.2477 52.1285 21.3525 52.0505 21.4417C51.9725 21.5309 51.8763 21.6023 51.7685 21.6513C51.6606 21.7003 51.5435 21.7257 51.4251 21.7257V21.728H46.0243C45.9148 21.728 45.8065 21.7065 45.7054 21.6646C45.6043 21.6227 45.5124 21.5613 45.435 21.484C45.3576 21.4066 45.2962 21.3147 45.2543 21.2136C45.2124 21.1125 45.1909 21.0041 45.1909 20.8947V15.3431C45.1909 15.2337 45.2124 15.1253 45.2543 15.0242C45.2962 14.9231 45.3576 14.8313 45.435 14.7539C45.5124 14.6765 45.6043 14.6151 45.7054 14.5732C45.8065 14.5314 45.9148 14.5098 46.0243 14.5098H49.3837C49.5311 14.5098 49.6759 14.5488 49.8033 14.623C49.9307 14.6973 50.0361 14.8039 50.1088 14.9322ZM39.4521 3.69112C38.2516 2.91071 36.9433 2.31027 35.5689 1.90892V5.84744H41.9586C41.2221 5.02097 40.3792 4.29587 39.452 3.69112H39.4521ZM34.9869 0.0386157C36.8984 0.468539 38.7187 1.23341 40.3635 2.29784C41.9415 3.32244 43.2943 4.65753 44.3397 6.2218C44.4227 6.34711 44.4701 6.49256 44.477 6.64269C44.4839 6.79281 44.45 6.942 44.3789 7.07439C44.3077 7.20678 44.2021 7.31742 44.0731 7.39455C43.9441 7.47167 43.7966 7.5124 43.6463 7.5124V7.51424H34.7354C34.5144 7.51421 34.3024 7.42639 34.1462 7.2701C33.9899 7.11381 33.9021 6.90185 33.9021 6.68084V0.8334C33.9022 0.702449 33.9331 0.573359 33.9924 0.456583C34.0516 0.339807 34.1376 0.238627 34.2432 0.161234C34.3488 0.0838413 34.4712 0.0324117 34.6004 0.011109C34.7296 -0.0101936 34.862 -0.000770423 34.9869 0.0386157ZM25.0594 5.96054C25.0594 6.18157 24.9716 6.39355 24.8153 6.54984C24.6591 6.70613 24.4471 6.79394 24.226 6.79394C24.005 6.79394 23.793 6.70613 23.6367 6.54984C23.4804 6.39355 23.3926 6.18157 23.3926 5.96054V1.5537C23.3926 1.33267 23.4804 1.12069 23.6367 0.964398C23.793 0.808105 24.005 0.720301 24.226 0.720301C24.4471 0.720301 24.6591 0.808105 24.8153 0.964398C24.9716 1.12069 25.0594 1.33267 25.0594 1.5537V5.96054ZM15.5227 7.97282C15.6305 8.16347 15.6587 8.38894 15.6012 8.60025C15.5437 8.81157 15.4051 8.99166 15.2156 9.10142C15.0261 9.21118 14.801 9.24175 14.589 9.18648C14.3771 9.1312 14.1956 8.99456 14.0838 8.80622L11.8804 4.98974C11.8243 4.89521 11.7875 4.79049 11.7722 4.68164C11.7568 4.57279 11.7632 4.46198 11.7909 4.35562C11.8187 4.24925 11.8672 4.14944 11.9338 4.06196C12.0004 3.97449 12.0836 3.90108 12.1788 3.84598C12.2739 3.79089 12.379 3.7552 12.488 3.74099C12.597 3.72678 12.7077 3.73432 12.8138 3.76319C12.9199 3.79205 13.0191 3.84166 13.1059 3.90914C13.1927 3.97663 13.2652 4.06065 13.3193 4.15634L15.5227 7.97282ZM8.27411 14.485C8.36858 14.5397 8.45136 14.6125 8.51771 14.6992C8.58406 14.7859 8.63268 14.8848 8.6608 14.9903C8.68891 15.0958 8.69598 15.2058 8.68158 15.314C8.66719 15.4223 8.63162 15.5266 8.5769 15.6211C8.52219 15.7155 8.4494 15.7983 8.3627 15.8647C8.27599 15.931 8.17707 15.9796 8.07157 16.0078C7.96608 16.0359 7.85608 16.0429 7.74785 16.0285C7.63963 16.0142 7.5353 15.9786 7.44082 15.9239L3.62434 13.7205C3.43354 13.61 3.29444 13.4282 3.23765 13.2151C3.18087 13.0021 3.21104 12.7752 3.32154 12.5844C3.43204 12.3936 3.61382 12.2545 3.82687 12.1977C4.03993 12.1409 4.26682 12.1711 4.45763 12.2816L8.27411 14.485ZM5.24966 23.7459C5.46899 23.7485 5.67845 23.8374 5.83264 23.9934C5.98682 24.1494 6.07329 24.3599 6.07329 24.5792C6.07329 24.7986 5.98682 25.0091 5.83264 25.1651C5.67845 25.3211 5.46899 25.41 5.24966 25.4126H0.843172C0.732914 25.4139 0.623495 25.3933 0.521255 25.352C0.419016 25.3107 0.325988 25.2495 0.247563 25.172C0.169137 25.0945 0.106873 25.0022 0.0643772 24.9004C0.0218818 24.7987 0 24.6895 0 24.5792C0 24.469 0.0218818 24.3598 0.0643772 24.258C0.106873 24.1563 0.169137 24.064 0.247563 23.9865C0.325988 23.909 0.419016 23.8478 0.521255 23.8065C0.623495 23.7652 0.732914 23.7446 0.843172 23.7459H5.24966ZM7.26195 33.2826C7.4526 33.1748 7.67807 33.1467 7.88938 33.2042C8.10069 33.2617 8.28079 33.4002 8.39055 33.5897C8.50031 33.7792 8.53088 34.0044 8.4756 34.2163C8.42033 34.4282 8.28369 34.6097 8.09535 34.7215L4.27887 36.9249C4.18431 36.9825 4.0792 37.0206 3.96972 37.0369C3.86024 37.0533 3.74858 37.0477 3.64131 37.0204C3.53403 36.993 3.43329 36.9446 3.345 36.8778C3.25672 36.811 3.18265 36.7272 3.12716 36.6315C3.07166 36.5357 3.03586 36.4298 3.02184 36.32C3.00782 36.2101 3.01587 36.0986 3.04552 35.992C3.07517 35.8853 3.12582 35.7857 3.1945 35.6988C3.26318 35.612 3.3485 35.5398 3.44547 35.4864L7.26195 33.283V33.2826ZM37.5264 12.4286V16.3131H33.6419V12.4286H37.5264ZM32.8083 10.7619H38.3594C38.4688 10.7619 38.5772 10.7835 38.6783 10.8253C38.7794 10.8672 38.8713 10.9286 38.9487 11.006C39.0261 11.0834 39.0874 11.1753 39.1293 11.2764C39.1712 11.3775 39.1928 11.4859 39.1928 11.5953V17.1468C39.1928 17.2562 39.1712 17.3646 39.1293 17.4657C39.0874 17.5668 39.0261 17.6587 38.9487 17.7361C38.8713 17.8134 38.7794 17.8748 38.6783 17.9167C38.5772 17.9586 38.4688 17.9802 38.3594 17.9802H32.8083C32.5872 17.9802 32.3752 17.8923 32.2189 17.7361C32.0627 17.5798 31.9748 17.3678 31.9748 17.1468V11.5953C31.9748 11.3743 32.0627 11.1623 32.2189 11.006C32.3752 10.8497 32.5872 10.7619 32.8083 10.7619Z" fill="#3E66F3"/>
</svg>
