<svg width="60" height="52" viewBox="0 0 60 52" fill="none" xmlns="http://www.w3.org/2000/svg">
<path d="M13.1973 21.162C12.9982 21.6047 13.1957 22.1249 13.6385 22.324C14.3062 22.6243 15.0806 22.7831 15.8777 22.7831C16.6748 22.7831 17.4492 22.6244 18.1169 22.324C18.5596 22.1249 18.7571 21.6047 18.5581 21.162C18.359 20.7194 17.8388 20.5219 17.3961 20.7208C16.9532 20.9199 16.4282 21.0251 15.8777 21.0251C15.3271 21.0251 14.8021 20.9199 14.3593 20.7208C13.9166 20.5217 13.3962 20.7192 13.1973 21.162Z" fill="#3E66F3"/>
<path d="M13.0595 18.6434C13.5449 18.6434 13.9384 18.2499 13.9384 17.7645V16.8252C13.9384 16.3398 13.5449 15.9462 13.0595 15.9462C12.5741 15.9462 12.1806 16.3398 12.1806 16.8252V17.7645C12.1806 18.2499 12.5741 18.6434 13.0595 18.6434Z" fill="#3E66F3"/>
<path d="M18.6961 18.6436C19.1815 18.6436 19.575 18.25 19.575 17.7646V16.8253C19.575 16.3399 19.1815 15.9464 18.6961 15.9464C18.2107 15.9464 17.8172 16.3399 17.8172 16.8253V17.7646C17.8172 18.25 18.2107 18.6436 18.6961 18.6436Z" fill="#3E66F3"/>
<path d="M17.788 37.5521C16.2674 37.5521 15.0304 38.7893 15.0304 40.3098C15.0304 41.8304 16.2675 43.0675 17.788 43.0675C19.3085 43.0675 20.5457 41.8304 20.5457 40.3098C20.5457 38.7893 19.3085 37.5521 17.788 37.5521ZM17.788 41.3097C17.2366 41.3097 16.7882 40.8611 16.7882 40.3098C16.7882 39.7584 17.2368 39.3099 17.788 39.3099C18.3393 39.3099 18.7879 39.7585 18.7879 40.3098C18.7879 40.8612 18.3393 41.3097 17.788 41.3097Z" fill="#3E66F3"/>
<path d="M57.1819 36.9847V31.3588C57.1819 29.5912 56.1998 28.0022 54.6189 27.2117L50.2207 25.0126C49.8799 24.8422 49.6682 24.4997 49.668 24.1186L49.6669 20.1502C51.3221 19.4417 52.4849 17.7971 52.4849 15.8857V9.30992C52.4849 5.19945 49.1407 1.85527 45.0302 1.85527H37.5151C34.4406 1.85527 31.9392 4.35664 31.9392 7.43117C31.9392 8.64442 32.7272 9.67649 33.818 10.0445V15.8858C33.818 19.4796 36.1034 22.6443 39.4543 23.8066V25.2061L33.5629 28.1518C31.982 28.9422 30.9998 30.5313 30.9998 32.2988V46.0067H28.7823C28.9223 45.6703 29 45.3017 29 44.9151V35.7047C29 34.1335 27.7218 32.8552 26.1506 32.8552H23.3637V32.7948C23.3637 30.0193 21.3251 27.7115 18.6666 27.2888V26.2215C21.0698 25.0247 22.8226 22.7104 23.2376 19.9623C24.5105 18.6165 25.2109 16.8439 25.2109 14.9464C25.2109 11.9074 24.2257 9.10695 22.4368 7.06109C20.5609 4.91574 17.8978 3.73414 14.9381 3.73414C14.5431 3.73414 14.153 3.755 13.7685 3.79496C12.5639 2.00809 10.5347 0.916016 8.3625 0.916016C4.77 0.916016 1.84723 3.83867 1.84723 7.43129C1.84723 9.31285 2.64199 11.0693 4.04063 12.307C3.83555 13.1538 3.72598 14.0375 3.72598 14.9464C3.72598 17.3707 4.86562 19.5576 6.85488 20.9608C7.29762 22.5443 8.19316 23.9396 9.39375 24.9984V27.2652C5.17699 27.706 1.87875 31.2814 1.87875 35.6129V46.0067H0.878906C0.393516 46.0067 0 46.4002 0 46.8856C0 47.371 0.393516 47.7645 0.878906 47.7645H30.9998V50.6431C30.9998 51.1285 31.3934 51.522 31.8788 51.522C32.3641 51.522 32.7577 51.1285 32.7577 50.6431V32.2988C32.7577 31.9275 32.829 31.5695 32.9595 31.2384L36.2018 33.9404C37.0748 34.6679 37.5756 35.737 37.5756 36.8735V50.6431C37.5756 51.1285 37.9691 51.522 38.4545 51.522C38.9399 51.522 39.3334 51.1285 39.3334 50.6431V41.2493C39.3334 39.662 40.6248 38.3706 42.212 38.3706H55.3635C56.9508 38.3706 58.2421 39.662 58.2421 41.2493V50.6431C58.2421 51.1285 58.6356 51.522 59.121 51.522C59.6064 51.522 59.9999 51.1285 59.9999 50.6431V41.2493C60 39.3378 58.8371 37.6931 57.1819 36.9847ZM3.60516 7.43117C3.60516 4.80793 5.73926 2.67371 8.36262 2.67371C9.6866 2.67371 10.9366 3.23117 11.826 4.17395C8.62125 5.10137 6.00328 7.4232 4.67414 10.4367C3.9866 9.59633 3.60516 8.54399 3.60516 7.43117ZM6.55488 18.2527C5.85738 17.3155 5.48391 16.186 5.48391 14.9464C5.48391 9.73321 9.72516 5.49195 14.9382 5.49195C17.4188 5.49195 19.5541 6.43461 21.1137 8.2182C22.6223 9.94356 23.4532 12.333 23.4532 14.9464C23.4532 15.3563 23.4116 15.7538 23.3323 16.137V16.083C23.3323 14.6536 22.2657 13.4742 20.8514 13.3398C18.6442 13.1299 14.5188 12.4783 11.6891 10.4717C11.3259 10.2144 10.8279 10.2689 10.5293 10.5986L9.03023 12.2539C7.52824 13.9123 6.65871 16.0271 6.55488 18.2527ZM8.30203 18.7022C8.30203 16.7511 9.02332 14.8801 10.3331 13.434L11.3264 12.3372C14.4261 14.2421 18.4634 14.8784 20.6851 15.0896C21.1922 15.1378 21.5745 15.5648 21.5745 16.0829V18.7038C21.5745 22.363 18.5974 25.34 14.9382 25.34C11.2791 25.34 8.30203 22.3631 8.30203 18.7022ZM16.909 26.862V27.1584C16.909 28.7457 15.6176 30.037 14.0303 30.037C12.443 30.037 11.1517 28.7456 11.1517 27.1584V26.1916C12.2903 26.7698 13.5763 27.0979 14.9384 27.0979C15.617 27.0979 16.2764 27.0148 16.909 26.862ZM27.2423 44.9151C27.2423 45.517 26.7526 46.0067 26.1507 46.0067H9.42516C8.82328 46.0067 8.33355 45.517 8.33355 44.9151V40.3099C8.33355 39.8245 7.94004 39.431 7.45465 39.431C6.96926 39.431 6.57574 39.8245 6.57574 40.3099V44.9151C6.57574 45.3017 6.65344 45.6703 6.79348 46.0067H3.63656V35.6129C3.63656 32.1213 6.34758 29.253 9.77496 28.9973C10.4883 30.6416 12.1268 31.7948 14.0303 31.7948C15.9289 31.7948 17.5639 30.6471 18.2801 29.0094C20.1536 29.2517 21.606 30.8563 21.606 32.7947V32.8551H9.42516C7.85402 32.8551 6.57574 34.1334 6.57574 35.7045V36.5522C6.57574 37.0375 6.96926 37.4311 7.45465 37.4311C7.94004 37.4311 8.33355 37.0375 8.33355 36.5522V35.7045C8.33355 35.1027 8.82328 34.6129 9.42516 34.6129H22.4815L22.4849 34.6131L22.4883 34.6129H26.1507C26.7526 34.6129 27.2423 35.1027 27.2423 35.7045V44.9151ZM35.5759 15.8858V10.1889H35.6364C36.7057 10.1889 37.5756 11.0589 37.5756 12.1283V14.9464C37.5756 18.0209 40.077 20.5223 43.1515 20.5223H44.0907C44.5761 20.5223 44.9696 20.1288 44.9696 19.6434C44.9696 19.158 44.5761 18.7645 44.0907 18.7645H43.1515C41.0462 18.7645 39.3334 17.0517 39.3334 14.9464V12.1283C39.3334 10.0897 37.675 8.43113 35.6364 8.43113H34.697C34.1456 8.43113 33.6972 7.98254 33.6972 7.43129C33.6972 5.32602 35.41 3.6132 37.5152 3.6132H45.0304C48.1716 3.6132 50.7272 6.16883 50.7272 9.31004V15.8858C50.7272 17.4731 49.4358 18.7644 47.8486 18.7644C47.3632 18.7644 46.9697 19.1579 46.9697 19.6433C46.9697 20.1287 47.3632 20.5222 47.8486 20.5222C47.869 20.5222 47.889 20.5209 47.9093 20.5207L47.9104 24.1191C47.9105 24.5531 48.0116 24.9683 48.1948 25.3401H41.2124V23.1546C41.2124 22.7537 40.9411 22.4036 40.553 22.3036C37.6225 21.5478 35.5759 18.9088 35.5759 15.8858ZM55.4241 36.6143C55.4038 36.614 55.3839 36.6127 55.3636 36.6127H42.212C41.125 36.6127 40.1248 36.9897 39.3334 37.6187V36.8735C39.3334 35.2138 38.6021 33.6525 37.3271 32.5899L34.0765 29.881C34.164 29.8248 34.2543 29.7715 34.3489 29.7241L39.6013 27.0979H50.4608L53.8328 28.784C54.8143 29.2748 55.4241 30.2613 55.4241 31.3588V36.6143Z" fill="#3E66F3"/>
</svg>
