<svg width="56" height="55" viewBox="0 0 56 55" fill="none" xmlns="http://www.w3.org/2000/svg">
<path fill-rule="evenodd" clip-rule="evenodd" d="M19.1528 33.7462H30.9954C31.4827 33.7462 31.8782 33.3507 31.8782 32.8634C31.8782 32.3761 31.4827 31.9806 30.9954 31.9806H19.1528C18.6656 31.9806 18.2701 32.3761 18.2701 32.8634C18.2701 33.3507 18.6655 33.7462 19.1528 33.7462Z" fill="#3E66F3"/>
<path fill-rule="evenodd" clip-rule="evenodd" d="M26.6054 32.8633V54.1171C26.6054 54.6045 27.0009 54.9999 27.4882 54.9999C27.9749 54.9999 28.3709 54.6044 28.3709 54.1171V32.8633C28.3709 32.376 27.9749 31.9806 27.4882 31.9806C27.0009 31.9806 26.6054 32.376 26.6054 32.8633Z" fill="#3E66F3"/>
<path fill-rule="evenodd" clip-rule="evenodd" d="M7.69983 0C4.26397 0 1.4737 2.79027 1.4737 6.22669C1.4737 9.6631 4.26397 12.4528 7.69983 12.4528C11.1363 12.4528 13.9266 9.66319 13.9266 6.22669C13.9266 2.79018 11.1363 0 7.69983 0ZM7.69983 1.76561C10.1623 1.76561 12.161 3.76433 12.161 6.22669C12.161 8.68857 10.1623 10.6872 7.69983 10.6872C5.23794 10.6872 3.23931 8.68857 3.23931 6.22669C3.23931 3.76424 5.23803 1.76561 7.69983 1.76561Z" fill="#3E66F3"/>
<path fill-rule="evenodd" clip-rule="evenodd" d="M48.2113 0C44.7748 0 41.9845 2.79027 41.9845 6.22669C41.9845 9.6631 44.7748 12.4528 48.2113 12.4528C51.6471 12.4528 54.4374 9.66319 54.4374 6.22669C54.4374 2.79018 51.6471 0 48.2113 0ZM48.2113 1.76561C50.6732 1.76561 52.6718 3.76433 52.6718 6.22669C52.6718 8.68857 50.6732 10.6872 48.2113 10.6872C45.7488 10.6872 43.7501 8.68857 43.7501 6.22669C43.7501 3.76424 45.7488 1.76561 48.2113 1.76561Z" fill="#3E66F3"/>
<path fill-rule="evenodd" clip-rule="evenodd" d="M12.5659 25.1206C12.7119 25.4149 13.0144 25.6108 13.3563 25.6108L13.6842 25.5472L21.813 22.2979C23.0642 21.7982 24.4856 22.4074 24.9859 23.6586C25.4855 24.9092 24.8758 26.3306 23.6252 26.8308L12.8897 31.1218C11.8638 31.532 10.7021 31.2001 10.0447 30.3385C9.81515 30.0377 9.41901 29.9165 9.06007 30.0377C8.70168 30.1589 8.46036 30.4956 8.46036 30.874V35.3075C8.46036 35.756 8.7964 36.1326 9.24138 36.1844L16.3868 37.0096C18.0754 37.2044 19.3501 38.6345 19.3501 40.3348V54.1172C19.3501 54.6046 19.7456 55 20.2329 55C20.7202 55 21.1156 54.6045 21.1156 54.1172V40.3348C21.1156 37.7376 19.1688 35.5535 16.5892 35.2558L10.2259 34.5207V32.6774C11.2441 33.1453 12.44 33.203 13.5447 32.7616L24.2808 28.4706C26.436 27.6084 27.4866 25.1589 26.625 23.003C25.7634 20.8472 23.3139 19.7967 21.1581 20.6583L13.7213 23.631L9.4491 16.6386C8.84589 15.651 7.8624 14.956 6.73066 14.7164C6.69595 14.7094 6.66123 14.7017 6.62588 14.6946C5.43994 14.4439 4.20341 14.717 3.2335 15.4438C2.26359 16.1713 1.65446 17.2812 1.5626 18.4901C1.04349 25.3206 0.00240031 39.01 0.00240031 39.01C0.000553918 39.0324 0 39.0547 0 39.0772C0 41.6714 1.94278 43.8537 4.51877 44.155L10.8897 44.9778V54.1171C10.8897 54.6045 11.2852 54.9999 11.7724 54.9999C12.2597 54.9999 12.6552 54.6044 12.6552 54.1171V44.2016C12.6552 43.7572 12.3256 43.3829 11.8853 43.3258L4.72871 42.4024C3.052 42.2088 1.78362 40.7975 1.76543 39.1131C1.76543 39.1084 3.32268 18.6237 3.32268 18.6237C3.37622 17.9228 3.72935 17.2784 4.29203 16.8569C4.85528 16.4349 5.57214 16.2766 6.26066 16.422L6.3648 16.4438C7.02165 16.5827 7.59191 16.9865 7.94208 17.5591C9.27748 19.745 11.9841 24.1755 12.5121 25.04C12.53 25.0682 12.5476 25.0953 12.5659 25.1206Z" fill="#3E66F3"/>
<path fill-rule="evenodd" clip-rule="evenodd" d="M5.557 26.4047L8.3938 31.0489C9.46314 32.7991 11.6396 33.5231 13.5447 32.7616C13.9972 32.5809 14.218 32.0664 14.0367 31.6144C13.8561 31.1619 13.3417 30.9411 12.8897 31.1218C11.7844 31.5638 10.5214 31.1441 9.90045 30.1283L7.06375 25.4842C6.8095 25.0687 6.26564 24.9375 5.85021 25.1911C5.43458 25.4454 5.30275 25.9892 5.557 26.4047Z" fill="#3E66F3"/>
<path fill-rule="evenodd" clip-rule="evenodd" d="M41.3731 24.9687L32.8251 26.1775C30.5262 26.5024 28.9243 28.6329 29.2492 30.9317C29.5741 33.2299 31.7045 34.8325 34.0034 34.5076L44.5165 33.0203C44.9255 32.9627 45.3186 32.8461 45.6853 32.6772V34.5204L39.322 35.2555C36.7424 35.5533 34.7956 37.7373 34.7956 40.3346V54.117C34.7956 54.6043 35.1911 54.9997 35.6783 54.9997C36.1656 54.9997 36.5611 54.6042 36.5611 54.117V40.3346C36.5611 38.6343 37.8358 37.2041 39.5244 37.0093L46.6674 36.1841H46.6657C47.1077 36.1359 47.4507 35.7616 47.4507 35.3072V30.8732C47.4507 30.4948 47.2094 30.1587 46.851 30.0375C46.4926 29.9156 46.0965 30.0369 45.8664 30.3376C45.4798 30.8438 44.9072 31.1822 44.2691 31.2723L33.756 32.7589C32.4218 32.9478 31.1859 32.0179 30.9975 30.6837C30.8086 29.3501 31.7385 28.1142 33.0721 27.9252L42.0303 26.6587L41.9091 26.6669L42.6624 26.2444L47.4389 18.4256C48.0498 17.4263 49.1686 16.8525 50.3369 16.9408C50.3535 16.942 50.3693 16.9431 50.3858 16.9443C51.9595 17.0632 53.1972 18.3379 53.269 19.914L54.1453 39.0956C54.1359 40.7871 52.8646 42.2073 51.182 42.4021L44.1743 43.2113C43.7335 43.2619 43.3992 43.6321 43.3933 44.0759L43.2556 54.1046C43.2491 54.5919 43.6392 54.9927 44.126 54.9997C44.6134 55.0062 45.0142 54.616 45.0212 54.1287L45.1477 44.8757L51.3845 44.1559C53.9641 43.858 55.9109 41.6734 55.9109 39.0768C55.9109 39.0632 55.9104 39.0497 55.9097 39.0362C55.9097 39.0362 55.3247 26.2273 55.0328 19.8334C54.9198 17.3651 52.9824 15.3694 50.5187 15.1839C50.5022 15.1827 50.4858 15.181 50.4699 15.1798C48.6407 15.042 46.8886 15.9401 45.9323 17.5051L41.3731 24.9687Z" fill="#3E66F3"/>
<path fill-rule="evenodd" clip-rule="evenodd" d="M36.2946 2.64837C36.2946 1.94628 36.0156 1.27235 35.5189 0.77567C35.0221 0.278898 34.3489 0 33.6462 0H21.3298C19.8667 0 18.6813 1.18594 18.6813 2.64837V13.8683C18.6813 14.445 19.0179 14.9688 19.543 15.2077C20.0679 15.4466 20.6841 15.3566 21.119 14.9776C21.9683 14.2378 23.1649 13.1949 23.8316 12.6135C23.9929 12.4734 24.1988 12.3963 24.4119 12.3963H33.6461C34.3488 12.3963 35.0221 12.1173 35.5188 11.6206C36.0155 11.1239 36.2945 10.45 36.2945 9.74794V2.64837H36.2946ZM20.447 13.2215V2.64837C20.447 2.16111 20.8419 1.76561 21.3297 1.76561H33.6461C33.8803 1.76561 34.1051 1.85858 34.2705 2.02457C34.4359 2.18991 34.5289 2.41416 34.5289 2.64837V9.74794C34.5289 9.98216 34.436 10.2064 34.2705 10.3717C34.1052 10.5377 33.8803 10.6307 33.6461 10.6307H24.412C23.7722 10.6307 23.1543 10.862 22.6717 11.2822L20.447 13.2215Z" fill="#3E66F3"/>
<path fill-rule="evenodd" clip-rule="evenodd" d="M23.5551 5.46865H31.5545C32.0419 5.46865 32.4373 5.07315 32.4373 4.58589C32.4373 4.09862 32.0418 3.70313 31.5545 3.70313H23.5551C23.0678 3.70313 22.6723 4.09862 22.6723 4.58589C22.6723 5.07315 23.0677 5.46865 23.5551 5.46865Z" fill="#3E66F3"/>
<path fill-rule="evenodd" clip-rule="evenodd" d="M23.5551 8.68802H27.4883C27.975 8.68802 28.371 8.29252 28.371 7.80526C28.371 7.3179 27.975 6.9225 27.4883 6.9225H23.5551C23.0678 6.9225 22.6723 7.318 22.6723 7.80526C22.6722 8.29252 23.0677 8.68802 23.5551 8.68802Z" fill="#3E66F3"/>
<path fill-rule="evenodd" clip-rule="evenodd" d="M41.8639 33.396L44.5165 33.0205C45.7612 32.8446 46.8617 32.1212 47.5174 31.049L50.3541 26.4048C50.6084 25.9893 50.4765 25.4455 50.061 25.1913C49.6455 24.9376 49.1017 25.0689 48.8474 25.4844L46.0107 30.1285C45.6306 30.7506 44.9913 31.1703 44.2692 31.2726L41.6167 31.6476C41.134 31.7159 40.7974 32.1632 40.8657 32.6457C40.934 33.1276 41.3813 33.4642 41.8639 33.396Z" fill="#3E66F3"/>
</svg>
