<svg width="58" height="57" viewBox="0 0 58 57" fill="none" xmlns="http://www.w3.org/2000/svg">
<path d="M6.5 3.84375H8.375V5.71875H6.5V3.84375Z" fill="#3E66F3"/>
<path d="M10.25 3.84375H12.125V5.71875H10.25V3.84375Z" fill="#3E66F3"/>
<path d="M14 3.84375H15.875V5.71875H14V3.84375Z" fill="#3E66F3"/>
<path d="M7.4375 24.4688H22.4375C22.6861 24.4688 22.9246 24.37 23.1004 24.1942C23.2762 24.0183 23.375 23.7799 23.375 23.5312V14.1562C23.375 13.9076 23.2762 13.6692 23.1004 13.4933C22.9246 13.3175 22.6861 13.2188 22.4375 13.2188H7.4375C7.18886 13.2188 6.9504 13.3175 6.77459 13.4933C6.59877 13.6692 6.5 13.9076 6.5 14.1562V23.5312C6.5 23.7799 6.59877 24.0183 6.77459 24.1942C6.9504 24.37 7.18886 24.4688 7.4375 24.4688ZM8.375 15.0938H21.5V22.5938H8.375V15.0938Z" fill="#3E66F3"/>
<path d="M30.875 14.1562H45.875V16.0312H30.875V14.1562Z" fill="#3E66F3"/>
<path d="M27.125 17.9062H44V19.7812H27.125V17.9062Z" fill="#3E66F3"/>
<path d="M27.125 21.6562H40.25V23.5312H27.125V21.6562Z" fill="#3E66F3"/>
<path d="M10.25 28.2188H34.625V30.0938H10.25V28.2188Z" fill="#3E66F3"/>
<path d="M6.5 31.9688H30.875V33.8438H6.5V31.9688Z" fill="#3E66F3"/>
<path d="M6.5 35.7188H27.125V37.5938H6.5V35.7188Z" fill="#3E66F3"/>
<path d="M6.5 39.4688H27.125V41.3438H6.5V39.4688Z" fill="#3E66F3"/>
<path d="M6.5 43.2188H27.125V45.0938H6.5V43.2188Z" fill="#3E66F3"/>
<path d="M6.5 28.2188H8.375V30.0938H6.5V28.2188Z" fill="#3E66F3"/>
<path d="M52.4375 5.71875H51.5V4.78125C51.5 3.53805 51.0061 2.34576 50.1271 1.46669C49.248 0.58761 48.0557 0.09375 46.8125 0.09375H5.5625C4.3193 0.09375 3.12701 0.58761 2.24794 1.46669C1.36886 2.34576 0.875 3.53805 0.875 4.78125V46.0312C0.875 47.2745 1.36886 48.4667 2.24794 49.3458C3.12701 50.2249 4.3193 50.7188 5.5625 50.7188H6.5V51.6562C6.5 52.8995 6.99386 54.0917 7.87294 54.9708C8.75201 55.8499 9.9443 56.3438 11.1875 56.3438H52.4375C53.6807 56.3438 54.873 55.8499 55.7521 54.9708C56.6311 54.0917 57.125 52.8995 57.125 51.6562V10.4062C57.125 9.16305 56.6311 7.97076 55.7521 7.09169C54.873 6.21261 53.6807 5.71875 52.4375 5.71875ZM50.7594 20.2875L54.7437 24.2719L52.0906 26.925L48.1063 22.9406L50.7594 20.2875ZM33.8094 39.1406L34.55 37.2188L37.8125 40.4813L35.8906 41.2219L33.8094 39.1406ZM33.9781 41.9531L32.5063 42.525L33.0781 41.0531L33.9781 41.9531ZM36.8375 36.8625L35.5156 35.5406L46.7844 24.2719L48.1063 25.5938L36.8375 36.8625ZM49.4375 26.925L50.7594 28.2469L39.4906 39.5156L38.1687 38.1937L49.4375 26.925ZM2.75 4.78125C2.75223 4.03601 3.04926 3.32194 3.57622 2.79497C4.10319 2.26801 4.81726 1.97098 5.5625 1.96875H46.8125C47.5577 1.97098 48.2718 2.26801 48.7988 2.79497C49.3257 3.32194 49.6228 4.03601 49.625 4.78125V7.59375H2.75V4.78125ZM5.5625 48.8438C4.81726 48.8415 4.10319 48.5445 3.57622 48.0175C3.04926 47.4906 2.75223 46.7765 2.75 46.0312V9.46875H49.625V18.7781L33.5281 34.875C33.4342 34.9682 33.3608 35.0799 33.3125 35.2031L30.0031 43.8187C29.9351 43.9877 29.9183 44.173 29.955 44.3514C29.9917 44.5298 30.0802 44.6935 30.2094 44.8219C30.3867 44.9967 30.6259 45.0945 30.875 45.0938C30.9908 45.0947 31.1055 45.0724 31.2125 45.0281L39.8281 41.7188C39.9513 41.6705 40.0631 41.597 40.1562 41.5031L49.625 32.0344V46.0312C49.6228 46.7765 49.3257 47.4906 48.7988 48.0175C48.2718 48.5445 47.5577 48.8415 46.8125 48.8438H5.5625ZM55.25 51.6562C55.2478 52.4015 54.9507 53.1156 54.4238 53.6425C53.8968 54.1695 53.1827 54.4665 52.4375 54.4688H11.1875C10.4423 54.4665 9.72818 54.1695 9.20122 53.6425C8.67426 53.1156 8.37723 52.4015 8.375 51.6562V50.7188H46.8125C48.0557 50.7188 49.248 50.2249 50.1271 49.3458C51.0061 48.4667 51.5 47.2745 51.5 46.0312V30.1594L55.25 26.4094V51.6562ZM55.25 22.125L51.5 18.375V15.0938H55.25V22.125ZM55.25 13.2188H51.5V7.59375H52.4375C53.1827 7.59598 53.8968 7.89301 54.4238 8.41997C54.9507 8.94693 55.2478 9.66101 55.25 10.4062V13.2188Z" fill="#3E66F3"/>
<path d="M27.125 14.1562H29V16.0312H27.125V14.1562Z" fill="#3E66F3"/>
</svg>
