<svg width="58" height="58" viewBox="0 0 58 58" fill="none" xmlns="http://www.w3.org/2000/svg">
<path d="M28.1889 42.6217C27.7355 42.6209 27.301 42.4401 26.9808 42.119L13.0268 28.2055C5.93254 21.1034 1.58099 11.7196 0.742991 1.71632C0.733282 1.59888 0.749289 1.48074 0.789898 1.37011C0.830506 1.25949 0.89474 1.15905 0.978126 1.07578C1.06139 0.992396 1.16183 0.928163 1.27246 0.887554C1.38308 0.846946 1.50123 0.830939 1.61867 0.840647C11.6228 1.68153 21.0066 6.03591 28.1079 13.1325L42.0214 27.038C42.1822 27.197 42.3099 27.3865 42.397 27.5952C42.4841 27.804 42.529 28.028 42.529 28.2542C42.529 28.4804 42.4841 28.7044 42.397 28.9131C42.3099 29.1219 42.1822 29.3113 42.0214 29.4704L29.3565 42.119C29.0463 42.4303 28.6282 42.6103 28.1889 42.6217ZM2.4538 2.55146C3.44994 11.8204 7.58713 20.4696 14.1781 27.0623L28.0916 40.9758C28.1082 40.9877 28.128 40.9941 28.1484 40.9941C28.1688 40.9941 28.1886 40.9877 28.2052 40.9758L40.87 28.3109C40.8854 28.2944 40.894 28.2727 40.894 28.2501C40.894 28.2275 40.8854 28.2058 40.87 28.1893L26.9565 14.2758C20.3647 7.68806 11.7193 3.5513 2.4538 2.55146Z" fill="#3E66F3"/>
<path d="M5.98112 17.9561C5.79914 17.9628 5.62018 17.9081 5.4731 17.8007C5.32601 17.6933 5.21935 17.5396 5.17031 17.3642C5.11286 17.1577 5.13946 16.937 5.24429 16.7501C5.34913 16.5632 5.52366 16.4255 5.72977 16.3669C8.23225 15.6525 10.5119 14.3132 12.3541 12.475C14.192 10.6357 15.5313 8.35877 16.246 5.85876C16.2681 5.74944 16.3126 5.64587 16.3766 5.55451C16.4406 5.46316 16.5228 5.386 16.618 5.32786C16.7132 5.26971 16.8193 5.23183 16.9298 5.21659C17.0403 5.20135 17.1528 5.20907 17.2602 5.23927C17.3675 5.26947 17.4675 5.3215 17.5539 5.39211C17.6402 5.46271 17.7111 5.55038 17.762 5.64962C17.813 5.74886 17.8428 5.85754 17.8499 5.96886C17.8569 6.08019 17.8408 6.19176 17.8027 6.2966C17.012 9.05577 15.5301 11.5675 13.4973 13.5939C11.4713 15.6254 8.95923 17.1047 6.20004 17.8912C6.13124 17.925 6.05722 17.9469 5.98112 17.9561Z" fill="#3E66F3"/>
<path d="M38.5269 25.505C38.3832 25.5048 38.2422 25.4664 38.1182 25.3937C37.9943 25.3211 37.8919 25.2168 37.8215 25.0915C37.7164 24.9044 37.6899 24.6832 37.7476 24.4765C37.8054 24.2698 37.9427 24.0944 38.1296 23.9888C39.7534 23.0368 41.5527 22.4226 43.4197 22.1829C45.2867 21.9433 47.1828 22.0832 48.9944 22.5942C48.5737 22.0219 48.1131 21.48 47.616 20.9726C45.578 18.9376 42.9583 17.5856 40.1189 17.1034C37.2794 16.6212 34.3603 17.0326 31.7647 18.2807C31.6685 18.3306 31.5632 18.3606 31.4552 18.3691C31.3471 18.3776 31.2385 18.3644 31.1357 18.3301C31.0328 18.2959 30.9379 18.2414 30.8565 18.1699C30.7751 18.0984 30.7088 18.0112 30.6617 17.9136C30.6145 17.8161 30.5874 17.71 30.5819 17.6018C30.5764 17.4936 30.5927 17.3853 30.6298 17.2835C30.6668 17.1816 30.7239 17.0883 30.7977 17.0089C30.8715 16.9295 30.9604 16.8657 31.0593 16.8213C33.9596 15.4296 37.2201 14.9715 40.3915 15.5103C43.563 16.049 46.4894 17.558 48.7674 19.8294C49.9541 21.0109 50.9449 22.3739 51.7025 23.8672C51.7808 24.0195 51.8089 24.1926 51.7828 24.3619C51.7566 24.5311 51.6776 24.6877 51.5569 24.8092C51.4363 24.9307 51.2803 25.0109 51.1113 25.0384C50.9423 25.0658 50.7689 25.039 50.6161 24.9618C48.7906 24.0553 46.7673 23.6204 44.7306 23.6969C42.6939 23.7734 40.7089 24.3588 38.9566 25.3996C38.8259 25.4739 38.6771 25.5104 38.5269 25.505Z" fill="#3E66F3"/>
<path d="M24.1354 51.8569C24.0085 51.8562 23.8835 51.8256 23.7705 51.7678C20.1322 49.9382 17.3578 46.7532 16.0446 42.8983C14.7313 39.0435 14.9843 34.8271 16.7489 31.1569C16.7933 31.0581 16.8571 30.9692 16.9365 30.8954C17.0159 30.8216 17.1093 30.7645 17.2111 30.7274C17.313 30.6904 17.4212 30.6741 17.5294 30.6796C17.6377 30.685 17.7437 30.7122 17.8413 30.7593C17.9389 30.8065 18.026 30.8727 18.0975 30.9541C18.1691 31.0355 18.2236 31.1305 18.2578 31.2333C18.292 31.3361 18.3053 31.4448 18.2968 31.5528C18.2883 31.6609 18.2582 31.7661 18.2084 31.8624C16.9598 34.4586 16.5474 37.3784 17.028 40.2189C17.5087 43.0594 18.8588 45.6809 20.8921 47.7218C21.3979 48.2183 21.9399 48.6763 22.5138 49.0921C21.9989 47.2827 21.8563 45.3877 22.0946 43.5216C22.3329 41.6556 22.9472 39.8572 23.9003 38.2353C23.9519 38.1411 24.0217 38.058 24.1057 37.9909C24.1897 37.9239 24.2861 37.8742 24.3895 37.8448C24.4929 37.8154 24.601 37.8068 24.7077 37.8195C24.8145 37.8323 24.9176 37.8661 25.0111 37.9191C25.1979 38.0247 25.3353 38.2001 25.393 38.4068C25.4508 38.6135 25.4242 38.8347 25.3192 39.0218C24.277 40.7749 23.6903 42.7609 23.6124 44.7989C23.5345 46.8368 23.9679 48.8619 24.8732 50.6894C24.9342 50.8137 24.9622 50.9516 24.9548 51.0899C24.9473 51.2282 24.9046 51.3623 24.8306 51.4793C24.7566 51.5964 24.6539 51.6926 24.5322 51.7587C24.4105 51.8248 24.2739 51.8586 24.1354 51.8569Z" fill="#3E66F3"/>
<path d="M32.6565 45.5482H32.5349C32.408 45.5291 32.2874 45.4803 32.1831 45.4055C32.0788 45.3308 31.9937 45.2325 31.9348 45.1185L29.5511 40.4239C29.4742 40.2709 29.4476 40.0975 29.4753 39.9286C29.503 39.7596 29.5834 39.6038 29.7051 39.4833L39.3781 29.8022C39.5018 29.6746 39.6641 29.5912 39.8399 29.5648C40.0157 29.5385 40.1953 29.5706 40.3511 29.6563L45.0376 32.0401C45.1521 32.0972 45.2514 32.1806 45.3275 32.2835C45.4036 32.3863 45.4543 32.5058 45.4754 32.632C45.495 32.7579 45.4847 32.8866 45.4452 33.0078C45.4058 33.1289 45.3383 33.2391 45.2484 33.3293L33.2321 45.3131C33.1564 45.3882 33.0665 45.4477 32.9677 45.488C32.869 45.5284 32.7632 45.5488 32.6565 45.5482ZM31.27 40.2049L32.8916 43.3752L43.2781 32.9725L40.1078 31.3509L31.27 40.2049Z" fill="#3E66F3"/>
<path d="M18.727 23.3156C17.8373 23.3181 16.9669 23.0563 16.2262 22.5634C15.4855 22.0705 14.9078 21.3687 14.5665 20.5471C14.2251 19.7254 14.1355 18.8209 14.3089 17.9483C14.4823 17.0756 14.911 16.2741 15.5405 15.6454C16.0626 15.1195 16.7065 14.7306 17.4149 14.5134C18.1234 14.2961 18.8746 14.2572 19.6017 14.4001C20.3288 14.5429 21.0094 14.8631 21.583 15.3323C22.1567 15.8014 22.6056 16.4049 22.8898 17.0893C23.1741 17.7736 23.285 18.5175 23.2127 19.255C23.1403 19.9925 22.887 20.7007 22.4751 21.3167C22.0632 21.9328 21.5056 22.4376 20.8518 22.7863C20.1979 23.135 19.4681 23.3168 18.727 23.3156ZM16.6919 16.8292C16.287 17.2308 16.0105 17.7436 15.8976 18.3026C15.7846 18.8616 15.8402 19.4415 16.0574 19.9688C16.2746 20.4962 16.6435 20.9471 17.1173 21.2644C17.5912 21.5817 18.1486 21.7511 18.7189 21.7511C19.2892 21.7511 19.8466 21.5817 20.3205 21.2644C20.7943 20.9471 21.1633 20.4962 21.3804 19.9688C21.5976 19.4415 21.6532 18.8616 21.5403 18.3026C21.4273 17.7436 21.1508 17.2308 20.7459 16.8292C20.2079 16.2924 19.4789 15.991 18.7189 15.991C17.9589 15.991 17.23 16.2924 16.6919 16.8292Z" fill="#3E66F3"/>
<path d="M27.1758 31.773C26.2868 31.7716 25.4182 31.5069 24.6795 31.0124C23.9408 30.5178 23.3652 29.8155 23.0251 28.9941C22.6851 28.1728 22.596 27.2691 22.7691 26.3971C22.9421 25.5251 23.3696 24.724 23.9974 24.0947C24.5205 23.5704 25.1648 23.1834 25.8733 22.9678C26.5818 22.7523 27.3326 22.715 28.0589 22.8591C28.7853 23.0033 29.4649 23.3245 30.0374 23.7942C30.6099 24.2639 31.0576 24.8677 31.3409 25.5519C31.6241 26.2362 31.7341 26.9798 31.6611 27.7167C31.5881 28.4536 31.3343 29.1612 30.9223 29.7765C30.5103 30.3919 29.9529 30.8961 29.2993 31.2443C28.6458 31.5926 27.9164 31.7742 27.1758 31.773ZM25.1407 25.2866C24.7358 25.6882 24.4593 26.201 24.3464 26.76C24.2334 27.319 24.289 27.8989 24.5062 28.4262C24.7234 28.9535 25.0923 29.4045 25.5661 29.7218C26.04 30.0391 26.5974 30.2085 27.1677 30.2085C27.738 30.2085 28.2954 30.0391 28.7693 29.7218C29.2431 29.4045 29.6121 28.9535 29.8292 28.4262C30.0464 27.8989 30.102 27.319 29.9891 26.76C29.8761 26.201 29.5996 25.6882 29.1947 25.2866C28.6556 24.7518 27.9271 24.4518 27.1677 24.4518C26.4084 24.4518 25.6798 24.7518 25.1407 25.2866Z" fill="#3E66F3"/>
<path d="M47.1462 39.6698C47.0389 39.6694 46.9328 39.6476 46.8339 39.6059C46.7351 39.5641 46.6456 39.5032 46.5705 39.4266L45.7029 38.559C45.6269 38.4836 45.5666 38.394 45.5254 38.2952C45.4843 38.1963 45.4631 38.0904 45.4631 37.9833C45.4631 37.8763 45.4843 37.7703 45.5254 37.6715C45.5666 37.5727 45.6269 37.483 45.7029 37.4076C45.8548 37.2566 46.0603 37.1719 46.2745 37.1719C46.4887 37.1719 46.6942 37.2566 46.8462 37.4076L47.7218 38.2833C47.8362 38.3967 47.9142 38.5416 47.9458 38.6995C47.9775 38.8574 47.9615 39.0212 47.8997 39.1699C47.8379 39.3187 47.7333 39.4457 47.5991 39.5347C47.4649 39.6237 47.3072 39.6708 47.1462 39.6698Z" fill="#3E66F3"/>
<path d="M56.4459 48.9697C56.2332 48.9688 56.0294 48.8844 55.8784 48.7346L49.0351 41.8913C48.8841 41.7394 48.7994 41.5339 48.7994 41.3197C48.7994 41.1055 48.8841 40.9 49.0351 40.7481C49.1105 40.6721 49.2002 40.6118 49.299 40.5706C49.3978 40.5294 49.5038 40.5083 49.6108 40.5083C49.7178 40.5083 49.8238 40.5294 49.9226 40.5706C50.0214 40.6118 50.1111 40.6721 50.1865 40.7481L57.0216 47.5832C57.136 47.6966 57.214 47.8415 57.2456 47.9994C57.2773 48.1573 57.2612 48.3211 57.1995 48.4698C57.1377 48.6186 57.0331 48.7456 56.8989 48.8346C56.7647 48.9236 56.607 48.9707 56.4459 48.9697Z" fill="#3E66F3"/>
<path d="M41.3975 45.4347C41.2908 45.4353 41.185 45.4149 41.0862 45.3745C40.9874 45.3342 40.8976 45.2747 40.8218 45.1996L39.9461 44.3077C39.7951 44.1558 39.7104 43.9503 39.7104 43.7361C39.7104 43.5219 39.7951 43.3164 39.9461 43.1644C40.0215 43.0884 40.1112 43.0281 40.21 42.987C40.3088 42.9458 40.4148 42.9246 40.5218 42.9246C40.6288 42.9246 40.7348 42.9458 40.8336 42.987C40.9324 43.0281 41.0221 43.0884 41.0975 43.1644L41.9732 44.032C42.087 44.1449 42.1648 44.2891 42.1968 44.4462C42.2287 44.6034 42.2133 44.7665 42.1526 44.9149C42.0918 45.0633 41.9884 45.1903 41.8555 45.28C41.7225 45.3696 41.5659 45.4178 41.4056 45.4185L41.3975 45.4347Z" fill="#3E66F3"/>
<path d="M50.6973 54.7184C50.5906 54.719 50.4848 54.6985 50.386 54.6582C50.2872 54.6178 50.1974 54.5584 50.1216 54.4832L43.2865 47.6481C43.2105 47.5727 43.1502 47.483 43.109 47.3842C43.0678 47.2854 43.0467 47.1795 43.0467 47.0724C43.0467 46.9654 43.0678 46.8594 43.109 46.7606C43.1502 46.6618 43.2105 46.5721 43.2865 46.4967C43.4384 46.3457 43.6439 46.261 43.8581 46.261C44.0723 46.261 44.2778 46.3457 44.4297 46.4967L51.273 53.34C51.424 53.4919 51.5088 53.6974 51.5088 53.9116C51.5088 54.1258 51.424 54.3313 51.273 54.4832C51.1972 54.5584 51.1074 54.6178 51.0086 54.6582C50.9098 54.6985 50.804 54.719 50.6973 54.7184Z" fill="#3E66F3"/>
<path d="M53.5756 51.8479C53.4683 51.8475 53.3622 51.8257 53.2634 51.784C53.1645 51.7422 53.075 51.6813 52.9999 51.6047L50.3567 48.9614C50.2718 48.8887 50.2028 48.7993 50.1542 48.6987C50.1055 48.5981 50.0782 48.4885 50.0738 48.3769C50.0695 48.2652 50.0883 48.1539 50.1291 48.0498C50.1699 47.9458 50.2317 47.8513 50.3107 47.7722C50.3897 47.6932 50.4842 47.6314 50.5883 47.5906C50.6923 47.5499 50.8037 47.5311 50.9153 47.5354C51.027 47.5397 51.1366 47.567 51.2372 47.6157C51.3378 47.6644 51.4272 47.7333 51.4999 47.8182L54.135 50.4614C54.286 50.6133 54.3708 50.8188 54.3708 51.033C54.3708 51.2473 54.286 51.4528 54.135 51.6047C53.9873 51.7555 53.7866 51.8428 53.5756 51.8479Z" fill="#3E66F3"/>
<path d="M48.4596 46.7402C48.3524 46.7397 48.2462 46.718 48.1474 46.6762C48.0486 46.6345 47.959 46.5735 47.884 46.4969L42.8164 41.4375C42.6637 41.2848 42.5779 41.0777 42.5779 40.8618C42.5779 40.6459 42.6637 40.4388 42.8164 40.2861C42.9691 40.1334 43.1761 40.0477 43.3921 40.0477C43.608 40.0477 43.8151 40.1334 43.9677 40.2861L49.0272 45.3537C49.1782 45.5056 49.263 45.7111 49.263 45.9253C49.263 46.1395 49.1782 46.345 49.0272 46.4969C48.8775 46.6497 48.6735 46.7371 48.4596 46.7402Z" fill="#3E66F3"/>
<path d="M47.8192 57.5964C47.7125 57.597 47.6067 57.5765 47.5079 57.5362C47.4091 57.4958 47.3193 57.4364 47.2435 57.3612L44.6084 54.718C44.5324 54.6426 44.4721 54.5529 44.4309 54.4541C44.3897 54.3553 44.3686 54.2493 44.3686 54.1423C44.3686 54.0353 44.3897 53.9293 44.4309 53.8305C44.4721 53.7317 44.5324 53.642 44.6084 53.5666C44.7603 53.4156 44.9658 53.3309 45.18 53.3309C45.3942 53.3309 45.5997 53.4156 45.7516 53.5666L48.3949 56.2099C48.4709 56.2853 48.5312 56.3749 48.5723 56.4737C48.6135 56.5725 48.6347 56.6785 48.6347 56.7856C48.6347 56.8926 48.6135 56.9986 48.5723 57.0974C48.5312 57.1962 48.4709 57.2859 48.3949 57.3612C48.3191 57.4364 48.2293 57.4958 48.1305 57.5362C48.0317 57.5765 47.9259 57.597 47.8192 57.5964Z" fill="#3E66F3"/>
<path d="M42.7105 52.4891C42.4978 52.4882 42.294 52.4038 42.143 52.254L37.1078 47.1864C36.9568 47.0345 36.8721 46.829 36.8721 46.6148C36.8721 46.4006 36.9568 46.1951 37.1078 46.0432C37.2598 45.8922 37.4653 45.8074 37.6795 45.8074C37.8937 45.8074 38.0992 45.8922 38.2511 46.0432L43.2862 51.1108C43.3622 51.1861 43.4225 51.2758 43.4637 51.3746C43.5049 51.4734 43.5261 51.5794 43.5261 51.6864C43.5261 51.7935 43.5049 51.8995 43.4637 51.9983C43.4225 52.0971 43.3622 52.1867 43.2862 52.2621C43.1319 52.4109 42.9249 52.4925 42.7105 52.4891Z" fill="#3E66F3"/>
</svg>
