<svg width="44" height="55" viewBox="0 0 44 55" fill="none" xmlns="http://www.w3.org/2000/svg">
<path d="M41.5078 37.0391C40.1328 36.5234 38.5859 36.6953 37.2109 37.5547L28.9609 42.5391C28.6172 42.2812 28.2734 42.0234 27.9297 41.9375L15.4687 37.4688C14.5234 37.125 13.4922 37.125 12.6328 37.5547C12.6328 37.5547 12.5469 37.5547 12.5469 37.6406L7.5625 40.6484V40.3906C7.5625 39.4453 6.78906 38.6719 5.84375 38.6719H1.71875C0.773437 38.6719 0 39.4453 0 40.3906V53.2813C0 54.2266 0.773437 55 1.71875 55H5.75781C6.70312 55 7.47656 54.2266 7.47656 53.2813V52.8516C9.36719 51.8203 10.1406 50.875 11.4297 51.0469L25.1797 54.0547C26.2969 54.3984 27.5 54.1406 28.5312 53.4531L42.5391 42.3672C44.4297 41.0781 44.2578 38.0703 41.5078 37.0391ZM1.71875 53.2813V40.3906H5.75781V53.2813H1.71875ZM41.5078 40.9922C27.2422 51.8203 27.5859 52.9375 25.6094 52.3359L11.7734 49.3281H11.6875C9.71094 48.9844 8.33594 50.3594 7.47656 50.7891V42.5391L13.3203 39.0156C13.8359 38.8438 14.3516 38.8438 14.8672 39.0156L27.3281 43.4844C28.4453 43.9141 28.875 45.2891 28.1875 46.2344C27.6719 46.9219 26.8125 47.1797 25.9531 46.8359L18.5625 44C18.1328 43.8281 17.6172 44.0859 17.4453 44.5156C17.2734 44.9453 17.5312 45.4609 17.9609 45.6328L25.3516 48.4688C26.8984 49.1563 28.6172 48.6406 29.5625 47.3516C30.25 46.4062 30.5078 45.2891 29.9922 44L38.1562 39.1016C39.0156 38.5859 40.0469 38.4141 40.9922 38.7578C42.2812 39.1875 42.3672 40.3906 41.5078 40.9922Z" fill="#3E66F3"/>
<path d="M20.4531 28.4453C21.2266 28.9609 21.7422 29.8203 21.9141 30.6797C21.1406 31.1094 20.7109 31.9688 20.7109 32.8281C20.7109 34.0313 21.5703 35.0625 22.7734 35.3203L23.1172 38.0703C23.2031 38.5 23.5469 38.8438 23.9766 38.8438H30.6797C31.1094 38.8438 31.4531 38.5 31.5391 38.0703L31.8828 35.2344C32.9141 34.8906 33.7734 33.9453 33.7734 32.8281C33.7734 31.8828 33.2578 31.1094 32.5703 30.6797C32.6562 29.8203 33.1719 28.9609 34.0312 28.3594C37.2109 26.125 39.1875 22.5156 39.1875 18.6484C39.1875 11.9453 33.6016 6.53125 26.8125 6.875C20.7109 7.13281 15.6406 12.375 15.5547 18.4766C15.2969 22.5156 17.1875 26.2109 20.4531 28.4453ZM24.6641 37.2109L24.4922 35.4922H30.0781L29.9062 37.2109H24.6641ZM31.0234 33.7734H23.2031C22.7734 33.7734 22.3438 33.4297 22.3438 32.9141C22.3438 32.4844 22.6875 32.0547 23.2031 32.0547H31.0234C31.4531 32.0547 31.8828 32.3984 31.8828 32.9141C31.8828 33.3438 31.5391 33.7734 31.0234 33.7734ZM26.6406 8.67969C32.3984 8.42188 37.2109 13.0625 37.2109 18.7344C37.2109 22.0859 35.5781 25.1797 32.8281 27.0703C31.625 27.8438 30.8516 29.0469 30.6797 30.4219H23.6328C23.4609 29.1328 22.6875 27.9297 21.4844 27.0703C18.7344 25.1797 17.1016 22 17.1016 18.6484C17.1875 13.4063 21.4844 8.9375 26.6406 8.67969Z" fill="#3E66F3"/>
<path d="M26.8984 12.9766C30.1641 12.8047 32.9141 15.4688 32.9141 18.7344C32.9141 19.25 33.2578 19.5938 33.7734 19.5938C34.2891 19.5938 34.6328 19.25 34.6328 18.7344C34.6328 14.5234 31.1094 11.0859 26.8125 11.2578C26.2969 11.2578 25.9531 11.6875 25.9531 12.1172C25.9531 12.6328 26.3828 12.9766 26.8984 12.9766Z" fill="#3E66F3"/>
<path d="M27.1562 5.07031C27.6719 5.07031 28.0156 4.72656 28.0156 4.21094V0.859375C28.0156 0.34375 27.6719 0 27.1562 0C26.6406 0 26.2969 0.34375 26.2969 0.859375V4.21094C26.2969 4.72656 26.6406 5.07031 27.1562 5.07031Z" fill="#3E66F3"/>
<path d="M21.0547 5.5C21.2266 5.84375 21.4844 6.01562 21.8281 6.01562C21.9141 6.01562 22.0859 6.01562 22.1719 5.92969C22.6016 5.75781 22.8594 5.24219 22.6016 4.8125L21.3125 1.71875C21.1406 1.28906 20.625 1.03125 20.1953 1.28906C19.7656 1.46094 19.5078 1.97656 19.7656 2.40625L21.0547 5.5Z" fill="#3E66F3"/>
<path d="M16.7578 8.76562C17.1016 9.10938 17.6172 9.10938 17.9609 8.76562C18.3047 8.42188 18.3047 7.90625 17.9609 7.5625L15.5547 5.15625C15.2109 4.8125 14.6953 4.8125 14.3516 5.15625C14.0078 5.5 14.0078 6.01562 14.3516 6.35938L16.7578 8.76562Z" fill="#3E66F3"/>
<path d="M37.4687 9.02344L39.875 6.61719C40.2187 6.27344 40.2187 5.75781 39.875 5.41406C39.5312 5.07031 39.0156 5.07031 38.6719 5.41406L36.2656 7.73438C35.9219 8.07812 35.9219 8.59375 36.2656 8.9375C36.5234 9.28125 37.125 9.28125 37.4687 9.02344Z" fill="#3E66F3"/>
<path d="M32.0547 6.10156C32.1406 6.1875 32.3125 6.1875 32.3984 6.1875C32.7422 6.1875 33.0859 6.01562 33.1719 5.67188L34.4609 2.57812C34.6328 2.14844 34.4609 1.63281 34.0312 1.46094C33.6016 1.28906 33.0859 1.46094 32.9141 1.89063L31.625 4.98438C31.4531 5.41406 31.625 5.92969 32.0547 6.10156Z" fill="#3E66F3"/>
</svg>
