<svg width="56" height="55" viewBox="0 0 56 55" fill="none" xmlns="http://www.w3.org/2000/svg">
<path d="M37.569 33.9643H30.7038L32.1341 29.2114C32.5715 27.7903 32.434 26.2543 31.751 24.9335C31.0679 23.6127 29.894 22.6126 28.4814 22.1482C28.0757 22.0145 27.6468 21.966 27.2215 22.0057C26.7962 22.0455 26.3837 22.1726 26.0098 22.3792C25.636 22.5857 25.3088 22.8673 25.0487 23.2062C24.7887 23.545 24.6015 23.934 24.4987 24.3486L24.2787 25.2727C23.4489 28.6029 21.7301 31.645 19.3058 34.0743L18.0516 35.3065C17.7329 34.905 17.3283 34.5801 16.8676 34.3554C16.4069 34.1308 15.9017 34.0121 15.3891 34.0083H13.7829C12.8801 34.0082 12.0136 34.3638 11.3711 34.998C10.7286 35.6323 10.3618 36.4941 10.3503 37.3969V51.5673C10.3503 52.4777 10.7119 53.3508 11.3557 53.9945C11.9994 54.6383 12.8725 54.9999 13.7829 54.9999H15.3891C15.98 54.9985 16.5604 54.8437 17.0734 54.5505C17.5864 54.2574 18.0145 53.836 18.3157 53.3276L18.6237 53.4816C20.6124 54.4748 22.8039 54.9944 25.0268 54.9999H32.9262C34.2321 55.0062 35.5191 54.6878 36.6714 54.0732C37.8237 53.4587 38.8051 52.5673 39.5273 51.4793C41.0646 49.1807 41.8841 46.4772 41.8818 43.7119V38.233C41.8818 37.6687 41.7699 37.11 41.5527 36.5892C41.3354 36.0684 41.017 35.5958 40.6159 35.1989C40.2149 34.8019 39.7391 34.4884 39.2161 34.2765C38.6931 34.0646 38.1333 33.9584 37.569 33.9643ZM16.5333 51.5673C16.5333 51.8941 16.4035 52.2075 16.1724 52.4386C15.9414 52.6697 15.6279 52.7995 15.3011 52.7995H13.7829C13.4561 52.7995 13.1426 52.6697 12.9116 52.4386C12.6805 52.2075 12.5507 51.8941 12.5507 51.5673V37.3969C12.5507 37.07 12.6805 36.7566 12.9116 36.5255C13.1426 36.2945 13.4561 36.1646 13.7829 36.1646H15.3891C15.7005 36.1869 15.9917 36.3265 16.2041 36.5552C16.4165 36.784 16.5341 37.0847 16.5333 37.3969V51.5673ZM39.6374 43.7119C39.6465 46.06 38.9572 48.3578 37.657 50.3131C37.1368 51.0908 36.4331 51.7285 35.608 52.1698C34.7829 52.6111 33.8619 52.8425 32.9262 52.8435H25.0268C23.1482 52.8417 21.2955 52.4049 19.6139 51.5673L18.7337 51.1272V37.6169L20.7581 35.5925C23.4665 32.8845 25.3904 29.4931 26.3251 25.7788L26.5451 24.8767C26.6104 24.6353 26.7686 24.4296 26.9852 24.3046C27.0962 24.2561 27.2161 24.2311 27.3372 24.2311C27.4584 24.2311 27.5782 24.2561 27.6893 24.3046C28.1229 24.4488 28.5239 24.677 28.8692 24.9763C29.2145 25.2756 29.4975 25.6401 29.7018 26.0488C29.9062 26.4575 30.028 26.9025 30.0602 27.3584C30.0924 27.8142 30.0345 28.2719 29.8897 28.7053L28.0413 34.8884C27.9935 35.0524 27.9845 35.2252 28.0151 35.3933C28.0456 35.5613 28.1149 35.7199 28.2174 35.8566C28.3174 35.9959 28.4497 36.1087 28.6031 36.1854C28.7564 36.2621 28.9261 36.3003 29.0975 36.2967H37.437C37.7086 36.2967 37.9776 36.3502 38.2285 36.4541C38.4795 36.5581 38.7075 36.7104 38.8995 36.9025C39.0916 37.0945 39.2439 37.3226 39.3479 37.5735C39.4518 37.8244 39.5053 38.0934 39.5053 38.365L39.6374 43.7119Z" fill="#3E66F3"/>
<path d="M20.9341 12.7526L20.23 16.8233C20.1453 17.2738 20.1915 17.7391 20.3631 18.1642C20.5347 18.5892 20.8245 18.9562 21.1982 19.2217C21.6118 19.5301 22.1125 19.6995 22.6284 19.7058C23.0267 19.6995 23.4182 19.6016 23.7726 19.4197L27.5353 17.4834L31.2099 19.4197C31.614 19.6331 32.0702 19.7277 32.5257 19.6927C32.9813 19.6576 33.4177 19.4943 33.7843 19.2217C34.1542 18.9579 34.4416 18.5946 34.613 18.1739C34.7844 17.7532 34.8328 17.2924 34.7525 16.8453L34.1364 12.7526L37.0189 9.89208C37.3518 9.57723 37.5885 9.17437 37.7014 8.73032C37.8144 8.28627 37.799 7.81929 37.657 7.38364C37.5148 6.94847 37.2542 6.5615 36.9045 6.26612C36.5547 5.97075 36.1295 5.77864 35.6767 5.71135L31.562 5.11725L29.7356 1.3546C29.5302 0.947268 29.2157 0.604961 28.8272 0.365797C28.4387 0.126633 27.9915 0 27.5353 0C27.079 0 26.6318 0.126633 26.2433 0.365797C25.8548 0.604961 25.5403 0.947268 25.3349 1.3546L23.5086 5.07324L19.3938 5.66735C18.941 5.73464 18.5159 5.92674 18.1661 6.22211C17.8163 6.51749 17.5557 6.90446 17.4135 7.33964C17.2624 7.78131 17.2422 8.25726 17.3555 8.71013C17.4687 9.163 17.7104 9.57347 18.0516 9.89208L20.9341 12.7526ZM19.6139 7.84573L24.3007 7.16361C24.5124 7.17731 24.7235 7.12825 24.9074 7.02257C25.0914 6.91689 25.2401 6.75929 25.3349 6.5695L27.5353 2.32277C27.5546 2.28063 27.5856 2.24493 27.6246 2.2199C27.6636 2.19486 27.709 2.18156 27.7553 2.18156C27.8016 2.18156 27.847 2.19486 27.886 2.2199C27.925 2.24493 27.956 2.28063 27.9753 2.32277L30.1757 6.5695C30.2548 6.73018 30.3726 6.86863 30.5186 6.97235C30.6646 7.07608 30.8341 7.14181 31.0119 7.16361L35.6987 7.84573C35.7443 7.85502 35.7866 7.87619 35.8214 7.9071C35.8561 7.93801 35.8821 7.97757 35.8967 8.02176C35.918 8.05855 35.9291 8.10029 35.9291 8.14278C35.9291 8.18526 35.918 8.227 35.8967 8.2638L32.5081 11.5644C32.38 11.6924 32.2834 11.8486 32.2261 12.0205C32.1688 12.1923 32.1524 12.3752 32.1781 12.5545L32.9922 17.1973C33.0072 17.2442 33.0042 17.2948 32.9839 17.3396C32.9635 17.3843 32.9273 17.4199 32.8822 17.4394C32.8441 17.468 32.7978 17.4834 32.7502 17.4834C32.7026 17.4834 32.6562 17.468 32.6181 17.4394L28.4374 15.239C28.2828 15.1523 28.1086 15.1067 27.9313 15.1067C27.7541 15.1067 27.5798 15.1523 27.4252 15.239L23.2225 17.4394C23.1878 17.4662 23.1453 17.4807 23.1015 17.4807C23.0577 17.4807 23.0151 17.4662 22.9805 17.4394C22.9354 17.4199 22.8991 17.3843 22.8788 17.3396C22.8585 17.2948 22.8555 17.2442 22.8704 17.1973L23.6846 12.5545C23.7103 12.3752 23.6938 12.1923 23.6365 12.0205C23.5792 11.8486 23.4827 11.6924 23.3545 11.5644L19.9659 8.2638C19.9447 8.227 19.9335 8.18526 19.9335 8.14278C19.9335 8.10029 19.9447 8.05855 19.9659 8.02176C19.9088 8.025 19.8521 8.00958 19.8045 7.97783C19.7569 7.94608 19.7209 7.89972 19.7019 7.84573H19.6139Z" fill="#3E66F3"/>
<path d="M12.8807 25.8448C13.2085 25.8508 13.5334 25.7835 13.8318 25.6478C14.1302 25.5121 14.3945 25.3114 14.6054 25.0604C14.8163 24.8095 14.9685 24.5145 15.0508 24.1972C15.1331 23.8799 15.1434 23.5482 15.0811 23.2264L14.487 19.8818L16.9514 17.4834C17.2619 17.1985 17.484 16.8303 17.5914 16.4228C17.6988 16.0153 17.6869 15.5855 17.5571 15.1846C17.4273 14.7836 17.1851 14.4284 16.8593 14.1611C16.5335 13.8938 16.1378 13.7257 15.7192 13.6767L12.3526 13.1927L10.8344 10.1341C10.6318 9.7822 10.34 9.48989 9.9885 9.28663C9.63697 9.08337 9.23808 8.97635 8.83201 8.97635C8.42595 8.97635 8.02706 9.08337 7.67553 9.28663C7.324 9.48989 7.03225 9.7822 6.82967 10.1341L5.3114 13.1927L1.94482 13.6767C1.52624 13.7257 1.13053 13.8938 0.804727 14.1611C0.478922 14.4284 0.23673 14.7836 0.106945 15.1846C-0.0228398 15.5855 -0.034757 16.0153 0.0726098 16.4228C0.179977 16.8303 0.402111 17.1985 0.712603 17.4834L3.15503 19.8818L2.56092 23.2264C2.48469 23.6411 2.5292 24.0689 2.68913 24.459C2.84907 24.8491 3.11771 25.185 3.46308 25.4268C3.8004 25.6733 4.20096 25.8188 4.61789 25.846C5.03483 25.8733 5.45092 25.7813 5.81749 25.5808L8.83201 23.9965L11.8465 25.5808C12.1644 25.7524 12.5195 25.843 12.8807 25.8448ZM8.83201 21.6641C8.65466 21.663 8.48014 21.7086 8.32592 21.7961L4.7393 23.6005L5.53144 19.6838C5.54368 19.4954 5.51004 19.3069 5.43338 19.1345C5.35673 18.962 5.23936 18.8107 5.09136 18.6936L2.25287 15.8551L6.21356 15.283C6.38867 15.2616 6.5554 15.1958 6.6979 15.0919C6.8404 14.9879 6.95393 14.8492 7.0277 14.6889L8.85402 11.1023L10.6363 14.6889C10.7101 14.8492 10.8236 14.9879 10.9661 15.0919C11.1086 15.1958 11.2754 15.2616 11.4505 15.283L15.4112 15.9211L12.5727 18.6936C12.4445 18.8217 12.348 18.9778 12.2907 19.1497C12.2334 19.3216 12.2169 19.5044 12.2426 19.6838L12.8807 23.6445L9.3381 21.7961C9.18388 21.7086 9.00936 21.663 8.83201 21.6641Z" fill="#3E66F3"/>
<path d="M54.93 15.195C54.8043 14.7968 54.5679 14.4426 54.2484 14.1738C53.9289 13.9049 53.5395 13.7325 53.1257 13.6767L49.7591 13.1927L48.2409 10.1341C48.0383 9.7822 47.7465 9.48989 47.395 9.28663C47.0435 9.08337 46.6446 8.97635 46.2385 8.97635C45.8324 8.97635 45.4336 9.08337 45.082 9.28663C44.7305 9.48989 44.4387 9.7822 44.2362 10.1341L42.7179 13.1927L39.3513 13.6767C38.9327 13.7257 38.537 13.8938 38.2112 14.1611C37.8854 14.4284 37.6432 14.7836 37.5134 15.1846C37.3837 15.5855 37.3717 16.0153 37.4791 16.4228C37.5865 16.8303 37.8086 17.1985 38.1191 17.4834L40.5615 19.8818L39.9674 23.2264C39.8912 23.6411 39.9357 24.0689 40.0956 24.459C40.2556 24.8491 40.5242 25.185 40.8696 25.4268C41.2069 25.6733 41.6074 25.8188 42.0244 25.846C42.4413 25.8733 42.8574 25.7813 43.224 25.5808L46.2385 23.9965L49.253 25.5808C49.5709 25.7524 49.926 25.843 50.2872 25.8448C50.615 25.8508 50.9399 25.7835 51.2383 25.6478C51.5367 25.5121 51.801 25.3114 52.0119 25.0604C52.2228 24.8095 52.375 24.5145 52.4573 24.1972C52.5396 23.8799 52.5499 23.5482 52.4876 23.2264L51.8935 19.8818L54.3359 17.4834C54.6424 17.198 54.8612 16.8311 54.9664 16.4258C55.0717 16.0204 55.059 15.5934 54.93 15.195ZM49.9792 18.6936C49.851 18.8217 49.7545 18.9778 49.6972 19.1497C49.6399 19.3216 49.6234 19.5044 49.6491 19.6838L50.2872 23.6445L46.7446 21.7961C46.59 21.7094 46.4158 21.6639 46.2385 21.6639C46.0613 21.6639 45.887 21.7094 45.7324 21.7961L42.1458 23.6005L42.9379 19.6838C42.9502 19.4954 42.9165 19.3069 42.8399 19.1345C42.7632 18.962 42.6459 18.8107 42.4979 18.6936L39.6594 15.8551L43.62 15.283C43.7952 15.2616 43.9619 15.1958 44.1044 15.0919C44.2469 14.9879 44.3604 14.8492 44.4342 14.6889L46.2605 11.1023L48.0428 14.6889C48.1166 14.8492 48.2301 14.9879 48.3726 15.0919C48.5151 15.1958 48.6819 15.2616 48.857 15.283L52.8176 15.9211L49.9792 18.6936Z" fill="#3E66F3"/>
</svg>
