<svg width="46" height="46" viewBox="0 0 46 46" fill="none" xmlns="http://www.w3.org/2000/svg">
<path d="M35.3386 35.0356C36.5391 35.0356 37.516 34.0587 37.516 32.8582C37.516 31.6577 36.5391 30.6808 35.3386 30.6808C34.1381 30.6808 33.1612 31.6577 33.1612 32.8582C33.1612 34.0587 34.1381 35.0356 35.3386 35.0356ZM35.3386 32.1324C35.7385 32.1324 36.0644 32.4575 36.0644 32.8582C36.0644 33.2588 35.7385 33.584 35.3386 33.584C34.9387 33.584 34.6128 33.2588 34.6128 32.8582C34.6128 32.4575 34.9387 32.1324 35.3386 32.1324Z" fill="#3E66F3"/>
<path d="M42.7129 29.7938C42.493 29.2669 42.6098 28.6681 43.0097 28.2674L44.0658 27.2106L40.9854 24.1303L39.9279 25.1871C39.528 25.5877 38.9285 25.7038 38.374 25.4716C37.8528 25.2567 37.516 24.753 37.516 24.1883V22.6968H36.0274C35.9613 21.5261 35.7443 20.3945 35.3843 19.3225L43.7834 10.9234C44.8903 9.81649 45.5 8.34527 45.5 6.78041C45.5 3.55054 42.8718 0.922363 39.642 0.922363C38.0771 0.922363 36.6059 1.53205 35.4997 2.63819L27.1093 11.0293C26.0242 10.665 24.8738 10.453 23.6856 10.3899C22.684 8.63995 20.802 7.45469 18.6449 7.45469C18.0925 7.45469 17.5598 7.53744 17.0524 7.68187C15.7997 5.3266 13.366 3.82562 10.6609 3.82562C6.65877 3.82562 3.40277 7.08162 3.40277 11.0838C3.40277 11.6397 3.471 12.187 3.59511 12.7227C1.80598 13.2641 0.499512 14.927 0.499512 16.8903C0.499512 19.292 2.45268 21.2452 4.8544 21.2452H10.1195C9.99897 21.963 9.9351 22.6917 9.9351 23.4226C9.9351 25.0201 10.2305 26.3201 10.7074 27.4306L4.23237 33.9063L0.629432 43.2736C0.543061 43.4972 0.499512 43.7323 0.499512 43.9726C0.499512 45.0482 1.37484 45.9229 2.44977 45.9229C2.69002 45.9229 2.92518 45.8786 3.14946 45.7929L12.5168 42.19L17.2513 37.4548C17.2157 37.6108 17.1932 37.772 17.1932 37.9389C17.1932 38.4985 17.4117 39.0044 17.7594 39.3905C17.411 39.7767 17.1932 40.2826 17.1932 40.8422C17.1932 41.851 17.8864 42.6944 18.8191 42.9398C19.4375 44.7107 21.0938 45.9229 22.9998 45.9229C24.9057 45.9229 26.5621 44.7107 27.1804 42.9398C28.1131 42.6944 28.8063 41.851 28.8063 40.8422C28.8063 40.7877 28.7939 40.7369 28.7903 40.6839L29.6918 41.5854L30.7493 40.5286C31.1492 40.128 31.7465 40.0111 32.3025 40.2426C32.8237 40.4596 33.1612 40.9634 33.1612 41.528V43.0196H37.516V41.528C37.516 40.9634 37.8535 40.4589 38.403 40.2317C38.9299 40.0125 39.5287 40.128 39.9286 40.5286L40.9854 41.5854L44.0658 38.505L43.0097 37.4482C42.6098 37.0476 42.493 36.4488 42.7245 35.8943C42.9401 35.3731 43.4438 35.0356 44.0085 35.0356H45.5V30.6808H44.0085C43.4438 30.6808 42.9401 30.3432 42.7129 29.7938ZM31.8373 31.9335C32.6291 31.1605 33.4225 30.3708 34.1069 29.4578C34.5017 29.314 34.9125 29.2291 35.3386 29.2291C37.3397 29.2291 38.9677 30.8571 38.9677 32.8582C38.9677 34.8593 37.3397 36.4873 35.3386 36.4873C33.3375 36.4873 31.7095 34.8593 31.7095 32.8582C31.7095 32.5439 31.7582 32.2347 31.8373 31.9335ZM32.709 14.7404L36.0644 11.3843L38.6672 13.987L34.7906 17.8636C34.247 16.7226 33.5444 15.6731 32.709 14.7404ZM33.4616 6.72888L34.6128 5.57774L40.8446 11.8096L39.6935 12.9607L33.4616 6.72888ZM39.642 2.37399C42.0713 2.37399 44.0484 4.35111 44.0484 6.78041C44.0484 7.95696 43.5904 9.06382 42.7579 9.89633L41.8709 10.7833L35.6391 4.55143L36.526 3.66449C37.3585 2.83271 38.4647 2.37399 39.642 2.37399ZM32.4353 7.75518L35.0381 10.358L31.6841 13.7119C30.7522 12.8758 29.7034 12.1725 28.5624 11.6281L32.4353 7.75518ZM34.6128 23.4226C34.6128 27.199 32.7112 29.0542 30.6977 31.0175C29.3114 32.3697 27.8874 33.7676 27.0585 35.805C26.9199 35.7767 26.7762 35.7615 26.6288 35.7615H23.7256V32.1324C23.7256 30.9319 22.7486 29.9549 21.5481 29.9549H20.0965C19.6966 29.9549 19.3707 29.6298 19.3707 29.2291C19.3707 28.8285 19.6966 28.5033 20.0965 28.5033H27.3546C28.5551 28.5033 29.5321 27.5264 29.5321 26.3259C29.5321 25.1254 28.5551 24.1484 27.3546 24.1484H21.5481C21.1482 24.1484 20.8223 23.8233 20.8223 23.4226V21.2452H24.4514C26.4525 21.2452 28.0805 19.6172 28.0805 17.6161C28.0805 15.615 26.4525 13.987 24.4514 13.987C24.4311 13.987 24.4122 13.9928 24.3919 13.9928C24.4231 13.7504 24.4514 13.508 24.4514 13.2612C24.4514 12.7865 24.3875 12.3271 24.2801 11.8851C30.0663 12.5296 34.6128 17.4956 34.6128 23.4226ZM18.6449 37.9389C18.6449 37.5382 18.9708 37.2131 19.3707 37.2131H26.6288C27.0288 37.2131 27.3546 37.5382 27.3546 37.9389C27.3546 38.3395 27.0288 38.6647 26.6288 38.6647H19.3707C18.9708 38.6647 18.6449 38.3395 18.6449 37.9389ZM9.50977 37.9389L14.8452 32.6034C15.738 33.4889 16.5669 34.3846 17.178 35.4755L12.1125 40.5417L9.50977 37.9389ZM1.95114 16.8903C1.95114 15.2891 3.25325 13.987 4.8544 13.987C6.45554 13.987 7.75766 15.2891 7.75766 16.8903H9.20928C9.20928 14.5517 7.35483 12.6428 5.04021 12.5448C4.91682 12.0701 4.8544 11.5802 4.8544 11.0838C4.8544 7.8822 7.45935 5.27725 10.6609 5.27725C12.7839 5.27725 14.7001 6.43129 15.7191 8.25381C14.1717 9.16181 13.0786 10.7608 12.8746 12.6268C11.6074 12.9389 10.6609 14.0763 10.6609 15.4387H12.1125C12.1125 14.6381 12.7636 13.987 13.5642 13.987C14.3647 13.987 15.0158 14.6381 15.0158 15.4387H16.4674C16.4674 14.1068 15.5616 12.9941 14.3372 12.653C14.6347 10.5394 16.45 8.90632 18.6449 8.90632C21.0466 8.90632 22.9998 10.8595 22.9998 13.2612C22.9998 13.643 22.9373 14.0168 22.8401 14.3811C21.6497 14.977 20.8223 16.1964 20.8223 17.6161H22.2739C22.2739 16.4156 23.2509 15.4387 24.4514 15.4387C25.6519 15.4387 26.6288 16.4156 26.6288 17.6161C26.6288 18.8166 25.6519 19.7935 24.4514 19.7935H4.8544C3.25325 19.7935 1.95114 18.4914 1.95114 16.8903ZM19.3707 21.2452V23.4226C19.3707 24.6231 20.3476 25.6001 21.5481 25.6001H27.3546C27.7546 25.6001 28.0805 25.9252 28.0805 26.3259C28.0805 26.7265 27.7546 27.0517 27.3546 27.0517H20.0965C18.896 27.0517 17.9191 28.0286 17.9191 29.2291C17.9191 30.4296 18.896 31.4066 20.0965 31.4066H21.5481C21.9481 31.4066 22.2739 31.7317 22.2739 32.1324V35.7615H19.3707C19.2233 35.7615 19.0796 35.7767 18.941 35.805C18.1121 33.7676 16.6881 32.3697 15.3018 31.0175C13.2884 29.0542 11.3867 27.199 11.3867 23.4226C11.3867 22.6888 11.4746 21.9615 11.6103 21.2452H19.3707ZM13.8088 31.5873L8.48347 36.9126L5.8807 34.3098L11.4187 28.7719C12.1002 29.8417 12.9451 30.7345 13.8088 31.5873ZM5.13093 35.6127L10.8097 41.2914L6.00191 43.1408L3.28156 40.4205L5.13093 35.6127ZM2.62905 44.4378C2.31477 44.5598 1.95114 44.3094 1.95114 43.9726C1.95114 43.9109 1.96275 43.8507 1.9838 43.794L2.71107 41.9026L4.51907 43.7106L2.62905 44.4378ZM22.9998 44.4712C21.9277 44.4712 20.9718 43.9007 20.442 43.0196H25.5575C25.0277 43.9007 24.0718 44.4712 22.9998 44.4712ZM26.6288 41.568H19.3707C18.9708 41.568 18.6449 41.2428 18.6449 40.8422C18.6449 40.4415 18.9708 40.1163 19.3707 40.1163H26.6288C27.0288 40.1163 27.3546 40.4415 27.3546 40.8422C27.3546 41.2428 27.0288 41.568 26.6288 41.568ZM44.0484 33.584H44.0085C42.8537 33.584 41.823 34.2735 41.373 35.3637C40.9259 36.4357 41.1654 37.6566 41.9827 38.4745L42.0132 38.505L40.9854 39.5328L40.955 39.5023C40.1362 38.6836 38.914 38.4433 37.8202 38.9021C36.7539 39.3433 36.0644 40.3733 36.0644 41.528V41.568H34.6128V41.528C34.6128 40.3733 33.9233 39.3426 32.8331 38.8919C31.7596 38.4441 30.5388 38.6843 29.7215 39.5023L29.691 39.5328L28.7076 38.5493C28.7656 38.3541 28.8063 38.1523 28.8063 37.9389C28.8063 37.4236 28.619 36.9561 28.3185 36.5823C28.77 35.3637 29.4776 34.3889 30.3014 33.4889C30.6136 35.993 32.7511 37.9389 35.3386 37.9389C38.1402 37.9389 40.4193 35.6591 40.4193 32.8582C40.4193 30.0573 38.1402 27.7775 35.3386 27.7775C35.2675 27.7775 35.1985 27.7848 35.1281 27.7877C35.6195 26.7679 35.957 25.5855 36.0419 24.1484H36.0644V24.1883C36.0644 25.3431 36.7539 26.3745 37.8434 26.8238C38.9147 27.2723 40.137 27.0328 40.955 26.2141L40.9854 26.1836L42.0132 27.2114L41.9827 27.2418C41.1654 28.0598 40.9259 29.2814 41.3825 30.3759C41.823 31.4429 42.8537 32.1324 44.0085 32.1324H44.0484V33.584Z" fill="#3E66F3"/>
</svg>
