<svg width="42" height="43" viewBox="0 0 42 43" fill="none" xmlns="http://www.w3.org/2000/svg">
<path d="M9.78768 9.57052C9.63537 9.59959 9.49796 9.68087 9.39913 9.80035C9.3003 9.91984 9.24622 10.07 9.24622 10.2251V13.4766C9.24622 13.6317 9.3003 13.7819 9.39913 13.9014C9.49796 14.0209 9.63537 14.1021 9.78768 14.1312L11.6541 14.4878C11.8609 15.222 12.1541 15.929 12.5276 16.594L11.4593 18.1669C11.3722 18.2951 11.3325 18.4498 11.3471 18.6041C11.3617 18.7585 11.4297 18.9029 11.5394 19.0125L13.8385 21.3117C13.9481 21.4213 14.0926 21.4893 14.2469 21.5039C14.4013 21.5185 14.5559 21.4789 14.6842 21.3917L16.257 20.3235C17.0498 20.7686 17.9016 21.0993 18.7871 21.3056C18.7926 21.3069 18.798 21.3075 18.8038 21.3086V23.5597C18.8038 23.7364 18.874 23.9059 18.999 24.0309C19.1239 24.1559 19.2935 24.2261 19.4702 24.2261H22.836C23.0128 24.2261 23.1823 24.1559 23.3072 24.0309C23.4322 23.9059 23.5024 23.7364 23.5024 23.5597V21.2332C24.2846 21.0253 25.0375 20.7196 25.7433 20.3234L27.3162 21.3917C27.4444 21.4789 27.599 21.5185 27.7534 21.5039C27.9078 21.4893 28.0522 21.4213 28.1618 21.3117L30.461 19.0125C30.5706 18.9029 30.6386 18.7585 30.6532 18.6041C30.6678 18.4498 30.6281 18.2951 30.541 18.1669L29.4726 16.594C29.8462 15.929 30.1394 15.222 30.3461 14.4878L32.2126 14.1312C32.365 14.1021 32.5024 14.0209 32.6012 13.9014C32.7 13.7819 32.7541 13.6317 32.7541 13.4766V10.2251C32.7541 10.07 32.7 9.91984 32.6012 9.80035C32.5024 9.68087 32.365 9.59959 32.2126 9.57052L30.3461 9.21399C30.1394 8.47979 29.8462 7.77276 29.4726 7.10778L30.541 5.53487C30.6281 5.40661 30.6678 5.25199 30.6532 5.09763C30.6386 4.94326 30.5706 4.79883 30.461 4.68919L28.1618 2.39006C28.0522 2.28043 27.9078 2.21247 27.7534 2.19787C27.599 2.18327 27.4444 2.22296 27.3162 2.31009L25.7432 3.37835C25.0782 3.00477 24.3712 2.71154 23.637 2.50485L23.2804 0.638386C23.2514 0.486089 23.1701 0.348694 23.0506 0.249861C22.9312 0.151029 22.781 0.0969455 22.6259 0.0969238H19.3743C19.2193 0.0969455 19.0691 0.151029 18.9496 0.249861C18.8302 0.348694 18.7489 0.486089 18.7198 0.638386L18.3633 2.50485C17.6291 2.7116 16.9221 3.00486 16.2571 3.37844L14.6842 2.31001C14.5559 2.22288 14.4013 2.18319 14.2469 2.19779C14.0926 2.21239 13.9481 2.28035 13.8385 2.38998L11.5394 4.68911C11.4297 4.79874 11.3618 4.94316 11.3472 5.0975C11.3325 5.25185 11.3722 5.40645 11.4593 5.53471L12.5276 7.10762C12.1541 7.77262 11.8609 8.47968 11.6542 9.2139L9.78768 9.57052ZM22.1694 16.6678V22.894H20.1369V16.7693C20.1368 16.626 20.0906 16.4866 20.0051 16.3716C19.9196 16.2567 19.7993 16.1723 19.662 16.1311C18.7835 15.8664 18.0032 15.3472 17.4198 14.6391C16.8363 13.931 16.4759 13.0658 16.3841 12.1529C16.2922 11.24 16.4731 10.3204 16.9039 9.51024C17.3346 8.70012 17.9959 8.03589 18.804 7.60151V11.0863C18.804 11.7094 19.0516 12.3069 19.4921 12.7475C19.9327 13.1881 20.5303 13.4356 21.1534 13.4356C21.7764 13.4356 22.374 13.1881 22.8146 12.7475C23.2552 12.3069 23.5027 11.7094 23.5027 11.0863V7.78044C24.2298 8.24621 24.8125 8.90559 25.1853 9.68443C25.5581 10.4633 25.7063 11.3307 25.6131 12.1891C25.5199 13.0475 25.1891 13.8629 24.6578 14.5436C24.1265 15.2243 23.4159 15.7433 22.6058 16.0422C22.4778 16.0892 22.3673 16.1744 22.2893 16.2862C22.2113 16.398 22.1694 16.5311 22.1693 16.6674L22.1694 16.6678ZM12.843 9.94063C13.0498 9.05409 13.4009 8.20754 13.8821 7.43482C13.9503 7.32532 13.9851 7.1984 13.9825 7.06947C13.98 6.94053 13.94 6.81512 13.8676 6.70843L12.8714 5.24232L14.3912 3.72222L15.8573 4.71827C15.964 4.79071 16.0894 4.83066 16.2183 4.83326C16.3472 4.83587 16.4741 4.80101 16.5836 4.73293C17.3564 4.25161 18.2029 3.90054 19.0895 3.69374C19.2151 3.66443 19.3294 3.59934 19.4188 3.50633C19.5081 3.41333 19.5685 3.29642 19.5927 3.16977L19.9255 1.42975H22.0747L22.4072 3.16977C22.4314 3.29641 22.4918 3.41331 22.581 3.50631C22.6703 3.59931 22.7847 3.66442 22.9102 3.69374C23.7968 3.90057 24.6434 4.25161 25.4161 4.73284C25.5256 4.80096 25.6525 4.83584 25.7815 4.83325C25.9104 4.83066 26.0358 4.79072 26.1425 4.71827L27.6086 3.72222L29.1284 5.2419L28.1322 6.70802C28.0597 6.81468 28.0198 6.94008 28.0172 7.069C28.0146 7.19792 28.0494 7.32482 28.1175 7.43433C28.5989 8.20706 28.95 9.05363 29.1568 9.94021C29.1861 10.0658 29.2512 10.1802 29.3442 10.2695C29.4372 10.3588 29.5541 10.4192 29.6808 10.4434L31.4212 10.7762V12.9254L29.6812 13.2579C29.5545 13.2821 29.4376 13.3425 29.3446 13.4318C29.2516 13.5211 29.1865 13.6355 29.1572 13.761C28.9504 14.6476 28.5994 15.4942 28.118 16.2669C28.0499 16.3764 28.0151 16.5033 28.0177 16.6323C28.0203 16.7612 28.0602 16.8866 28.1327 16.9933L29.1288 18.4594L27.609 19.9791L26.1429 18.9831C26.0363 18.9106 25.9109 18.8707 25.782 18.8681C25.653 18.8655 25.5261 18.9003 25.4166 18.9684C24.8183 19.3405 24.1752 19.6351 23.5026 19.8451V17.1119C24.5751 16.6168 25.4768 15.8148 26.0937 14.8074C26.7105 13.7999 27.0149 12.6322 26.9682 11.4518C26.9216 10.2714 26.5261 9.13132 25.8316 8.17567C25.1372 7.22002 24.175 6.4917 23.0668 6.08275C22.966 6.0456 22.8578 6.03334 22.7513 6.04702C22.6448 6.0607 22.5432 6.0999 22.4551 6.1613C22.367 6.2227 22.2951 6.30448 22.2454 6.39967C22.1957 6.49486 22.1698 6.60064 22.1698 6.70802V11.0864C22.1698 11.3559 22.0627 11.6144 21.8721 11.805C21.6815 11.9956 21.423 12.1026 21.1535 12.1026C20.8839 12.1026 20.6255 11.9956 20.4349 11.805C20.2443 11.6144 20.1372 11.3559 20.1372 11.0864V6.60605C20.1372 6.50216 20.1129 6.39972 20.0662 6.30689C20.0196 6.21407 19.9519 6.13344 19.8685 6.07143C19.7851 6.00943 19.6884 5.96778 19.5861 5.9498C19.4838 5.93182 19.3787 5.93801 19.2792 5.96788C18.065 6.33708 16.9986 7.08055 16.2323 8.09208C15.4513 9.12806 15.0288 10.3902 15.0288 11.6876C15.0288 12.9849 15.4513 14.2471 16.2323 15.283C16.8955 16.158 17.7849 16.8353 18.8047 17.242V19.9349C18.0217 19.7228 17.2739 19.3972 16.5852 18.9686C16.4757 18.9005 16.3488 18.8656 16.2198 18.8682C16.0909 18.8708 15.9655 18.9108 15.8588 18.9832L14.3927 19.9793L12.8729 18.4596L13.8691 16.9935C13.9415 16.8868 13.9815 16.7614 13.9841 16.6325C13.9867 16.5036 13.9518 16.3767 13.8837 16.2672C13.4024 15.4944 13.0513 14.6479 12.8445 13.7613C12.8152 13.6357 12.7502 13.5213 12.6571 13.432C12.5641 13.3427 12.4472 13.2822 12.3206 13.258L10.5791 12.9254V10.7762L12.3191 10.4439C12.4457 10.4197 12.5626 10.3592 12.6556 10.2699C12.7487 10.1806 12.8137 10.0662 12.843 9.94063ZM6.93043 20.0843C6.60531 20.0654 6.27968 20.1113 5.97245 20.2193L4.26476 12.1277C4.25332 12.0734 4.23513 12.0207 4.21062 11.9709C4.02647 11.5969 3.72897 11.2905 3.3605 11.0954C2.99204 10.9003 2.5714 10.8265 2.15852 10.8844C1.74564 10.9424 1.36158 11.1291 1.06104 11.4181C0.760513 11.7071 0.558845 12.0835 0.484771 12.4938C0.475619 12.5444 0.472349 12.5958 0.475025 12.647L1.23182 27.1117C1.25181 27.6044 1.40165 28.083 1.66617 28.4992C1.93069 28.9153 2.30048 29.2541 2.73809 29.4813L7.26138 31.897C7.29523 31.913 7.32495 31.9365 7.34826 31.9657C7.37156 31.995 7.38781 32.0292 7.39575 32.0658L8.27775 35.3276L7.6654 35.6812C7.39955 35.8351 7.2056 36.0881 7.12609 36.3849C7.04659 36.6816 7.08802 36.9977 7.24131 37.2639L10.0727 42.1681C10.1485 42.3001 10.2497 42.4157 10.3705 42.5083C10.4913 42.6009 10.6293 42.6686 10.7765 42.7075C10.8752 42.7341 10.9769 42.7475 11.0791 42.7476C11.2816 42.7475 11.4804 42.6939 11.6556 42.5923L19.8858 37.8404C20.1516 37.6865 20.3456 37.4335 20.4251 37.1368C20.5047 36.8401 20.4633 36.5239 20.31 36.2577L17.4785 31.3536C17.3246 31.0877 17.0716 30.8938 16.7749 30.8142C16.4782 30.7347 16.162 30.7761 15.8958 30.9293L15.8625 30.9485L15.467 27.4552C15.4269 27.0671 15.3059 26.6917 15.1118 26.3532C14.9178 26.0148 14.6549 25.7208 14.3401 25.4902L7.29012 20.216C7.1857 20.1379 7.06063 20.0921 6.93043 20.0843ZM19.0688 36.7734L11.1398 41.3513L8.48242 36.7485L16.4114 32.1708L19.0688 36.7734ZM14.1425 27.6053L14.6034 31.6755L9.47197 34.6382L8.6821 31.7183C8.62697 31.506 8.52791 31.3076 8.39131 31.1359C8.2547 30.9642 8.08361 30.8231 7.88906 30.7217L3.36577 28.306C3.13118 28.1864 2.93293 28.0061 2.79168 27.7839C2.65043 27.5616 2.57135 27.3056 2.56265 27.0424L1.81119 12.6682C1.84544 12.548 1.91372 12.4403 2.00781 12.358C2.1019 12.2758 2.21778 12.2225 2.34147 12.2047C2.46515 12.1868 2.59137 12.2051 2.70489 12.2573C2.81841 12.3096 2.91439 12.3936 2.98125 12.4992L4.79381 21.0903C4.72908 21.1786 4.67033 21.271 4.61796 21.3671C4.39505 21.7785 4.29318 22.2446 4.32414 22.7115C4.3551 23.1784 4.51762 23.627 4.7929 24.0054C4.83189 24.0587 4.87861 24.106 4.93151 24.1455L8.47018 26.7929C8.61171 26.8988 8.7895 26.9441 8.96443 26.9189C9.13937 26.8937 9.29712 26.8 9.40299 26.6585C9.50886 26.517 9.55418 26.3392 9.52896 26.1642C9.50375 25.9893 9.41007 25.8316 9.26854 25.7257L5.81951 23.1452C5.71819 22.9813 5.66024 22.7944 5.65111 22.602C5.64198 22.4095 5.68197 22.218 5.76732 22.0453C5.85267 21.8726 5.98057 21.7244 6.13897 21.6148C6.29738 21.5052 6.48108 21.4377 6.67277 21.4186L13.5417 26.5575C13.7112 26.6788 13.8527 26.8351 13.9564 27.0159C14.06 27.1967 14.1235 27.3977 14.1425 27.6053ZM15.5694 34.71C15.4812 34.5568 15.4573 34.3749 15.5032 34.2042C15.5491 34.0335 15.6609 33.8881 15.814 33.7998L15.8615 33.7725C15.9373 33.7283 16.0211 33.6996 16.1081 33.6879C16.1951 33.6762 16.2835 33.6819 16.3683 33.7044C16.4531 33.727 16.5326 33.7661 16.6023 33.8195C16.6719 33.8729 16.7303 33.9396 16.7742 34.0156C16.818 34.0916 16.8464 34.1756 16.8577 34.2626C16.8689 34.3496 16.8629 34.438 16.84 34.5227C16.817 34.6074 16.7776 34.6868 16.7239 34.7562C16.6702 34.8256 16.6033 34.8837 16.5271 34.9272L16.4796 34.9545C16.4038 34.9983 16.3201 35.0267 16.2333 35.0381C16.1465 35.0495 16.0583 35.0437 15.9738 35.0209C15.8893 34.9982 15.81 34.9591 15.7406 34.9057C15.6713 34.8523 15.6131 34.7858 15.5694 34.71ZM34.739 31.8973L39.2623 29.4815C39.6999 29.2543 40.0697 28.9154 40.3342 28.4993C40.5987 28.0831 40.7485 27.6044 40.7684 27.1117L41.5249 12.6468C41.5276 12.5955 41.5243 12.5441 41.5151 12.4936C41.4411 12.0833 41.2394 11.7068 40.9389 11.4179C40.6383 11.1289 40.2543 10.9421 39.8414 10.8842C39.4285 10.8262 39.0079 10.9001 38.6394 11.0952C38.2709 11.2902 37.9734 11.5966 37.7893 11.9707C37.7648 12.0205 37.7466 12.0732 37.7351 12.1275L36.0278 20.2193C35.7206 20.1112 35.3949 20.0653 35.0698 20.0843C34.9395 20.092 34.8143 20.1378 34.7098 20.216L27.6599 25.4903C27.3451 25.7209 27.0822 26.0149 26.8881 26.3534C26.694 26.6918 26.5731 27.0672 26.533 27.4554L26.1375 30.9486L26.1042 30.9294C25.838 30.7762 25.5218 30.7348 25.2251 30.8143C24.9284 30.8938 24.6754 31.0878 24.5215 31.3536L21.6901 36.2583C21.5369 36.5245 21.4955 36.8407 21.575 37.1374C21.6545 37.4341 21.8485 37.6871 22.1144 37.841L30.3446 42.5929C30.5197 42.6946 30.7186 42.7482 30.9211 42.7483C31.0233 42.7482 31.1251 42.7347 31.2238 42.7081C31.3709 42.6692 31.5089 42.6015 31.6297 42.509C31.7505 42.4164 31.8517 42.3008 31.9275 42.1688L34.7589 37.2647C34.9122 36.9985 34.9536 36.6823 34.8741 36.3856C34.7946 36.0889 34.6007 35.8358 34.3348 35.6819L33.7225 35.3283L34.6045 32.0665C34.6124 32.0298 34.6286 31.9955 34.652 31.9661C34.6753 31.9368 34.7051 31.9132 34.739 31.8973ZM30.8605 41.3513L22.9316 36.7734L25.5889 32.1708L33.5179 36.7485L30.8605 41.3513ZM33.3179 31.7181L32.5282 34.6382L27.3968 31.6755L27.8576 27.6053C27.8766 27.3977 27.9401 27.1967 28.0438 27.0159C28.1475 26.8351 28.2889 26.6788 28.4585 26.5575L35.3274 21.4186C35.5191 21.4377 35.7028 21.5052 35.8612 21.6148C36.0196 21.7244 36.1475 21.8726 36.2328 22.0453C36.3182 22.218 36.3582 22.4095 36.3491 22.602C36.3399 22.7944 36.282 22.9813 36.1806 23.1452L32.7314 25.7257C32.5898 25.8316 32.4962 25.9893 32.471 26.1642C32.4457 26.3392 32.491 26.517 32.5969 26.6585C32.7028 26.8 32.8605 26.8937 33.0355 26.9189C33.2104 26.9441 33.3882 26.8988 33.5297 26.7929L37.0684 24.1455C37.1213 24.106 37.168 24.0587 37.207 24.0054C37.5168 23.5825 37.6837 23.072 37.6836 22.5478C37.6835 22.0236 37.5163 21.5131 37.2063 21.0903L39.0189 12.4992C39.0858 12.3936 39.1818 12.3096 39.2953 12.2573C39.4088 12.2051 39.535 12.1868 39.6587 12.2047C39.7824 12.2225 39.8983 12.2758 39.9923 12.358C40.0864 12.4403 40.1547 12.548 40.189 12.6682L39.4373 27.0424C39.4286 27.3055 39.3496 27.5616 39.2083 27.7838C39.0671 28.006 38.8688 28.1863 38.6342 28.3059L34.1109 30.7216C33.9164 30.8231 33.7454 30.9642 33.6088 31.1359C33.4722 31.3076 33.3732 31.506 33.3181 31.7183L33.3179 31.7181ZM26.1386 33.7725L26.186 33.7998C26.2622 33.8433 26.3291 33.9014 26.3828 33.9708C26.4365 34.0402 26.476 34.1196 26.4989 34.2043C26.5219 34.289 26.5279 34.3774 26.5166 34.4644C26.5053 34.5514 26.4769 34.6354 26.4331 34.7114C26.3893 34.7874 26.3309 34.8541 26.2612 34.9075C26.1916 34.9609 26.1121 35 26.0273 35.0226C25.9425 35.0452 25.854 35.0508 25.7671 35.0391C25.6801 35.0274 25.5963 34.9987 25.5204 34.9545L25.4729 34.9272C25.3971 34.8835 25.3306 34.8253 25.2773 34.7559C25.224 34.6865 25.1849 34.6073 25.1622 34.5228C25.1395 34.4382 25.1336 34.3501 25.145 34.2633C25.1563 34.1765 25.1847 34.0928 25.2284 34.017C25.2721 33.9412 25.3303 33.8747 25.3997 33.8214C25.4691 33.7681 25.5483 33.7289 25.6329 33.7062C25.7174 33.6835 25.8055 33.6777 25.8923 33.6891C25.9791 33.7004 26.0628 33.7288 26.1386 33.7725Z" fill="#3E66F3"/>
</svg>
