<svg width="46" height="46" viewBox="0 0 46 46" fill="none" xmlns="http://www.w3.org/2000/svg">
<path d="M8.45462 31.459C8.45462 31.1068 8.7401 30.8214 9.09227 30.8214H24.5083C24.8605 30.8214 25.146 31.1068 25.146 31.459C25.146 31.8112 24.8605 32.0967 24.5083 32.0967H9.09227C8.7401 32.0967 8.45462 31.8112 8.45462 31.459ZM9.09227 27.3693H20.3541C20.7063 27.3693 20.9918 27.0838 20.9918 26.7316C20.9918 26.3795 20.7063 26.094 20.3541 26.094H9.09227C8.7401 26.094 8.45462 26.3795 8.45462 26.7316C8.45462 27.0838 8.7401 27.3693 9.09227 27.3693ZM35.1924 36.6833V44.2495C35.1924 45.064 34.5297 45.7267 33.7152 45.7267H23.5521C22.7376 45.7267 22.0749 45.064 22.0749 44.2495V39.6292C20.383 40.0223 18.6128 40.2218 16.8003 40.2218C16.049 40.2218 15.2938 40.1866 14.5519 40.1172L6.6762 45.6121C6.56662 45.6885 6.439 45.7267 6.31138 45.7267C6.18667 45.7267 6.06205 45.6903 5.95402 45.6172C5.73549 45.4692 5.63055 45.202 5.69021 44.9449L7.27132 38.1337C3.02055 36.0484 0.5 32.6989 0.5 29.0953C0.5 26.624 1.65142 24.288 3.82973 22.34C5.91375 20.4763 8.74967 19.1314 12.0309 18.4507C12.3757 18.3794 12.7133 18.6008 12.7848 18.9456C12.8563 19.2904 12.6348 19.6279 12.29 19.6994C9.27208 20.3254 6.56935 21.6008 4.6799 23.2905C2.7797 24.9899 1.7753 26.9971 1.7753 29.0953C1.7753 32.3167 4.2043 35.3451 8.27288 37.1964C8.54926 37.3221 8.69856 37.6253 8.62988 37.921L7.30784 43.6162L14.0154 38.9364C14.141 38.8488 14.2938 38.8095 14.4462 38.8251C15.2204 38.9055 16.0123 38.9463 16.8003 38.9463C18.6192 38.9463 20.3909 38.7344 22.0749 38.3174V36.6832C22.0749 35.8686 22.7376 35.206 23.5521 35.206H28.5644C30.6689 33.4676 31.8253 31.3049 31.8253 29.0952C31.8253 26.7343 30.5171 24.4455 28.1417 22.6505C27.8607 22.4382 27.8051 22.0383 28.0173 21.7573C28.2297 21.4764 28.6295 21.4207 28.9105 21.6331C31.6125 23.6748 33.1006 26.3249 33.1006 29.0952C33.1006 31.2809 32.1655 33.4049 30.4378 35.206H33.7151C34.5297 35.206 35.1924 35.8687 35.1924 36.6833ZM33.9171 36.6833C33.9171 36.5739 33.8246 36.4814 33.7152 36.4814H23.5521C23.4427 36.4814 23.3503 36.5739 23.3503 36.6833V44.2495C23.3503 44.3589 23.4427 44.4514 23.5521 44.4514H33.7152C33.8246 44.4514 33.9171 44.3589 33.9171 44.2495V36.6833ZM31.0906 40.4663C31.0906 40.6941 30.9691 40.9046 30.7718 41.0185L27.1332 43.1192C27.0345 43.1761 26.9244 43.2047 26.8143 43.2047C26.7043 43.2047 26.5942 43.1762 26.4955 43.1192C26.2982 43.0053 26.1767 42.7948 26.1767 42.567V38.3655C26.1767 38.1377 26.2982 37.9272 26.4955 37.8133C26.6928 37.6993 26.9359 37.6993 27.1332 37.8133L30.7718 39.9141C30.9691 40.028 31.0906 40.2385 31.0906 40.4663ZM29.1777 40.4663L27.452 39.47V41.4626L29.1777 40.4663ZM41.3384 7.39121C41.4466 7.39121 41.5562 7.3637 41.6567 7.30567L44.1194 5.88389C44.4244 5.70781 44.5289 5.31784 44.3528 5.01286C44.1768 4.70788 43.7869 4.6034 43.4817 4.77948L41.019 6.20126C40.7141 6.37734 40.6096 6.76731 40.7857 7.07229C40.9037 7.2768 41.1181 7.39121 41.3384 7.39121ZM37.2337 4.51431C37.3341 4.57233 37.4437 4.59984 37.5519 4.59984C37.7723 4.59984 37.9866 4.48552 38.1047 4.28093L39.6045 1.68313C39.7806 1.37815 39.6761 0.988184 39.3712 0.812101C39.0662 0.636018 38.6762 0.740502 38.5001 1.04548L37.0003 3.64328C36.8242 3.94826 36.9287 4.33822 37.2337 4.51431ZM41.225 11.4274C41.225 11.7795 41.5105 12.065 41.8627 12.065H44.8623C45.2145 12.065 45.5 11.7795 45.5 11.4274C45.5 11.0752 45.2145 10.7897 44.8623 10.7897H41.8627C41.5105 10.7897 41.225 11.0752 41.225 11.4274ZM14.21 18.4253C14.549 17.1598 15.3567 16.1044 16.4845 15.4533L19.8198 13.5277C19.9661 13.4431 20.1403 13.4201 20.3036 13.4639C20.3681 13.4812 20.4286 13.5087 20.4837 13.5441C23.9114 10.9788 26.6141 8.009 28.1624 5.10222L28.1038 5.00065C27.3812 3.74922 27.8115 2.14324 29.063 1.4206C30.3146 0.698144 31.9205 1.12847 32.643 2.37981L35.245 6.88656C36.6271 6.17157 38.3468 6.66502 39.1328 8.02649C39.9187 9.38788 39.4862 11.1237 38.1761 11.9634L40.7781 16.4701C41.1271 17.0745 41.2192 17.7805 41.0376 18.4582C40.856 19.1358 40.4232 19.7013 39.8188 20.0502C39.417 20.2823 38.9703 20.4008 38.5168 20.4008C38.2882 20.4008 38.0579 20.3706 37.8308 20.3098C37.1531 20.1282 36.5877 19.6953 36.2388 19.091L36.1802 18.9895C32.9176 18.8778 29.0334 19.7177 25.1323 21.3746L29.7363 27.5719C30.1958 28.1904 30.1152 29.0444 29.5488 29.5584L28.5359 30.4775C28.2615 30.7264 27.9038 30.8631 27.5368 30.8631C27.4896 30.8631 27.4423 30.8608 27.3951 30.8563C26.9845 30.8166 26.6078 30.6049 26.3617 30.2754L21.5451 23.8301L21.377 23.9272C20.6275 24.3599 19.7939 24.5809 18.9475 24.5809C18.5205 24.5809 18.0903 24.5246 17.6659 24.411C16.4003 24.0719 15.3449 23.2641 14.6939 22.1365C14.0427 21.0087 13.8709 19.6908 14.21 18.4253ZM28.7125 28.3323L24.2203 22.2855L22.6572 23.1879L27.3833 29.512C27.4245 29.5672 27.479 29.5831 27.5176 29.5869C27.5521 29.5901 27.6187 29.5876 27.6789 29.5329L28.6917 28.6139C28.7713 28.5417 28.7801 28.4232 28.7125 28.3323ZM35.8844 7.99406L37.5367 10.8559C38.2381 10.3698 38.4626 9.4163 38.0284 8.66415C37.5941 7.91208 36.6561 7.62969 35.8844 7.99406ZM29.2082 4.363L37.3432 18.4533C37.5218 18.7626 37.8121 18.9844 38.1608 19.0778C38.5094 19.1711 38.8717 19.1244 39.1811 18.9457C39.4905 18.7672 39.7123 18.4768 39.8058 18.1282C39.8991 17.7796 39.8522 17.4172 39.6737 17.1078L31.5386 3.01756C31.2897 2.58641 30.8365 2.34511 30.3712 2.34511C30.1431 2.34511 29.9121 2.40304 29.7007 2.52511C29.3914 2.70365 29.1696 2.99406 29.0762 3.34267C28.9828 3.69128 29.0296 4.05365 29.2082 4.363ZM21.1831 14.6136L24.4533 20.278C28.2779 18.6303 32.1146 17.7344 35.4389 17.7057L28.9036 6.38582C27.2166 9.25042 24.5223 12.1252 21.1831 14.6136ZM15.7982 21.4987C16.2789 22.3314 17.0594 22.9281 17.9958 23.179C18.9321 23.43 19.9065 23.3034 20.7392 22.8227L23.5222 21.2159L19.9051 14.9508L17.122 16.5576C16.2894 17.0383 15.6927 17.8188 15.4417 18.7553C15.1908 19.6917 15.3175 20.6661 15.7982 21.4987ZM3.99825 8.098C3.99825 5.96242 5.73567 4.2249 7.87135 4.2249C10.007 4.2249 11.7444 5.96232 11.7444 8.098C11.7444 10.2336 10.007 11.971 7.87135 11.971C5.73567 11.971 3.99825 10.2336 3.99825 8.098ZM5.27355 8.098C5.27355 9.53044 6.43891 10.6957 7.87135 10.6957C9.30379 10.6957 10.4691 9.53044 10.4691 8.098C10.4691 6.66556 9.30379 5.50021 7.87135 5.50021C6.43891 5.50021 5.27355 6.66556 5.27355 8.098ZM0.5 8.77136V7.42464C0.5 6.82908 0.984433 6.34464 1.57991 6.34464C2.10734 6.34464 2.31539 5.94146 2.3665 5.81785C2.41769 5.69424 2.55579 5.262 2.18276 4.88906C1.97881 4.6852 1.8664 4.41401 1.8664 4.12543C1.8664 3.83694 1.97871 3.56566 2.18276 3.36171L3.13496 2.40942C3.55599 1.9883 4.24119 1.9883 4.66232 2.40942C5.03534 2.78245 5.46758 2.64435 5.5911 2.59315C5.71472 2.54196 6.11789 2.33399 6.11789 1.80657C6.11789 1.211 6.60233 0.726565 7.1978 0.726565H8.54452C9.14 0.726565 9.62443 1.211 9.62443 1.80657C9.62443 2.33399 10.0276 2.54196 10.1512 2.59315C10.2747 2.64435 10.7072 2.78226 11.08 2.40942C11.5011 1.9883 12.1862 1.9883 12.6074 2.40942L13.5597 3.36171C13.7636 3.56566 13.8759 3.83685 13.8759 4.12534C13.8759 4.41383 13.7636 4.68511 13.5596 4.88906C13.1866 5.262 13.3247 5.69424 13.3759 5.81785C13.4271 5.94137 13.6351 6.34464 14.1625 6.34464C14.758 6.34464 15.2424 6.82908 15.2424 7.42464V8.77136C15.2424 9.36684 14.758 9.85127 14.1625 9.85127C13.6351 9.85127 13.427 10.2544 13.3759 10.3781C13.3247 10.5016 13.1866 10.9339 13.5597 11.3068C13.9808 11.728 13.9808 12.4132 13.5597 12.8342L12.6074 13.7865C12.4035 13.9905 12.1322 14.1029 11.8437 14.1029C11.5552 14.1029 11.284 13.9905 11.08 13.7865C10.7071 13.4137 10.2749 13.5516 10.1512 13.6028C10.0277 13.654 9.62443 13.862 9.62443 14.3895C9.62443 14.985 9.14 15.4694 8.54452 15.4694H7.19799C6.60251 15.4694 6.11808 14.985 6.11808 14.3895C6.11808 13.8609 5.71517 13.653 5.59174 13.6018C5.46813 13.5507 5.03625 13.4127 4.6625 13.7866C4.45863 13.9905 4.18736 14.103 3.89887 14.103C3.61037 14.103 3.33901 13.9906 3.13514 13.7866L2.18295 12.8344C1.97899 12.6305 1.86658 12.3592 1.86658 12.0707C1.86658 11.7822 1.9789 11.5109 2.18295 11.3069C2.55588 10.934 2.41778 10.5018 2.36659 10.3782C2.31539 10.2546 2.10743 9.85145 1.58 9.85145C0.984433 9.85127 0.5 9.36684 0.5 8.77136ZM1.7753 8.58444C2.56699 8.6534 3.23434 9.14038 3.54479 9.89008C3.85532 10.6398 3.72779 11.4561 3.21667 12.0647L3.9047 12.7527C4.51374 12.241 5.33021 12.1132 6.07964 12.4236C6.82915 12.734 7.31595 13.4017 7.38482 14.1942H8.35769C8.42665 13.4025 8.91363 12.7352 9.66333 12.4247C10.4129 12.1143 11.2292 12.2416 11.8379 12.7527L12.5259 12.0647C12.0148 11.4561 11.8874 10.6398 12.1978 9.89008C12.5084 9.14047 13.1756 8.6534 13.9673 8.58444V7.61157C13.1756 7.54261 12.5083 7.05562 12.1978 6.30593C11.8874 5.55623 12.0148 4.74004 12.5258 4.13135L11.8378 3.44333C11.229 3.95436 10.4128 4.0818 9.66324 3.77135C8.91363 3.46082 8.42665 2.79356 8.35769 2.00187H7.38482C7.31586 2.79356 6.82888 3.46091 6.07927 3.77135C5.32958 4.08189 4.51329 3.95436 3.9047 3.44324L3.21667 4.13126C3.7277 4.74004 3.85523 5.55623 3.5447 6.30584C3.23434 7.05562 2.56699 7.54261 1.7753 7.61157V8.58444ZM45.4499 25.5378C45.2248 27.426 44.3169 29.2222 43.7956 30.1249C43.2744 31.0275 42.1729 32.7119 40.6503 33.8509C39.6631 34.5894 38.669 34.9609 37.7058 34.9609C37.0332 34.9609 36.3755 34.7798 35.7456 34.4161L35.5166 34.2838C35.1392 34.066 34.8693 33.7138 34.7562 33.2917C34.6432 32.8698 34.7008 32.4297 34.9186 32.0525L35.8342 30.4666C36.2845 29.6866 37.2855 29.4184 38.0655 29.8687L38.6026 30.1788C38.7548 30.2668 38.935 30.237 39.0511 30.1048C39.5518 29.5339 40.013 28.8853 40.4219 28.177C40.8308 27.4688 41.162 26.7449 41.406 26.0259C41.4625 25.8594 41.3982 25.6884 41.2459 25.6005L40.7089 25.2906C40.3316 25.0727 40.0616 24.7204 39.9485 24.2985C39.8355 23.8765 39.8931 23.4364 40.1109 23.0591L41.0265 21.4733C41.4767 20.6934 42.4777 20.4252 43.2578 20.8754L43.4869 21.0076C45.019 21.8921 45.6978 23.4586 45.4499 25.5378ZM42.8493 22.112L42.6203 21.9798C42.4493 21.881 42.2297 21.9399 42.131 22.1109L41.2154 23.6967C41.168 23.779 41.1555 23.8753 41.1805 23.9682C41.2053 24.0612 41.2644 24.1385 41.3466 24.186L41.8837 24.4959C42.5672 24.8907 42.8674 25.6883 42.6137 26.4357C42.3429 27.2337 41.9771 28.034 41.5264 28.8146C41.0759 29.595 40.5656 30.312 40.0099 30.9457C39.4894 31.5393 38.6486 31.6779 37.965 31.2833L37.428 30.9733C37.3718 30.9409 37.3103 30.9254 37.2495 30.9254C37.1256 30.9254 37.0049 30.9896 36.9386 31.1044L36.023 32.6902C35.9756 32.7725 35.9631 32.8689 35.9881 32.9618C36.0129 33.0547 36.072 33.132 36.1542 33.1795L36.3832 33.3118C37.4691 33.9387 38.615 33.781 39.8864 32.8298C41.2766 31.7898 42.311 30.1458 42.6913 29.4872C43.0715 28.8287 43.9781 27.1108 44.1836 25.3868C44.3715 23.8101 43.9351 22.7389 42.8493 22.112Z" fill="#3E66F3"/>
</svg>
