<svg width="50" height="43" viewBox="0 0 50 43" fill="none" xmlns="http://www.w3.org/2000/svg">
<path d="M28.3023 19.0261C28.3023 17.1909 26.8138 15.6978 24.9841 15.6978C23.1544 15.6978 21.6659 17.1909 21.6659 19.0261C21.6659 20.5696 22.7188 21.8707 24.1419 22.2457L24.1587 25.7724C24.1609 26.238 24.5391 26.6021 25.0042 26.6021H25.0084C25.4754 26.6021 25.8521 26.2361 25.85 25.7691L25.8332 22.2436C27.2529 21.8664 28.3023 20.5671 28.3023 19.0261ZM24.9843 20.6633C24.0871 20.6633 23.3572 19.9288 23.3572 19.0261C23.3572 18.1234 24.087 17.3891 24.9843 17.3891C25.8813 17.3891 26.6112 18.1234 26.6112 19.0261C26.6112 19.9288 25.8813 20.6633 24.9843 20.6633Z" fill="#3E66F3"/>
<path d="M46.5607 18.0406C45.1035 18.0406 43.8734 18.9913 43.502 20.3655H37.81C38.1439 18.7799 38.3867 17.1944 38.5755 15.5031H42.7056C43.1726 15.5031 43.4983 15.1573 43.4983 14.6903V6.61449C44.8725 6.24526 45.8579 5.01518 45.8579 3.55783C45.8579 1.80958 44.4473 0.387329 42.697 0.387329C40.9467 0.387329 39.503 1.80958 39.503 3.55783C39.503 5.0119 40.5386 6.23966 41.807 6.61195V13.8118H38.7504C38.8733 12.5434 38.9713 11.1771 39.0623 9.83034C39.0988 9.29051 38.6124 8.879 38.0885 8.96039C37.0844 9.15246 36.069 9.29717 35.0446 9.29717C31.6419 9.29695 28.5154 7.75409 25.5372 4.62746C25.1137 4.26669 24.6973 4.2744 24.2879 4.65061C21.1252 8.36094 16.7367 9.90338 11.9121 8.96007C11.3863 8.85722 10.8695 9.2904 10.9061 9.83055C10.9988 11.1987 11.0964 12.5434 11.2155 13.8118H8.40439V6.61195C9.67284 6.23966 10.7194 5.01201 10.7194 3.55783C10.7194 1.80958 9.29104 0.387329 7.54078 0.387329C5.79052 0.387329 4.37324 1.80958 4.37324 3.55783C4.37324 5.01529 5.33895 6.24526 6.71311 6.61449V14.6902C6.71311 15.1572 7.07378 15.503 7.54078 15.503H11.3865C11.5734 17.1942 11.8118 18.7798 12.1406 20.3654H6.49811C6.12656 18.9912 4.89658 18.0405 3.43944 18.0405C1.68908 18.0406 0.265137 19.463 0.265137 21.2112C0.265137 22.9594 1.68908 24.3816 3.43934 24.3816C4.89648 24.3816 6.12645 23.4309 6.49801 22.0568H12.5439C12.9967 23.7517 13.6369 25.3239 14.3501 26.9192H7.54078C7.07378 26.9192 6.71311 27.265 6.71311 27.732V36.2318C5.33895 36.6026 4.37567 37.8315 4.37567 39.2872C4.37567 41.0355 5.79507 42.4577 7.54533 42.4577C9.29569 42.4577 10.7263 41.0355 10.7263 39.2872C10.7263 37.8315 9.77855 36.6026 8.40439 36.2318V28.6104H15.3181C17.4838 31.993 20.5798 34.3754 24.7005 35.9121C24.8995 35.9717 25.0987 35.9722 25.2981 35.9136C29.3807 34.3516 32.4549 31.8873 34.6136 28.6104H41.807V36.2318C40.5386 36.6026 39.5049 37.8315 39.5049 39.2872C39.5049 41.0355 40.942 42.4577 42.6924 42.4577C44.4428 42.4577 45.8467 41.0355 45.8467 39.2872C45.8467 37.8315 44.8725 36.6026 43.4983 36.2318V27.7321C43.4983 27.2651 43.1726 26.9193 42.7056 26.9193H35.5873C36.3142 25.3287 36.9527 23.7497 37.4045 22.0569H43.5019C43.8734 23.431 45.1034 24.3817 46.5606 24.3817C48.3109 24.3816 49.7349 22.9594 49.7349 21.2111C49.7349 19.4629 48.3109 18.0406 46.5607 18.0406ZM41.2273 3.55783C41.2273 2.74211 41.8925 2.0786 42.7102 2.0786C43.5278 2.0786 44.1931 2.74211 44.1931 3.55783C44.1931 4.37355 43.5278 5.03706 42.7102 5.03706C41.8925 5.03706 41.2273 4.37355 41.2273 3.55783ZM6.05331 3.55783C6.05331 2.74211 6.71861 2.0786 7.53624 2.0786C8.35386 2.0786 9.01917 2.74211 9.01917 3.55783C9.01917 4.37355 8.35386 5.03706 7.53624 5.03706C6.71861 5.03706 6.05331 4.37355 6.05331 3.55783ZM3.43934 22.6904C2.62171 22.6904 1.95641 22.0268 1.95641 21.2112C1.95641 20.3955 2.62171 19.732 3.43934 19.732C4.25696 19.732 4.92227 20.3955 4.92227 21.2112C4.92237 22.0268 4.25707 22.6904 3.43934 22.6904ZM9.02371 39.2872C9.02371 40.103 8.35841 40.7665 7.54078 40.7665C6.72316 40.7665 6.05796 40.103 6.05796 39.2872C6.05796 38.4715 6.72316 37.808 7.54078 37.808C8.35841 37.808 9.02371 38.4715 9.02371 39.2872ZM44.1885 39.2872C44.1885 40.103 43.5232 40.7665 42.7056 40.7665C41.888 40.7665 41.2227 40.103 41.2227 39.2872C41.2227 38.4715 41.888 37.808 42.7056 37.808C43.5232 37.808 44.1885 38.4715 44.1885 39.2872ZM12.6681 10.7948C17.2308 11.3828 21.8926 9.96141 24.9641 6.44621C28.2882 9.66914 32.6232 11.5684 37.3009 10.7883C36.5104 21.6557 34.8814 30.2566 24.9922 34.1969C15.0971 30.3493 13.4641 21.7177 12.6681 10.7948ZM46.5607 22.6904C45.743 22.6904 45.0777 22.0268 45.0777 21.2112C45.0777 20.3955 45.743 19.732 46.5607 19.732C47.3783 19.732 48.0436 20.3955 48.0436 21.2112C48.0436 22.0268 47.3783 22.6904 46.5607 22.6904Z" fill="#3E66F3"/>
</svg>
