<svg width="54" height="53" viewBox="0 0 54 53" fill="none" xmlns="http://www.w3.org/2000/svg">
<path d="M13.2555 18.7267C14.2901 19.6565 16.3408 20.029 18.2265 20.029C18.5817 20.029 18.9306 20.0153 19.2663 19.9901C19.7106 20.4461 20.3841 20.8874 21.39 21.2577C22.8822 21.8071 24.8743 22.1097 26.9994 22.1097C30.1328 22.1097 33.2866 21.4413 34.7232 19.9895C35.0617 20.0152 35.4138 20.0291 35.7725 20.0291C37.6579 20.0291 39.7089 19.6565 40.7433 18.7268C41.3261 18.203 41.4483 17.6349 41.4483 17.2505C41.4483 14.3974 39.3283 12.0313 36.5812 11.6417C37.8578 11.2906 38.7985 10.1202 38.7985 8.73357C38.7985 7.07057 37.4454 5.71753 35.7822 5.71753C34.1189 5.71753 32.7657 7.07046 32.7657 8.73357C32.7657 10.1195 33.7056 11.2894 34.9814 11.6412C34.3366 11.7324 33.715 11.9331 33.1393 12.2375C31.5871 10.6249 29.4094 9.61849 26.9997 9.61849C24.5898 9.61849 22.4121 10.6248 20.8597 12.2374C20.2841 11.933 19.6625 11.7323 19.0179 11.6411C20.2935 11.2893 21.2334 10.1194 21.2334 8.73347C21.2334 7.07046 19.8803 5.71743 18.2171 5.71743C16.5539 5.71743 15.2007 7.07036 15.2007 8.73347C15.2007 10.1201 16.1416 11.2905 17.4181 11.6416C14.6708 12.0312 12.5505 14.3973 12.5505 17.2504C12.5505 17.6347 12.6728 18.2029 13.2555 18.7267ZM34.2436 8.73336C34.2436 7.88528 34.9338 7.19536 35.7821 7.19536C36.6302 7.19536 37.3204 7.88528 37.3204 8.73336C37.3204 9.58165 36.6302 10.2717 35.7821 10.2717C34.9338 10.2717 34.2436 9.58154 34.2436 8.73336ZM35.7821 13.0621C38.0914 13.0621 39.9702 14.9409 39.9702 17.2503C39.9702 17.3006 39.9702 17.4341 39.7552 17.6273C39.0847 18.2298 37.3261 18.5923 35.4932 18.5493C35.5146 18.4183 35.5261 18.2836 35.5261 18.1449C35.5261 16.3982 34.9975 14.7732 34.0929 13.4198C34.6216 13.1862 35.1937 13.0621 35.7821 13.0621ZM26.9996 11.0964C30.8861 11.0964 34.0481 14.2584 34.0481 18.1449C34.0481 19.5393 30.9519 20.6315 26.9993 20.6315C23.0468 20.6315 19.9505 19.5393 19.9505 18.1449C19.9506 14.2583 23.1128 11.0964 26.9996 11.0964ZM16.6788 8.73336C16.6788 7.88528 17.3689 7.19536 18.2171 7.19536C19.0653 7.19536 19.7554 7.88528 19.7554 8.73336C19.7554 9.58165 19.0653 10.2717 18.2171 10.2717C17.3689 10.2717 16.6788 9.58154 16.6788 8.73336ZM18.2171 13.0621C18.8053 13.0621 19.3773 13.1862 19.906 13.4197C19.0013 14.7731 18.4726 16.3982 18.4726 18.1448C18.4726 18.2732 18.4827 18.4089 18.5057 18.5493C16.673 18.5924 14.914 18.2298 14.2435 17.6273C14.0285 17.4341 14.0285 17.3006 14.0285 17.2503C14.0285 14.941 15.9075 13.0621 18.2171 13.0621ZM52.3371 25.6836H47.6867L47.6768 21.4105L48.5645 21.3957C48.8845 22.2961 49.7447 22.9428 50.7535 22.9428C52.0342 22.9428 53.0761 21.9009 53.0761 20.6201C53.0761 19.3394 52.0342 18.2975 50.7535 18.2975C49.7175 18.2975 48.838 18.9794 48.5396 19.9179L46.9237 19.9448C46.5197 19.9515 46.196 20.2814 46.1969 20.6854L46.2085 25.6836H44.0123L43.9858 16.5353H45.4714C45.7809 17.4546 46.6504 18.1189 47.6728 18.1189C48.9535 18.1189 49.9954 17.077 49.9954 15.7963C49.9954 14.5155 48.9535 13.4736 47.6728 13.4736C46.6505 13.4736 45.781 14.1379 45.4714 15.0572H43.2446C43.0482 15.0572 42.8598 15.1354 42.7212 15.2745C42.5826 15.4136 42.505 15.6021 42.5055 15.7985L42.5344 25.6836H39.3816C38.9735 25.6836 38.6426 26.0144 38.6426 26.4226C38.6426 32.8427 33.4194 38.0657 26.9995 38.0657C20.5795 38.0657 15.3562 32.8427 15.3562 26.4226C15.3562 26.0144 15.0254 25.6836 14.6172 25.6836H11.4644L11.493 15.7984C11.4935 15.602 11.416 15.4134 11.2773 15.2744C11.1387 15.1354 10.9503 15.0571 10.754 15.0571H8.52719C8.21775 14.1378 7.34825 13.4735 6.32587 13.4735C5.04515 13.4735 4.00324 14.5154 4.00324 15.7962C4.00324 17.0769 5.04515 18.1188 6.32587 18.1188C7.34814 18.1188 8.21765 17.4545 8.52719 16.5352H10.0128L9.98633 25.6836H7.79007L7.80169 20.6854C7.80264 20.2814 7.47895 19.9515 7.07491 19.9448L5.459 19.9179C5.16065 18.9794 4.28111 18.2975 3.24522 18.2975C1.96439 18.2975 0.922485 19.3394 0.922485 20.6201C0.922485 21.9009 1.96439 22.9428 3.24522 22.9428C4.25398 22.9428 5.11419 22.2961 5.43408 21.3957L6.32186 21.4105L6.31204 25.6836H1.66161C1.25346 25.6836 0.922591 26.0144 0.922591 26.4226V28.9563C0.922591 30.2815 2.00071 31.3597 3.32598 31.3597C5.32967 31.3597 7.05158 32.5119 7.81995 34.3668C8.58821 36.2217 8.18545 38.2542 6.76854 39.671C5.83146 40.6081 5.83146 42.1328 6.76854 43.07L10.3518 46.6533C11.2889 47.5902 12.8136 47.5902 13.7509 46.6533C15.1696 45.2345 17.2025 44.8299 19.0568 45.598C20.9107 46.3658 22.0623 48.0893 22.0623 50.0959C22.0623 51.4211 23.1404 52.4994 24.4657 52.4994H29.5331C30.8584 52.4994 31.9365 51.4211 31.9365 50.0959C31.9365 48.0922 33.0888 46.3704 34.9436 45.602C36.7987 44.8337 38.8311 45.2366 40.2478 46.6534C41.1849 47.5903 42.7096 47.5905 43.6469 46.6534L47.2302 43.0701C48.1673 42.133 48.1673 40.6082 47.2302 39.6711C45.8133 38.2543 45.4105 36.2218 46.1788 34.3669C46.9471 32.512 48.6692 31.3598 50.6727 31.3598C51.998 31.3598 53.0761 30.2816 53.0761 28.9564V26.4226C53.0761 26.0144 52.7454 25.6836 52.3371 25.6836ZM50.7535 19.7756C51.2192 19.7756 51.5981 20.1545 51.5981 20.6201C51.5981 21.0858 51.2192 21.4647 50.7535 21.4647C50.2878 21.4647 49.9089 21.0858 49.9089 20.6201C49.9089 20.1545 50.2878 19.7756 50.7535 19.7756ZM47.6729 14.9517C48.1385 14.9517 48.5175 15.3306 48.5175 15.7963C48.5175 16.2619 48.1385 16.6409 47.6729 16.6409C47.2072 16.6409 46.8284 16.2619 46.8284 15.7963C46.8284 15.3306 47.2072 14.9517 47.6729 14.9517ZM6.32587 16.6409C5.86018 16.6409 5.48128 16.2619 5.48128 15.7963C5.48128 15.3306 5.86018 14.9517 6.32587 14.9517C6.79155 14.9517 7.17035 15.3306 7.17035 15.7963C7.17035 16.2619 6.79155 16.6409 6.32587 16.6409ZM3.24522 21.4647C2.77943 21.4647 2.40052 21.0858 2.40052 20.6201C2.40052 20.1545 2.77943 19.7756 3.24522 19.7756C3.71091 19.7756 4.0897 20.1545 4.0897 20.6201C4.0897 21.0858 3.71101 21.4647 3.24522 21.4647ZM51.5981 28.9563C51.5981 29.4665 51.183 29.8816 50.6727 29.8816C48.0599 29.8816 45.8147 31.3835 44.8133 33.8012C43.8118 36.2189 44.3374 38.8686 46.1849 40.7163C46.5458 41.077 46.5458 41.6642 46.1849 42.025L42.6016 45.6082C42.241 45.9689 41.6537 45.9691 41.2929 45.6082C39.4454 43.7607 36.7958 43.2349 34.3778 44.2366C31.9602 45.238 30.4583 47.4832 30.4583 50.096C30.4583 50.6062 30.0432 51.0214 29.5329 51.0214H24.4656C23.9553 51.0214 23.5402 50.6062 23.5402 50.096C23.5402 47.4804 22.039 45.2336 19.6224 44.2326C18.8124 43.8971 17.9766 43.7333 17.1531 43.7333C15.5195 43.7333 13.9353 44.3786 12.7057 45.6083C12.3449 45.969 11.7576 45.9692 11.397 45.6083L7.81372 42.0251C7.45287 41.6643 7.45287 41.0771 7.81372 40.7164C9.66127 38.8687 10.1869 36.219 9.18534 33.8013C8.18397 31.3836 5.93873 29.8817 3.32588 29.8817C2.81564 29.8817 2.40052 29.4666 2.40052 28.9564V27.1616H13.8986C14.2835 34.0539 20.0124 39.5438 26.9993 39.5438C33.9861 39.5438 39.715 34.0539 40.0999 27.1616H51.5981V28.9563ZM18.102 25.6836C17.6939 25.6836 17.363 26.0144 17.363 26.4226C17.363 31.7361 21.6858 36.059 26.9994 36.059C32.3128 36.059 36.6356 31.7361 36.6356 26.4226C36.6356 26.0144 36.3048 25.6836 35.8966 25.6836H18.102ZM26.9994 34.5809C22.7498 34.5809 19.2488 31.3151 18.8742 27.1616H35.1244C34.75 31.3152 31.2488 34.5809 26.9994 34.5809ZM26.9996 9.02211C29.3918 9.02211 31.338 7.07585 31.338 4.68365C31.338 2.29176 29.3919 0.345825 26.9996 0.345825C24.6073 0.345825 22.6611 2.29176 22.6611 4.68365C22.6612 7.07585 24.6074 9.02211 26.9996 9.02211ZM26.9996 1.82386C28.5767 1.82386 29.86 3.10669 29.86 4.68365C29.86 6.26082 28.5769 7.54407 26.9996 7.54407C25.4223 7.54407 24.1392 6.26092 24.1392 4.68365C24.1393 3.10669 25.4224 1.82386 26.9996 1.82386Z" fill="#3E66F3"/>
</svg>
