<svg width="46" height="46" viewBox="0 0 46 46" fill="none" xmlns="http://www.w3.org/2000/svg">
<path d="M45.2593 32.8735L40.6694 30.5786L37.7482 22.9801C37.7139 22.8902 37.6613 22.8085 37.5939 22.7398C37.5265 22.6712 37.4456 22.6172 37.3564 22.5813L19.2313 15.3361C19.1046 15.2857 18.9659 15.2734 18.8322 15.3007C18.6986 15.3281 18.5759 15.3939 18.4792 15.49L16.0618 17.9074C15.9669 18.0042 15.9021 18.1265 15.8754 18.2594C15.8487 18.3923 15.8612 18.5301 15.9114 18.6561L23.1565 36.7812C23.1925 36.8704 23.2465 36.9513 23.3151 37.0187C23.3837 37.0861 23.4655 37.1386 23.5553 37.173L31.1538 40.0942L33.4487 44.684C33.4971 44.7852 33.569 44.8733 33.6585 44.9409C33.748 45.0085 33.8524 45.0536 33.963 45.0724C34.0002 45.0758 34.0377 45.0758 34.0749 45.0724C34.2602 45.0716 34.4376 44.9973 34.5682 44.866L45.4412 33.993C45.5212 33.9158 45.5817 33.8206 45.6176 33.7153C45.6535 33.6101 45.6638 33.4978 45.6476 33.3878C45.6288 33.2772 45.5837 33.1728 45.5162 33.0833C45.4486 32.9938 45.3605 32.9218 45.2593 32.8735ZM17.3772 18.5651L17.7655 18.1803L26.7878 27.2026C26.1932 28.0452 25.9364 29.0802 26.0682 30.103C26.2 31.1257 26.7107 32.0619 27.4995 32.7262C28.2882 33.3905 29.2976 33.7347 30.3278 33.6906C31.3581 33.6466 32.3344 33.2176 33.0636 32.4884C33.7928 31.7592 34.2218 30.7829 34.2659 29.7526C34.3099 28.7223 33.9657 27.713 33.3014 26.9243C32.6371 26.1355 31.701 25.6247 30.6782 25.493C29.6554 25.3612 28.6204 25.618 27.7779 26.2126L18.7555 17.1903L19.1404 16.8019L36.5518 23.7672L39.298 30.9109L31.4861 38.7228L24.3425 35.9766L17.3772 18.5651ZM30.1498 26.8563C30.7786 26.8572 31.3876 27.0762 31.8732 27.4758C32.3587 27.8754 32.6906 28.431 32.8125 29.0479C32.9343 29.6648 32.8385 30.3049 32.5413 30.8591C32.2441 31.4133 31.764 31.8473 31.1828 32.0872C30.6015 32.3271 29.955 32.358 29.3535 32.1748C28.752 31.9915 28.2326 31.6053 27.8838 31.0821C27.5351 30.5588 27.3785 29.9308 27.4409 29.3051C27.5032 28.6794 27.7805 28.0946 28.2257 27.6504C28.7365 27.1412 29.4285 26.8556 30.1498 26.8563ZM34.2674 43.1902L32.5182 39.6918L40.2601 31.9499L43.7585 33.6991L34.2674 43.1902Z" fill="#3E66F3"/>
<path d="M14.2496 37.7258C14.1158 37.5993 13.9387 37.5288 13.7546 37.5288C13.5705 37.5288 13.3934 37.5993 13.2596 37.7258L12.371 38.6143C9.99972 35.396 8.69157 31.5181 8.62886 27.521C8.56615 23.5239 9.75201 19.6068 12.0212 16.3157C12.701 16.6898 13.4838 16.8334 14.2521 16.7252C15.0205 16.617 15.7331 16.2627 16.2832 15.7154C16.8333 15.1681 17.1912 14.4572 17.3032 13.6894C17.4153 12.9216 17.2756 12.1381 16.9049 11.4564C20.196 9.18727 24.1131 8.00141 28.1102 8.06412C32.1073 8.12683 35.9852 9.43498 39.2036 11.8063L38.301 12.6843C38.1709 12.8155 38.0979 12.9929 38.0981 13.1776C38.0976 13.2697 38.1152 13.361 38.15 13.4462C38.1848 13.5315 38.2361 13.609 38.301 13.6744L41.3866 16.7355C41.5177 16.8658 41.695 16.9389 41.8798 16.9389C42.0647 16.9389 42.242 16.8658 42.3731 16.7355L45.4412 13.6674C45.5062 13.6024 45.5578 13.5252 45.5931 13.4403C45.6283 13.3554 45.6464 13.2643 45.6464 13.1724C45.6464 13.0804 45.6283 12.9894 45.5931 12.9044C45.5578 12.8195 45.5062 12.7423 45.4412 12.6774L42.3731 9.60927C42.242 9.47896 42.0647 9.40581 41.8798 9.40581C41.695 9.40581 41.5177 9.47896 41.3866 9.60927L40.2006 10.7882C37.2777 8.58878 33.8221 7.20692 30.1886 6.78455C26.5551 6.36218 22.8747 6.91451 19.5252 8.38484L23.5588 4.3617C24.0162 4.58024 24.5362 4.6297 25.0265 4.50133C25.5169 4.37295 25.9459 4.07503 26.2375 3.66041C26.5291 3.2458 26.6644 2.7413 26.6194 2.23641C26.5744 1.73153 26.3521 1.2589 25.9918 0.902367C25.6315 0.545839 25.1565 0.328463 24.6512 0.288804C24.1458 0.249144 23.6428 0.389764 23.2313 0.685718C22.8198 0.981672 22.5264 1.41383 22.4032 1.90551C22.28 2.3972 22.3349 2.91663 22.5583 3.37166L15.7504 10.19C15.0592 9.72633 14.2284 9.51704 13.4 9.59787C12.5716 9.6787 11.797 10.0447 11.2084 10.6332C10.6199 11.2218 10.2539 11.9964 10.1731 12.8248C10.0923 13.6532 10.3016 14.484 10.7652 15.1752L3.9469 21.983C3.49009 21.7604 2.96916 21.707 2.47667 21.8322C1.98418 21.9575 1.55204 22.2532 1.25703 22.667C0.962015 23.0807 0.823242 23.5857 0.865368 24.0921C0.907494 24.5985 1.12779 25.0736 1.48711 25.4329C1.84643 25.7922 2.3215 26.0125 2.82791 26.0546C3.33432 26.0967 3.83926 25.958 4.25301 25.663C4.66677 25.3679 4.96253 24.9358 5.08775 24.4433C5.21297 23.9508 5.15953 23.4299 4.93694 22.9731L8.97057 18.9499C7.49878 22.2985 6.9447 25.9784 7.36522 29.6119C7.78575 33.2454 9.16572 36.7015 11.3635 39.6254L10.181 40.8113C10.0507 40.9424 9.97755 41.1198 9.97755 41.3046C9.97755 41.4894 10.0507 41.6668 10.181 41.7979L13.2491 44.866C13.3797 44.9973 13.5571 45.0716 13.7424 45.0724C13.8347 45.0724 13.9261 45.0542 14.0114 45.0188C14.0966 44.9834 14.174 44.9314 14.2391 44.866L17.3107 41.7979C17.441 41.6668 17.5142 41.4894 17.5142 41.3046C17.5142 41.1198 17.441 40.9424 17.3107 40.8113L14.2496 37.7258ZM41.8868 11.0856L43.9649 13.1636L41.8868 15.2417L39.8088 13.1636L41.8868 11.0856ZM23.9576 1.91283C24.0616 1.80802 24.1944 1.73644 24.3391 1.7072C24.4838 1.67796 24.6339 1.69236 24.7704 1.74858C24.9069 1.8048 25.0237 1.9003 25.1058 2.02298C25.188 2.14565 25.2318 2.28996 25.2318 2.43759C25.2318 2.58523 25.188 2.72954 25.1058 2.85221C25.0237 2.97488 24.9069 3.07038 24.7704 3.1266C24.6339 3.18282 24.4838 3.19722 24.3391 3.16798C24.1944 3.13874 24.0616 3.06717 23.9576 2.96235C23.8887 2.89347 23.834 2.81167 23.7966 2.72162C23.7593 2.63158 23.7401 2.53506 23.7401 2.43759C23.7401 2.34012 23.7593 2.2436 23.7966 2.15356C23.834 2.06352 23.8887 1.98171 23.9576 1.91283ZM12.2031 11.6278C12.4062 11.4237 12.6477 11.2617 12.9137 11.1512C13.1797 11.0406 13.4648 10.9837 13.7529 10.9837C14.0409 10.9837 14.3261 11.0406 14.592 11.1512C14.858 11.2617 15.0995 11.4237 15.3026 11.6278C15.6098 11.9345 15.819 12.3253 15.9039 12.7509C15.9889 13.1765 15.9456 13.6177 15.7797 14.0187C15.6138 14.4197 15.3327 14.7625 14.9719 15.0037C14.6111 15.2449 14.1868 15.3736 13.7529 15.3736C13.3189 15.3736 12.8947 15.2449 12.5339 15.0037C12.1731 14.7625 11.8919 14.4197 11.726 14.0187C11.5601 13.6177 11.5169 13.1765 11.6018 12.7509C11.6867 12.3253 11.896 11.9345 12.2031 11.6278ZM3.54109 24.4319C3.39824 24.551 3.21602 24.6124 3.03021 24.604C2.84441 24.5956 2.66846 24.5181 2.53694 24.3865C2.40543 24.255 2.32785 24.0791 2.31945 23.8933C2.31106 23.7075 2.37245 23.5252 2.49157 23.3824C2.63158 23.2448 2.82003 23.1677 3.01633 23.1677C3.21263 23.1677 3.40108 23.2448 3.54109 23.3824C3.61005 23.4513 3.66476 23.5331 3.70209 23.6231C3.73942 23.7132 3.75864 23.8097 3.75864 23.9072C3.75864 24.0046 3.73942 24.1011 3.70209 24.1912C3.66476 24.2812 3.61005 24.363 3.54109 24.4319ZM13.7529 43.3686L11.6748 41.2906L13.7529 39.2126L15.8309 41.2906L13.7529 43.3686Z" fill="#3E66F3"/>
</svg>
