<?xml version="1.0" encoding="UTF-8"?> <svg xmlns="http://www.w3.org/2000/svg" xmlns:xlink="http://www.w3.org/1999/xlink" id="_Слой_2" data-name="Слой 2" viewBox="0 0 366.2 441.14"> <defs> <style> .cls-1 { fill: url(#_Безымянный_градиент_10-10); } .cls-2 { fill: #fc8c04; } .cls-3 { fill: url(#_Безымянный_градиент_10); } .cls-4 { fill: url(#_Безымянный_градиент_10-2); } .cls-5 { fill: url(#_Безымянный_градиент_10-3); } .cls-6 { fill: url(#_Безымянный_градиент_10-4); } .cls-7 { fill: url(#_Безымянный_градиент_10-5); } .cls-8 { fill: url(#_Безымянный_градиент_10-6); } .cls-9 { fill: url(#_Безымянный_градиент_10-7); } .cls-10 { fill: url(#_Безымянный_градиент_10-8); } .cls-11 { fill: url(#_Безымянный_градиент_10-9); } </style> <linearGradient id="_Безымянный_градиент_10" data-name="Безымянный градиент 10" x1="389.71" y1="786.44" x2="382.5" y2="602.5" gradientTransform="translate(1407 -1162.24) rotate(-171.21) scale(2.45 -2.45)" gradientUnits="userSpaceOnUse"> <stop offset="0" stop-color="#fd6b06"></stop> <stop offset="1" stop-color="#ffc305"></stop> </linearGradient> <linearGradient id="_Безымянный_градиент_10-2" data-name="Безымянный градиент 10" x1="383.6" y1="786.68" x2="376.38" y2="602.74" gradientTransform="translate(1407 -1162.24) rotate(-171.21) scale(2.45 -2.45)" xlink:href="#_Безымянный_градиент_10"></linearGradient> <linearGradient id="_Безымянный_градиент_10-3" data-name="Безымянный градиент 10" x1="453.54" y1="783.94" x2="446.33" y2="600" xlink:href="#_Безымянный_градиент_10"></linearGradient> <linearGradient id="_Безымянный_градиент_10-4" data-name="Безымянный градиент 10" x1="473.63" y1="783.15" x2="466.42" y2="599.21" gradientTransform="translate(1407 -1162.24) rotate(-171.21) scale(2.45 -2.45)" xlink:href="#_Безымянный_градиент_10"></linearGradient> <linearGradient id="_Безымянный_градиент_10-5" data-name="Безымянный градиент 10" x1="419.1" y1="785.29" x2="411.88" y2="601.35" gradientTransform="translate(1407 -1162.24) rotate(-171.21) scale(2.45 -2.45)" xlink:href="#_Безымянный_градиент_10"></linearGradient> <linearGradient id="_Безымянный_градиент_10-6" data-name="Безымянный градиент 10" x1="461.56" y1="783.63" x2="454.34" y2="599.68" gradientTransform="translate(1407 -1162.24) rotate(-171.21) scale(2.45 -2.45)" xlink:href="#_Безымянный_градиент_10"></linearGradient> <linearGradient id="_Безымянный_градиент_10-7" data-name="Безымянный градиент 10" x1="368.72" y1="787.27" x2="361.5" y2="603.32" gradientTransform="translate(1407 -1162.24) rotate(-171.21) scale(2.45 -2.45)" xlink:href="#_Безымянный_градиент_10"></linearGradient> <linearGradient id="_Безымянный_градиент_10-8" data-name="Безымянный градиент 10" x1="382.14" y1="786.74" x2="374.92" y2="602.8" gradientTransform="translate(1407 -1162.24) rotate(-171.21) scale(2.45 -2.45)" xlink:href="#_Безымянный_градиент_10"></linearGradient> <linearGradient id="_Безымянный_градиент_10-9" data-name="Безымянный градиент 10" x1="383.8" y1="786.67" x2="376.59" y2="602.73" gradientTransform="translate(1407 -1162.24) rotate(-171.21) scale(2.45 -2.45)" xlink:href="#_Безымянный_градиент_10"></linearGradient> <linearGradient id="_Безымянный_градиент_10-10" data-name="Безымянный градиент 10" x1="393.85" y1="786.28" x2="386.64" y2="602.34" gradientTransform="translate(1407 -1162.24) rotate(-171.21) scale(2.45 -2.45)" xlink:href="#_Безымянный_градиент_10"></linearGradient> </defs> <g id="_Слой_1-2" data-name="Слой 1"> <g id="logo-logo"> <g> <path class="cls-2" d="M177.12,230.19c-.25,.74-.25,1.47-.25,2.45,.25,3.92,2.21,8.09,5.64,11.76,2.45,2.7,5.88,4.9,9.8,6.86v-.98c-3.68-1.72-6.86-3.92-9.56-6.62-3.43-3.43-5.39-7.84-5.64-11.76v-1.72Z"></path> <path class="cls-3" d="M217.54,278.46c2.21,25.24,3.92,53.17,4.9,68.85h8.33v-.98h-8.09c-.98-15.44-2.7-43.12-5.15-67.87q.25,0,0,0Z"></path> <path class="cls-4" d="M249.64,228.23c-.25,.98-.25,2.21-.49,3.43-.25,3.92-.25,9.07-.25,15.93,3.68-2.21,6.62-4.9,8.82-7.84,2.21-3.19,3.68-6.62,4.17-9.8-.49,2.94-1.96,6.13-3.92,8.82-2.21,2.94-5.15,5.64-8.82,7.84,0-6.62,0-12.01,.25-15.93,0-.74,.25-1.47,.25-2.45Z"></path> <path class="cls-5" d="M83.28,290.95c3.92-2.45,12.25,7.6,8.82,10.78-10.78,10.54-22.05,26.95-36.51,32.83-8.33,3.43-22.05-15.19-15.68-21.81,9.56-10.05,28.91-13.23,43.37-21.81Z"></path> <path class="cls-6" d="M6.83,193.68c18.62-7.11,40.92-1.47,59.54,5.15,5.15,1.72,5.15,14.95,0,16.17-19.11,4.41-41.16,11.27-59.78,6.62-9.07-2.45-8.58-24.75,.25-27.93Z"></path> <path class="cls-7" d="M219.26,77.79c.49,6.13-16.66,5.15-18.62-.74-5.88-20.09-14.7-44.84-13.23-68.85,.74-11.03,35.77-10.78,39.2-.25,6.62,20.34-9.07,45.08-7.35,69.83Z"></path> <path class="cls-8" d="M101.65,123.61c-19.11-9.31-42.39-22.54-47.29-43.37-2.94-12.99,20.83-31.12,31.85-23.77,13.97,9.56,18.13,34.55,33.08,55.13,4.17,5.88-11.27,15.19-17.64,12.01Z"></path> <path class="cls-9" d="M310.16,96.41c-4.41,2.94-16.91-.98-14.95-6.13,7.6-19.6,14.7-45.33,31.36-60.52,8.33-7.6,28.67,10.29,25.97,21.07-4.9,20.09-25.24,33.81-42.39,45.57Z"></path> <path class="cls-10" d="M184.71,414.68h0c2.45,.24,5.64,.49,9.8,.74,2.45,.25,5.88,.49,10.54,.74h0c18.13,.98,37.73,1.47,51.7,.25,6.62-.49,12.5,4.41,12.99,11.03,.49,6.62-4.41,12.5-11.03,12.99-15.19,1.23-35.77,.74-54.88-.25h0c-2.7-.25-6.37-.49-10.78-.74-2.7-.24-6.13-.49-10.29-.74h0c-6.62-.49-11.52-6.37-11.03-12.99,.49-6.62,6.37-11.52,12.99-11.03Z"></path> <path class="cls-11" d="M175.16,386.02c35.53,1.72,62.48-1.47,89.67-4.9,1.72-.24,3.19-.49,4.9-.49,6.62-.74,12.74,3.92,13.48,10.54,.74,6.62-3.92,12.74-10.54,13.48-1.72,.25-3.19,.49-4.9,.49-28.18,3.43-56.11,6.86-93.84,4.9-6.62-.24-11.76-5.88-11.52-12.74,.49-6.37,6.13-11.52,12.74-11.27Z"></path> <path class="cls-1" d="M91.12,222.1c1.47,24.26,7.35,41.41,15.19,55.13,7.84,13.72,17.64,24.01,27.44,34.06h0v.25h0c1.72,1.72,3.43,3.68,5.15,5.64,1.47,1.96,2.94,3.92,4.17,5.88,5.64,8.82,8.09,18.13,5.64,27.44-2.21,7.6,3.43,17.64,11.03,19.85h0c5.39,1.47,11.03,2.7,16.42,3.92,5.64,.98,11.52,1.96,17.64,2.7,21.07,2.21,43.86,2.21,62.23-.74h0c.49,0,1.72-.24,3.43-.74,.49,0,.74-.25,1.23-.25,11.03-2.21,38.22-7.6,62.48-17.15,15.19-5.88,14.46-23.03,14.21-34.55-.25-9.31-.25-20.09,4.41-30.38,2.45-.98,6.86-1.96,9.31-2.7,.74-.24,1.72-.49,2.45-.74,4.9-1.23,8.82-4.66,11.03-9.31,4.9-10.78-1.23-23.77-16.66-54.15-.49-.98-.98-1.96-1.47-2.94-.25-6.86-.49-16.66-.49-16.91-5.15-57.82-41.41-92.37-85.26-105.6-17.15-5.15-35.28-7.11-52.92-5.64-17.89,1.23-35.53,5.88-51.45,13.48-39.45,19.36-68.85,57.82-65.17,113.44Zm158.52,6.13c.49-3.43,1.47-5.88,2.94-7.11,.49-.49,1.23-.74,2.21-.98h1.72c.49,0,.98,.25,1.47,.49,1.72,.74,3.19,1.96,3.68,3.43,.25,.74,.49,1.47,.49,2.45s0,2.21-.25,3.19v.25c-.49,2.94-1.96,6.13-3.92,8.82-2.21,2.94-5.15,5.64-8.82,7.84,0-6.62,0-12.01,.25-15.93,0-.74,.25-1.47,.25-2.45h0Zm-31.85,49.25c1.72,0,3.19,0,4.9-.25,1.72,0,3.19-.25,4.9-.49,.98,24.99,2.7,52.68,3.68,69.34h-8.33c-.98-15.44-2.7-42.88-4.9-67.87-.25-.24-.25-.49-.25-.74Zm-46.8-139.66c12.25-5.88,25.97-9.31,39.94-10.54,13.97-.98,28.18,.25,41.41,4.41,28.67,8.82,52.92,30.14,60.52,65.17v1.72c.74,10.05,1.47,12.01,.49,23.28,0,1.23,5.88,9.07,6.37,10.05,1.23,2.45,2.45,4.66,3.68,7.11,2.45,4.9,5.39,10.78,8.09,16.42,2.21,4.9,.74,10.78-3.92,13.23-3.68,1.96-6.86,4.66-8.82,8.58-9.31,17.64-9.07,34.3-9.07,46.55,0,2.94,0,6.86-.25,9.31-20.83,7.35-56.11,10.54-56.11,10.54-1.23-19.11-2.7-47.53-3.68-72.03l2.21-.74v-.24c10.05-4.41,18.38-10.54,24.26-18.62,6.13-8.33,9.07-17.89,8.58-27.2-.25-2.94-.74-5.64-1.72-8.33-2.7-7.6-9.07-14.21-17.15-17.4-1.96-.74-4.17-1.47-6.37-1.72-2.7-.49-5.15-.49-7.84-.25-5.15,.74-10.05,2.7-14.21,6.13-4.66,3.92-10.54,11.76-11.03,25.97-.25,5.39-.25,13.72,0,24.26-1.72,.25-3.68,.49-5.64,.49-1.96,.25-3.68,.25-5.64,.25-.98-10.54-2.21-18.62-2.94-24.01-2.45-13.97-9.07-21.07-14.21-24.5-3.19-2.21-6.62-3.43-10.54-3.92-1.47-.25-2.94-.25-4.41-.25-4.66,0-9.31,1.23-13.72,3.43-6.13,3.19-10.78,8.58-13.48,14.7l-1.47,4.66c-.49,2.7-.74,5.64-.49,8.33,.49,9.07,4.66,18.38,11.76,25.73,6.62,7.11,15.68,12.25,26.22,15.44v.24l2.45,.49c2.21,24.26,3.92,51.94,5.15,69.83-.74,0-1.23-.24-1.96-.24-1.96-.25-3.92-.49-5.88-.74,0,0-3.19-.74-6.86-1.47-6.13-1.23-10.78-6.13-11.52-12.25-.98-7.84-3.43-18.87-10.05-25.24-28.18-27.93-38.22-66.64-38.22-67.62h0c-1.23-5.15-1.96-11.03-2.45-17.4-1.96-39.69,19.36-67.62,48.51-81.59Zm21.07,112.46c-3.68-1.72-6.86-3.92-9.56-6.62-3.43-3.43-5.39-7.84-5.64-11.76v-1.47h0c0-.25,0-.49,.25-.98v-.25c.49-1.47,1.72-2.7,3.19-3.68,.98-.49,2.21-.98,3.19-.98h.74c.49,0,.98,.25,1.47,.49,1.96,1.23,3.68,4.66,4.41,9.31,.74,3.68,1.47,9.07,2.21,15.68q0,.25-.25,.25Z"></path> </g> </g> </g> </svg> 