<svg width="159" height="36" viewBox="0 0 159 36" fill="none" xmlns="http://www.w3.org/2000/svg">
<path d="M17.3818 23.6394L8.34326 27.1157L15.9913 34.0685L25.3775 30.2445L17.3818 23.6394Z" fill="white"/>
<mask id="mask0_820_2" style="mask-type:luminance" maskUnits="userSpaceOnUse" x="5" y="22" width="24" height="14">
<path d="M6.97359 25.389L15.1019 22.6181L25.7228 31.9073C26.3671 32.4713 27.3471 32.4062 27.9111 31.761C28.098 31.5471 28.2155 31.2968 28.2662 31.0372H28.2679C28.1749 31.5818 27.7944 32.0587 27.2347 32.2481L16.5968 35.8746L16.5959 35.8729C16.0895 36.0437 15.5086 35.9482 15.0773 35.5711L6.51615 28.0837C6.28531 27.9036 6.10183 27.6567 6.00121 27.3582C5.72556 26.5457 6.16102 25.6638 6.97359 25.389ZM17.7941 24.9814L10.5164 27.4622L16.4429 32.6455L23.6952 30.1731L17.7941 24.9814Z" fill="white"/>
</mask>
<g mask="url(#mask0_820_2)">
<path d="M28.2679 22.6172H5.72559V36.0446H28.2679V22.6172Z" fill="#3E66F3"/>
<g filter="url(#filter0_f_820_2)">
<path d="M22.6418 15.2961L9.03857 21.9591L15.3867 31.2874L29.8968 24.6243L22.6418 15.2961Z" fill="#1C1C25" fill-opacity="0.33"/>
</g>
<g filter="url(#filter1_f_820_2)">
<path d="M30.9851 22.2488L17.3818 28.9119L23.73 38.2402L38.2401 31.5771L30.9851 22.2488Z" fill="#1C1C25" fill-opacity="0.33"/>
</g>
</g>
<path d="M22.5966 1.73819L12.5151 5.21457L20.8584 12.8626L30.2447 8.34331L22.5966 1.73819Z" fill="white"/>
<mask id="mask1_820_2" style="mask-type:luminance" maskUnits="userSpaceOnUse" x="11" y="0" width="22" height="14">
<path d="M31.4304 10.3576L23.3731 13.1048L12.9635 3.99908C12.5323 3.62197 11.9514 3.52642 11.4449 3.69722L11.4441 3.69553L22.0473 0.0799611L22.0481 0.0816522C22.5546 -0.0891488 23.1355 0.00639834 23.5667 0.383514L31.8886 7.66201C32.1195 7.84211 32.303 8.08901 32.4036 8.38749C32.6784 9.20006 32.2429 10.082 31.4304 10.3576ZM20.6741 10.7423L27.8875 8.28348L22.2003 3.30912L14.9869 5.76797L20.6741 10.7423Z" fill="white"/>
</mask>
<g mask="url(#mask1_820_2)">
<path d="M32.6784 -0.0891418H11.4441V13.104H32.6784V-0.0891418Z" fill="#3E66F3"/>
<g filter="url(#filter2_f_820_2)">
<path d="M12.6057 -2.78111L-4.17163 5.62014L3.65778 17.3819L21.5536 8.98064L12.6057 -2.78111Z" fill="#1C1C25" fill-opacity="0.33"/>
</g>
<g filter="url(#filter3_f_820_2)">
<path d="M23.7302 8.34331L6.95288 16.7446L14.7823 28.5063L32.6781 20.1051L23.7302 8.34331Z" fill="#1C1C25" fill-opacity="0.33"/>
</g>
</g>
<path d="M11.1243 5.90984L2.43335 9.03858L23.9869 29.2016L27.1156 28.5063L28.8538 19.4677L20.1629 12.1673L11.1243 5.90984Z" fill="white"/>
<mask id="mask2_820_2" style="mask-type:luminance" maskUnits="userSpaceOnUse" x="0" y="3" width="31" height="30">
<path d="M30.397 20.2708L28.2696 31.0381L28.2662 31.0372C28.2155 31.2968 28.0979 31.5479 27.9111 31.761C27.3471 32.4053 26.3671 32.4704 25.7228 31.9073L0.597275 9.93146C0.36644 9.75136 0.182955 9.50446 0.0823348 9.20598C-0.192469 8.39341 0.242989 7.5115 1.05556 7.23669L11.444 3.69553L11.4448 3.69722C11.9513 3.52642 12.5322 3.62197 12.9634 3.99908L29.8085 18.7328C30.2668 19.0795 30.5145 19.668 30.397 20.2708ZM25.7397 27.8013L27.1729 20.5473L11.597 6.92384L4.59842 9.30998L25.7397 27.8013Z" fill="white"/>
</mask>
<g mask="url(#mask2_820_2)">
<path d="M30.5146 3.52558H-0.192383V32.4713H30.5146V3.52558Z" fill="#3E66F3"/>
</g>
<path d="M52.6463 27.811L46.9451 9.23326H51.4505L55.0659 22.6938L58.4866 9.23326H62.7974L66.2181 22.6938L69.8057 9.23326H74.3111L68.6377 27.811H64.1601L60.6559 14.7677L57.1239 27.811H52.6463Z" fill="#1C1C25"/>
<path d="M80.2948 28.0891C78.9414 28.0891 77.7084 27.8388 76.596 27.3382C75.4835 26.8191 74.5936 26.0589 73.9261 25.0577C73.2586 24.038 72.9249 22.7772 72.9249 21.2754C72.9249 19.8849 73.2308 18.6797 73.8427 17.66C74.4545 16.6403 75.2796 15.8523 76.3179 15.2961C77.3561 14.7398 78.5242 14.4617 79.822 14.4617C81.1384 14.4617 82.288 14.7028 83.2706 15.1848C84.2718 15.6669 85.0505 16.3436 85.6067 17.215C86.163 18.0679 86.4411 19.0506 86.4411 20.163C86.4411 20.4967 86.3947 20.8675 86.302 21.2754C86.2093 21.6648 86.0888 21.9985 85.9405 22.2766H76.8463C76.939 22.8699 77.1429 23.3705 77.4581 23.7784C77.7733 24.1678 78.209 24.4644 78.7652 24.6684C79.3214 24.8723 79.9611 24.9743 80.6842 24.9743C81.4444 24.9743 82.1582 24.8631 82.8256 24.6406C83.4931 24.3995 84.1235 24.0843 84.7168 23.695L85.8849 26.3927C85.0876 26.9489 84.2162 27.3753 83.2706 27.672C82.3436 27.9501 81.3517 28.0891 80.2948 28.0891ZM76.8463 19.7736H82.4919C82.5104 19.7366 82.5197 19.6995 82.5197 19.6624C82.5197 19.6253 82.5197 19.5697 82.5197 19.4955C82.5197 19.0691 82.427 18.7076 82.2416 18.4109C82.0562 18.0957 81.7688 17.8547 81.3795 17.6878C81.0087 17.5024 80.5266 17.4097 79.9333 17.4097C79.3956 17.4097 78.9043 17.5117 78.4593 17.7156C78.0329 17.901 77.6806 18.1699 77.4025 18.5221C77.1244 18.8744 76.939 19.2916 76.8463 19.7736Z" fill="#1C1C25"/>
<path d="M96.9417 28.0891C95.9776 28.0891 95.1432 27.913 94.4387 27.5607C93.7342 27.2085 93.1779 26.7357 92.77 26.1424V27.811H89.1268V9.23326H92.9647V16.1582C93.3726 15.6391 93.9103 15.2312 94.5778 14.9345C95.2452 14.6193 96.0332 14.4617 96.9417 14.4617C98.1283 14.4617 99.1851 14.7398 100.112 15.2961C101.058 15.8337 101.809 16.6125 102.365 17.6322C102.921 18.6519 103.199 19.8663 103.199 21.2754C103.199 22.6845 102.921 23.8989 102.365 24.9187C101.809 25.9384 101.058 26.7264 100.112 27.2826C99.1851 27.8203 98.1283 28.0891 96.9417 28.0891ZM96.0517 24.7518C96.6821 24.7518 97.2383 24.6128 97.7204 24.3346C98.221 24.0565 98.6011 23.6579 98.8606 23.1388C99.1388 22.6011 99.2778 21.98 99.2778 21.2754C99.2778 20.5524 99.1388 19.9312 98.8606 19.4121C98.6011 18.893 98.221 18.4943 97.7204 18.2162C97.2383 17.9381 96.6821 17.7991 96.0517 17.7991C95.4214 17.7991 94.8559 17.9381 94.3553 18.2162C93.8547 18.4943 93.4746 18.893 93.215 19.4121C92.9554 19.9312 92.8257 20.5524 92.8257 21.2754C92.8257 21.98 92.9554 22.6011 93.215 23.1388C93.4746 23.6579 93.8454 24.0565 94.3275 24.3346C94.8281 24.6128 95.4028 24.7518 96.0517 24.7518Z" fill="#1C1C25"/>
<path d="M111.28 27.811V11.3469H105.44V9.23326H119.484V11.3469H113.672V27.811H111.28Z" fill="#1C1C25"/>
<path d="M123.503 28.0891C122.205 28.0891 121.037 27.8203 119.998 27.2826C118.96 26.7449 118.144 25.9755 117.551 24.9743C116.958 23.9546 116.661 22.7216 116.661 21.2754C116.661 19.8849 116.948 18.6797 117.523 17.66C118.098 16.6403 118.877 15.8523 119.859 15.2961C120.842 14.7398 121.936 14.4617 123.141 14.4617C124.42 14.4617 125.523 14.712 126.45 15.2126C127.378 15.7132 128.091 16.39 128.592 17.2428C129.093 18.0772 129.343 19.032 129.343 20.1074C129.343 20.404 129.296 20.7378 129.204 21.1086C129.13 21.4608 129.028 21.7482 128.898 21.9707H118.969C119.062 22.8607 119.303 23.6208 119.692 24.2512C120.1 24.8631 120.647 25.3266 121.333 25.6418C122.019 25.957 122.807 26.1146 123.697 26.1146C124.569 26.1146 125.329 25.9848 125.978 25.7252C126.645 25.4471 127.285 25.0577 127.897 24.5571L128.787 26.2536C128.082 26.8655 127.285 27.329 126.395 27.6442C125.505 27.9408 124.541 28.0891 123.503 28.0891ZM118.969 20.0796H127.007C127.025 20.0425 127.035 20.0054 127.035 19.9683C127.035 19.9312 127.035 19.8756 127.035 19.8015C127.035 19.134 126.895 18.55 126.617 18.0494C126.339 17.5302 125.913 17.1316 125.338 16.8535C124.782 16.5754 124.077 16.4363 123.224 16.4363C122.557 16.4363 121.927 16.5846 121.333 16.8813C120.74 17.1594 120.239 17.5673 119.831 18.105C119.424 18.6427 119.136 19.3009 118.969 20.0796Z" fill="#1C1C25"/>
<path d="M138.981 28.0891C137.665 28.0891 136.497 27.811 135.477 27.2548C134.457 26.68 133.66 25.8828 133.085 24.8631C132.511 23.8433 132.223 22.6474 132.223 21.2754C132.223 19.9034 132.511 18.7076 133.085 17.6878C133.66 16.6681 134.457 15.8801 135.477 15.3239C136.497 14.7491 137.665 14.4617 138.981 14.4617C139.927 14.4617 140.78 14.6008 141.54 14.8789C142.319 15.157 143.005 15.5556 143.598 16.0748L142.736 17.7712C142.142 17.3077 141.521 16.974 140.872 16.7701C140.224 16.5476 139.593 16.4363 138.981 16.4363C138.091 16.4363 137.313 16.631 136.645 17.0203C135.978 17.4097 135.459 17.9659 135.088 18.689C134.717 19.4121 134.532 20.2742 134.532 21.2754C134.532 22.2766 134.717 23.1388 135.088 23.8619C135.459 24.5849 135.978 25.1412 136.645 25.5305C137.313 25.9199 138.091 26.1146 138.981 26.1146C139.593 26.1146 140.224 26.0126 140.872 25.8086C141.521 25.5861 142.142 25.2431 142.736 24.7796L143.598 26.4761C143.005 26.9952 142.319 27.3939 141.54 27.672C140.78 27.9501 139.927 28.0891 138.981 28.0891Z" fill="#1C1C25"/>
<path d="M147.097 27.811V9.23326H149.35V21.192L155.941 14.7398H158.722L153.16 20.1074L159 27.811H156.219L151.574 21.637L149.35 23.7784V27.811H147.097Z" fill="#1C1C25"/>
<defs>
<filter id="filter0_f_820_2" x="5.03857" y="11.2961" width="28.8582" height="23.9913" filterUnits="userSpaceOnUse" color-interpolation-filters="sRGB">
<feFlood flood-opacity="0" result="BackgroundImageFix"/>
<feBlend mode="normal" in="SourceGraphic" in2="BackgroundImageFix" result="shape"/>
<feGaussianBlur stdDeviation="2" result="effect1_foregroundBlur_820_2"/>
</filter>
<filter id="filter1_f_820_2" x="13.3818" y="18.2488" width="28.8582" height="23.9913" filterUnits="userSpaceOnUse" color-interpolation-filters="sRGB">
<feFlood flood-opacity="0" result="BackgroundImageFix"/>
<feBlend mode="normal" in="SourceGraphic" in2="BackgroundImageFix" result="shape"/>
<feGaussianBlur stdDeviation="2" result="effect1_foregroundBlur_820_2"/>
</filter>
<filter id="filter2_f_820_2" x="-8.17163" y="-6.78111" width="33.7251" height="28.163" filterUnits="userSpaceOnUse" color-interpolation-filters="sRGB">
<feFlood flood-opacity="0" result="BackgroundImageFix"/>
<feBlend mode="normal" in="SourceGraphic" in2="BackgroundImageFix" result="shape"/>
<feGaussianBlur stdDeviation="2" result="effect1_foregroundBlur_820_2"/>
</filter>
<filter id="filter3_f_820_2" x="2.95288" y="4.34331" width="33.7251" height="28.163" filterUnits="userSpaceOnUse" color-interpolation-filters="sRGB">
<feFlood flood-opacity="0" result="BackgroundImageFix"/>
<feBlend mode="normal" in="SourceGraphic" in2="BackgroundImageFix" result="shape"/>
<feGaussianBlur stdDeviation="2" result="effect1_foregroundBlur_820_2"/>
</filter>
</defs>
</svg>
